<?xml version="1.0" encoding="UTF-8" standalone="no"?>
<!-- Created with Inkscape (http://www.inkscape.org/) -->

<svg
   xmlns:dc="http://purl.org/dc/elements/1.1/"
   xmlns:cc="http://creativecommons.org/ns#"
   xmlns:rdf="http://www.w3.org/1999/02/22-rdf-syntax-ns#"
   xmlns:svg="http://www.w3.org/2000/svg"
   xmlns="http://www.w3.org/2000/svg"
   xmlns:sodipodi="http://sodipodi.sourceforge.net/DTD/sodipodi-0.dtd"
   xmlns:inkscape="http://www.inkscape.org/namespaces/inkscape"
   width="11.652819in"
   height="7.776926in"
   viewBox="0 0 295.98161 197.53394"
   version="1.1"
   id="svg9570"
   inkscape:version="0.92.4 (5da689c313, 2019-01-14)"
   sodipodi:docname="Face Shield V2 (4).svg">
  <defs
     id="defs9564" />
  <sodipodi:namedview
     id="base"
     pagecolor="#ffffff"
     bordercolor="#666666"
     borderopacity="1.0"
     inkscape:pageopacity="0.0"
     inkscape:pageshadow="2"
     inkscape:zoom="7.9195959"
     inkscape:cx="576.2526"
     inkscape:cy="579.25391"
     inkscape:document-units="in"
     inkscape:current-layer="layer1"
     showgrid="false"
     units="in"
     fit-margin-top="0"
     fit-margin-left="0"
     fit-margin-right="0"
     fit-margin-bottom="0"
     inkscape:window-width="2560"
     inkscape:window-height="1057"
     inkscape:window-x="-8"
     inkscape:window-y="-8"
     inkscape:window-maximized="1" />
  <metadata
     id="metadata9567">
    <rdf:RDF>
      <cc:Work
         rdf:about="">
        <dc:format>image/svg+xml</dc:format>
        <dc:type
           rdf:resource="http://purl.org/dc/dcmitype/StillImage" />
        <dc:title></dc:title>
      </cc:Work>
    </rdf:RDF>
  </metadata>
  <g
     inkscape:label="Layer 1"
     inkscape:groupmode="layer"
     id="layer1"
     transform="translate(161.43748,-18.003847)">
    <path
       style="opacity:1;fill:none;fill-opacity:1;stroke:#ff0000;stroke-width:0.05;stroke-miterlimit:4;stroke-dasharray:none;stroke-opacity:1"
       d="m -53.583615,36.332712 c 0.07176,-2.806515 -2.434272,-8.031083 -4.773347,-9.704837 -3.409368,-2.439618 -8.47725,-0.352955 -12.563052,0.585999 -5.54265,1.273757 -15.680187,6.72465 -15.680187,6.72465 3.054985,-1.795542 6.748357,-3.075887 8.239813,-6.164977 0.306572,-0.634974 0.241988,-1.477381 -0.06099,-2.1141 -1.849755,-3.887232 -3.214793,-3.68353 -6.12468,-2.66237 -0.403411,-0.772187 -0.653468,-1.008565 -0.48731,-1.194753 0.115147,-0.129328 0.429286,-0.239077 1.027827,-0.498157 L -85.09073,18.51104 c -0.118665,-0.306705 -0.466804,-0.447675 -0.773615,-0.314695 l -5.4932,2.380218 c -0.306599,0.132926 -0.46048,0.491887 -0.341577,0.797877 l 1.085215,2.793127 1.111541,-0.481647 c 0.416454,-0.18042 0.332793,0.852831 0.495062,1.267645 -1.161362,0.546655 -2.388182,1.115933 -3.668501,1.631421 -2.794899,1.125484 -5.493861,2.341536 -8.112675,3.629739 -0.4535,-0.739272 -0.71382,-0.94869 -0.56121,-1.145672 0.10631,-0.136816 0.41214,-0.267891 0.99166,-0.567399 l -1.27381,-2.712482 c -0.13949,-0.296942 -0.49647,-0.414047 -0.79325,-0.260456 l -5.31749,2.750211 c -0.29718,0.153538 -0.42579,0.521785 -0.28628,0.819071 l 1.27331,2.712508 1.0764,-0.556551 c 0.40331,-0.208386 0.38026,0.804757 0.57052,1.207664 -20.24223,11.042888 -34.78138,23.259309 -43.54152,41.271904 -0.78391,-0.290697 -1.10794,-0.299561 -1.10794,-0.544671 0,-0.173302 0.16107,-0.464582 0.43457,-1.056772 l -2.67165,-1.358583 c -0.29242,-0.148696 -0.64601,-0.02196 -0.786,0.281623 l -2.50735,5.436367 c -0.1401,0.303477 -0.0156,0.673259 0.27699,0.822166 l 2.67116,1.358583 0.50747,-1.100191 c 0.18579,-0.40259 0.76602,0.363935 1.16321,0.587561 -1.9317,4.527576 -3.51049,9.16887 -4.73509,13.882369 v -0.0098 c -0.86061,-0.135811 -1.19028,-0.07276 -1.24126,-0.317289 -0.0353,-0.169597 0.0642,-0.487812 0.21238,-1.122918 l -2.89026,-0.791157 c -0.3166,-0.08678 -0.63767,0.109009 -0.71366,0.434578 l -1.35858,5.83065 c -0.076,0.325543 0.12099,0.662622 0.4377,0.749326 l 2.89028,0.791157 0.2749,-1.179777 c 0.102,-0.437462 0.84328,0.218652 1.27537,0.345731 -1.35884,6.539124 -2.04671,13.187604 -2.06084,19.837034 0,0 0,0.003 0,0.003 0.014,6.64943 0.702,13.29844 2.06084,19.83753 -0.43209,0.12708 -1.17337,0.78322 -1.27537,0.34574 l -0.2749,-1.17978 -2.89028,0.79116 c -0.31671,0.0867 -0.51369,0.42378 -0.4377,0.74932 l 1.35858,5.83065 c 0.076,0.3256 0.39706,0.52136 0.71366,0.43461 l 2.89026,-0.79119 c -0.1482,-0.6351 -0.24771,-0.95332 -0.21238,-1.12292 0.051,-0.24452 0.38065,-0.18147 1.24126,-0.31728 v -0.0103 c 1.2246,4.7135 2.80339,9.35476 4.73509,13.88237 -0.39719,0.2236 -0.97742,0.99015 -1.16321,0.58756 l -0.50747,-1.10022 -2.67116,1.35858 c -0.2926,0.14891 -0.41709,0.51869 -0.27699,0.82217 l 2.50735,5.43637 c 0.13999,0.30361 0.49358,0.43031 0.786,0.28165 l 2.67165,-1.35925 c -0.2735,-0.59219 -0.43489,-0.8835 -0.43457,-1.05677 0,-0.24511 0.32403,-0.25397 1.10794,-0.54467 8.76014,18.01259 23.29929,30.22899 43.54152,41.27188 -0.19026,0.4029 -0.16721,1.41599 -0.57052,1.20769 l -1.0764,-0.55656 -1.27331,2.71249 c -0.13951,0.29731 -0.0109,0.66548 0.28628,0.81907 l 5.31749,2.75023 c 0.29678,0.1536 0.65376,0.0359 0.79325,-0.26045 l 1.27381,-2.71251 c -0.57952,-0.29959 -0.88535,-0.43058 -0.99166,-0.5674 -0.15261,-0.19701 0.10771,-0.40637 0.56121,-1.14567 2.618814,1.2882 5.317776,2.50425 8.112675,3.62977 1.280319,0.51548 2.507139,1.08471 3.668501,1.63142 -0.162269,0.4147 -0.07861,1.44801 -0.495062,1.26761 l -1.111541,-0.48162 -1.085215,2.7931 c -0.118903,0.30602 0.03498,0.66501 0.341577,0.79791 l 5.4932,2.38022 c 0.306811,0.1329 0.65495,-0.0101 0.773615,-0.31473 l 1.085189,-2.7931 c -0.598541,-0.2591 -0.91268,-0.36888 -1.027827,-0.49815 -0.166158,-0.18622 0.0839,-0.42257 0.48731,-1.19478 2.909887,1.02121 4.274925,1.22483 6.12468,-2.66237 0.302975,-0.6367 0.367559,-1.47918 0.06099,-2.11408 -1.491456,-3.08909 -5.184828,-4.36948 -8.239813,-6.165 0,0 10.137537,5.45095 15.680187,6.72465 4.085802,0.93901 9.153684,3.02615 12.563052,0.58653 3.254348,-2.3287 6.831277,-11.53107 3.340364,-11.53107 -5.678884,0 -12.908624,0.43087 -17.666626,-0.50644 -8.045661,-1.77985 -14.875245,-7.05617 -21.723217,-11.57602 -3.080544,-2.03322 -6.012579,-4.33607 -8.629969,-6.9386 -2.77968,-2.76394 -5.24293,-5.86364 -7.42074,-9.12296 -2.47052,-3.69734 -4.52549,-7.67763 -6.34018,-11.73726 -1.39026,-3.11021 -2.47875,-6.35426 -3.46075,-9.61647 -0.97597,-3.24194 -1.767,-6.5432 -2.40814,-9.86763 -0.53707,-2.78519 -0.90913,-5.6029 -1.20147,-8.42428 -0.29022,-2.80054 -0.48474,-5.61412 -0.54726,-8.42894 -0.0164,-0.74425 -0.0241,-1.48881 -0.0228,-2.23345 -0.003,-0.74467 0.006,-1.48924 0.0228,-2.23346 0.0625,-2.81482 0.25704,-5.6284 0.54726,-8.42894 0.29234,-2.82138 0.6644,-5.63911 1.20147,-8.424303 0.64114,-3.324437 1.43217,-6.625696 2.40814,-9.867609 0.982,-3.262206 2.07049,-6.506289 3.46075,-9.616466 1.81469,-4.059635 3.86966,-8.03992 6.34018,-11.737261 2.17781,-3.259322 4.64106,-6.359048 7.42074,-9.122965 2.61739,-2.602548 5.549425,-4.905402 8.629969,-6.938592 6.847972,-4.519877 13.677556,-9.796145 21.723217,-11.57605 4.758002,-0.93726 11.987742,-0.50591 17.666626,-0.50591 0.981816,0 1.404911,-0.728054 1.432983,-1.826233 z"
       id="path9314-2-7-2"
       inkscape:connector-curvature="0" />
    <path
       inkscape:connector-curvature="0"
       id="path9430-0"
       d="m -62.224525,34.693565 a 2.5150001,2.5150001 0 0 1 -2.515,-2.515 2.5150001,2.5150001 0 0 1 2.515,-2.515 2.5150001,2.5150001 0 0 1 2.515,2.515 2.5150001,2.5150001 0 0 1 -2.515,2.515 z"
       style="opacity:1;fill:none;fill-opacity:1;stroke:#ff0000;stroke-width:0.0508;stroke-miterlimit:4;stroke-dasharray:none;stroke-opacity:1" />
    <path
       inkscape:connector-curvature="0"
       id="path9430-0-7"
       d="m -62.224525,198.52784 a 2.5150001,2.5150001 0 0 0 -2.515,2.515 2.5150001,2.5150001 0 0 0 2.515,2.515 2.5150001,2.5150001 0 0 0 2.515,-2.515 2.5150001,2.5150001 0 0 0 -2.515,-2.515 z"
       style="opacity:1;fill:none;fill-opacity:1;stroke:#ff0000;stroke-width:0.0508;stroke-miterlimit:4;stroke-dasharray:none;stroke-opacity:1" />
    <path
       style="opacity:1;fill:none;fill-opacity:1;stroke:#ff0000;stroke-width:0.0508;stroke-miterlimit:4;stroke-dasharray:none;stroke-opacity:1"
       d="m -102.90514,195.98891 a 4.7375,4.7375 0 0 1 -4.73749,-4.7375 4.7375,4.7375 0 0 1 4.73749,-4.73744 4.7375,4.7375 0 0 1 4.737497,4.73744 4.7375,4.7375 0 0 1 -4.737497,4.7375 z"
       id="path9102-9-8-6"
       inkscape:connector-curvature="0" />
    <path
       style="opacity:1;fill:none;fill-opacity:1;stroke:#ff0000;stroke-width:0.0508;stroke-miterlimit:4;stroke-dasharray:none;stroke-opacity:1"
       d="m -117.90754,183.85596 a 4.7375,4.7375 0 0 1 -4.73751,-4.7375 4.7375,4.7375 0 0 1 4.73751,-4.7375 4.7375,4.7375 0 0 1 4.73749,4.7375 4.7375,4.7375 0 0 1 -4.73749,4.7375 z"
       id="path9097-7-4-5"
       inkscape:connector-curvature="0" />
    <path
       style="opacity:1;fill:none;fill-opacity:1;stroke:#ff0000;stroke-width:0.0508;stroke-miterlimit:4;stroke-dasharray:none;stroke-opacity:1"
       d="m -129.44661,168.48982 a 4.7375,4.7375 0 0 1 -4.7375,-4.7375 4.7375,4.7375 0 0 1 4.7375,-4.7375 4.7375,4.7375 0 0 1 4.7375,4.7375 4.7375,4.7375 0 0 1 -4.7375,4.7375 z"
       id="path0770-2-1-6"
       inkscape:connector-curvature="0" />
    <path
       style="opacity:1;fill:none;fill-opacity:1;stroke:#ff0000;stroke-width:0.0508;stroke-miterlimit:4;stroke-dasharray:none;stroke-opacity:1"
       d="m -137.22773,150.44463 a 4.7375,4.7375 0 0 1 -4.73751,-4.7375 4.7375,4.7375 0 0 1 4.73751,-4.7375 4.7375,4.7375 0 0 1 4.73749,4.7375 4.7375,4.7375 0 0 1 -4.73749,4.7375 z"
       id="path3724-0-3-15"
       inkscape:connector-curvature="0" />
    <path
       style="opacity:1;fill:none;fill-opacity:1;stroke:#ff0000;stroke-width:0.0508;stroke-miterlimit:4;stroke-dasharray:none;stroke-opacity:1"
       d="m -141.1091,131.17635 a 4.7375,4.7375 0 0 1 -4.7375,-4.7375 4.7375,4.7375 0 0 1 4.7375,-4.7375 4.7375,4.7375 0 0 1 4.7375,4.7375 4.7375,4.7375 0 0 1 -4.7375,4.7375 z"
       id="path0863-0-2-0"
       inkscape:connector-curvature="0" />
    <path
       style="opacity:1;fill:none;fill-opacity:1;stroke:#ff0000;stroke-width:0.0508;stroke-miterlimit:4;stroke-dasharray:none;stroke-opacity:1"
       d="m -141.11638,111.52097 a 4.7375,4.7375 0 0 1 -4.7375,-4.7375 4.7375,4.7375 0 0 1 4.7375,-4.7375 4.7375,4.7375 0 0 1 4.73749,4.7375 4.7375,4.7375 0 0 1 -4.73749,4.7375 z"
       id="path0078-9-8-7"
       inkscape:connector-curvature="0" />
    <path
       style="opacity:1;fill:none;fill-opacity:1;stroke:#ff0000;stroke-width:0.0508;stroke-miterlimit:4;stroke-dasharray:none;stroke-opacity:1"
       d="m -137.23397,92.253994 a 4.7375,4.7375 0 0 1 -4.7375,-4.737502 4.7375,4.7375 0 0 1 4.7375,-4.7375 4.7375,4.7375 0 0 1 4.7375,4.7375 4.7375,4.7375 0 0 1 -4.7375,4.737502 z"
       id="path0948-6-0-1"
       inkscape:connector-curvature="0" />
    <path
       style="opacity:1;fill:none;fill-opacity:1;stroke:#ff0000;stroke-width:0.0508;stroke-miterlimit:4;stroke-dasharray:none;stroke-opacity:1"
       d="m -129.44719,74.213173 a 4.7375,4.7375 0 0 1 -4.7375,-4.7375 4.7375,4.7375 0 0 1 4.7375,-4.737499 4.7375,4.7375 0 0 1 4.7375,4.737499 4.7375,4.7375 0 0 1 -4.7375,4.7375 z"
       id="path7145-6-5-91"
       inkscape:connector-curvature="0" />
    <path
       style="opacity:1;fill:none;fill-opacity:1;stroke:#ff0000;stroke-width:0.0508;stroke-miterlimit:4;stroke-dasharray:none;stroke-opacity:1"
       d="m -117.90219,58.850782 a 4.7375,4.7375 0 0 1 -4.7375,-4.7375 4.7375,4.7375 0 0 1 4.7375,-4.737499 4.7375,4.7375 0 0 1 4.73751,4.737499 4.7375,4.7375 0 0 1 -4.73751,4.7375 z"
       id="path4874-6-2-5"
       inkscape:connector-curvature="0" />
    <path
       style="opacity:1;fill:none;fill-opacity:1;stroke:#ff0000;stroke-width:0.0508;stroke-miterlimit:4;stroke-dasharray:none;stroke-opacity:1"
       d="m -102.9076,46.706664 a 4.7375,4.7375 0 0 1 -4.7375,-4.737501 4.7375,4.7375 0 0 1 4.7375,-4.737499 4.7375,4.7375 0 0 1 4.737497,4.737499 4.7375,4.7375 0 0 1 -4.737497,4.737501 z"
       id="path8636-5-9-7"
       inkscape:connector-curvature="0" />
    <path
       style="opacity:1;fill:none;fill-opacity:1;stroke:#ff0000;stroke-width:0.05;stroke-miterlimit:4;stroke-dasharray:none;stroke-opacity:1"
       d="M 8.5543054,36.215122 C 8.6260604,33.408607 6.1200329,28.184039 3.7809576,26.510285 0.37158969,24.070667 -4.6962923,26.15733 -8.7820939,27.096284 c -5.5426501,1.273757 -15.6801871,6.72465 -15.6801871,6.72465 3.054985,-1.795542 6.748357,-3.075887 8.239813,-6.164977 0.306572,-0.634974 0.241988,-1.477381 -0.06099,-2.1141 -1.849755,-3.887232 -3.214793,-3.68353 -6.12468,-2.66237 -0.403411,-0.772187 -0.653468,-1.008565 -0.48731,-1.194753 0.115147,-0.129328 0.429286,-0.239077 1.027827,-0.498157 L -22.95281,18.39345 c -0.118665,-0.306705 -0.466804,-0.447675 -0.773615,-0.314695 l -5.4932,2.380218 c -0.306599,0.132926 -0.46048,0.491887 -0.341577,0.797877 l 1.085215,2.793127 1.111541,-0.481647 c 0.416454,-0.18042 0.332793,0.852831 0.495062,1.267645 -1.161362,0.546655 -2.388182,1.115933 -3.668501,1.631421 -2.794899,1.125484 -5.493861,2.341536 -8.11268,3.629739 -0.453496,-0.739272 -0.713819,-0.94869 -0.561208,-1.145672 0.10631,-0.136816 0.412142,-0.267891 0.991659,-0.567399 l -1.27381,-2.712482 c -0.139489,-0.296942 -0.496465,-0.414047 -0.793248,-0.260456 l -5.31749,2.750211 c -0.29718,0.153538 -0.425794,0.521785 -0.286279,0.819071 l 1.273307,2.712508 1.076405,-0.556551 c 0.403304,-0.208386 0.380259,0.804757 0.570521,1.207664 -20.242239,11.042888 -34.781384,23.259309 -43.541526,41.271904 -0.783908,-0.290697 -1.107943,-0.299561 -1.107943,-0.544671 0,-0.173302 0.161078,-0.464582 0.434578,-1.056772 l -2.671657,-1.358583 c -0.292417,-0.148696 -0.646006,-0.02196 -0.785997,0.281623 l -2.507351,5.436367 c -0.140096,0.303477 -0.01561,0.673259 0.276993,0.822166 l 2.671154,1.358583 0.50747,-1.100191 c 0.185791,-0.40259 0.766022,0.363935 1.163215,0.587561 -1.931697,4.527576 -3.510492,9.16887 -4.73509,13.882369 v -0.0098 c -0.86061,-0.135811 -1.190281,-0.07276 -1.241266,-0.317289 -0.03532,-0.169597 0.06419,-0.487812 0.212381,-1.122918 l -2.890255,-0.791157 c -0.3166,-0.08678 -0.637672,0.109009 -0.713661,0.434578 l -1.358582,5.83065 c -0.07599,0.325543 0.120994,0.662622 0.4377,0.749326 l 2.890282,0.791157 0.274902,-1.179777 c 0.101997,-0.437462 0.84328,0.218652 1.275371,0.345731 -1.358847,6.539124 -2.046711,13.187604 -2.06084,19.837034 0,0 0,0.003 0,0.003 0.01402,6.64943 0.701993,13.29844 2.06084,19.83753 -0.432091,0.12708 -1.173374,0.78322 -1.275371,0.34574 l -0.274902,-1.17978 -2.890282,0.79116 c -0.316706,0.0867 -0.513689,0.42378 -0.4377,0.74932 l 1.358582,5.83065 c 0.07599,0.3256 0.397061,0.52136 0.713661,0.43461 l 2.890255,-0.79119 c -0.148193,-0.6351 -0.247703,-0.95332 -0.212381,-1.12292 0.05099,-0.24452 0.380656,-0.18147 1.241266,-0.31728 v -0.0103 c 1.224598,4.7135 2.803393,9.35476 4.73509,13.88237 -0.397193,0.2236 -0.977424,0.99015 -1.163215,0.58756 l -0.50747,-1.10022 -2.671154,1.35858 c -0.292603,0.14891 -0.417089,0.51869 -0.276993,0.82217 l 2.507351,5.43637 c 0.139991,0.30361 0.49358,0.43031 0.785997,0.28165 l 2.671657,-1.35925 c -0.2735,-0.59219 -0.434895,-0.8835 -0.434578,-1.05677 0,-0.24511 0.324035,-0.25397 1.107943,-0.54467 8.760142,18.01259 23.299287,30.22899 43.541526,41.27188 -0.190262,0.4029 -0.167217,1.41599 -0.570521,1.20769 l -1.076405,-0.55656 -1.273307,2.71249 c -0.139515,0.29731 -0.01085,0.66548 0.286279,0.81907 l 5.31749,2.75023 c 0.296783,0.1536 0.653759,0.0359 0.793248,-0.26045 l 1.27381,-2.71251 c -0.579517,-0.29959 -0.885349,-0.43058 -0.991659,-0.5674 -0.152611,-0.19701 0.107712,-0.40637 0.561208,-1.14567 2.618819,1.2882 5.317781,2.50425 8.11268,3.62977 1.280319,0.51548 2.507139,1.08471 3.668501,1.63142 -0.162269,0.4147 -0.07861,1.44801 -0.495062,1.26761 l -1.111541,-0.48162 -1.085215,2.7931 c -0.118903,0.30602 0.03498,0.66501 0.341577,0.79791 l 5.4932,2.38022 c 0.306811,0.1329 0.65495,-0.0101 0.773615,-0.31473 l 1.085189,-2.7931 c -0.598541,-0.2591 -0.91268,-0.36888 -1.027827,-0.49815 -0.166158,-0.18622 0.0839,-0.42257 0.48731,-1.19478 2.909887,1.02121 4.274925,1.22483 6.12468,-2.66237 0.302975,-0.6367 0.367559,-1.47918 0.06099,-2.11408 -1.491456,-3.08909 -5.184828,-4.36948 -8.239813,-6.165 0,0 10.137537,5.45095 15.6801871,6.72465 4.0858016,0.93901 9.15368359,3.02615 12.5630515,0.58653 3.2543485,-2.3287 6.8312774,-11.53107 3.3403645,-11.53107 -5.6788843,0 -12.9086238,0.43087 -17.6666261,-0.50644 -8.045661,-1.77985 -14.875245,-7.05617 -21.723217,-11.57602 -3.080544,-2.03322 -6.012577,-4.33607 -8.629968,-6.9386 -2.779686,-2.76394 -5.24293,-5.86364 -7.420742,-9.12296 -2.47052,-3.69734 -4.525486,-7.67763 -6.340184,-11.73726 -1.390253,-3.11021 -2.478749,-6.35426 -3.46075,-9.61647 -0.975968,-3.24194 -1.766993,-6.5432 -2.408131,-9.86763 -0.537078,-2.78519 -0.909135,-5.6029 -1.201473,-8.42428 -0.290222,-2.80054 -0.484743,-5.61412 -0.547264,-8.42894 -0.0164,-0.74425 -0.02408,-1.48881 -0.02275,-2.23345 -0.0026,-0.74467 0.0064,-1.48924 0.02275,-2.23346 0.06252,-2.81482 0.257042,-5.6284 0.547264,-8.42894 0.292338,-2.82138 0.664395,-5.63911 1.201473,-8.424303 0.641138,-3.324437 1.432163,-6.625696 2.408131,-9.867609 0.982001,-3.262206 2.070497,-6.506289 3.46075,-9.616466 1.814698,-4.059635 3.869664,-8.03992 6.340184,-11.737261 2.177812,-3.259322 4.641056,-6.359048 7.420742,-9.122965 2.617391,-2.602548 5.549424,-4.905402 8.629968,-6.938592 6.847972,-4.519877 13.677556,-9.796145 21.723217,-11.57605 4.7580023,-0.93726 11.9877418,-0.50591 17.6666261,-0.50591 0.9818158,0 1.404911,-0.728054 1.4329833,-1.826233 z"
       id="path9314-2-7-2-8"
       inkscape:connector-curvature="0" />
    <path
       inkscape:connector-curvature="0"
       id="path9430-0-5"
       d="m -0.086605,34.575965 a 2.5150001,2.5150001 0 0 1 -2.515,-2.515 2.5150001,2.5150001 0 0 1 2.515,-2.515 2.5150001,2.5150001 0 0 1 2.515,2.515 2.5150001,2.5150001 0 0 1 -2.515,2.515 z"
       style="opacity:1;fill:none;fill-opacity:1;stroke:#ff0000;stroke-width:0.0508;stroke-miterlimit:4;stroke-dasharray:none;stroke-opacity:1" />
    <path
       inkscape:connector-curvature="0"
       id="path9430-0-7-7"
       d="m -0.086605,198.41025 a 2.5150001,2.5150001 0 0 0 -2.515,2.515 2.5150001,2.5150001 0 0 0 2.515,2.51499 2.5150001,2.5150001 0 0 0 2.515,-2.51499 2.5150001,2.5150001 0 0 0 -2.515,-2.515 z"
       style="opacity:1;fill:none;fill-opacity:1;stroke:#ff0000;stroke-width:0.0508;stroke-miterlimit:4;stroke-dasharray:none;stroke-opacity:1" />
    <path
       style="opacity:1;fill:none;fill-opacity:1;stroke:#ff0000;stroke-width:0.0508;stroke-miterlimit:4;stroke-dasharray:none;stroke-opacity:1"
       d="m -40.767229,195.87131 a 4.7375,4.7375 0 0 1 -4.73749,-4.73749 4.7375,4.7375 0 0 1 4.73749,-4.73745 4.7375,4.7375 0 0 1 4.7375,4.73745 4.7375,4.7375 0 0 1 -4.7375,4.73749 z"
       id="path9102-9-8-6-5"
       inkscape:connector-curvature="0" />
    <path
       style="opacity:1;fill:none;fill-opacity:1;stroke:#ff0000;stroke-width:0.0508;stroke-miterlimit:4;stroke-dasharray:none;stroke-opacity:1"
       d="m -55.769629,183.73836 a 4.7375,4.7375 0 0 1 -4.73751,-4.7375 4.7375,4.7375 0 0 1 4.73751,-4.73749 4.7375,4.7375 0 0 1 4.73749,4.73749 4.7375,4.7375 0 0 1 -4.73749,4.7375 z"
       id="path9097-7-4-5-2"
       inkscape:connector-curvature="0" />
    <path
       style="opacity:1;fill:none;fill-opacity:1;stroke:#ff0000;stroke-width:0.0508;stroke-miterlimit:4;stroke-dasharray:none;stroke-opacity:1"
       d="m -67.308699,168.37223 a 4.7375,4.7375 0 0 1 -4.7375,-4.73751 4.7375,4.7375 0 0 1 4.7375,-4.73749 4.7375,4.7375 0 0 1 4.7375,4.73749 4.7375,4.7375 0 0 1 -4.7375,4.73751 z"
       id="path0770-2-1-6-8"
       inkscape:connector-curvature="0" />
    <path
       style="opacity:1;fill:none;fill-opacity:1;stroke:#ff0000;stroke-width:0.0508;stroke-miterlimit:4;stroke-dasharray:none;stroke-opacity:1"
       d="m -75.089819,150.32703 a 4.7375,4.7375 0 0 1 -4.73751,-4.7375 4.7375,4.7375 0 0 1 4.73751,-4.7375 4.7375,4.7375 0 0 1 4.73749,4.7375 4.7375,4.7375 0 0 1 -4.73749,4.7375 z"
       id="path3724-0-3-15-4"
       inkscape:connector-curvature="0" />
    <path
       style="opacity:1;fill:none;fill-opacity:1;stroke:#ff0000;stroke-width:0.0508;stroke-miterlimit:4;stroke-dasharray:none;stroke-opacity:1"
       d="m -78.971189,131.05875 a 4.7375,4.7375 0 0 1 -4.7375,-4.7375 4.7375,4.7375 0 0 1 4.7375,-4.7375 4.7375,4.7375 0 0 1 4.7375,4.7375 4.7375,4.7375 0 0 1 -4.7375,4.7375 z"
       id="path0863-0-2-0-6"
       inkscape:connector-curvature="0" />
    <path
       style="opacity:1;fill:none;fill-opacity:1;stroke:#ff0000;stroke-width:0.0508;stroke-miterlimit:4;stroke-dasharray:none;stroke-opacity:1"
       d="m -78.978469,111.40338 a 4.7375,4.7375 0 0 1 -4.7375,-4.7375 4.7375,4.7375 0 0 1 4.7375,-4.7375 4.7375,4.7375 0 0 1 4.73749,4.7375 4.7375,4.7375 0 0 1 -4.73749,4.7375 z"
       id="path0078-9-8-7-5"
       inkscape:connector-curvature="0" />
    <path
       style="opacity:1;fill:none;fill-opacity:1;stroke:#ff0000;stroke-width:0.0508;stroke-miterlimit:4;stroke-dasharray:none;stroke-opacity:1"
       d="m -75.096059,92.1364 a 4.7375,4.7375 0 0 1 -4.7375,-4.737502 4.7375,4.7375 0 0 1 4.7375,-4.7375 4.7375,4.7375 0 0 1 4.7375,4.7375 4.7375,4.7375 0 0 1 -4.7375,4.737502 z"
       id="path0948-6-0-1-2"
       inkscape:connector-curvature="0" />
    <path
       style="opacity:1;fill:none;fill-opacity:1;stroke:#ff0000;stroke-width:0.0508;stroke-miterlimit:4;stroke-dasharray:none;stroke-opacity:1"
       d="m -67.309279,74.095579 a 4.7375,4.7375 0 0 1 -4.7375,-4.7375 4.7375,4.7375 0 0 1 4.7375,-4.737499 4.7375,4.7375 0 0 1 4.7375,4.737499 4.7375,4.7375 0 0 1 -4.7375,4.7375 z"
       id="path7145-6-5-91-5"
       inkscape:connector-curvature="0" />
    <path
       style="opacity:1;fill:none;fill-opacity:1;stroke:#ff0000;stroke-width:0.0508;stroke-miterlimit:4;stroke-dasharray:none;stroke-opacity:1"
       d="m -55.764279,58.733188 a 4.7375,4.7375 0 0 1 -4.7375,-4.7375 4.7375,4.7375 0 0 1 4.7375,-4.737499 4.7375,4.7375 0 0 1 4.73751,4.737499 4.7375,4.7375 0 0 1 -4.73751,4.7375 z"
       id="path4874-6-2-5-9"
       inkscape:connector-curvature="0" />
    <path
       style="opacity:1;fill:none;fill-opacity:1;stroke:#ff0000;stroke-width:0.0508;stroke-miterlimit:4;stroke-dasharray:none;stroke-opacity:1"
       d="m -40.769689,46.58907 a 4.7375,4.7375 0 0 1 -4.7375,-4.737501 4.7375,4.7375 0 0 1 4.7375,-4.737499 4.7375,4.7375 0 0 1 4.7375,4.737499 4.7375,4.7375 0 0 1 -4.7375,4.737501 z"
       id="path8636-5-9-7-3"
       inkscape:connector-curvature="0" />
    <path
       style="opacity:1;fill:none;fill-opacity:1;stroke:#ff0000;stroke-width:0.05;stroke-miterlimit:4;stroke-dasharray:none;stroke-opacity:1"
       d="m 72.884325,36.744282 c 0.07175,-2.806515 -2.434272,-8.031083 -4.773347,-9.704837 -3.409368,-2.439618 -8.47725,-0.352955 -12.563052,0.585999 -5.54265,1.273757 -15.680187,6.72465 -15.680187,6.72465 3.054985,-1.795542 6.748357,-3.075887 8.239813,-6.164977 0.306572,-0.634974 0.241988,-1.477381 -0.06099,-2.1141 -1.849755,-3.887232 -3.214793,-3.68353 -6.12468,-2.66237 -0.403411,-0.772187 -0.653468,-1.008565 -0.48731,-1.194753 0.115147,-0.129328 0.429286,-0.239077 1.027827,-0.498157 L 41.377213,18.92261 c -0.118665,-0.306705 -0.466804,-0.447675 -0.773615,-0.314695 l -5.4932,2.380218 c -0.306599,0.132926 -0.46048,0.491887 -0.341577,0.797877 l 1.085215,2.793127 1.111541,-0.481647 c 0.416454,-0.18042 0.332793,0.852831 0.495062,1.267645 -1.161362,0.546655 -2.388182,1.115933 -3.668501,1.631421 -2.794899,1.125484 -5.493861,2.341536 -8.11268,3.629739 -0.453496,-0.739272 -0.713819,-0.94869 -0.561208,-1.145672 0.10631,-0.136816 0.412142,-0.267891 0.991659,-0.567399 l -1.27381,-2.712482 C 24.69661,25.9038 24.339634,25.786695 24.042851,25.940286 l -5.31749,2.750211 c -0.29718,0.153538 -0.425794,0.521785 -0.286279,0.819071 l 1.273307,2.712508 1.076405,-0.556551 c 0.403304,-0.208386 0.380259,0.804757 0.570521,1.207664 -20.2422389,11.042888 -34.781384,23.259309 -43.541526,41.271904 -0.783908,-0.290697 -1.107943,-0.299561 -1.107943,-0.544671 0,-0.173302 0.161078,-0.464582 0.434578,-1.056772 l -2.671657,-1.358583 c -0.292417,-0.148696 -0.646006,-0.02196 -0.785997,0.281623 l -2.507351,5.436367 c -0.140096,0.303477 -0.01561,0.673259 0.276993,0.822166 l 2.671154,1.358583 0.50747,-1.100191 c 0.185791,-0.40259 0.766022,0.363935 1.163215,0.587561 -1.931697,4.527576 -3.510492,9.16887 -4.73509,13.882369 v -0.0098 c -0.86061,-0.135811 -1.190281,-0.07276 -1.241266,-0.317289 -0.03532,-0.169597 0.06419,-0.487812 0.212381,-1.122918 l -2.890255,-0.791157 c -0.3166,-0.08678 -0.637672,0.109009 -0.713661,0.434578 l -1.358582,5.83065 c -0.07599,0.325543 0.120994,0.662622 0.4377,0.749326 l 2.890282,0.791157 0.274902,-1.179777 c 0.101997,-0.437462 0.84328,0.218652 1.275371,0.345731 -1.358847,6.539124 -2.046711,13.187604 -2.06084,19.837034 0,0 0,0.003 0,0.003 0.01402,6.64943 0.701993,13.29844 2.06084,19.83753 -0.432091,0.12708 -1.173374,0.78322 -1.275371,0.34574 l -0.274902,-1.17978 -2.890282,0.79116 c -0.316706,0.0867 -0.513689,0.42378 -0.4377,0.74932 l 1.358582,5.83065 c 0.07599,0.3256 0.397061,0.52136 0.713661,0.43461 l 2.890255,-0.79119 c -0.148193,-0.6351 -0.247703,-0.95332 -0.212381,-1.12292 0.05098,-0.24452 0.380656,-0.18147 1.241266,-0.31728 v -0.0103 c 1.224598,4.7135 2.803393,9.35476 4.73509,13.88237 -0.397193,0.2236 -0.977424,0.99015 -1.163215,0.58756 l -0.50747,-1.10022 -2.671154,1.35858 c -0.292603,0.14891 -0.417089,0.51869 -0.276993,0.82217 l 2.507351,5.43637 c 0.139991,0.30361 0.49358,0.43031 0.785997,0.28165 l 2.671657,-1.35925 c -0.2735,-0.59219 -0.434895,-0.8835 -0.434578,-1.05677 0,-0.24511 0.324035,-0.25397 1.107943,-0.54467 8.760142,18.01259 23.2992871,30.22899 43.541526,41.27188 -0.190262,0.4029 -0.167217,1.41599 -0.570521,1.20769 l -1.076405,-0.55656 -1.273307,2.71249 c -0.139515,0.29731 -0.01085,0.66548 0.286279,0.81907 l 5.31749,2.75023 c 0.296783,0.1536 0.653759,0.0359 0.793248,-0.26045 l 1.27381,-2.71251 c -0.579517,-0.29959 -0.885349,-0.43058 -0.991659,-0.5674 -0.152611,-0.19701 0.107712,-0.40637 0.561208,-1.14567 2.618819,1.2882 5.317781,2.50425 8.11268,3.62977 1.280319,0.51548 2.507139,1.08471 3.668501,1.63142 -0.162269,0.4147 -0.07861,1.44801 -0.495062,1.26761 l -1.111541,-0.48162 -1.085215,2.7931 c -0.118903,0.30602 0.03498,0.66501 0.341577,0.79791 l 5.4932,2.38022 c 0.306811,0.1329 0.65495,-0.0101 0.773615,-0.31473 l 1.085189,-2.7931 c -0.598541,-0.2591 -0.91268,-0.36888 -1.027827,-0.49815 -0.166158,-0.18622 0.0839,-0.42257 0.48731,-1.19478 2.909887,1.02121 4.274925,1.22483 6.12468,-2.66237 0.302975,-0.6367 0.367559,-1.47918 0.06099,-2.11408 -1.491456,-3.08909 -5.184828,-4.36948 -8.239813,-6.165 0,0 10.137537,5.45095 15.680187,6.72465 4.085802,0.93901 9.153684,3.02615 12.563052,0.58653 3.254348,-2.3287 6.831277,-11.53107 3.340364,-11.53107 -5.678884,0 -12.908624,0.43087 -17.666626,-0.50644 -8.045661,-1.77985 -14.875245,-7.05617 -21.723217,-11.57602 -3.080544,-2.03322 -6.012577,-4.33607 -8.629968,-6.9386 -2.779686,-2.76394 -5.24293,-5.86364 -7.420742,-9.12296 -2.47052,-3.69734 -4.525486,-7.67763 -6.3401836,-11.73726 -1.3902531,-3.11021 -2.4787489,-6.35426 -3.46075,-9.61647 -0.9759685,-3.24194 -1.7669933,-6.5432 -2.4081316,-9.86763 -0.5370777,-2.78519 -0.9091348,-5.6029 -1.2014729,-8.42428 -0.2902215,-2.80054 -0.4847431,-5.61412 -0.5472642,-8.42894 -0.016404,-0.74425 -0.024077,-1.48881 -0.022754,-2.23345 -0.00265,-0.74467 0.00635,-1.48924 0.022754,-2.23346 0.062521,-2.81482 0.2570427,-5.6284 0.5472642,-8.42894 0.2923381,-2.82138 0.6643952,-5.63911 1.2014729,-8.424303 0.6411383,-3.324437 1.4321631,-6.625696 2.4081316,-9.867609 0.9820011,-3.262206 2.0704969,-6.506289 3.46075,-9.616466 1.8146976,-4.059635 3.8696636,-8.03992 6.3401836,-11.737261 2.177812,-3.259322 4.641056,-6.359048 7.420742,-9.122965 2.617391,-2.602548 5.549424,-4.905402 8.629968,-6.938592 6.847972,-4.519877 13.677556,-9.796145 21.723217,-11.57605 4.758002,-0.93726 11.987742,-0.50591 17.666626,-0.50591 0.981816,0 1.404911,-0.728054 1.432983,-1.826233 z"
       id="path9314-2-7-2-1"
       inkscape:connector-curvature="0" />
    <path
       inkscape:connector-curvature="0"
       id="path9430-0-51"
       d="m 64.243405,35.105135 a 2.5150001,2.5150001 0 0 1 -2.515,-2.515 2.5150001,2.5150001 0 0 1 2.515,-2.515 2.5150001,2.5150001 0 0 1 2.515,2.515 2.5150001,2.5150001 0 0 1 -2.515,2.515 z"
       style="opacity:1;fill:none;fill-opacity:1;stroke:#ff0000;stroke-width:0.0508;stroke-miterlimit:4;stroke-dasharray:none;stroke-opacity:1" />
    <path
       inkscape:connector-curvature="0"
       id="path9430-0-7-5"
       d="m 64.243405,198.93941 a 2.5150001,2.5150001 0 0 0 -2.515,2.515 2.5150001,2.5150001 0 0 0 2.515,2.515 2.5150001,2.5150001 0 0 0 2.515,-2.515 2.5150001,2.5150001 0 0 0 -2.515,-2.515 z"
       style="opacity:1;fill:none;fill-opacity:1;stroke:#ff0000;stroke-width:0.0508;stroke-miterlimit:4;stroke-dasharray:none;stroke-opacity:1" />
    <path
       style="opacity:1;fill:none;fill-opacity:1;stroke:#ff0000;stroke-width:0.0508;stroke-miterlimit:4;stroke-dasharray:none;stroke-opacity:1"
       d="m 23.562785,196.40048 a 4.7375,4.7375 0 0 1 -4.73749,-4.7375 4.7375,4.7375 0 0 1 4.73749,-4.73744 4.7375,4.7375 0 0 1 4.7375,4.73744 4.7375,4.7375 0 0 1 -4.7375,4.7375 z"
       id="path9102-9-8-6-4"
       inkscape:connector-curvature="0" />
    <path
       style="opacity:1;fill:none;fill-opacity:1;stroke:#ff0000;stroke-width:0.0508;stroke-miterlimit:4;stroke-dasharray:none;stroke-opacity:1"
       d="m 8.560385,184.26753 a 4.7375,4.7375 0 0 1 -4.73751,-4.7375 4.7375,4.7375 0 0 1 4.73751,-4.7375 4.7375,4.7375 0 0 1 4.73749,4.7375 4.7375,4.7375 0 0 1 -4.73749,4.7375 z"
       id="path9097-7-4-5-8"
       inkscape:connector-curvature="0" />
    <path
       style="opacity:1;fill:none;fill-opacity:1;stroke:#ff0000;stroke-width:0.0508;stroke-miterlimit:4;stroke-dasharray:none;stroke-opacity:1"
       d="m -2.978685,168.90139 a 4.7375,4.7375 0 0 1 -4.7375,-4.7375 4.7375,4.7375 0 0 1 4.7375,-4.7375 4.7375,4.7375 0 0 1 4.7375,4.7375 4.7375,4.7375 0 0 1 -4.7375,4.7375 z"
       id="path0770-2-1-6-1"
       inkscape:connector-curvature="0" />
    <path
       style="opacity:1;fill:none;fill-opacity:1;stroke:#ff0000;stroke-width:0.0508;stroke-miterlimit:4;stroke-dasharray:none;stroke-opacity:1"
       d="m -10.759805,150.8562 a 4.7375,4.7375 0 0 1 -4.73751,-4.7375 4.7375,4.7375 0 0 1 4.73751,-4.7375 4.7375,4.7375 0 0 1 4.73749,4.7375 4.7375,4.7375 0 0 1 -4.73749,4.7375 z"
       id="path3724-0-3-15-0"
       inkscape:connector-curvature="0" />
    <path
       style="opacity:1;fill:none;fill-opacity:1;stroke:#ff0000;stroke-width:0.0508;stroke-miterlimit:4;stroke-dasharray:none;stroke-opacity:1"
       d="m -14.641175,131.58792 a 4.7375,4.7375 0 0 1 -4.7375,-4.7375 4.7375,4.7375 0 0 1 4.7375,-4.7375 4.7375,4.7375 0 0 1 4.7375,4.7375 4.7375,4.7375 0 0 1 -4.7375,4.7375 z"
       id="path0863-0-2-0-2"
       inkscape:connector-curvature="0" />
    <path
       style="opacity:1;fill:none;fill-opacity:1;stroke:#ff0000;stroke-width:0.0508;stroke-miterlimit:4;stroke-dasharray:none;stroke-opacity:1"
       d="m -14.648455,111.93254 a 4.7375,4.7375 0 0 1 -4.7375,-4.7375 4.7375,4.7375 0 0 1 4.7375,-4.7375 4.7375,4.7375 0 0 1 4.73749,4.7375 4.7375,4.7375 0 0 1 -4.73749,4.7375 z"
       id="path0078-9-8-7-1"
       inkscape:connector-curvature="0" />
    <path
       style="opacity:1;fill:none;fill-opacity:1;stroke:#ff0000;stroke-width:0.0508;stroke-miterlimit:4;stroke-dasharray:none;stroke-opacity:1"
       d="m -10.766045,92.665566 a 4.7375,4.7375 0 0 1 -4.7375,-4.737502 4.7375,4.7375 0 0 1 4.7375,-4.7375 4.7375,4.7375 0 0 1 4.7375,4.7375 4.7375,4.7375 0 0 1 -4.7375,4.737502 z"
       id="path0948-6-0-1-6"
       inkscape:connector-curvature="0" />
    <path
       style="opacity:1;fill:none;fill-opacity:1;stroke:#ff0000;stroke-width:0.0508;stroke-miterlimit:4;stroke-dasharray:none;stroke-opacity:1"
       d="m -2.979265,74.624745 a 4.7375,4.7375 0 0 1 -4.7375,-4.7375 4.7375,4.7375 0 0 1 4.7375,-4.737499 4.7375,4.7375 0 0 1 4.7375,4.737499 4.7375,4.7375 0 0 1 -4.7375,4.7375 z"
       id="path7145-6-5-91-7"
       inkscape:connector-curvature="0" />
    <path
       style="opacity:1;fill:none;fill-opacity:1;stroke:#ff0000;stroke-width:0.0508;stroke-miterlimit:4;stroke-dasharray:none;stroke-opacity:1"
       d="m 8.565735,59.262354 a 4.7375,4.7375 0 0 1 -4.7375,-4.7375 4.7375,4.7375 0 0 1 4.7375,-4.737499 4.7375,4.7375 0 0 1 4.73751,4.737499 4.7375,4.7375 0 0 1 -4.73751,4.7375 z"
       id="path4874-6-2-5-94"
       inkscape:connector-curvature="0" />
    <path
       style="opacity:1;fill:none;fill-opacity:1;stroke:#ff0000;stroke-width:0.0508;stroke-miterlimit:4;stroke-dasharray:none;stroke-opacity:1"
       d="m 23.560325,47.118236 a 4.7375,4.7375 0 0 1 -4.7375,-4.737501 4.7375,4.7375 0 0 1 4.7375,-4.737499 4.7375,4.7375 0 0 1 4.7375,4.737499 4.7375,4.7375 0 0 1 -4.7375,4.737501 z"
       id="path8636-5-9-7-5"
       inkscape:connector-curvature="0" />
    <path
       style="opacity:1;fill:none;fill-opacity:1;stroke:#ff0000;stroke-width:0.05;stroke-miterlimit:4;stroke-dasharray:none;stroke-opacity:1"
       d="m 134.51761,36.771262 c 0.0718,-2.806515 -2.43428,-8.031083 -4.77335,-9.704837 -3.40937,-2.439618 -8.47725,-0.352955 -12.56305,0.585999 -5.54265,1.273757 -15.68019,6.72465 -15.68019,6.72465 3.05498,-1.795542 6.74836,-3.075887 8.23981,-6.164977 0.30657,-0.634974 0.24199,-1.477381 -0.061,-2.1141 -1.84976,-3.887232 -3.2148,-3.68353 -6.12469,-2.66237 -0.40341,-0.772187 -0.65346,-1.008565 -0.48731,-1.194753 0.11515,-0.129328 0.42929,-0.239077 1.02783,-0.498157 l -1.08519,-2.793127 c -0.11866,-0.306705 -0.4668,-0.447675 -0.77361,-0.314695 l -5.493202,2.380218 c -0.306599,0.132926 -0.46048,0.491887 -0.341577,0.797877 l 1.085215,2.793127 1.111541,-0.481647 c 0.416454,-0.18042 0.332793,0.852831 0.495062,1.267645 -1.161362,0.546655 -2.388182,1.115933 -3.668501,1.631421 -2.794899,1.125484 -5.493861,2.341536 -8.11268,3.629739 -0.453496,-0.739272 -0.713819,-0.94869 -0.561208,-1.145672 0.10631,-0.136816 0.412142,-0.267891 0.991659,-0.567399 l -1.27381,-2.712482 C 86.32989,25.93078 85.972914,25.813675 85.676131,25.967266 l -5.31749,2.750211 c -0.29718,0.153538 -0.425794,0.521785 -0.286279,0.819071 l 1.273307,2.712508 1.076405,-0.556551 c 0.403304,-0.208386 0.380259,0.804757 0.570521,1.207664 -20.242239,11.042888 -34.781384,23.259309 -43.541526,41.271904 -0.783908,-0.290697 -1.107943,-0.299561 -1.107943,-0.544671 0,-0.173302 0.161078,-0.464582 0.434578,-1.056772 L 36.106047,71.212047 C 35.81363,71.063351 35.460041,71.190087 35.32005,71.49367 l -2.507351,5.436367 c -0.140096,0.303477 -0.01561,0.673259 0.276993,0.822166 l 2.671154,1.358583 0.50747,-1.100191 c 0.185791,-0.40259 0.766022,0.363935 1.163215,0.587561 -1.931697,4.527576 -3.510492,9.16887 -4.73509,13.882369 v -0.0098 c -0.86061,-0.135811 -1.190281,-0.07276 -1.241266,-0.317289 -0.03532,-0.169597 0.06419,-0.487812 0.212381,-1.122918 l -2.890255,-0.791157 c -0.3166,-0.08678 -0.637672,0.109009 -0.713661,0.434578 l -1.358582,5.83065 c -0.07599,0.325543 0.120994,0.662622 0.4377,0.749326 l 2.890282,0.791157 0.274902,-1.179777 c 0.101997,-0.437462 0.84328,0.218652 1.275371,0.345731 -1.358847,6.539124 -2.046711,13.187604 -2.06084,19.837034 0,0 0,0.003 0,0.003 0.01402,6.64943 0.701993,13.29844 2.06084,19.83753 -0.432091,0.12708 -1.173374,0.78322 -1.275371,0.34574 l -0.274902,-1.17978 -2.890282,0.79116 c -0.316706,0.0867 -0.513689,0.42378 -0.4377,0.74932 l 1.358582,5.83065 c 0.07599,0.3256 0.397061,0.52136 0.713661,0.43461 l 2.890255,-0.79119 c -0.148193,-0.6351 -0.247703,-0.95332 -0.212381,-1.12292 0.05099,-0.24452 0.380656,-0.18147 1.241266,-0.31728 v -0.0103 c 1.224598,4.7135 2.803393,9.35476 4.73509,13.88237 -0.397193,0.2236 -0.977424,0.99015 -1.163215,0.58756 l -0.50747,-1.10022 -2.671154,1.35858 c -0.292603,0.14891 -0.417089,0.51869 -0.276993,0.82217 l 2.507351,5.43637 c 0.139991,0.30361 0.49358,0.43031 0.785997,0.28165 l 2.671657,-1.35925 c -0.2735,-0.59219 -0.434895,-0.8835 -0.434578,-1.05677 0,-0.24511 0.324035,-0.25397 1.107943,-0.54467 8.760142,18.01259 23.299287,30.22899 43.541526,41.27188 -0.190262,0.4029 -0.167217,1.41599 -0.570521,1.20769 l -1.076405,-0.55656 -1.273307,2.71249 c -0.139515,0.29731 -0.01085,0.66548 0.286279,0.81907 l 5.31749,2.75023 c 0.296783,0.1536 0.653759,0.0359 0.793248,-0.26045 l 1.27381,-2.71251 c -0.579517,-0.29959 -0.885349,-0.43058 -0.991659,-0.5674 -0.152611,-0.19701 0.107712,-0.40637 0.561208,-1.14567 2.618819,1.2882 5.317781,2.50425 8.11268,3.62977 1.280319,0.51548 2.507139,1.08471 3.668501,1.63142 -0.162269,0.4147 -0.07861,1.44801 -0.495062,1.26761 l -1.111541,-0.48162 -1.085215,2.7931 c -0.118903,0.30602 0.03498,0.66501 0.341577,0.79791 l 5.493202,2.38022 c 0.30681,0.1329 0.65495,-0.0101 0.77361,-0.31473 l 1.08519,-2.7931 c -0.59854,-0.2591 -0.91268,-0.36888 -1.02783,-0.49815 -0.16615,-0.18622 0.0839,-0.42257 0.48731,-1.19478 2.90989,1.02121 4.27493,1.22483 6.12469,-2.66237 0.30297,-0.6367 0.36755,-1.47918 0.061,-2.11408 -1.49145,-3.08909 -5.18483,-4.36948 -8.23981,-6.165 0,0 10.13754,5.45095 15.68019,6.72465 4.0858,0.93901 9.15368,3.02615 12.56305,0.58653 3.25435,-2.3287 6.83127,-11.53107 3.34036,-11.53107 -5.67888,0 -12.90862,0.43087 -17.66662,-0.50644 -8.04567,-1.77985 -14.87525,-7.05617 -21.723221,-11.57602 -3.080544,-2.03322 -6.012577,-4.33607 -8.629968,-6.9386 -2.779686,-2.76394 -5.24293,-5.86364 -7.420742,-9.12296 -2.47052,-3.69734 -4.525486,-7.67763 -6.340184,-11.73726 -1.390253,-3.11021 -2.478749,-6.35426 -3.46075,-9.61647 -0.975968,-3.24194 -1.766993,-6.5432 -2.408131,-9.86763 -0.537078,-2.78519 -0.909135,-5.6029 -1.201473,-8.42428 -0.290222,-2.80054 -0.484743,-5.61412 -0.547264,-8.42894 -0.0164,-0.74425 -0.02408,-1.48881 -0.02275,-2.23345 -0.0026,-0.74467 0.0063,-1.48924 0.02275,-2.23346 0.06252,-2.81482 0.257042,-5.6284 0.547264,-8.42894 0.292338,-2.82138 0.664395,-5.63911 1.201473,-8.424303 0.641138,-3.324437 1.432163,-6.625696 2.408131,-9.867609 0.982001,-3.262206 2.070497,-6.506289 3.46075,-9.616466 1.814698,-4.059635 3.869664,-8.03992 6.340184,-11.737261 2.177812,-3.259322 4.641056,-6.359048 7.420742,-9.122965 2.617391,-2.602548 5.549424,-4.905402 8.629968,-6.938592 6.847971,-4.519877 13.677551,-9.796145 21.723221,-11.57605 4.758,-0.93726 11.98774,-0.50591 17.66662,-0.50591 0.98182,0 1.40491,-0.728054 1.43299,-1.826233 z"
       id="path9314-2-7-2-86"
       inkscape:connector-curvature="0" />
    <path
       inkscape:connector-curvature="0"
       id="path9430-0-57"
       d="m 125.87669,35.132105 a 2.5150001,2.5150001 0 0 1 -2.515,-2.515 2.5150001,2.5150001 0 0 1 2.515,-2.515 2.5150001,2.5150001 0 0 1 2.515,2.515 2.5150001,2.5150001 0 0 1 -2.515,2.515 z"
       style="opacity:1;fill:none;fill-opacity:1;stroke:#ff0000;stroke-width:0.0508;stroke-miterlimit:4;stroke-dasharray:none;stroke-opacity:1" />
    <path
       inkscape:connector-curvature="0"
       id="path9430-0-7-1"
       d="m 125.8767,198.96639 a 2.5150001,2.5150001 0 0 0 -2.515,2.515 2.5150001,2.5150001 0 0 0 2.515,2.515 2.5150001,2.5150001 0 0 0 2.515,-2.515 2.5150001,2.5150001 0 0 0 -2.515,-2.515 z"
       style="opacity:1;fill:none;fill-opacity:1;stroke:#ff0000;stroke-width:0.0508;stroke-miterlimit:4;stroke-dasharray:none;stroke-opacity:1" />
    <path
       style="opacity:1;fill:none;fill-opacity:1;stroke:#ff0000;stroke-width:0.0508;stroke-miterlimit:4;stroke-dasharray:none;stroke-opacity:1"
       d="m 85.196073,196.42745 a 4.7375,4.7375 0 0 1 -4.73749,-4.7375 4.7375,4.7375 0 0 1 4.73749,-4.73744 4.7375,4.7375 0 0 1 4.7375,4.73744 4.7375,4.7375 0 0 1 -4.7375,4.7375 z"
       id="path9102-9-8-6-8"
       inkscape:connector-curvature="0" />
    <path
       style="opacity:1;fill:none;fill-opacity:1;stroke:#ff0000;stroke-width:0.0508;stroke-miterlimit:4;stroke-dasharray:none;stroke-opacity:1"
       d="m 70.193673,184.2945 a 4.7375,4.7375 0 0 1 -4.73751,-4.7375 4.7375,4.7375 0 0 1 4.73751,-4.7375 4.7375,4.7375 0 0 1 4.73749,4.7375 4.7375,4.7375 0 0 1 -4.73749,4.7375 z"
       id="path9097-7-4-5-6"
       inkscape:connector-curvature="0" />
    <path
       style="opacity:1;fill:none;fill-opacity:1;stroke:#ff0000;stroke-width:0.0508;stroke-miterlimit:4;stroke-dasharray:none;stroke-opacity:1"
       d="m 58.654603,168.92836 a 4.7375,4.7375 0 0 1 -4.7375,-4.7375 4.7375,4.7375 0 0 1 4.7375,-4.7375 4.7375,4.7375 0 0 1 4.7375,4.7375 4.7375,4.7375 0 0 1 -4.7375,4.7375 z"
       id="path0770-2-1-6-80"
       inkscape:connector-curvature="0" />
    <path
       style="opacity:1;fill:none;fill-opacity:1;stroke:#ff0000;stroke-width:0.0508;stroke-miterlimit:4;stroke-dasharray:none;stroke-opacity:1"
       d="m 50.873483,150.88317 a 4.7375,4.7375 0 0 1 -4.73751,-4.7375 4.7375,4.7375 0 0 1 4.73751,-4.7375 4.7375,4.7375 0 0 1 4.73749,4.7375 4.7375,4.7375 0 0 1 -4.73749,4.7375 z"
       id="path3724-0-3-15-1"
       inkscape:connector-curvature="0" />
    <path
       style="opacity:1;fill:none;fill-opacity:1;stroke:#ff0000;stroke-width:0.0508;stroke-miterlimit:4;stroke-dasharray:none;stroke-opacity:1"
       d="m 46.992113,131.61489 a 4.7375,4.7375 0 0 1 -4.7375,-4.7375 4.7375,4.7375 0 0 1 4.7375,-4.7375 4.7375,4.7375 0 0 1 4.7375,4.7375 4.7375,4.7375 0 0 1 -4.7375,4.7375 z"
       id="path0863-0-2-0-7"
       inkscape:connector-curvature="0" />
    <path
       style="opacity:1;fill:none;fill-opacity:1;stroke:#ff0000;stroke-width:0.0508;stroke-miterlimit:4;stroke-dasharray:none;stroke-opacity:1"
       d="m 46.984833,111.95952 a 4.7375,4.7375 0 0 1 -4.7375,-4.7375 4.7375,4.7375 0 0 1 4.7375,-4.7375 4.7375,4.7375 0 0 1 4.73749,4.7375 4.7375,4.7375 0 0 1 -4.73749,4.7375 z"
       id="path0078-9-8-7-0"
       inkscape:connector-curvature="0" />
    <path
       style="opacity:1;fill:none;fill-opacity:1;stroke:#ff0000;stroke-width:0.0508;stroke-miterlimit:4;stroke-dasharray:none;stroke-opacity:1"
       d="m 50.867243,92.692538 a 4.7375,4.7375 0 0 1 -4.7375,-4.737502 4.7375,4.7375 0 0 1 4.7375,-4.7375 4.7375,4.7375 0 0 1 4.7375,4.7375 4.7375,4.7375 0 0 1 -4.7375,4.737502 z"
       id="path0948-6-0-1-8"
       inkscape:connector-curvature="0" />
    <path
       style="opacity:1;fill:none;fill-opacity:1;stroke:#ff0000;stroke-width:0.0508;stroke-miterlimit:4;stroke-dasharray:none;stroke-opacity:1"
       d="m 58.654023,74.651717 a 4.7375,4.7375 0 0 1 -4.7375,-4.7375 4.7375,4.7375 0 0 1 4.7375,-4.737499 4.7375,4.7375 0 0 1 4.7375,4.737499 4.7375,4.7375 0 0 1 -4.7375,4.7375 z"
       id="path7145-6-5-91-71"
       inkscape:connector-curvature="0" />
    <path
       style="opacity:1;fill:none;fill-opacity:1;stroke:#ff0000;stroke-width:0.0508;stroke-miterlimit:4;stroke-dasharray:none;stroke-opacity:1"
       d="m 70.199023,59.289326 a 4.7375,4.7375 0 0 1 -4.7375,-4.7375 4.7375,4.7375 0 0 1 4.7375,-4.737499 4.7375,4.7375 0 0 1 4.73751,4.737499 4.7375,4.7375 0 0 1 -4.73751,4.7375 z"
       id="path4874-6-2-5-5"
       inkscape:connector-curvature="0" />
    <path
       style="opacity:1;fill:none;fill-opacity:1;stroke:#ff0000;stroke-width:0.0508;stroke-miterlimit:4;stroke-dasharray:none;stroke-opacity:1"
       d="m 85.193613,47.145208 a 4.7375,4.7375 0 0 1 -4.7375,-4.737501 4.7375,4.7375 0 0 1 4.7375,-4.737499 4.7375,4.7375 0 0 1 4.7375,4.737499 4.7375,4.7375 0 0 1 -4.7375,4.737501 z"
       id="path8636-5-9-7-1"
       inkscape:connector-curvature="0" />
  </g>
</svg>
