  0
SECTION
  2
HEADER
  9
$ACADVER
  1
AC1014
  9
$HANDSEED
  5
FFFF
  9
$MEASUREMENT
 70
     1
  0
ENDSEC
  0
SECTION
  2
TABLES
  0
TABLE
  2
VPORT
  5
8
330
0
100
AcDbSymbolTable
 70
     4
  0
VPORT
  5
2E
330
8
100
AcDbSymbolTableRecord
100
AcDbViewportTableRecord
  2
*ACTIVE
 70
     0
 10
0.0
 20
0.0
 11
1.0
 21
1.0
 12
210.0
 22
148.5
 13
0.0
 23
0.0
 14
10.0
 24
10.0
 15
10.0
 25
10.0
 16
0.0
 26
0.0
 36
1.0
 17
0.0
 27
0.0
 37
0.0
 40
341.0
 41
1.24
 42
50.0
 43
0.0
 44
0.0
 50
0.0
 51
0.0
 71
     0
 72
   100
 73
     1
 74
     3
 75
     0
 76
     0
 77
     0
 78
     0
  0
ENDTAB
  0
TABLE
  2
LTYPE
  5
5
330
0
100
AcDbSymbolTable
 70
     1
  0
LTYPE
  5
14
330
5
100
AcDbSymbolTableRecord
100
AcDbLinetypeTableRecord
  2
BYBLOCK
 70
     0
  3

 72
    65
 73
     0
 40
0.0
  0
LTYPE
  5
15
330
5
100
AcDbSymbolTableRecord
100
AcDbLinetypeTableRecord
  2
BYLAYER
 70
     0
  3

 72
    65
 73
     0
 40
0.0
  0
LTYPE
  5
16
330
5
100
AcDbSymbolTableRecord
100
AcDbLinetypeTableRecord
  2
CONTINUOUS
 70
     0
  3
Solid line
 72
    65
 73
     0
 40
0.0
  0
ENDTAB
  0
TABLE
  2
LAYER
  5
2
100
AcDbSymbolTable
 70
2
  0
LAYER
  5
50
100
AcDbSymbolTableRecord
100
AcDbLayerTableRecord
  2
0
 70
0
  6
CONTINUOUS
  0
LAYER
  5
51
100
AcDbSymbolTableRecord
100
AcDbLayerTableRecord
  2
Layer_1
 70
0
  6
CONTINUOUS
  0
ENDTAB
  0
TABLE
  2
STYLE
  5
3
330
0
100
AcDbSymbolTable
 70
     1
  0
STYLE
  5
11
330
3
100
AcDbSymbolTableRecord
100
AcDbTextStyleTableRecord
  2
STANDARD
 70
     0
 40
0.0
 41
1.0
 50
0.0
 71
     0
 42
2.5
  3
txt
  4

  0
ENDTAB
  0
TABLE
  2
VIEW
  5
6
330
0
100
AcDbSymbolTable
 70
     0
  0
ENDTAB
  0
TABLE
  2
UCS
  5
7
330
0
100
AcDbSymbolTable
 70
     0
  0
ENDTAB
  0
TABLE
  2
APPID
  5
9
330
0
100
AcDbSymbolTable
 70
     2
  0
APPID
  5
12
330
9
100
AcDbSymbolTableRecord
100
AcDbRegAppTableRecord
  2
ACAD
 70
     0
  0
ENDTAB
  0
TABLE
  2
DIMSTYLE
  5
A
330
0
100
AcDbSymbolTable
 70
     1
  0
DIMSTYLE
105
27
330
A
100
AcDbSymbolTableRecord
100
AcDbDimStyleTableRecord
  2
ISO-25
 70
     0
  3

  4

  5

  6

  7

 40
1.0
 41
2.5
 42
0.625
 43
3.75
 44
1.25
 45
0.0
 46
0.0
 47
0.0
 48
0.0
140
2.5
141
2.5
142
0.0
143
0.03937007874016
144
1.0
145
0.0
146
1.0
147
0.625
 71
     0
 72
     0
 73
     0
 74
     0
 75
     0
 76
     0
 77
     1
 78
     8
170
     0
171
     3
172
     1
173
     0
174
     0
175
     0
176
     0
177
     0
178
     0
270
     2
271
     2
272
     2
273
     2
274
     3
340
11
275
     0
280
     0
281
     0
282
     0
283
     0
284
     8
285
     0
286
     0
287
     3
288
     0
  0
ENDTAB
  0
TABLE
  2
BLOCK_RECORD
  5
1
330
0
100
AcDbSymbolTable
 70
     1
  0
BLOCK_RECORD
  5
1F
330
1
100
AcDbSymbolTableRecord
100
AcDbBlockTableRecord
  2
*MODEL_SPACE
  0
BLOCK_RECORD
  5
1B
330
1
100
AcDbSymbolTableRecord
100
AcDbBlockTableRecord
  2
*PAPER_SPACE
  0
ENDTAB
  0
ENDSEC
  0
SECTION
  2
BLOCKS
  0
BLOCK
  5
20
330
1F
100
AcDbEntity
  8
0
100
AcDbBlockBegin
  2
*MODEL_SPACE
 70
     0
 10
0.0
 20
0.0
 30
0.0
  3
*MODEL_SPACE
  1

  0
ENDBLK
  5
21
330
1F
100
AcDbEntity
  8
0
100
AcDbBlockEnd
  0
BLOCK
  5
1C
330
1B
100
AcDbEntity
 67
     1
  8
0
100
AcDbBlockBegin
  2
*PAPER_SPACE
  1

  0
ENDBLK
  5
1D
330
1B
100
AcDbEntity
 67
     1
  8
0
100
AcDbBlockEnd
  0
ENDSEC
  0
SECTION
  2
ENTITIES
  0
SPLINE
  5
100
100
AcDbEntity
  8
Layer_1
 62
1
100
AcDbSpline
 70
8
 71
3
 72
8
 73
4
 74
0
 40
0
 40
0
 40
0
 40
0
 40
1
 40
1
 40
1
 40
1
 10
407.636615
 20
677.310378
 30
0.0
 10
407.907834
 20
687.917678
 30
0.0
 10
398.436217
 20
707.664075
 30
0.0
 10
389.595620
 20
713.990074
 30
0.0
  0
SPLINE
  5
101
100
AcDbEntity
  8
Layer_1
 62
1
100
AcDbSpline
 70
8
 71
3
 72
8
 73
4
 74
0
 40
0
 40
0
 40
0
 40
0
 40
1
 40
1
 40
1
 40
1
 10
389.595620
 20
713.990074
 30
0.0
 10
376.709821
 20
723.210676
 30
0.0
 10
357.555623
 20
715.324077
 30
0.0
 10
342.113223
 20
711.775274
 30
0.0
  0
SPLINE
  5
102
100
AcDbEntity
  8
Layer_1
 62
1
100
AcDbSpline
 70
8
 71
3
 72
8
 73
4
 74
0
 40
0
 40
0
 40
0
 40
0
 40
1
 40
1
 40
1
 40
1
 10
342.113223
 20
711.775274
 30
0.0
 10
321.164627
 20
706.961075
 30
0.0
 10
282.849530
 20
686.359277
 30
0.0
 10
282.849530
 20
686.359277
 30
0.0
  0
SPLINE
  5
103
100
AcDbEntity
  8
Layer_1
 62
1
100
AcDbSpline
 70
8
 71
3
 72
8
 73
4
 74
0
 40
0
 40
0
 40
0
 40
0
 40
1
 40
1
 40
1
 40
1
 10
282.849530
 20
686.359277
 30
0.0
 10
294.395929
 20
693.145577
 30
0.0
 10
308.355129
 20
697.984676
 30
0.0
 10
313.992128
 20
709.659975
 30
0.0
  0
SPLINE
  5
104
100
AcDbEntity
  8
Layer_1
 62
1
100
AcDbSpline
 70
8
 71
3
 72
8
 73
4
 74
0
 40
0
 40
0
 40
0
 40
0
 40
1
 40
1
 40
1
 40
1
 10
313.992128
 20
709.659975
 30
0.0
 10
315.150825
 20
712.059877
 30
0.0
 10
314.906728
 20
715.243777
 30
0.0
 10
313.761614
 20
717.650274
 30
0.0
  0
SPLINE
  5
105
100
AcDbEntity
  8
Layer_1
 62
1
100
AcDbSpline
 70
8
 71
3
 72
8
 73
4
 74
0
 40
0
 40
0
 40
0
 40
0
 40
1
 40
1
 40
1
 40
1
 10
313.761614
 20
717.650274
 30
0.0
 10
306.770415
 20
732.342173
 30
0.0
 10
301.611217
 20
731.572275
 30
0.0
 10
290.613220
 20
727.712773
 30
0.0
  0
SPLINE
  5
106
100
AcDbEntity
  8
Layer_1
 62
1
100
AcDbSpline
 70
8
 71
3
 72
8
 73
4
 74
0
 40
0
 40
0
 40
0
 40
0
 40
1
 40
1
 40
1
 40
1
 10
290.613220
 20
727.712773
 30
0.0
 10
289.088517
 20
730.631275
 30
0.0
 10
288.143420
 20
731.524672
 30
0.0
 10
288.771418
 20
732.228375
 30
0.0
  0
SPLINE
  5
107
100
AcDbEntity
  8
Layer_1
 62
1
100
AcDbSpline
 70
8
 71
3
 72
8
 73
4
 74
0
 40
0
 40
0
 40
0
 40
0
 40
1
 40
1
 40
1
 40
1
 10
288.771418
 20
732.228375
 30
0.0
 10
289.206619
 20
732.717174
 30
0.0
 10
290.393916
 20
733.131973
 30
0.0
 10
292.656118
 20
734.111173
 30
0.0
  0
SPLINE
  5
108
100
AcDbEntity
  8
Layer_1
 62
1
100
AcDbSpline
 70
8
 71
3
 72
8
 73
4
 74
0
 40
0
 40
0
 40
0
 40
0
 40
1
 40
1
 40
1
 40
1
 10
288.554617
 20
744.667872
 30
0.0
 10
288.106119
 20
745.827072
 30
0.0
 10
286.790319
 20
746.359872
 30
0.0
 10
285.630718
 20
745.857270
 30
0.0
  0
LWPOLYLINE
  5
109
100
AcDbEntity
  8
Layer_1
 62
1
100
AcDbPolyline
 90
2
 70
0
 10
292.656118
 20
734.111173
 30
0.0
 10
288.554617
 20
744.667872
 30
0.0
  0
SPLINE
  5
10a
100
AcDbEntity
  8
Layer_1
 62
1
100
AcDbSpline
 70
8
 71
3
 72
8
 73
4
 74
0
 40
0
 40
0
 40
0
 40
0
 40
1
 40
1
 40
1
 40
1
 10
264.869019
 20
736.861172
 30
0.0
 10
263.710220
 20
736.358774
 30
0.0
 10
263.128623
 20
735.002072
 30
0.0
 10
263.578020
 20
733.845574
 30
0.0
  0
LWPOLYLINE
  5
10b
100
AcDbEntity
  8
Layer_1
 62
1
100
AcDbPolyline
 90
2
 70
0
 10
285.630718
 20
745.857270
 30
0.0
 10
264.869019
 20
736.861172
 30
0.0
  0
SPLINE
  5
10c
100
AcDbEntity
  8
Layer_1
 62
1
100
AcDbSpline
 70
8
 71
3
 72
8
 73
4
 74
0
 40
0
 40
0
 40
0
 40
0
 40
1
 40
1
 40
1
 40
1
 10
271.880719
 20
725.109273
 30
0.0
 10
273.454718
 20
725.791175
 30
0.0
 10
273.138519
 20
721.885975
 30
0.0
 10
273.751819
 20
720.318174
 30
0.0
  0
SPLINE
  5
10d
100
AcDbEntity
  8
Layer_1
 62
1
100
AcDbSpline
 70
8
 71
3
 72
8
 73
4
 74
0
 40
0
 40
0
 40
0
 40
0
 40
1
 40
1
 40
1
 40
1
 10
273.751819
 20
720.318174
 30
0.0
 10
269.362420
 20
718.252076
 30
0.0
 10
264.725620
 20
716.100475
 30
0.0
 10
259.886620
 20
714.152174
 30
0.0
  0
SPLINE
  5
10e
100
AcDbEntity
  8
Layer_1
 62
1
100
AcDbSpline
 70
8
 71
3
 72
8
 73
4
 74
0
 40
0
 40
0
 40
0
 40
0
 40
1
 40
1
 40
1
 40
1
 10
259.886620
 20
714.152174
 30
0.0
 10
249.323223
 20
709.898376
 30
0.0
 10
239.122423
 20
705.302275
 30
0.0
 10
229.224544
 20
700.433477
 30
0.0
  0
SPLINE
  5
10f
100
AcDbEntity
  8
Layer_1
 62
1
100
AcDbSpline
 70
8
 71
3
 72
8
 73
4
 74
0
 40
0
 40
0
 40
0
 40
0
 40
1
 40
1
 40
1
 40
1
 10
229.224544
 20
700.433477
 30
0.0
 10
227.510529
 20
703.227575
 30
0.0
 10
226.526642
 20
704.019076
 30
0.0
 10
227.103436
 20
704.763575
 30
0.0
  0
SPLINE
  5
110
100
AcDbEntity
  8
Layer_1
 62
1
100
AcDbSpline
 70
8
 71
3
 72
8
 73
4
 74
0
 40
0
 40
0
 40
0
 40
0
 40
1
 40
1
 40
1
 40
1
 10
227.103436
 20
704.763575
 30
0.0
 10
227.505237
 20
705.280675
 30
0.0
 10
228.661130
 20
705.776076
 30
0.0
 10
230.851442
 20
706.908075
 30
0.0
  0
LWPOLYLINE
  5
111
100
AcDbEntity
  8
Layer_1
 62
1
100
AcDbPolyline
 90
3
 70
0
 10
263.578020
 20
733.845574
 30
0.0
 10
267.679619
 20
723.288875
 30
0.0
 10
271.880719
 20
725.109273
 30
0.0
  0
SPLINE
  5
112
100
AcDbEntity
  8
Layer_1
 62
1
100
AcDbSpline
 70
8
 71
3
 72
8
 73
4
 74
0
 40
0
 40
0
 40
0
 40
0
 40
1
 40
1
 40
1
 40
1
 10
226.037042
 20
717.159974
 30
0.0
 10
225.509836
 20
718.282275
 30
0.0
 10
224.160620
 20
718.724876
 30
0.0
 10
223.038932
 20
718.144375
 30
0.0
  0
LWPOLYLINE
  5
113
100
AcDbEntity
  8
Layer_1
 62
1
100
AcDbPolyline
 90
2
 70
0
 10
230.851442
 20
706.908075
 30
0.0
 10
226.037042
 20
717.159974
 30
0.0
  0
SPLINE
  5
114
100
AcDbEntity
  8
Layer_1
 62
1
100
AcDbSpline
 70
8
 71
3
 72
8
 73
4
 74
0
 40
0
 40
0
 40
0
 40
0
 40
1
 40
1
 40
1
 40
1
 10
202.941334
 20
707.749878
 30
0.0
 10
201.818134
 20
707.169577
 30
0.0
 10
201.332049
 20
705.777777
 30
0.0
 10
201.859331
 20
704.654177
 30
0.0
  0
LWPOLYLINE
  5
115
100
AcDbEntity
  8
Layer_1
 62
1
100
AcDbPolyline
 90
2
 70
0
 10
223.038932
 20
718.144375
 30
0.0
 10
202.941334
 20
707.749878
 30
0.0
  0
SPLINE
  5
116
100
AcDbEntity
  8
Layer_1
 62
1
100
AcDbSpline
 70
8
 71
3
 72
8
 73
4
 74
0
 40
0
 40
0
 40
0
 40
0
 40
1
 40
1
 40
1
 40
1
 10
210.740124
 20
696.505679
 30
0.0
 10
212.264445
 20
697.293279
 30
0.0
 10
212.177327
 20
693.464078
 30
0.0
 10
212.896420
 20
691.941280
 30
0.0
  0
SPLINE
  5
117
100
AcDbEntity
  8
Layer_1
 62
1
100
AcDbSpline
 70
8
 71
3
 72
8
 73
4
 74
0
 40
0
 40
0
 40
0
 40
0
 40
1
 40
1
 40
1
 40
1
 10
212.896420
 20
691.941280
 30
0.0
 10
136.390361
 20
650.204384
 30
0.0
 10
81.439249
 20
604.032089
 30
0.0
 10
48.330061
 20
535.952997
 30
0.0
  0
SPLINE
  5
118
100
AcDbEntity
  8
Layer_1
 62
1
100
AcDbSpline
 70
8
 71
3
 72
8
 73
4
 74
0
 40
0
 40
0
 40
0
 40
0
 40
1
 40
1
 40
1
 40
1
 10
48.330061
 20
535.952997
 30
0.0
 10
45.367252
 20
537.051694
 30
0.0
 10
44.142572
 20
537.085195
 30
0.0
 10
44.142572
 20
538.011595
 30
0.0
  0
SPLINE
  5
119
100
AcDbEntity
  8
Layer_1
 62
1
100
AcDbSpline
 70
8
 71
3
 72
8
 73
4
 74
0
 40
0
 40
0
 40
0
 40
0
 40
1
 40
1
 40
1
 40
1
 10
44.142572
 20
538.011595
 30
0.0
 10
44.142572
 20
538.666595
 30
0.0
 10
44.751340
 20
539.767496
 30
0.0
 10
45.785041
 20
542.005694
 30
0.0
  0
LWPOLYLINE
  5
11a
100
AcDbEntity
  8
Layer_1
 62
1
100
AcDbPolyline
 90
3
 70
0
 10
201.859331
 20
704.654177
 30
0.0
 10
206.671841
 20
694.402179
 30
0.0
 10
210.740124
 20
696.505679
 30
0.0
  0
SPLINE
  5
11b
100
AcDbEntity
  8
Layer_1
 62
1
100
AcDbSpline
 70
8
 71
3
 72
8
 73
4
 74
0
 40
0
 40
0
 40
0
 40
0
 40
1
 40
1
 40
1
 40
1
 10
35.687467
 20
547.140495
 30
0.0
 10
34.582258
 20
547.702496
 30
0.0
 10
33.245855
 20
547.223494
 30
0.0
 10
32.716759
 20
546.076093
 30
0.0
  0
LWPOLYLINE
  5
11c
100
AcDbEntity
  8
Layer_1
 62
1
100
AcDbPolyline
 90
2
 70
0
 10
45.785041
 20
542.005694
 30
0.0
 10
35.687467
 20
547.140495
 30
0.0
  0
SPLINE
  5
11d
100
AcDbEntity
  8
Layer_1
 62
1
100
AcDbSpline
 70
8
 71
3
 72
8
 73
4
 74
0
 40
0
 40
0
 40
0
 40
0
 40
1
 40
1
 40
1
 40
1
 10
23.240161
 20
525.529197
 30
0.0
 10
22.710650
 20
524.382197
 30
0.0
 10
23.181201
 20
522.984596
 30
0.0
 10
24.287053
 20
522.421798
 30
0.0
  0
LWPOLYLINE
  5
11e
100
AcDbEntity
  8
Layer_1
 62
1
100
AcDbPolyline
 90
2
 70
0
 10
32.716759
 20
546.076093
 30
0.0
 10
23.240161
 20
525.529197
 30
0.0
  0
SPLINE
  5
11f
100
AcDbEntity
  8
Layer_1
 62
1
100
AcDbSpline
 70
8
 71
3
 72
8
 73
4
 74
0
 40
0
 40
0
 40
0
 40
0
 40
1
 40
1
 40
1
 40
1
 10
36.300771
 20
521.445198
 30
0.0
 10
37.002970
 20
522.966798
 30
0.0
 10
39.195965
 20
520.069696
 30
0.0
 10
40.697155
 20
519.224495
 30
0.0
  0
SPLINE
  5
120
100
AcDbEntity
  8
Layer_1
 62
1
100
AcDbSpline
 70
8
 71
3
 72
8
 73
4
 74
0
 40
0
 40
0
 40
0
 40
0
 40
1
 40
1
 40
1
 40
1
 10
40.697155
 20
519.224495
 30
0.0
 10
33.396242
 20
502.112399
 30
0.0
 10
27.429163
 20
484.570502
 30
0.0
 10
22.800754
 20
466.755704
 30
0.0
  0
LWPOLYLINE
  5
121
100
AcDbEntity
  8
Layer_1
 62
1
100
AcDbPolyline
 90
3
 70
0
 10
24.287053
 20
522.421798
 30
0.0
 10
34.382775
 20
517.286996
 30
0.0
 10
36.300771
 20
521.445198
 30
0.0
  0
SPLINE
  5
122
100
AcDbEntity
  8
Layer_1
 62
1
100
AcDbSpline
 70
8
 71
3
 72
8
 73
4
 74
0
 40
0
 40
0
 40
0
 40
0
 40
1
 40
1
 40
1
 40
1
 10
22.800754
 20
466.792744
 30
0.0
 10
19.548055
 20
467.306045
 30
0.0
 10
18.302058
 20
467.067742
 30
0.0
 10
18.109378
 20
467.991946
 30
0.0
  0
SPLINE
  5
123
100
AcDbEntity
  8
Layer_1
 62
1
100
AcDbSpline
 70
8
 71
3
 72
8
 73
4
 74
0
 40
0
 40
0
 40
0
 40
0
 40
1
 40
1
 40
1
 40
1
 10
18.109378
 20
467.991946
 30
0.0
 10
17.975960
 20
468.632943
 30
0.0
 10
18.352023
 20
469.835645
 30
0.0
 10
18.912074
 20
472.236045
 30
0.0
  0
LWPOLYLINE
  5
124
100
AcDbEntity
  8
Layer_1
 62
1
100
AcDbPolyline
 90
2
 70
0
 10
22.800754
 20
466.755704
 30
0.0
 10
22.800754
 20
466.792744
 30
0.0
  0
SPLINE
  5
125
100
AcDbEntity
  8
Layer_1
 62
1
100
AcDbSpline
 70
8
 71
3
 72
8
 73
4
 74
0
 40
0
 40
0
 40
0
 40
0
 40
1
 40
1
 40
1
 40
1
 10
7.988257
 20
475.226245
 30
0.0
 10
6.791659
 20
475.554232
 30
0.0
 10
5.578166
 20
474.814242
 30
0.0
 10
5.290960
 20
473.583745
 30
0.0
  0
LWPOLYLINE
  5
126
100
AcDbEntity
  8
Layer_1
 62
1
100
AcDbPolyline
 90
2
 70
0
 10
18.912074
 20
472.236045
 30
0.0
 10
7.988257
 20
475.226245
 30
0.0
  0
SPLINE
  5
127
100
AcDbEntity
  8
Layer_1
 62
1
100
AcDbSpline
 70
8
 71
3
 72
8
 73
4
 74
0
 40
0
 40
0
 40
0
 40
0
 40
1
 40
1
 40
1
 40
1
 10
0.156170
 20
451.546645
 30
0.0
 10
-0.131074
 20
450.316247
 30
0.0
 10
0.613455
 20
449.042247
 30
0.0
 10
1.810469
 20
448.714547
 30
0.0
  0
LWPOLYLINE
  5
128
100
AcDbEntity
  8
Layer_1
 62
1
100
AcDbPolyline
 90
2
 70
0
 10
5.290960
 20
473.583745
 30
0.0
 10
0.156170
 20
451.546645
 30
0.0
  0
SPLINE
  5
129
100
AcDbEntity
  8
Layer_1
 62
1
100
AcDbSpline
 70
8
 71
3
 72
8
 73
4
 74
0
 40
0
 40
0
 40
0
 40
0
 40
1
 40
1
 40
1
 40
1
 10
13.773353
 20
450.183347
 30
0.0
 10
14.158865
 20
451.836747
 30
0.0
 10
16.960553
 20
449.356946
 30
0.0
 10
18.593649
 20
448.876647
 30
0.0
  0
SPLINE
  5
12a
100
AcDbEntity
  8
Layer_1
 62
1
100
AcDbSpline
 70
8
 71
3
 72
8
 73
4
 74
0
 40
0
 40
0
 40
0
 40
0
 40
1
 40
1
 40
1
 40
1
 10
18.593649
 20
448.876647
 30
0.0
 10
13.457876
 20
424.161850
 30
0.0
 10
10.858052
 20
399.033740
 30
0.0
 10
10.804648
 20
373.902038
 30
0.0
  0
LWPOLYLINE
  5
12b
100
AcDbEntity
  8
Layer_1
 62
1
100
AcDbPolyline
 90
3
 70
0
 10
1.810469
 20
448.714547
 30
0.0
 10
12.734361
 20
445.724348
 30
0.0
 10
13.773353
 20
450.183347
 30
0.0
  0
SPLINE
  5
12c
100
AcDbEntity
  8
Layer_1
 62
1
100
AcDbSpline
 70
8
 71
3
 72
8
 73
4
 74
0
 40
0
 40
0
 40
0
 40
0
 40
1
 40
1
 40
1
 40
1
 10
10.804648
 20
373.890700
 30
0.0
 10
10.857561
 20
348.758998
 30
0.0
 10
13.457876
 20
323.628884
 30
0.0
 10
18.593649
 20
298.914216
 30
0.0
  0
SPLINE
  5
12d
100
AcDbEntity
  8
Layer_1
 62
1
100
AcDbSpline
 70
8
 71
3
 72
8
 73
4
 74
0
 40
0
 40
0
 40
0
 40
0
 40
1
 40
1
 40
1
 40
1
 10
18.593649
 20
298.914216
 30
0.0
 10
16.960553
 20
298.433913
 30
0.0
 10
14.158865
 20
295.954014
 30
0.0
 10
13.773353
 20
297.607482
 30
0.0
  0
LWPOLYLINE
  5
12e
100
AcDbEntity
  8
Layer_1
 62
1
100
AcDbPolyline
 90
2
 70
0
 10
10.804648
 20
373.902038
 30
0.0
 10
10.804648
 20
373.890700
 30
0.0
  0
SPLINE
  5
12f
100
AcDbEntity
  8
Layer_1
 62
1
100
AcDbSpline
 70
8
 71
3
 72
8
 73
4
 74
0
 40
0
 40
0
 40
0
 40
0
 40
1
 40
1
 40
1
 40
1
 10
1.810469
 20
299.076282
 30
0.0
 10
0.613455
 20
298.748597
 30
0.0
 10
-0.131036
 20
297.474594
 30
0.0
 10
0.156170
 20
296.244206
 30
0.0
  0
LWPOLYLINE
  5
130
100
AcDbEntity
  8
Layer_1
 62
1
100
AcDbPolyline
 90
3
 70
0
 10
13.773353
 20
297.607482
 30
0.0
 10
12.734361
 20
302.066492
 30
0.0
 10
1.810469
 20
299.076282
 30
0.0
  0
SPLINE
  5
131
100
AcDbEntity
  8
Layer_1
 62
1
100
AcDbSpline
 70
8
 71
3
 72
8
 73
4
 74
0
 40
0
 40
0
 40
0
 40
0
 40
1
 40
1
 40
1
 40
1
 10
5.290960
 20
274.207106
 30
0.0
 10
5.578204
 20
272.976492
 30
0.0
 10
6.791659
 20
272.236612
 30
0.0
 10
7.988257
 20
272.564486
 30
0.0
  0
LWPOLYLINE
  5
132
100
AcDbEntity
  8
Layer_1
 62
1
100
AcDbPolyline
 90
2
 70
0
 10
0.156170
 20
296.244206
 30
0.0
 10
5.290960
 20
274.207106
 30
0.0
  0
SPLINE
  5
133
100
AcDbEntity
  8
Layer_1
 62
1
100
AcDbSpline
 70
8
 71
3
 72
8
 73
4
 74
0
 40
0
 40
0
 40
0
 40
0
 40
1
 40
1
 40
1
 40
1
 10
18.912074
 20
275.554810
 30
0.0
 10
18.351948
 20
277.955188
 30
0.0
 10
17.975847
 20
279.157909
 30
0.0
 10
18.109378
 20
279.798917
 30
0.0
  0
SPLINE
  5
134
100
AcDbEntity
  8
Layer_1
 62
1
100
AcDbSpline
 70
8
 71
3
 72
8
 73
4
 74
0
 40
0
 40
0
 40
0
 40
0
 40
1
 40
1
 40
1
 40
1
 10
18.109378
 20
279.798917
 30
0.0
 10
18.302134
 20
280.723087
 30
0.0
 10
19.548055
 20
280.484788
 30
0.0
 10
22.800754
 20
280.998085
 30
0.0
  0
LWPOLYLINE
  5
135
100
AcDbEntity
  8
Layer_1
 62
1
100
AcDbPolyline
 90
2
 70
0
 10
7.988257
 20
272.564486
 30
0.0
 10
18.912074
 20
275.554810
 30
0.0
  0
SPLINE
  5
136
100
AcDbEntity
  8
Layer_1
 62
1
100
AcDbSpline
 70
8
 71
3
 72
8
 73
4
 74
0
 40
0
 40
0
 40
0
 40
0
 40
1
 40
1
 40
1
 40
1
 10
22.800754
 20
281.037014
 30
0.0
 10
27.429163
 20
263.222213
 30
0.0
 10
33.396242
 20
245.680445
 30
0.0
 10
40.697155
 20
228.568219
 30
0.0
  0
SPLINE
  5
137
100
AcDbEntity
  8
Layer_1
 62
1
100
AcDbSpline
 70
8
 71
3
 72
8
 73
4
 74
0
 40
0
 40
0
 40
0
 40
0
 40
1
 40
1
 40
1
 40
1
 10
40.697155
 20
228.568219
 30
0.0
 10
39.195965
 20
227.723117
 30
0.0
 10
37.002970
 20
224.825921
 30
0.0
 10
36.300771
 20
226.347520
 30
0.0
  0
LWPOLYLINE
  5
138
100
AcDbEntity
  8
Layer_1
 62
1
100
AcDbPolyline
 90
2
 70
0
 10
22.800754
 20
280.998085
 30
0.0
 10
22.800754
 20
281.037014
 30
0.0
  0
SPLINE
  5
139
100
AcDbEntity
  8
Layer_1
 62
1
100
AcDbSpline
 70
8
 71
3
 72
8
 73
4
 74
0
 40
0
 40
0
 40
0
 40
0
 40
1
 40
1
 40
1
 40
1
 10
24.287053
 20
225.371042
 30
0.0
 10
23.181163
 20
224.808232
 30
0.0
 10
22.710650
 20
223.410639
 30
0.0
 10
23.240161
 20
222.263628
 30
0.0
  0
LWPOLYLINE
  5
13a
100
AcDbEntity
  8
Layer_1
 62
1
100
AcDbPolyline
 90
3
 70
0
 10
36.300771
 20
226.347520
 30
0.0
 10
34.382775
 20
230.505832
 30
0.0
 10
24.287053
 20
225.371042
 30
0.0
  0
SPLINE
  5
13b
100
AcDbEntity
  8
Layer_1
 62
1
100
AcDbSpline
 70
8
 71
3
 72
8
 73
4
 74
0
 40
0
 40
0
 40
0
 40
0
 40
1
 40
1
 40
1
 40
1
 10
32.716759
 20
201.716720
 30
0.0
 10
33.245855
 20
200.569218
 30
0.0
 10
34.582258
 20
200.090351
 30
0.0
 10
35.687467
 20
200.652216
 30
0.0
  0
LWPOLYLINE
  5
13c
100
AcDbEntity
  8
Layer_1
 62
1
100
AcDbPolyline
 90
2
 70
0
 10
23.240161
 20
222.263628
 30
0.0
 10
32.716759
 20
201.716720
 30
0.0
  0
SPLINE
  5
13d
100
AcDbEntity
  8
Layer_1
 62
1
100
AcDbSpline
 70
8
 71
3
 72
8
 73
4
 74
0
 40
0
 40
0
 40
0
 40
0
 40
1
 40
1
 40
1
 40
1
 10
45.785041
 20
205.789538
 30
0.0
 10
44.751340
 20
208.027736
 30
0.0
 10
44.141363
 20
209.128751
 30
0.0
 10
44.142572
 20
209.783629
 30
0.0
  0
SPLINE
  5
13e
100
AcDbEntity
  8
Layer_1
 62
1
100
AcDbSpline
 70
8
 71
3
 72
8
 73
4
 74
0
 40
0
 40
0
 40
0
 40
0
 40
1
 40
1
 40
1
 40
1
 10
44.142572
 20
209.783629
 30
0.0
 10
44.142572
 20
210.710029
 30
0.0
 10
45.367252
 20
210.743516
 30
0.0
 10
48.330061
 20
211.842224
 30
0.0
  0
SPLINE
  5
13f
100
AcDbEntity
  8
Layer_1
 62
1
100
AcDbSpline
 70
8
 71
3
 72
8
 73
4
 74
0
 40
0
 40
0
 40
0
 40
0
 40
1
 40
1
 40
1
 40
1
 10
48.330061
 20
211.842224
 30
0.0
 10
81.439249
 20
143.763151
 30
0.0
 10
136.390361
 20
97.590935
 30
0.0
 10
212.896420
 20
55.854032
 30
0.0
  0
SPLINE
  5
140
100
AcDbEntity
  8
Layer_1
 62
1
100
AcDbSpline
 70
8
 71
3
 72
8
 73
4
 74
0
 40
0
 40
0
 40
0
 40
0
 40
1
 40
1
 40
1
 40
1
 10
212.896420
 20
55.854032
 30
0.0
 10
212.177327
 20
54.331260
 30
0.0
 10
212.264445
 20
50.502259
 30
0.0
 10
210.740124
 20
51.289535
 30
0.0
  0
LWPOLYLINE
  5
141
100
AcDbEntity
  8
Layer_1
 62
1
100
AcDbPolyline
 90
2
 70
0
 10
35.687467
 20
200.652216
 30
0.0
 10
45.785041
 20
205.789538
 30
0.0
  0
SPLINE
  5
142
100
AcDbEntity
  8
Layer_1
 62
1
100
AcDbSpline
 70
8
 71
3
 72
8
 73
4
 74
0
 40
0
 40
0
 40
0
 40
0
 40
1
 40
1
 40
1
 40
1
 10
201.859331
 20
43.141139
 30
0.0
 10
201.332049
 20
42.017447
 30
0.0
 10
201.818134
 20
40.625939
 30
0.0
 10
202.941334
 20
40.045441
 30
0.0
  0
LWPOLYLINE
  5
143
100
AcDbEntity
  8
Layer_1
 62
1
100
AcDbPolyline
 90
3
 70
0
 10
210.740124
 20
51.289535
 30
0.0
 10
206.671841
 20
53.393068
 30
0.0
 10
201.859331
 20
43.141139
 30
0.0
  0
SPLINE
  5
144
100
AcDbEntity
  8
Layer_1
 62
1
100
AcDbSpline
 70
8
 71
3
 72
8
 73
4
 74
0
 40
0
 40
0
 40
0
 40
0
 40
1
 40
1
 40
1
 40
1
 10
223.038932
 20
29.650872
 30
0.0
 10
224.160620
 20
29.070337
 30
0.0
 10
225.509836
 20
29.515187
 30
0.0
 10
226.037042
 20
30.635250
 30
0.0
  0
LWPOLYLINE
  5
145
100
AcDbEntity
  8
Layer_1
 62
1
100
AcDbPolyline
 90
2
 70
0
 10
202.941334
 20
40.045441
 30
0.0
 10
223.038932
 20
29.650872
 30
0.0
  0
SPLINE
  5
146
100
AcDbEntity
  8
Layer_1
 62
1
100
AcDbSpline
 70
8
 71
3
 72
8
 73
4
 74
0
 40
0
 40
0
 40
0
 40
0
 40
1
 40
1
 40
1
 40
1
 10
230.851442
 20
40.887255
 30
0.0
 10
228.661130
 20
42.019564
 30
0.0
 10
227.505237
 20
42.514644
 30
0.0
 10
227.103436
 20
43.031759
 30
0.0
  0
SPLINE
  5
147
100
AcDbEntity
  8
Layer_1
 62
1
100
AcDbSpline
 70
8
 71
3
 72
8
 73
4
 74
0
 40
0
 40
0
 40
0
 40
0
 40
1
 40
1
 40
1
 40
1
 10
227.103436
 20
43.031759
 30
0.0
 10
226.526642
 20
43.776364
 30
0.0
 10
227.510529
 20
44.567646
 30
0.0
 10
229.224544
 20
47.361850
 30
0.0
  0
SPLINE
  5
148
100
AcDbEntity
  8
Layer_1
 62
1
100
AcDbSpline
 70
8
 71
3
 72
8
 73
4
 74
0
 40
0
 40
0
 40
0
 40
0
 40
1
 40
1
 40
1
 40
1
 10
229.224544
 20
47.361850
 30
0.0
 10
239.122423
 20
42.493063
 30
0.0
 10
249.323223
 20
37.896969
 30
0.0
 10
259.886620
 20
33.643036
 30
0.0
  0
SPLINE
  5
149
100
AcDbEntity
  8
Layer_1
 62
1
100
AcDbSpline
 70
8
 71
3
 72
8
 73
4
 74
0
 40
0
 40
0
 40
0
 40
0
 40
1
 40
1
 40
1
 40
1
 10
259.886620
 20
33.643036
 30
0.0
 10
264.725620
 20
31.694765
 30
0.0
 10
269.362420
 20
29.543345
 30
0.0
 10
273.751819
 20
27.477039
 30
0.0
  0
SPLINE
  5
14a
100
AcDbEntity
  8
Layer_1
 62
1
100
AcDbSpline
 70
8
 71
3
 72
8
 73
4
 74
0
 40
0
 40
0
 40
0
 40
0
 40
1
 40
1
 40
1
 40
1
 10
273.751819
 20
27.477039
 30
0.0
 10
273.138519
 20
25.909669
 30
0.0
 10
273.454711
 20
22.004246
 30
0.0
 10
271.880719
 20
22.686073
 30
0.0
  0
LWPOLYLINE
  5
14b
100
AcDbEntity
  8
Layer_1
 62
1
100
AcDbPolyline
 90
2
 70
0
 10
226.037042
 20
30.635250
 30
0.0
 10
230.851442
 20
40.887255
 30
0.0
  0
SPLINE
  5
14c
100
AcDbEntity
  8
Layer_1
 62
1
100
AcDbSpline
 70
8
 71
3
 72
8
 73
4
 74
0
 40
0
 40
0
 40
0
 40
0
 40
1
 40
1
 40
1
 40
1
 10
263.578020
 20
13.949771
 30
0.0
 10
263.128623
 20
12.793161
 30
0.0
 10
263.710228
 20
11.436348
 30
0.0
 10
264.869019
 20
10.934049
 30
0.0
  0
LWPOLYLINE
  5
14d
100
AcDbEntity
  8
Layer_1
 62
1
100
AcDbPolyline
 90
3
 70
0
 10
271.880719
 20
22.686073
 30
0.0
 10
267.679619
 20
24.506369
 30
0.0
 10
263.578020
 20
13.949771
 30
0.0
  0
SPLINE
  5
14e
100
AcDbEntity
  8
Layer_1
 62
1
100
AcDbSpline
 70
8
 71
3
 72
8
 73
4
 74
0
 40
0
 40
0
 40
0
 40
0
 40
1
 40
1
 40
1
 40
1
 10
285.630718
 20
1.937943
 30
0.0
 10
286.790319
 20
1.435644
 30
0.0
 10
288.106119
 20
1.976116
 30
0.0
 10
288.554617
 20
3.127473
 30
0.0
  0
LWPOLYLINE
  5
14f
100
AcDbEntity
  8
Layer_1
 62
1
100
AcDbPolyline
 90
2
 70
0
 10
264.869019
 20
10.934049
 30
0.0
 10
285.630718
 20
1.937943
 30
0.0
  0
SPLINE
  5
150
100
AcDbEntity
  8
Layer_1
 62
1
100
AcDbSpline
 70
8
 71
3
 72
8
 73
4
 74
0
 40
0
 40
0
 40
0
 40
0
 40
1
 40
1
 40
1
 40
1
 10
292.656118
 20
13.684071
 30
0.0
 10
290.393916
 20
14.663346
 30
0.0
 10
289.206619
 20
15.078263
 30
0.0
 10
288.771418
 20
15.566842
 30
0.0
  0
SPLINE
  5
151
100
AcDbEntity
  8
Layer_1
 62
1
100
AcDbSpline
 70
8
 71
3
 72
8
 73
4
 74
0
 40
0
 40
0
 40
0
 40
0
 40
1
 40
1
 40
1
 40
1
 10
288.771418
 20
15.566842
 30
0.0
 10
288.143420
 20
16.270666
 30
0.0
 10
289.088521
 20
17.163957
 30
0.0
 10
290.613220
 20
20.082546
 30
0.0
  0
SPLINE
  5
152
100
AcDbEntity
  8
Layer_1
 62
1
100
AcDbSpline
 70
8
 71
3
 72
8
 73
4
 74
0
 40
0
 40
0
 40
0
 40
0
 40
1
 40
1
 40
1
 40
1
 10
290.613220
 20
20.082546
 30
0.0
 10
301.611217
 20
16.222855
 30
0.0
 10
306.770415
 20
15.453267
 30
0.0
 10
313.761614
 20
30.145045
 30
0.0
  0
SPLINE
  5
153
100
AcDbEntity
  8
Layer_1
 62
1
100
AcDbSpline
 70
8
 71
3
 72
8
 73
4
 74
0
 40
0
 40
0
 40
0
 40
0
 40
1
 40
1
 40
1
 40
1
 10
313.761614
 20
30.145045
 30
0.0
 10
314.906716
 20
32.551470
 30
0.0
 10
315.150813
 20
35.735646
 30
0.0
 10
313.992128
 20
38.135268
 30
0.0
  0
SPLINE
  5
154
100
AcDbEntity
  8
Layer_1
 62
1
100
AcDbSpline
 70
8
 71
3
 72
8
 73
4
 74
0
 40
0
 40
0
 40
0
 40
0
 40
1
 40
1
 40
1
 40
1
 10
313.992128
 20
38.135268
 30
0.0
 10
308.355129
 20
49.810568
 30
0.0
 10
294.395929
 20
54.649837
 30
0.0
 10
282.849530
 20
61.436053
 30
0.0
  0
SPLINE
  5
155
100
AcDbEntity
  8
Layer_1
 62
1
100
AcDbSpline
 70
8
 71
3
 72
8
 73
4
 74
0
 40
0
 40
0
 40
0
 40
0
 40
1
 40
1
 40
1
 40
1
 10
282.849530
 20
61.436053
 30
0.0
 10
282.849530
 20
61.436053
 30
0.0
 10
321.164627
 20
40.834040
 30
0.0
 10
342.113223
 20
36.020056
 30
0.0
  0
SPLINE
  5
156
100
AcDbEntity
  8
Layer_1
 62
1
100
AcDbSpline
 70
8
 71
3
 72
8
 73
4
 74
0
 40
0
 40
0
 40
0
 40
0
 40
1
 40
1
 40
1
 40
1
 10
342.113223
 20
36.020056
 30
0.0
 10
357.555623
 20
32.471042
 30
0.0
 10
376.709821
 20
24.582640
 30
0.0
 10
389.595620
 20
33.803250
 30
0.0
  0
SPLINE
  5
157
100
AcDbEntity
  8
Layer_1
 62
1
100
AcDbSpline
 70
8
 71
3
 72
8
 73
4
 74
0
 40
0
 40
0
 40
0
 40
0
 40
1
 40
1
 40
1
 40
1
 10
389.595620
 20
33.803250
 30
0.0
 10
401.895517
 20
42.604635
 30
0.0
 10
415.414617
 20
77.385242
 30
0.0
 10
402.220616
 20
77.385242
 30
0.0
  0
SPLINE
  5
158
100
AcDbEntity
  8
Layer_1
 62
1
100
AcDbSpline
 70
8
 71
3
 72
8
 73
4
 74
0
 40
0
 40
0
 40
0
 40
0
 40
1
 40
1
 40
1
 40
1
 10
402.220616
 20
77.385242
 30
0.0
 10
380.757120
 20
77.385242
 30
0.0
 10
353.432121
 20
75.756757
 30
0.0
 10
335.449123
 20
79.299346
 30
0.0
  0
SPLINE
  5
159
100
AcDbEntity
  8
Layer_1
 62
1
100
AcDbSpline
 70
8
 71
3
 72
8
 73
4
 74
0
 40
0
 40
0
 40
0
 40
0
 40
1
 40
1
 40
1
 40
1
 10
335.449123
 20
79.299346
 30
0.0
 10
305.040329
 20
86.026338
 30
0.0
 10
279.227730
 20
105.968332
 30
0.0
 10
253.345634
 20
123.051228
 30
0.0
  0
SPLINE
  5
15a
100
AcDbEntity
  8
Layer_1
 62
1
100
AcDbSpline
 70
8
 71
3
 72
8
 73
4
 74
0
 40
0
 40
0
 40
0
 40
0
 40
1
 40
1
 40
1
 40
1
 10
253.345634
 20
123.051228
 30
0.0
 10
241.702634
 20
130.735839
 30
0.0
 10
230.620928
 20
139.439523
 30
0.0
 10
220.728432
 20
149.275856
 30
0.0
  0
SPLINE
  5
15b
100
AcDbEntity
  8
Layer_1
 62
1
100
AcDbSpline
 70
8
 71
3
 72
8
 73
4
 74
0
 40
0
 40
0
 40
0
 40
0
 40
1
 40
1
 40
1
 40
1
 10
220.728432
 20
149.275856
 30
0.0
 10
210.222556
 20
159.722242
 30
0.0
 10
200.912635
 20
171.437642
 30
0.0
 10
192.681543
 20
183.756331
 30
0.0
  0
SPLINE
  5
15c
100
AcDbEntity
  8
Layer_1
 62
1
100
AcDbSpline
 70
8
 71
3
 72
8
 73
4
 74
0
 40
0
 40
0
 40
0
 40
0
 40
1
 40
1
 40
1
 40
1
 10
192.681543
 20
183.756331
 30
0.0
 10
183.344146
 20
197.730528
 30
0.0
 10
175.577331
 20
212.774142
 30
0.0
 10
168.718660
 20
228.117624
 30
0.0
  0
SPLINE
  5
15d
100
AcDbEntity
  8
Layer_1
 62
1
100
AcDbSpline
 70
8
 71
3
 72
8
 73
4
 74
0
 40
0
 40
0
 40
0
 40
0
 40
1
 40
1
 40
1
 40
1
 10
168.718660
 20
228.117624
 30
0.0
 10
163.464135
 20
239.872747
 30
0.0
 10
159.350157
 20
252.133723
 30
0.0
 10
155.638662
 20
264.463334
 30
0.0
  0
SPLINE
  5
15e
100
AcDbEntity
  8
Layer_1
 62
1
100
AcDbSpline
 70
8
 71
3
 72
8
 73
4
 74
0
 40
0
 40
0
 40
0
 40
0
 40
1
 40
1
 40
1
 40
1
 10
155.638662
 20
264.463334
 30
0.0
 10
151.949957
 20
276.716334
 30
0.0
 10
148.960237
 20
289.193536
 30
0.0
 10
146.537031
 20
301.758310
 30
0.0
  0
SPLINE
  5
15f
100
AcDbEntity
  8
Layer_1
 62
1
100
AcDbSpline
 70
8
 71
3
 72
8
 73
4
 74
0
 40
0
 40
0
 40
0
 40
0
 40
1
 40
1
 40
1
 40
1
 10
146.537031
 20
301.758310
 30
0.0
 10
144.507160
 20
312.285011
 30
0.0
 10
143.100950
 20
322.934623
 30
0.0
 10
141.996043
 20
333.598105
 30
0.0
  0
SPLINE
  5
160
100
AcDbEntity
  8
Layer_1
 62
1
100
AcDbSpline
 70
8
 71
3
 72
8
 73
4
 74
0
 40
0
 40
0
 40
0
 40
0
 40
1
 40
1
 40
1
 40
1
 10
141.996043
 20
333.598105
 30
0.0
 10
140.899148
 20
344.182822
 30
0.0
 10
140.163955
 20
354.816824
 30
0.0
 10
139.927659
 20
365.455513
 30
0.0
  0
SPLINE
  5
161
100
AcDbEntity
  8
Layer_1
 62
1
100
AcDbSpline
 70
8
 71
3
 72
8
 73
4
 74
0
 40
0
 40
0
 40
0
 40
0
 40
1
 40
1
 40
1
 40
1
 10
139.927659
 20
365.455513
 30
0.0
 10
139.865674
 20
368.268426
 30
0.0
 10
139.836572
 20
371.082511
 30
0.0
 10
139.841485
 20
373.896898
 30
0.0
  0
SPLINE
  5
162
100
AcDbEntity
  8
Layer_1
 62
1
100
AcDbSpline
 70
8
 71
3
 72
8
 73
4
 74
0
 40
0
 40
0
 40
0
 40
0
 40
1
 40
1
 40
1
 40
1
 10
139.841485
 20
373.896898
 30
0.0
 10
139.830147
 20
376.711398
 30
0.0
 10
139.864163
 20
379.525521
 30
0.0
 10
139.927659
 20
382.338321
 30
0.0
  0
SPLINE
  5
163
100
AcDbEntity
  8
Layer_1
 62
1
100
AcDbSpline
 70
8
 71
3
 72
8
 73
4
 74
0
 40
0
 40
0
 40
0
 40
0
 40
1
 40
1
 40
1
 40
1
 10
139.927659
 20
382.338321
 30
0.0
 10
140.163879
 20
392.977009
 30
0.0
 10
140.899148
 20
403.611012
 30
0.0
 10
141.996043
 20
414.195729
 30
0.0
  0
SPLINE
  5
164
100
AcDbEntity
  8
Layer_1
 62
1
100
AcDbSpline
 70
8
 71
3
 72
8
 73
4
 74
0
 40
0
 40
0
 40
0
 40
0
 40
1
 40
1
 40
1
 40
1
 10
141.996043
 20
414.195729
 30
0.0
 10
143.100950
 20
424.859211
 30
0.0
 10
144.507160
 20
435.508898
 30
0.0
 10
146.537031
 20
446.035611
 30
0.0
  0
SPLINE
  5
165
100
AcDbEntity
  8
Layer_1
 62
1
100
AcDbSpline
 70
8
 71
3
 72
8
 73
4
 74
0
 40
0
 40
0
 40
0
 40
0
 40
1
 40
1
 40
1
 40
1
 10
146.537031
 20
446.035611
 30
0.0
 10
148.960237
 20
458.600411
 30
0.0
 10
151.949957
 20
471.077609
 30
0.0
 10
155.638662
 20
483.330507
 30
0.0
  0
SPLINE
  5
166
100
AcDbEntity
  8
Layer_1
 62
1
100
AcDbSpline
 70
8
 71
3
 72
8
 73
4
 74
0
 40
0
 40
0
 40
0
 40
0
 40
1
 40
1
 40
1
 40
1
 10
155.638662
 20
483.330507
 30
0.0
 10
159.350157
 20
495.660103
 30
0.0
 10
163.464135
 20
507.921203
 30
0.0
 10
168.718660
 20
519.676202
 30
0.0
  0
SPLINE
  5
167
100
AcDbEntity
  8
Layer_1
 62
1
100
AcDbSpline
 70
8
 71
3
 72
8
 73
4
 74
0
 40
0
 40
0
 40
0
 40
0
 40
1
 40
1
 40
1
 40
1
 10
168.718660
 20
519.676202
 30
0.0
 10
175.577331
 20
535.019703
 30
0.0
 10
183.344146
 20
550.063298
 30
0.0
 10
192.681543
 20
564.037499
 30
0.0
  0
SPLINE
  5
168
100
AcDbEntity
  8
Layer_1
 62
1
100
AcDbSpline
 70
8
 71
3
 72
8
 73
4
 74
0
 40
0
 40
0
 40
0
 40
0
 40
1
 40
1
 40
1
 40
1
 10
192.681543
 20
564.037499
 30
0.0
 10
200.912635
 20
576.356195
 30
0.0
 10
210.222556
 20
588.071694
 30
0.0
 10
220.728432
 20
598.517993
 30
0.0
  0
SPLINE
  5
169
100
AcDbEntity
  8
Layer_1
 62
1
100
AcDbSpline
 70
8
 71
3
 72
8
 73
4
 74
0
 40
0
 40
0
 40
0
 40
0
 40
1
 40
1
 40
1
 40
1
 10
220.728432
 20
598.517993
 30
0.0
 10
230.620928
 20
608.354394
 30
0.0
 10
241.702634
 20
617.058093
 30
0.0
 10
253.345634
 20
624.742590
 30
0.0
  0
SPLINE
  5
16a
100
AcDbEntity
  8
Layer_1
 62
1
100
AcDbSpline
 70
8
 71
3
 72
8
 73
4
 74
0
 40
0
 40
0
 40
0
 40
0
 40
1
 40
1
 40
1
 40
1
 10
253.345634
 20
624.742590
 30
0.0
 10
279.227730
 20
641.825588
 30
0.0
 10
305.040329
 20
661.767387
 30
0.0
 10
335.449123
 20
668.494586
 30
0.0
  0
SPLINE
  5
16b
100
AcDbEntity
  8
Layer_1
 62
1
100
AcDbSpline
 70
8
 71
3
 72
8
 73
4
 74
0
 40
0
 40
0
 40
0
 40
0
 40
1
 40
1
 40
1
 40
1
 10
335.449123
 20
668.494586
 30
0.0
 10
353.432121
 20
672.036986
 30
0.0
 10
380.757120
 20
670.406686
 30
0.0
 10
402.220616
 20
670.406686
 30
0.0
  0
SPLINE
  5
16c
100
AcDbEntity
  8
Layer_1
 62
1
100
AcDbSpline
 70
8
 71
3
 72
8
 73
4
 74
0
 40
0
 40
0
 40
0
 40
0
 40
1
 40
1
 40
1
 40
1
 10
402.220616
 20
670.406686
 30
0.0
 10
405.931417
 20
670.406686
 30
0.0
 10
407.530516
 20
673.158386
 30
0.0
 10
407.636615
 20
677.308984
 30
0.0
  0
LWPOLYLINE
  5
16d
100
AcDbEntity
  8
Layer_1
 62
1
100
AcDbPolyline
 90
2
 70
0
 10
288.554617
 20
3.127473
 30
0.0
 10
292.656118
 20
13.684071
 30
0.0
  0
SPLINE
  5
16e
100
AcDbEntity
  8
Layer_1
 62
1
100
AcDbSpline
 70
8
 71
3
 72
8
 73
4
 74
0
 40
0
 40
0
 40
0
 40
0
 40
1
 40
1
 40
1
 40
1
 10
374.978060
 20
683.505579
 30
0.0
 10
369.728312
 20
683.505579
 30
0.0
 10
365.472550
 20
687.761341
 30
0.0
 10
365.472550
 20
693.011090
 30
0.0
  0
SPLINE
  5
16f
100
AcDbEntity
  8
Layer_1
 62
1
100
AcDbSpline
 70
8
 71
3
 72
8
 73
4
 74
0
 40
0
 40
0
 40
0
 40
0
 40
1
 40
1
 40
1
 40
1
 10
365.472550
 20
693.011090
 30
0.0
 10
365.472550
 20
698.260838
 30
0.0
 10
369.728312
 20
702.516601
 30
0.0
 10
374.978060
 20
702.516601
 30
0.0
  0
SPLINE
  5
170
100
AcDbEntity
  8
Layer_1
 62
1
100
AcDbSpline
 70
8
 71
3
 72
8
 73
4
 74
0
 40
0
 40
0
 40
0
 40
0
 40
1
 40
1
 40
1
 40
1
 10
374.978060
 20
702.516601
 30
0.0
 10
380.227809
 20
702.516601
 30
0.0
 10
384.483571
 20
698.260839
 30
0.0
 10
384.483571
 20
693.011090
 30
0.0
  0
SPLINE
  5
171
100
AcDbEntity
  8
Layer_1
 62
1
100
AcDbSpline
 70
8
 71
3
 72
8
 73
4
 74
0
 40
0
 40
0
 40
0
 40
0
 40
1
 40
1
 40
1
 40
1
 10
384.483571
 20
693.011090
 30
0.0
 10
384.483571
 20
687.761341
 30
0.0
 10
380.227809
 20
683.505579
 30
0.0
 10
374.978060
 20
683.505579
 30
0.0
  0
LWPOLYLINE
  5
172
100
AcDbEntity
  8
Layer_1
 62
1
100
AcDbPolyline
 90
2
 70
0
 10
407.636615
 20
677.308984
 30
0.0
 10
407.636615
 20
677.310378
 30
0.0
  0
SPLINE
  5
173
100
AcDbEntity
  8
Layer_1
 62
1
100
AcDbSpline
 70
8
 71
3
 72
8
 73
4
 74
0
 40
0
 40
0
 40
0
 40
0
 40
1
 40
1
 40
1
 40
1
 10
374.978060
 20
64.289483
 30
0.0
 10
369.728312
 20
64.289483
 30
0.0
 10
365.472550
 20
60.033721
 30
0.0
 10
365.472550
 20
54.783972
 30
0.0
  0
SPLINE
  5
174
100
AcDbEntity
  8
Layer_1
 62
1
100
AcDbSpline
 70
8
 71
3
 72
8
 73
4
 74
0
 40
0
 40
0
 40
0
 40
0
 40
1
 40
1
 40
1
 40
1
 10
365.472550
 20
54.783972
 30
0.0
 10
365.472550
 20
49.534224
 30
0.0
 10
369.728312
 20
45.278461
 30
0.0
 10
374.978060
 20
45.278461
 30
0.0
  0
SPLINE
  5
175
100
AcDbEntity
  8
Layer_1
 62
1
100
AcDbSpline
 70
8
 71
3
 72
8
 73
4
 74
0
 40
0
 40
0
 40
0
 40
0
 40
1
 40
1
 40
1
 40
1
 10
374.978060
 20
45.278461
 30
0.0
 10
380.227809
 20
45.278461
 30
0.0
 10
384.483571
 20
49.534224
 30
0.0
 10
384.483571
 20
54.783972
 30
0.0
  0
SPLINE
  5
176
100
AcDbEntity
  8
Layer_1
 62
1
100
AcDbSpline
 70
8
 71
3
 72
8
 73
4
 74
0
 40
0
 40
0
 40
0
 40
0
 40
1
 40
1
 40
1
 40
1
 10
384.483571
 20
54.783972
 30
0.0
 10
384.483571
 20
60.033721
 30
0.0
 10
380.227809
 20
64.289483
 30
0.0
 10
374.978060
 20
64.289483
 30
0.0
  0
LWPOLYLINE
  5
177
100
AcDbEntity
  8
Layer_1
 62
1
100
AcDbPolyline
 90
1
 70
1
 10
374.978060
 20
683.505579
 30
0.0
  0
SPLINE
  5
178
100
AcDbEntity
  8
Layer_1
 62
1
100
AcDbSpline
 70
8
 71
3
 72
8
 73
4
 74
0
 40
0
 40
0
 40
0
 40
0
 40
1
 40
1
 40
1
 40
1
 10
642.488574
 20
677.754813
 30
0.0
 10
642.759774
 20
688.362113
 30
0.0
 10
633.288175
 20
708.108510
 30
0.0
 10
624.447576
 20
714.434508
 30
0.0
  0
SPLINE
  5
179
100
AcDbEntity
  8
Layer_1
 62
1
100
AcDbSpline
 70
8
 71
3
 72
8
 73
4
 74
0
 40
0
 40
0
 40
0
 40
0
 40
1
 40
1
 40
1
 40
1
 10
624.447576
 20
714.434508
 30
0.0
 10
611.561778
 20
723.655111
 30
0.0
 10
592.407580
 20
715.768511
 30
0.0
 10
576.965182
 20
712.219709
 30
0.0
  0
SPLINE
  5
17a
100
AcDbEntity
  8
Layer_1
 62
1
100
AcDbSpline
 70
8
 71
3
 72
8
 73
4
 74
0
 40
0
 40
0
 40
0
 40
0
 40
1
 40
1
 40
1
 40
1
 10
576.965182
 20
712.219709
 30
0.0
 10
556.016585
 20
707.405510
 30
0.0
 10
517.701488
 20
686.803712
 30
0.0
 10
517.701488
 20
686.803712
 30
0.0
  0
SPLINE
  5
17b
100
AcDbEntity
  8
Layer_1
 62
1
100
AcDbSpline
 70
8
 71
3
 72
8
 73
4
 74
0
 40
0
 40
0
 40
0
 40
0
 40
1
 40
1
 40
1
 40
1
 10
517.701488
 20
686.803712
 30
0.0
 10
529.247887
 20
693.590011
 30
0.0
 10
543.207087
 20
698.429110
 30
0.0
 10
548.844085
 20
710.104410
 30
0.0
  0
SPLINE
  5
17c
100
AcDbEntity
  8
Layer_1
 62
1
100
AcDbSpline
 70
8
 71
3
 72
8
 73
4
 74
0
 40
0
 40
0
 40
0
 40
0
 40
1
 40
1
 40
1
 40
1
 10
548.844085
 20
710.104410
 30
0.0
 10
550.002783
 20
712.504311
 30
0.0
 10
549.758686
 20
715.688211
 30
0.0
 10
548.613572
 20
718.094708
 30
0.0
  0
SPLINE
  5
17d
100
AcDbEntity
  8
Layer_1
 62
1
100
AcDbSpline
 70
8
 71
3
 72
8
 73
4
 74
0
 40
0
 40
0
 40
0
 40
0
 40
1
 40
1
 40
1
 40
1
 10
548.613572
 20
718.094708
 30
0.0
 10
541.622373
 20
732.786607
 30
0.0
 10
536.463174
 20
732.016710
 30
0.0
 10
525.465177
 20
728.157208
 30
0.0
  0
SPLINE
  5
17e
100
AcDbEntity
  8
Layer_1
 62
1
100
AcDbSpline
 70
8
 71
3
 72
8
 73
4
 74
0
 40
0
 40
0
 40
0
 40
0
 40
1
 40
1
 40
1
 40
1
 10
525.465177
 20
728.157208
 30
0.0
 10
523.940475
 20
731.075710
 30
0.0
 10
522.995377
 20
731.969107
 30
0.0
 10
523.623376
 20
732.672809
 30
0.0
  0
SPLINE
  5
17f
100
AcDbEntity
  8
Layer_1
 62
1
100
AcDbSpline
 70
8
 71
3
 72
8
 73
4
 74
0
 40
0
 40
0
 40
0
 40
0
 40
1
 40
1
 40
1
 40
1
 10
523.623376
 20
732.672809
 30
0.0
 10
524.058577
 20
733.161608
 30
0.0
 10
525.245874
 20
733.576407
 30
0.0
 10
527.508076
 20
734.555607
 30
0.0
  0
LWPOLYLINE
  5
180
100
AcDbEntity
  8
Layer_1
 62
1
100
AcDbPolyline
 90
1
 70
1
 10
374.978060
 20
64.289483
 30
0.0
  0
SPLINE
  5
181
100
AcDbEntity
  8
Layer_1
 62
1
100
AcDbSpline
 70
8
 71
3
 72
8
 73
4
 74
0
 40
0
 40
0
 40
0
 40
0
 40
1
 40
1
 40
1
 40
1
 10
523.406575
 20
745.112307
 30
0.0
 10
522.958077
 20
746.271507
 30
0.0
 10
521.642276
 20
746.804307
 30
0.0
 10
520.482676
 20
746.301705
 30
0.0
  0
LWPOLYLINE
  5
182
100
AcDbEntity
  8
Layer_1
 62
1
100
AcDbPolyline
 90
2
 70
0
 10
527.508076
 20
734.555607
 30
0.0
 10
523.406575
 20
745.112307
 30
0.0
  0
SPLINE
  5
183
100
AcDbEntity
  8
Layer_1
 62
1
100
AcDbSpline
 70
8
 71
3
 72
8
 73
4
 74
0
 40
0
 40
0
 40
0
 40
0
 40
1
 40
1
 40
1
 40
1
 10
499.720977
 20
737.305606
 30
0.0
 10
498.562178
 20
736.803209
 30
0.0
 10
497.980581
 20
735.446506
 30
0.0
 10
498.429978
 20
734.290009
 30
0.0
  0
LWPOLYLINE
  5
184
100
AcDbEntity
  8
Layer_1
 62
1
100
AcDbPolyline
 90
2
 70
0
 10
520.482676
 20
746.301705
 30
0.0
 10
499.720977
 20
737.305606
 30
0.0
  0
SPLINE
  5
185
100
AcDbEntity
  8
Layer_1
 62
1
100
AcDbSpline
 70
8
 71
3
 72
8
 73
4
 74
0
 40
0
 40
0
 40
0
 40
0
 40
1
 40
1
 40
1
 40
1
 10
506.732677
 20
725.553707
 30
0.0
 10
508.306676
 20
726.235609
 30
0.0
 10
507.990477
 20
722.330409
 30
0.0
 10
508.603777
 20
720.762608
 30
0.0
  0
SPLINE
  5
186
100
AcDbEntity
  8
Layer_1
 62
1
100
AcDbSpline
 70
8
 71
3
 72
8
 73
4
 74
0
 40
0
 40
0
 40
0
 40
0
 40
1
 40
1
 40
1
 40
1
 10
508.603777
 20
720.762608
 30
0.0
 10
504.214378
 20
718.696511
 30
0.0
 10
499.577578
 20
716.544909
 30
0.0
 10
494.738578
 20
714.596608
 30
0.0
  0
SPLINE
  5
187
100
AcDbEntity
  8
Layer_1
 62
1
100
AcDbSpline
 70
8
 71
3
 72
8
 73
4
 74
0
 40
0
 40
0
 40
0
 40
0
 40
1
 40
1
 40
1
 40
1
 10
494.738578
 20
714.596608
 30
0.0
 10
484.175181
 20
710.342811
 30
0.0
 10
473.974381
 20
705.746709
 30
0.0
 10
464.076483
 20
700.877911
 30
0.0
  0
SPLINE
  5
188
100
AcDbEntity
  8
Layer_1
 62
1
100
AcDbSpline
 70
8
 71
3
 72
8
 73
4
 74
0
 40
0
 40
0
 40
0
 40
0
 40
1
 40
1
 40
1
 40
1
 10
464.076483
 20
700.877911
 30
0.0
 10
462.362483
 20
703.672010
 30
0.0
 10
461.378585
 20
704.463511
 30
0.0
 10
461.955382
 20
705.208010
 30
0.0
  0
SPLINE
  5
189
100
AcDbEntity
  8
Layer_1
 62
1
100
AcDbSpline
 70
8
 71
3
 72
8
 73
4
 74
0
 40
0
 40
0
 40
0
 40
0
 40
1
 40
1
 40
1
 40
1
 10
461.955382
 20
705.208010
 30
0.0
 10
462.357184
 20
705.725109
 30
0.0
 10
463.513084
 20
706.220511
 30
0.0
 10
465.703384
 20
707.352510
 30
0.0
  0
LWPOLYLINE
  5
18a
100
AcDbEntity
  8
Layer_1
 62
1
100
AcDbPolyline
 90
3
 70
0
 10
498.429978
 20
734.290009
 30
0.0
 10
502.531577
 20
723.733309
 30
0.0
 10
506.732677
 20
725.553707
 30
0.0
  0
SPLINE
  5
18b
100
AcDbEntity
  8
Layer_1
 62
1
100
AcDbSpline
 70
8
 71
3
 72
8
 73
4
 74
0
 40
0
 40
0
 40
0
 40
0
 40
1
 40
1
 40
1
 40
1
 10
460.888985
 20
717.604409
 30
0.0
 10
460.361782
 20
718.726709
 30
0.0
 10
459.012582
 20
719.169311
 30
0.0
 10
457.890882
 20
718.588810
 30
0.0
  0
LWPOLYLINE
  5
18c
100
AcDbEntity
  8
Layer_1
 62
1
100
AcDbPolyline
 90
2
 70
0
 10
465.703384
 20
707.352510
 30
0.0
 10
460.888985
 20
717.604409
 30
0.0
  0
SPLINE
  5
18d
100
AcDbEntity
  8
Layer_1
 62
1
100
AcDbSpline
 70
8
 71
3
 72
8
 73
4
 74
0
 40
0
 40
0
 40
0
 40
0
 40
1
 40
1
 40
1
 40
1
 10
437.793284
 20
708.194312
 30
0.0
 10
436.670085
 20
707.614011
 30
0.0
 10
436.183984
 20
706.222212
 30
0.0
 10
436.711285
 20
705.098611
 30
0.0
  0
LWPOLYLINE
  5
18e
100
AcDbEntity
  8
Layer_1
 62
1
100
AcDbPolyline
 90
2
 70
0
 10
457.890882
 20
718.588810
 30
0.0
 10
437.793284
 20
708.194312
 30
0.0
  0
SPLINE
  5
18f
100
AcDbEntity
  8
Layer_1
 62
1
100
AcDbSpline
 70
8
 71
3
 72
8
 73
4
 74
0
 40
0
 40
0
 40
0
 40
0
 40
1
 40
1
 40
1
 40
1
 10
445.592086
 20
696.950113
 30
0.0
 10
447.116384
 20
697.737714
 30
0.0
 10
447.029285
 20
693.908512
 30
0.0
 10
447.748385
 20
692.385714
 30
0.0
  0
SPLINE
  5
190
100
AcDbEntity
  8
Layer_1
 62
1
100
AcDbSpline
 70
8
 71
3
 72
8
 73
4
 74
0
 40
0
 40
0
 40
0
 40
0
 40
1
 40
1
 40
1
 40
1
 10
447.748385
 20
692.385714
 30
0.0
 10
371.242293
 20
650.648819
 30
0.0
 10
316.291199
 20
604.476524
 30
0.0
 10
283.182004
 20
536.397431
 30
0.0
  0
SPLINE
  5
191
100
AcDbEntity
  8
Layer_1
 62
1
100
AcDbSpline
 70
8
 71
3
 72
8
 73
4
 74
0
 40
0
 40
0
 40
0
 40
0
 40
1
 40
1
 40
1
 40
1
 10
283.182004
 20
536.397431
 30
0.0
 10
280.219202
 20
537.496128
 30
0.0
 10
278.994503
 20
537.529630
 30
0.0
 10
278.994503
 20
538.456030
 30
0.0
  0
SPLINE
  5
192
100
AcDbEntity
  8
Layer_1
 62
1
100
AcDbSpline
 70
8
 71
3
 72
8
 73
4
 74
0
 40
0
 40
0
 40
0
 40
0
 40
1
 40
1
 40
1
 40
1
 10
278.994503
 20
538.456030
 30
0.0
 10
278.994503
 20
539.111030
 30
0.0
 10
279.603302
 20
540.211930
 30
0.0
 10
280.637003
 20
542.450128
 30
0.0
  0
LWPOLYLINE
  5
193
100
AcDbEntity
  8
Layer_1
 62
1
100
AcDbPolyline
 90
3
 70
0
 10
436.711285
 20
705.098611
 30
0.0
 10
441.523784
 20
694.846613
 30
0.0
 10
445.592086
 20
696.950113
 30
0.0
  0
SPLINE
  5
194
100
AcDbEntity
  8
Layer_1
 62
1
100
AcDbSpline
 70
8
 71
3
 72
8
 73
4
 74
0
 40
0
 40
0
 40
0
 40
0
 40
1
 40
1
 40
1
 40
1
 10
270.539402
 20
547.584930
 30
0.0
 10
269.434204
 20
548.146930
 30
0.0
 10
268.097805
 20
547.667928
 30
0.0
 10
267.568705
 20
546.520528
 30
0.0
  0
LWPOLYLINE
  5
195
100
AcDbEntity
  8
Layer_1
 62
1
100
AcDbPolyline
 90
2
 70
0
 10
280.637003
 20
542.450128
 30
0.0
 10
270.539402
 20
547.584930
 30
0.0
  0
SPLINE
  5
196
100
AcDbEntity
  8
Layer_1
 62
1
100
AcDbSpline
 70
8
 71
3
 72
8
 73
4
 74
0
 40
0
 40
0
 40
0
 40
0
 40
1
 40
1
 40
1
 40
1
 10
258.092104
 20
525.973631
 30
0.0
 10
257.562608
 20
524.826632
 30
0.0
 10
258.033106
 20
523.429031
 30
0.0
 10
259.139007
 20
522.866232
 30
0.0
  0
LWPOLYLINE
  5
197
100
AcDbEntity
  8
Layer_1
 62
1
100
AcDbPolyline
 90
2
 70
0
 10
267.568705
 20
546.520528
 30
0.0
 10
258.092104
 20
525.973631
 30
0.0
  0
SPLINE
  5
198
100
AcDbEntity
  8
Layer_1
 62
1
100
AcDbSpline
 70
8
 71
3
 72
8
 73
4
 74
0
 40
0
 40
0
 40
0
 40
0
 40
1
 40
1
 40
1
 40
1
 10
271.152703
 20
521.889633
 30
0.0
 10
271.854905
 20
523.411233
 30
0.0
 10
274.047904
 20
520.514131
 30
0.0
 10
275.549105
 20
519.668930
 30
0.0
  0
SPLINE
  5
199
100
AcDbEntity
  8
Layer_1
 62
1
100
AcDbSpline
 70
8
 71
3
 72
8
 73
4
 74
0
 40
0
 40
0
 40
0
 40
0
 40
1
 40
1
 40
1
 40
1
 10
275.549105
 20
519.668930
 30
0.0
 10
268.248204
 20
502.556834
 30
0.0
 10
262.281105
 20
485.014937
 30
0.0
 10
257.652704
 20
467.200139
 30
0.0
  0
LWPOLYLINE
  5
19a
100
AcDbEntity
  8
Layer_1
 62
1
100
AcDbPolyline
 90
3
 70
0
 10
259.139007
 20
522.866232
 30
0.0
 10
269.234706
 20
517.731431
 30
0.0
 10
271.152703
 20
521.889633
 30
0.0
  0
SPLINE
  5
19b
100
AcDbEntity
  8
Layer_1
 62
1
100
AcDbSpline
 70
8
 71
3
 72
8
 73
4
 74
0
 40
0
 40
0
 40
0
 40
0
 40
1
 40
1
 40
1
 40
1
 10
257.652704
 20
467.237178
 30
0.0
 10
254.400005
 20
467.750480
 30
0.0
 10
253.154004
 20
467.512177
 30
0.0
 10
252.961305
 20
468.436381
 30
0.0
  0
SPLINE
  5
19c
100
AcDbEntity
  8
Layer_1
 62
1
100
AcDbSpline
 70
8
 71
3
 72
8
 73
4
 74
0
 40
0
 40
0
 40
0
 40
0
 40
1
 40
1
 40
1
 40
1
 10
252.961305
 20
468.436381
 30
0.0
 10
252.827812
 20
469.077377
 30
0.0
 10
253.203913
 20
470.280080
 30
0.0
 10
253.764005
 20
472.680480
 30
0.0
  0
LWPOLYLINE
  5
19d
100
AcDbEntity
  8
Layer_1
 62
1
100
AcDbPolyline
 90
2
 70
0
 10
257.652704
 20
467.200139
 30
0.0
 10
257.652704
 20
467.237178
 30
0.0
  0
SPLINE
  5
19e
100
AcDbEntity
  8
Layer_1
 62
1
100
AcDbSpline
 70
8
 71
3
 72
8
 73
4
 74
0
 40
0
 40
0
 40
0
 40
0
 40
1
 40
1
 40
1
 40
1
 10
242.840208
 20
475.670679
 30
0.0
 10
241.643609
 20
475.998667
 30
0.0
 10
240.430109
 20
475.258677
 30
0.0
 10
240.142907
 20
474.028180
 30
0.0
  0
LWPOLYLINE
  5
19f
100
AcDbEntity
  8
Layer_1
 62
1
100
AcDbPolyline
 90
2
 70
0
 10
253.764005
 20
472.680480
 30
0.0
 10
242.840208
 20
475.670679
 30
0.0
  0
SPLINE
  5
1a0
100
AcDbEntity
  8
Layer_1
 62
1
100
AcDbSpline
 70
8
 71
3
 72
8
 73
4
 74
0
 40
0
 40
0
 40
0
 40
0
 40
1
 40
1
 40
1
 40
1
 10
235.008109
 20
451.991080
 30
0.0
 10
234.720903
 20
450.760681
 30
0.0
 10
235.465409
 20
449.486682
 30
0.0
 10
236.662408
 20
449.158982
 30
0.0
  0
LWPOLYLINE
  5
1a1
100
AcDbEntity
  8
Layer_1
 62
1
100
AcDbPolyline
 90
2
 70
0
 10
240.142907
 20
474.028180
 30
0.0
 10
235.008109
 20
451.991080
 30
0.0
  0
SPLINE
  5
1a2
100
AcDbEntity
  8
Layer_1
 62
1
100
AcDbSpline
 70
8
 71
3
 72
8
 73
4
 74
0
 40
0
 40
0
 40
0
 40
0
 40
1
 40
1
 40
1
 40
1
 10
248.625307
 20
450.627782
 30
0.0
 10
249.010807
 20
452.281181
 30
0.0
 10
251.812507
 20
449.801380
 30
0.0
 10
253.445606
 20
449.321082
 30
0.0
  0
SPLINE
  5
1a3
100
AcDbEntity
  8
Layer_1
 62
1
100
AcDbSpline
 70
8
 71
3
 72
8
 73
4
 74
0
 40
0
 40
0
 40
0
 40
0
 40
1
 40
1
 40
1
 40
1
 10
253.445606
 20
449.321082
 30
0.0
 10
248.309807
 20
424.606285
 30
0.0
 10
245.710006
 20
399.478174
 30
0.0
 10
245.656606
 20
374.346473
 30
0.0
  0
LWPOLYLINE
  5
1a4
100
AcDbEntity
  8
Layer_1
 62
1
100
AcDbPolyline
 90
3
 70
0
 10
236.662408
 20
449.158982
 30
0.0
 10
247.586307
 20
446.168782
 30
0.0
 10
248.625307
 20
450.627782
 30
0.0
  0
SPLINE
  5
1a5
100
AcDbEntity
  8
Layer_1
 62
1
100
AcDbSpline
 70
8
 71
3
 72
8
 73
4
 74
0
 40
0
 40
0
 40
0
 40
0
 40
1
 40
1
 40
1
 40
1
 10
245.656606
 20
374.335134
 30
0.0
 10
245.709595
 20
349.203433
 30
0.0
 10
248.309807
 20
324.073319
 30
0.0
 10
253.445606
 20
299.358650
 30
0.0
  0
SPLINE
  5
1a6
100
AcDbEntity
  8
Layer_1
 62
1
100
AcDbSpline
 70
8
 71
3
 72
8
 73
4
 74
0
 40
0
 40
0
 40
0
 40
0
 40
1
 40
1
 40
1
 40
1
 10
253.445606
 20
299.358650
 30
0.0
 10
251.812507
 20
298.878348
 30
0.0
 10
249.010807
 20
296.398449
 30
0.0
 10
248.625307
 20
298.051916
 30
0.0
  0
LWPOLYLINE
  5
1a7
100
AcDbEntity
  8
Layer_1
 62
1
100
AcDbPolyline
 90
2
 70
0
 10
245.656606
 20
374.346473
 30
0.0
 10
245.656606
 20
374.335134
 30
0.0
  0
SPLINE
  5
1a8
100
AcDbEntity
  8
Layer_1
 62
1
100
AcDbSpline
 70
8
 71
3
 72
8
 73
4
 74
0
 40
0
 40
0
 40
0
 40
0
 40
1
 40
1
 40
1
 40
1
 10
236.662408
 20
299.520716
 30
0.0
 10
235.465409
 20
299.193031
 30
0.0
 10
234.720906
 20
297.919028
 30
0.0
 10
235.008109
 20
296.688641
 30
0.0
  0
LWPOLYLINE
  5
1a9
100
AcDbEntity
  8
Layer_1
 62
1
100
AcDbPolyline
 90
3
 70
0
 10
248.625307
 20
298.051916
 30
0.0
 10
247.586307
 20
302.510927
 30
0.0
 10
236.662408
 20
299.520716
 30
0.0
  0
SPLINE
  5
1aa
100
AcDbEntity
  8
Layer_1
 62
1
100
AcDbSpline
 70
8
 71
3
 72
8
 73
4
 74
0
 40
0
 40
0
 40
0
 40
0
 40
1
 40
1
 40
1
 40
1
 10
240.142907
 20
274.651541
 30
0.0
 10
240.430113
 20
273.420927
 30
0.0
 10
241.643609
 20
272.681047
 30
0.0
 10
242.840208
 20
273.008921
 30
0.0
  0
LWPOLYLINE
  5
1ab
100
AcDbEntity
  8
Layer_1
 62
1
100
AcDbPolyline
 90
2
 70
0
 10
235.008109
 20
296.688641
 30
0.0
 10
240.142907
 20
274.651541
 30
0.0
  0
SPLINE
  5
1ac
100
AcDbEntity
  8
Layer_1
 62
1
100
AcDbSpline
 70
8
 71
3
 72
8
 73
4
 74
0
 40
0
 40
0
 40
0
 40
0
 40
1
 40
1
 40
1
 40
1
 10
253.764005
 20
275.999245
 30
0.0
 10
253.203906
 20
278.399622
 30
0.0
 10
252.827805
 20
279.602344
 30
0.0
 10
252.961305
 20
280.243351
 30
0.0
  0
SPLINE
  5
1ad
100
AcDbEntity
  8
Layer_1
 62
1
100
AcDbSpline
 70
8
 71
3
 72
8
 73
4
 74
0
 40
0
 40
0
 40
0
 40
0
 40
1
 40
1
 40
1
 40
1
 10
252.961305
 20
280.243351
 30
0.0
 10
253.154023
 20
281.167521
 30
0.0
 10
254.400005
 20
280.929222
 30
0.0
 10
257.652704
 20
281.442520
 30
0.0
  0
LWPOLYLINE
  5
1ae
100
AcDbEntity
  8
Layer_1
 62
1
100
AcDbPolyline
 90
2
 70
0
 10
242.840208
 20
273.008921
 30
0.0
 10
253.764005
 20
275.999245
 30
0.0
  0
SPLINE
  5
1af
100
AcDbEntity
  8
Layer_1
 62
1
100
AcDbSpline
 70
8
 71
3
 72
8
 73
4
 74
0
 40
0
 40
0
 40
0
 40
0
 40
1
 40
1
 40
1
 40
1
 10
257.652704
 20
281.481449
 30
0.0
 10
262.281105
 20
263.666647
 30
0.0
 10
268.248204
 20
246.124879
 30
0.0
 10
275.549105
 20
229.012654
 30
0.0
  0
SPLINE
  5
1b0
100
AcDbEntity
  8
Layer_1
 62
1
100
AcDbSpline
 70
8
 71
3
 72
8
 73
4
 74
0
 40
0
 40
0
 40
0
 40
0
 40
1
 40
1
 40
1
 40
1
 10
275.549105
 20
229.012654
 30
0.0
 10
274.047904
 20
228.167552
 30
0.0
 10
271.854905
 20
225.270355
 30
0.0
 10
271.152703
 20
226.791955
 30
0.0
  0
LWPOLYLINE
  5
1b1
100
AcDbEntity
  8
Layer_1
 62
1
100
AcDbPolyline
 90
2
 70
0
 10
257.652704
 20
281.442520
 30
0.0
 10
257.652704
 20
281.481449
 30
0.0
  0
SPLINE
  5
1b2
100
AcDbEntity
  8
Layer_1
 62
1
100
AcDbSpline
 70
8
 71
3
 72
8
 73
4
 74
0
 40
0
 40
0
 40
0
 40
0
 40
1
 40
1
 40
1
 40
1
 10
259.139007
 20
225.815476
 30
0.0
 10
258.033106
 20
225.252667
 30
0.0
 10
257.562608
 20
223.855073
 30
0.0
 10
258.092104
 20
222.708063
 30
0.0
  0
LWPOLYLINE
  5
1b3
100
AcDbEntity
  8
Layer_1
 62
1
100
AcDbPolyline
 90
3
 70
0
 10
271.152703
 20
226.791955
 30
0.0
 10
269.234706
 20
230.950266
 30
0.0
 10
259.139007
 20
225.815476
 30
0.0
  0
SPLINE
  5
1b4
100
AcDbEntity
  8
Layer_1
 62
1
100
AcDbSpline
 70
8
 71
3
 72
8
 73
4
 74
0
 40
0
 40
0
 40
0
 40
0
 40
1
 40
1
 40
1
 40
1
 10
267.568705
 20
202.161154
 30
0.0
 10
268.097805
 20
201.013652
 30
0.0
 10
269.434204
 20
200.534786
 30
0.0
 10
270.539402
 20
201.096651
 30
0.0
  0
LWPOLYLINE
  5
1b5
100
AcDbEntity
  8
Layer_1
 62
1
100
AcDbPolyline
 90
2
 70
0
 10
258.092104
 20
222.708063
 30
0.0
 10
267.568705
 20
202.161154
 30
0.0
  0
SPLINE
  5
1b6
100
AcDbEntity
  8
Layer_1
 62
1
100
AcDbSpline
 70
8
 71
3
 72
8
 73
4
 74
0
 40
0
 40
0
 40
0
 40
0
 40
1
 40
1
 40
1
 40
1
 10
280.637003
 20
206.233973
 30
0.0
 10
279.603302
 20
208.472171
 30
0.0
 10
278.993305
 20
209.573185
 30
0.0
 10
278.994503
 20
210.228064
 30
0.0
  0
SPLINE
  5
1b7
100
AcDbEntity
  8
Layer_1
 62
1
100
AcDbSpline
 70
8
 71
3
 72
8
 73
4
 74
0
 40
0
 40
0
 40
0
 40
0
 40
1
 40
1
 40
1
 40
1
 10
278.994503
 20
210.228064
 30
0.0
 10
278.994503
 20
211.154464
 30
0.0
 10
280.219202
 20
211.187950
 30
0.0
 10
283.182004
 20
212.286659
 30
0.0
  0
SPLINE
  5
1b8
100
AcDbEntity
  8
Layer_1
 62
1
100
AcDbSpline
 70
8
 71
3
 72
8
 73
4
 74
0
 40
0
 40
0
 40
0
 40
0
 40
1
 40
1
 40
1
 40
1
 10
283.182004
 20
212.286659
 30
0.0
 10
316.291199
 20
144.207585
 30
0.0
 10
371.242293
 20
98.035369
 30
0.0
 10
447.748385
 20
56.298466
 30
0.0
  0
SPLINE
  5
1b9
100
AcDbEntity
  8
Layer_1
 62
1
100
AcDbSpline
 70
8
 71
3
 72
8
 73
4
 74
0
 40
0
 40
0
 40
0
 40
0
 40
1
 40
1
 40
1
 40
1
 10
447.748385
 20
56.298466
 30
0.0
 10
447.029285
 20
54.775695
 30
0.0
 10
447.116384
 20
50.946694
 30
0.0
 10
445.592086
 20
51.733969
 30
0.0
  0
LWPOLYLINE
  5
1ba
100
AcDbEntity
  8
Layer_1
 62
1
100
AcDbPolyline
 90
2
 70
0
 10
270.539402
 20
201.096651
 30
0.0
 10
280.637003
 20
206.233973
 30
0.0
  0
SPLINE
  5
1bb
100
AcDbEntity
  8
Layer_1
 62
1
100
AcDbSpline
 70
8
 71
3
 72
8
 73
4
 74
0
 40
0
 40
0
 40
0
 40
0
 40
1
 40
1
 40
1
 40
1
 10
436.711285
 20
43.585573
 30
0.0
 10
436.183984
 20
42.461882
 30
0.0
 10
436.670277
 20
41.070373
 30
0.0
 10
437.793284
 20
40.489876
 30
0.0
  0
LWPOLYLINE
  5
1bc
100
AcDbEntity
  8
Layer_1
 62
1
100
AcDbPolyline
 90
3
 70
0
 10
445.592086
 20
51.733969
 30
0.0
 10
441.523784
 20
53.837503
 30
0.0
 10
436.711285
 20
43.585573
 30
0.0
  0
SPLINE
  5
1bd
100
AcDbEntity
  8
Layer_1
 62
1
100
AcDbSpline
 70
8
 71
3
 72
8
 73
4
 74
0
 40
0
 40
0
 40
0
 40
0
 40
1
 40
1
 40
1
 40
1
 10
457.890882
 20
30.095307
 30
0.0
 10
459.012582
 20
29.514771
 30
0.0
 10
460.361782
 20
29.959622
 30
0.0
 10
460.888985
 20
31.079685
 30
0.0
  0
LWPOLYLINE
  5
1be
100
AcDbEntity
  8
Layer_1
 62
1
100
AcDbPolyline
 90
2
 70
0
 10
437.793284
 20
40.489876
 30
0.0
 10
457.890882
 20
30.095307
 30
0.0
  0
SPLINE
  5
1bf
100
AcDbEntity
  8
Layer_1
 62
1
100
AcDbSpline
 70
8
 71
3
 72
8
 73
4
 74
0
 40
0
 40
0
 40
0
 40
0
 40
1
 40
1
 40
1
 40
1
 10
465.703384
 20
41.331690
 30
0.0
 10
463.513084
 20
42.463999
 30
0.0
 10
462.357184
 20
42.959079
 30
0.0
 10
461.955382
 20
43.476194
 30
0.0
  0
SPLINE
  5
1c0
100
AcDbEntity
  8
Layer_1
 62
1
100
AcDbSpline
 70
8
 71
3
 72
8
 73
4
 74
0
 40
0
 40
0
 40
0
 40
0
 40
1
 40
1
 40
1
 40
1
 10
461.955382
 20
43.476194
 30
0.0
 10
461.378585
 20
44.220798
 30
0.0
 10
462.362483
 20
45.012080
 30
0.0
 10
464.076483
 20
47.806285
 30
0.0
  0
SPLINE
  5
1c1
100
AcDbEntity
  8
Layer_1
 62
1
100
AcDbSpline
 70
8
 71
3
 72
8
 73
4
 74
0
 40
0
 40
0
 40
0
 40
0
 40
1
 40
1
 40
1
 40
1
 10
464.076483
 20
47.806285
 30
0.0
 10
473.974381
 20
42.937498
 30
0.0
 10
484.175181
 20
38.341404
 30
0.0
 10
494.738578
 20
34.087470
 30
0.0
  0
SPLINE
  5
1c2
100
AcDbEntity
  8
Layer_1
 62
1
100
AcDbSpline
 70
8
 71
3
 72
8
 73
4
 74
0
 40
0
 40
0
 40
0
 40
0
 40
1
 40
1
 40
1
 40
1
 10
494.738578
 20
34.087470
 30
0.0
 10
499.577578
 20
32.139200
 30
0.0
 10
504.214378
 20
29.987779
 30
0.0
 10
508.603777
 20
27.921474
 30
0.0
  0
SPLINE
  5
1c3
100
AcDbEntity
  8
Layer_1
 62
1
100
AcDbSpline
 70
8
 71
3
 72
8
 73
4
 74
0
 40
0
 40
0
 40
0
 40
0
 40
1
 40
1
 40
1
 40
1
 10
508.603777
 20
27.921474
 30
0.0
 10
507.990477
 20
26.354104
 30
0.0
 10
508.306668
 20
22.448681
 30
0.0
 10
506.732677
 20
23.130508
 30
0.0
  0
LWPOLYLINE
  5
1c4
100
AcDbEntity
  8
Layer_1
 62
1
100
AcDbPolyline
 90
2
 70
0
 10
460.888985
 20
31.079685
 30
0.0
 10
465.703384
 20
41.331690
 30
0.0
  0
SPLINE
  5
1c5
100
AcDbEntity
  8
Layer_1
 62
1
100
AcDbSpline
 70
8
 71
3
 72
8
 73
4
 74
0
 40
0
 40
0
 40
0
 40
0
 40
1
 40
1
 40
1
 40
1
 10
498.429978
 20
14.394206
 30
0.0
 10
497.980581
 20
13.237595
 30
0.0
 10
498.562185
 20
11.880783
 30
0.0
 10
499.720977
 20
11.378484
 30
0.0
  0
LWPOLYLINE
  5
1c6
100
AcDbEntity
  8
Layer_1
 62
1
100
AcDbPolyline
 90
3
 70
0
 10
506.732677
 20
23.130508
 30
0.0
 10
502.531577
 20
24.950803
 30
0.0
 10
498.429978
 20
14.394206
 30
0.0
  0
SPLINE
  5
1c7
100
AcDbEntity
  8
Layer_1
 62
1
100
AcDbSpline
 70
8
 71
3
 72
8
 73
4
 74
0
 40
0
 40
0
 40
0
 40
0
 40
1
 40
1
 40
1
 40
1
 10
520.482676
 20
2.382377
 30
0.0
 10
521.642276
 20
1.880078
 30
0.0
 10
522.958077
 20
2.420551
 30
0.0
 10
523.406575
 20
3.571908
 30
0.0
  0
LWPOLYLINE
  5
1c8
100
AcDbEntity
  8
Layer_1
 62
1
100
AcDbPolyline
 90
2
 70
0
 10
499.720977
 20
11.378484
 30
0.0
 10
520.482676
 20
2.382377
 30
0.0
  0
SPLINE
  5
1c9
100
AcDbEntity
  8
Layer_1
 62
1
100
AcDbSpline
 70
8
 71
3
 72
8
 73
4
 74
0
 40
0
 40
0
 40
0
 40
0
 40
1
 40
1
 40
1
 40
1
 10
527.508076
 20
14.128505
 30
0.0
 10
525.245874
 20
15.107781
 30
0.0
 10
524.058577
 20
15.522697
 30
0.0
 10
523.623376
 20
16.011277
 30
0.0
  0
SPLINE
  5
1ca
100
AcDbEntity
  8
Layer_1
 62
1
100
AcDbSpline
 70
8
 71
3
 72
8
 73
4
 74
0
 40
0
 40
0
 40
0
 40
0
 40
1
 40
1
 40
1
 40
1
 10
523.623376
 20
16.011277
 30
0.0
 10
522.995377
 20
16.715100
 30
0.0
 10
523.940478
 20
17.608392
 30
0.0
 10
525.465177
 20
20.526980
 30
0.0
  0
SPLINE
  5
1cb
100
AcDbEntity
  8
Layer_1
 62
1
100
AcDbSpline
 70
8
 71
3
 72
8
 73
4
 74
0
 40
0
 40
0
 40
0
 40
0
 40
1
 40
1
 40
1
 40
1
 10
525.465177
 20
20.526980
 30
0.0
 10
536.463174
 20
16.667289
 30
0.0
 10
541.622373
 20
15.897702
 30
0.0
 10
548.613572
 20
30.589480
 30
0.0
  0
SPLINE
  5
1cc
100
AcDbEntity
  8
Layer_1
 62
1
100
AcDbSpline
 70
8
 71
3
 72
8
 73
4
 74
0
 40
0
 40
0
 40
0
 40
0
 40
1
 40
1
 40
1
 40
1
 10
548.613572
 20
30.589480
 30
0.0
 10
549.758674
 20
32.995905
 30
0.0
 10
550.002771
 20
36.180081
 30
0.0
 10
548.844085
 20
38.579703
 30
0.0
  0
SPLINE
  5
1cd
100
AcDbEntity
  8
Layer_1
 62
1
100
AcDbSpline
 70
8
 71
3
 72
8
 73
4
 74
0
 40
0
 40
0
 40
0
 40
0
 40
1
 40
1
 40
1
 40
1
 10
548.844085
 20
38.579703
 30
0.0
 10
543.207087
 20
50.255002
 30
0.0
 10
529.247887
 20
55.094271
 30
0.0
 10
517.701488
 20
61.880488
 30
0.0
  0
SPLINE
  5
1ce
100
AcDbEntity
  8
Layer_1
 62
1
100
AcDbSpline
 70
8
 71
3
 72
8
 73
4
 74
0
 40
0
 40
0
 40
0
 40
0
 40
1
 40
1
 40
1
 40
1
 10
517.701488
 20
61.880488
 30
0.0
 10
517.701488
 20
61.880488
 30
0.0
 10
556.016585
 20
41.278474
 30
0.0
 10
576.965182
 20
36.464490
 30
0.0
  0
SPLINE
  5
1cf
100
AcDbEntity
  8
Layer_1
 62
1
100
AcDbSpline
 70
8
 71
3
 72
8
 73
4
 74
0
 40
0
 40
0
 40
0
 40
0
 40
1
 40
1
 40
1
 40
1
 10
576.965182
 20
36.464490
 30
0.0
 10
592.407580
 20
32.915477
 30
0.0
 10
611.561778
 20
25.027074
 30
0.0
 10
624.447576
 20
34.247684
 30
0.0
  0
SPLINE
  5
1d0
100
AcDbEntity
  8
Layer_1
 62
1
100
AcDbSpline
 70
8
 71
3
 72
8
 73
4
 74
0
 40
0
 40
0
 40
0
 40
0
 40
1
 40
1
 40
1
 40
1
 10
624.447576
 20
34.247684
 30
0.0
 10
636.747475
 20
43.049069
 30
0.0
 10
650.266575
 20
77.829677
 30
0.0
 10
637.072575
 20
77.829677
 30
0.0
  0
SPLINE
  5
1d1
100
AcDbEntity
  8
Layer_1
 62
1
100
AcDbSpline
 70
8
 71
3
 72
8
 73
4
 74
0
 40
0
 40
0
 40
0
 40
0
 40
1
 40
1
 40
1
 40
1
 10
637.072575
 20
77.829677
 30
0.0
 10
615.609077
 20
77.829677
 30
0.0
 10
588.284080
 20
76.201192
 30
0.0
 10
570.301081
 20
79.743781
 30
0.0
  0
SPLINE
  5
1d2
100
AcDbEntity
  8
Layer_1
 62
1
100
AcDbSpline
 70
8
 71
3
 72
8
 73
4
 74
0
 40
0
 40
0
 40
0
 40
0
 40
1
 40
1
 40
1
 40
1
 10
570.301081
 20
79.743781
 30
0.0
 10
539.892287
 20
86.470772
 30
0.0
 10
514.079688
 20
106.412767
 30
0.0
 10
488.197592
 20
123.495663
 30
0.0
  0
SPLINE
  5
1d3
100
AcDbEntity
  8
Layer_1
 62
1
100
AcDbSpline
 70
8
 71
3
 72
8
 73
4
 74
0
 40
0
 40
0
 40
0
 40
0
 40
1
 40
1
 40
1
 40
1
 10
488.197592
 20
123.495663
 30
0.0
 10
476.554592
 20
131.180273
 30
0.0
 10
465.472894
 20
139.883957
 30
0.0
 10
455.580393
 20
149.720290
 30
0.0
  0
SPLINE
  5
1d4
100
AcDbEntity
  8
Layer_1
 62
1
100
AcDbSpline
 70
8
 71
3
 72
8
 73
4
 74
0
 40
0
 40
0
 40
0
 40
0
 40
1
 40
1
 40
1
 40
1
 10
455.580393
 20
149.720290
 30
0.0
 10
445.074494
 20
160.166677
 30
0.0
 10
435.764597
 20
171.882077
 30
0.0
 10
427.533497
 20
184.200766
 30
0.0
  0
SPLINE
  5
1d5
100
AcDbEntity
  8
Layer_1
 62
1
100
AcDbSpline
 70
8
 71
3
 72
8
 73
4
 74
0
 40
0
 40
0
 40
0
 40
0
 40
1
 40
1
 40
1
 40
1
 10
427.533497
 20
184.200766
 30
0.0
 10
418.196100
 20
198.174963
 30
0.0
 10
410.429300
 20
213.218577
 30
0.0
 10
403.570599
 20
228.562059
 30
0.0
  0
SPLINE
  5
1d6
100
AcDbEntity
  8
Layer_1
 62
1
100
AcDbSpline
 70
8
 71
3
 72
8
 73
4
 74
0
 40
0
 40
0
 40
0
 40
0
 40
1
 40
1
 40
1
 40
1
 10
403.570599
 20
228.562059
 30
0.0
 10
398.316100
 20
240.317182
 30
0.0
 10
394.202100
 20
252.578157
 30
0.0
 10
390.490601
 20
264.907769
 30
0.0
  0
SPLINE
  5
1d7
100
AcDbEntity
  8
Layer_1
 62
1
100
AcDbSpline
 70
8
 71
3
 72
8
 73
4
 74
0
 40
0
 40
0
 40
0
 40
0
 40
1
 40
1
 40
1
 40
1
 10
390.490601
 20
264.907769
 30
0.0
 10
386.801903
 20
277.160769
 30
0.0
 10
383.812203
 20
289.637971
 30
0.0
 10
381.389004
 20
302.202744
 30
0.0
  0
SPLINE
  5
1d8
100
AcDbEntity
  8
Layer_1
 62
1
100
AcDbSpline
 70
8
 71
3
 72
8
 73
4
 74
0
 40
0
 40
0
 40
0
 40
0
 40
1
 40
1
 40
1
 40
1
 10
381.389004
 20
302.202744
 30
0.0
 10
379.359103
 20
312.729446
 30
0.0
 10
377.952904
 20
323.379057
 30
0.0
 10
376.848004
 20
334.042540
 30
0.0
  0
SPLINE
  5
1d9
100
AcDbEntity
  8
Layer_1
 62
1
100
AcDbSpline
 70
8
 71
3
 72
8
 73
4
 74
0
 40
0
 40
0
 40
0
 40
0
 40
1
 40
1
 40
1
 40
1
 10
376.848004
 20
334.042540
 30
0.0
 10
375.751102
 20
344.627257
 30
0.0
 10
375.015905
 20
355.261259
 30
0.0
 10
374.779605
 20
365.899948
 30
0.0
  0
SPLINE
  5
1da
100
AcDbEntity
  8
Layer_1
 62
1
100
AcDbSpline
 70
8
 71
3
 72
8
 73
4
 74
0
 40
0
 40
0
 40
0
 40
0
 40
1
 40
1
 40
1
 40
1
 10
374.779605
 20
365.899948
 30
0.0
 10
374.717621
 20
368.712861
 30
0.0
 10
374.688594
 20
371.526945
 30
0.0
 10
374.693621
 20
374.341333
 30
0.0
  0
SPLINE
  5
1db
100
AcDbEntity
  8
Layer_1
 62
1
100
AcDbSpline
 70
8
 71
3
 72
8
 73
4
 74
0
 40
0
 40
0
 40
0
 40
0
 40
1
 40
1
 40
1
 40
1
 10
374.693621
 20
374.341333
 30
0.0
 10
374.683794
 20
377.155833
 30
0.0
 10
374.717810
 20
379.969956
 30
0.0
 10
374.779605
 20
382.782755
 30
0.0
  0
SPLINE
  5
1dc
100
AcDbEntity
  8
Layer_1
 62
1
100
AcDbSpline
 70
8
 71
3
 72
8
 73
4
 74
0
 40
0
 40
0
 40
0
 40
0
 40
1
 40
1
 40
1
 40
1
 10
374.779605
 20
382.782755
 30
0.0
 10
375.015901
 20
393.421444
 30
0.0
 10
375.751102
 20
404.055446
 30
0.0
 10
376.848004
 20
414.640163
 30
0.0
  0
SPLINE
  5
1dd
100
AcDbEntity
  8
Layer_1
 62
1
100
AcDbSpline
 70
8
 71
3
 72
8
 73
4
 74
0
 40
0
 40
0
 40
0
 40
0
 40
1
 40
1
 40
1
 40
1
 10
376.848004
 20
414.640163
 30
0.0
 10
377.952904
 20
425.303646
 30
0.0
 10
379.359103
 20
435.953333
 30
0.0
 10
381.389004
 20
446.480045
 30
0.0
  0
SPLINE
  5
1de
100
AcDbEntity
  8
Layer_1
 62
1
100
AcDbSpline
 70
8
 71
3
 72
8
 73
4
 74
0
 40
0
 40
0
 40
0
 40
0
 40
1
 40
1
 40
1
 40
1
 10
381.389004
 20
446.480045
 30
0.0
 10
383.812203
 20
459.044845
 30
0.0
 10
386.801903
 20
471.522044
 30
0.0
 10
390.490601
 20
483.774942
 30
0.0
  0
SPLINE
  5
1df
100
AcDbEntity
  8
Layer_1
 62
1
100
AcDbSpline
 70
8
 71
3
 72
8
 73
4
 74
0
 40
0
 40
0
 40
0
 40
0
 40
1
 40
1
 40
1
 40
1
 10
390.490601
 20
483.774942
 30
0.0
 10
394.202100
 20
496.104538
 30
0.0
 10
398.316100
 20
508.365638
 30
0.0
 10
403.570599
 20
520.120637
 30
0.0
  0
SPLINE
  5
1e0
100
AcDbEntity
  8
Layer_1
 62
1
100
AcDbSpline
 70
8
 71
3
 72
8
 73
4
 74
0
 40
0
 40
0
 40
0
 40
0
 40
1
 40
1
 40
1
 40
1
 10
403.570599
 20
520.120637
 30
0.0
 10
410.429300
 20
535.464137
 30
0.0
 10
418.196100
 20
550.507733
 30
0.0
 10
427.533497
 20
564.481934
 30
0.0
  0
SPLINE
  5
1e1
100
AcDbEntity
  8
Layer_1
 62
1
100
AcDbSpline
 70
8
 71
3
 72
8
 73
4
 74
0
 40
0
 40
0
 40
0
 40
0
 40
1
 40
1
 40
1
 40
1
 10
427.533497
 20
564.481934
 30
0.0
 10
435.764597
 20
576.800630
 30
0.0
 10
445.074494
 20
588.516128
 30
0.0
 10
455.580393
 20
598.962428
 30
0.0
  0
SPLINE
  5
1e2
100
AcDbEntity
  8
Layer_1
 62
1
100
AcDbSpline
 70
8
 71
3
 72
8
 73
4
 74
0
 40
0
 40
0
 40
0
 40
0
 40
1
 40
1
 40
1
 40
1
 10
455.580393
 20
598.962428
 30
0.0
 10
465.472894
 20
608.798829
 30
0.0
 10
476.554592
 20
617.502528
 30
0.0
 10
488.197592
 20
625.187025
 30
0.0
  0
SPLINE
  5
1e3
100
AcDbEntity
  8
Layer_1
 62
1
100
AcDbSpline
 70
8
 71
3
 72
8
 73
4
 74
0
 40
0
 40
0
 40
0
 40
0
 40
1
 40
1
 40
1
 40
1
 10
488.197592
 20
625.187025
 30
0.0
 10
514.079688
 20
642.270023
 30
0.0
 10
539.892287
 20
662.211821
 30
0.0
 10
570.301081
 20
668.939020
 30
0.0
  0
SPLINE
  5
1e4
100
AcDbEntity
  8
Layer_1
 62
1
100
AcDbSpline
 70
8
 71
3
 72
8
 73
4
 74
0
 40
0
 40
0
 40
0
 40
0
 40
1
 40
1
 40
1
 40
1
 10
570.301081
 20
668.939020
 30
0.0
 10
588.284080
 20
672.481420
 30
0.0
 10
615.609077
 20
670.851121
 30
0.0
 10
637.072575
 20
670.851121
 30
0.0
  0
SPLINE
  5
1e5
100
AcDbEntity
  8
Layer_1
 62
1
100
AcDbSpline
 70
8
 71
3
 72
8
 73
4
 74
0
 40
0
 40
0
 40
0
 40
0
 40
1
 40
1
 40
1
 40
1
 10
637.072575
 20
670.851121
 30
0.0
 10
640.783374
 20
670.851121
 30
0.0
 10
642.382474
 20
673.602821
 30
0.0
 10
642.488574
 20
677.753418
 30
0.0
  0
LWPOLYLINE
  5
1e6
100
AcDbEntity
  8
Layer_1
 62
1
100
AcDbPolyline
 90
2
 70
0
 10
523.406575
 20
3.571908
 30
0.0
 10
527.508076
 20
14.128505
 30
0.0
  0
SPLINE
  5
1e7
100
AcDbEntity
  8
Layer_1
 62
1
100
AcDbSpline
 70
8
 71
3
 72
8
 73
4
 74
0
 40
0
 40
0
 40
0
 40
0
 40
1
 40
1
 40
1
 40
1
 10
609.830018
 20
683.950051
 30
0.0
 10
604.580270
 20
683.950052
 30
0.0
 10
600.324508
 20
688.205814
 30
0.0
 10
600.324507
 20
693.455562
 30
0.0
  0
SPLINE
  5
1e8
100
AcDbEntity
  8
Layer_1
 62
1
100
AcDbSpline
 70
8
 71
3
 72
8
 73
4
 74
0
 40
0
 40
0
 40
0
 40
0
 40
1
 40
1
 40
1
 40
1
 10
600.324507
 20
693.455562
 30
0.0
 10
600.324508
 20
698.705311
 30
0.0
 10
604.580270
 20
702.961073
 30
0.0
 10
609.830018
 20
702.961073
 30
0.0
  0
SPLINE
  5
1e9
100
AcDbEntity
  8
Layer_1
 62
1
100
AcDbSpline
 70
8
 71
3
 72
8
 73
4
 74
0
 40
0
 40
0
 40
0
 40
0
 40
1
 40
1
 40
1
 40
1
 10
609.830018
 20
702.961073
 30
0.0
 10
615.079767
 20
702.961073
 30
0.0
 10
619.335529
 20
698.705311
 30
0.0
 10
619.335529
 20
693.455562
 30
0.0
  0
SPLINE
  5
1ea
100
AcDbEntity
  8
Layer_1
 62
1
100
AcDbSpline
 70
8
 71
3
 72
8
 73
4
 74
0
 40
0
 40
0
 40
0
 40
0
 40
1
 40
1
 40
1
 40
1
 10
619.335529
 20
693.455562
 30
0.0
 10
619.335529
 20
688.205814
 30
0.0
 10
615.079767
 20
683.950052
 30
0.0
 10
609.830018
 20
683.950051
 30
0.0
  0
LWPOLYLINE
  5
1eb
100
AcDbEntity
  8
Layer_1
 62
1
100
AcDbPolyline
 90
2
 70
0
 10
642.488574
 20
677.753418
 30
0.0
 10
642.488574
 20
677.754813
 30
0.0
  0
SPLINE
  5
1ec
100
AcDbEntity
  8
Layer_1
 62
1
100
AcDbSpline
 70
8
 71
3
 72
8
 73
4
 74
0
 40
0
 40
0
 40
0
 40
0
 40
1
 40
1
 40
1
 40
1
 10
609.830018
 20
64.733918
 30
0.0
 10
604.580270
 20
64.733917
 30
0.0
 10
600.324508
 20
60.478155
 30
0.0
 10
600.324507
 20
55.228407
 30
0.0
  0
SPLINE
  5
1ed
100
AcDbEntity
  8
Layer_1
 62
1
100
AcDbSpline
 70
8
 71
3
 72
8
 73
4
 74
0
 40
0
 40
0
 40
0
 40
0
 40
1
 40
1
 40
1
 40
1
 10
600.324507
 20
55.228407
 30
0.0
 10
600.324528
 20
49.978673
 30
0.0
 10
604.580284
 20
45.722934
 30
0.0
 10
609.830018
 20
45.722934
 30
0.0
  0
SPLINE
  5
1ee
100
AcDbEntity
  8
Layer_1
 62
1
100
AcDbSpline
 70
8
 71
3
 72
8
 73
4
 74
0
 40
0
 40
0
 40
0
 40
0
 40
1
 40
1
 40
1
 40
1
 10
609.830018
 20
45.722934
 30
0.0
 10
615.079752
 20
45.722934
 30
0.0
 10
619.335508
 20
49.978673
 30
0.0
 10
619.335529
 20
55.228407
 30
0.0
  0
SPLINE
  5
1ef
100
AcDbEntity
  8
Layer_1
 62
1
100
AcDbSpline
 70
8
 71
3
 72
8
 73
4
 74
0
 40
0
 40
0
 40
0
 40
0
 40
1
 40
1
 40
1
 40
1
 10
619.335529
 20
55.228407
 30
0.0
 10
619.335529
 20
60.478155
 30
0.0
 10
615.079767
 20
64.733917
 30
0.0
 10
609.830018
 20
64.733918
 30
0.0
  0
LWPOLYLINE
  5
1f0
100
AcDbEntity
  8
Layer_1
 62
1
100
AcDbPolyline
 90
1
 70
1
 10
609.830018
 20
683.950051
 30
0.0
  0
SPLINE
  5
1f1
100
AcDbEntity
  8
Layer_1
 62
1
100
AcDbSpline
 70
8
 71
3
 72
8
 73
4
 74
0
 40
0
 40
0
 40
0
 40
0
 40
1
 40
1
 40
1
 40
1
 10
885.625632
 20
675.754838
 30
0.0
 10
885.896813
 20
686.362138
 30
0.0
 10
876.425235
 20
706.108535
 30
0.0
 10
867.584637
 20
712.434534
 30
0.0
  0
SPLINE
  5
1f2
100
AcDbEntity
  8
Layer_1
 62
1
100
AcDbSpline
 70
8
 71
3
 72
8
 73
4
 74
0
 40
0
 40
0
 40
0
 40
0
 40
1
 40
1
 40
1
 40
1
 10
867.584637
 20
712.434534
 30
0.0
 10
854.698838
 20
721.655136
 30
0.0
 10
835.544640
 20
713.768537
 30
0.0
 10
820.102241
 20
710.219734
 30
0.0
  0
SPLINE
  5
1f3
100
AcDbEntity
  8
Layer_1
 62
1
100
AcDbSpline
 70
8
 71
3
 72
8
 73
4
 74
0
 40
0
 40
0
 40
0
 40
0
 40
1
 40
1
 40
1
 40
1
 10
820.102241
 20
710.219734
 30
0.0
 10
799.153644
 20
705.405535
 30
0.0
 10
760.838547
 20
684.803737
 30
0.0
 10
760.838547
 20
684.803737
 30
0.0
  0
SPLINE
  5
1f4
100
AcDbEntity
  8
Layer_1
 62
1
100
AcDbSpline
 70
8
 71
3
 72
8
 73
4
 74
0
 40
0
 40
0
 40
0
 40
0
 40
1
 40
1
 40
1
 40
1
 10
760.838547
 20
684.803737
 30
0.0
 10
772.384946
 20
691.590037
 30
0.0
 10
786.344146
 20
696.429136
 30
0.0
 10
791.981145
 20
708.104435
 30
0.0
  0
SPLINE
  5
1f5
100
AcDbEntity
  8
Layer_1
 62
1
100
AcDbSpline
 70
8
 71
3
 72
8
 73
4
 74
0
 40
0
 40
0
 40
0
 40
0
 40
1
 40
1
 40
1
 40
1
 10
791.981145
 20
708.104435
 30
0.0
 10
793.139842
 20
710.504337
 30
0.0
 10
792.895745
 20
713.688237
 30
0.0
 10
791.750631
 20
716.094734
 30
0.0
  0
SPLINE
  5
1f6
100
AcDbEntity
  8
Layer_1
 62
1
100
AcDbSpline
 70
8
 71
3
 72
8
 73
4
 74
0
 40
0
 40
0
 40
0
 40
0
 40
1
 40
1
 40
1
 40
1
 10
791.750631
 20
716.094734
 30
0.0
 10
784.759432
 20
730.786633
 30
0.0
 10
779.600234
 20
730.016735
 30
0.0
 10
768.602237
 20
726.157233
 30
0.0
  0
SPLINE
  5
1f7
100
AcDbEntity
  8
Layer_1
 62
1
100
AcDbSpline
 70
8
 71
3
 72
8
 73
4
 74
0
 40
0
 40
0
 40
0
 40
0
 40
1
 40
1
 40
1
 40
1
 10
768.602237
 20
726.157233
 30
0.0
 10
767.077534
 20
729.075735
 30
0.0
 10
766.132437
 20
729.969132
 30
0.0
 10
766.760435
 20
730.672835
 30
0.0
  0
SPLINE
  5
1f8
100
AcDbEntity
  8
Layer_1
 62
1
100
AcDbSpline
 70
8
 71
3
 72
8
 73
4
 74
0
 40
0
 40
0
 40
0
 40
0
 40
1
 40
1
 40
1
 40
1
 10
766.760435
 20
730.672835
 30
0.0
 10
767.195637
 20
731.161634
 30
0.0
 10
768.382934
 20
731.576433
 30
0.0
 10
770.645136
 20
732.555633
 30
0.0
  0
LWPOLYLINE
  5
1f9
100
AcDbEntity
  8
Layer_1
 62
1
100
AcDbPolyline
 90
1
 70
1
 10
609.830018
 20
64.733918
 30
0.0
  0
SPLINE
  5
1fa
100
AcDbEntity
  8
Layer_1
 62
1
100
AcDbSpline
 70
8
 71
3
 72
8
 73
4
 74
0
 40
0
 40
0
 40
0
 40
0
 40
1
 40
1
 40
1
 40
1
 10
766.543646
 20
743.112332
 30
0.0
 10
766.095148
 20
744.271532
 30
0.0
 10
764.779347
 20
744.804332
 30
0.0
 10
763.619747
 20
744.301730
 30
0.0
  0
LWPOLYLINE
  5
1fb
100
AcDbEntity
  8
Layer_1
 62
1
100
AcDbPolyline
 90
2
 70
0
 10
770.645136
 20
732.555633
 30
0.0
 10
766.543646
 20
743.112332
 30
0.0
  0
SPLINE
  5
1fc
100
AcDbEntity
  8
Layer_1
 62
1
100
AcDbSpline
 70
8
 71
3
 72
8
 73
4
 74
0
 40
0
 40
0
 40
0
 40
0
 40
1
 40
1
 40
1
 40
1
 10
742.858048
 20
735.305632
 30
0.0
 10
741.699249
 20
734.803234
 30
0.0
 10
741.117651
 20
733.446532
 30
0.0
 10
741.567048
 20
732.290034
 30
0.0
  0
LWPOLYLINE
  5
1fd
100
AcDbEntity
  8
Layer_1
 62
1
100
AcDbPolyline
 90
2
 70
0
 10
763.619747
 20
744.301730
 30
0.0
 10
742.858048
 20
735.305632
 30
0.0
  0
SPLINE
  5
1fe
100
AcDbEntity
  8
Layer_1
 62
1
100
AcDbSpline
 70
8
 71
3
 72
8
 73
4
 74
0
 40
0
 40
0
 40
0
 40
0
 40
1
 40
1
 40
1
 40
1
 10
749.869747
 20
723.553733
 30
0.0
 10
751.443747
 20
724.235635
 30
0.0
 10
751.127548
 20
720.330435
 30
0.0
 10
751.740848
 20
718.762634
 30
0.0
  0
SPLINE
  5
1ff
100
AcDbEntity
  8
Layer_1
 62
1
100
AcDbSpline
 70
8
 71
3
 72
8
 73
4
 74
0
 40
0
 40
0
 40
0
 40
0
 40
1
 40
1
 40
1
 40
1
 10
751.740848
 20
718.762634
 30
0.0
 10
747.351448
 20
716.696536
 30
0.0
 10
742.714649
 20
714.544935
 30
0.0
 10
737.875648
 20
712.596634
 30
0.0
  0
SPLINE
  5
200
100
AcDbEntity
  8
Layer_1
 62
1
100
AcDbSpline
 70
8
 71
3
 72
8
 73
4
 74
0
 40
0
 40
0
 40
0
 40
0
 40
1
 40
1
 40
1
 40
1
 10
737.875648
 20
712.596634
 30
0.0
 10
727.312252
 20
708.342836
 30
0.0
 10
717.111451
 20
703.746735
 30
0.0
 10
707.213554
 20
698.877937
 30
0.0
  0
SPLINE
  5
201
100
AcDbEntity
  8
Layer_1
 62
1
100
AcDbSpline
 70
8
 71
3
 72
8
 73
4
 74
0
 40
0
 40
0
 40
0
 40
0
 40
1
 40
1
 40
1
 40
1
 10
707.213554
 20
698.877937
 30
0.0
 10
705.499553
 20
701.672035
 30
0.0
 10
704.515655
 20
702.463536
 30
0.0
 10
705.092453
 20
703.208035
 30
0.0
  0
SPLINE
  5
202
100
AcDbEntity
  8
Layer_1
 62
1
100
AcDbSpline
 70
8
 71
3
 72
8
 73
4
 74
0
 40
0
 40
0
 40
0
 40
0
 40
1
 40
1
 40
1
 40
1
 10
705.092453
 20
703.208035
 30
0.0
 10
705.494254
 20
703.725135
 30
0.0
 10
706.650155
 20
704.220536
 30
0.0
 10
708.840455
 20
705.352535
 30
0.0
  0
LWPOLYLINE
  5
203
100
AcDbEntity
  8
Layer_1
 62
1
100
AcDbPolyline
 90
3
 70
0
 10
741.567048
 20
732.290034
 30
0.0
 10
745.668648
 20
721.733335
 30
0.0
 10
749.869747
 20
723.553733
 30
0.0
  0
SPLINE
  5
204
100
AcDbEntity
  8
Layer_1
 62
1
100
AcDbSpline
 70
8
 71
3
 72
8
 73
4
 74
0
 40
0
 40
0
 40
0
 40
0
 40
1
 40
1
 40
1
 40
1
 10
704.026055
 20
715.604434
 30
0.0
 10
703.498853
 20
716.726735
 30
0.0
 10
702.149653
 20
717.169336
 30
0.0
 10
701.027953
 20
716.588835
 30
0.0
  0
LWPOLYLINE
  5
205
100
AcDbEntity
  8
Layer_1
 62
1
100
AcDbPolyline
 90
2
 70
0
 10
708.840455
 20
705.352535
 30
0.0
 10
704.026055
 20
715.604434
 30
0.0
  0
SPLINE
  5
206
100
AcDbEntity
  8
Layer_1
 62
1
100
AcDbSpline
 70
8
 71
3
 72
8
 73
4
 74
0
 40
0
 40
0
 40
0
 40
0
 40
1
 40
1
 40
1
 40
1
 10
680.930355
 20
706.194338
 30
0.0
 10
679.807155
 20
705.614037
 30
0.0
 10
679.321055
 20
704.222237
 30
0.0
 10
679.848356
 20
703.098637
 30
0.0
  0
LWPOLYLINE
  5
207
100
AcDbEntity
  8
Layer_1
 62
1
100
AcDbPolyline
 90
2
 70
0
 10
701.027953
 20
716.588835
 30
0.0
 10
680.930355
 20
706.194338
 30
0.0
  0
SPLINE
  5
208
100
AcDbEntity
  8
Layer_1
 62
1
100
AcDbSpline
 70
8
 71
3
 72
8
 73
4
 74
0
 40
0
 40
0
 40
0
 40
0
 40
1
 40
1
 40
1
 40
1
 10
688.729156
 20
694.950139
 30
0.0
 10
690.253455
 20
695.737739
 30
0.0
 10
690.166355
 20
691.908538
 30
0.0
 10
690.885456
 20
690.385740
 30
0.0
  0
SPLINE
  5
209
100
AcDbEntity
  8
Layer_1
 62
1
100
AcDbSpline
 70
8
 71
3
 72
8
 73
4
 74
0
 40
0
 40
0
 40
0
 40
0
 40
1
 40
1
 40
1
 40
1
 10
690.885456
 20
690.385740
 30
0.0
 10
614.379364
 20
648.648844
 30
0.0
 10
559.428270
 20
602.476549
 30
0.0
 10
526.319075
 20
534.397457
 30
0.0
  0
SPLINE
  5
20a
100
AcDbEntity
  8
Layer_1
 62
1
100
AcDbSpline
 70
8
 71
3
 72
8
 73
4
 74
0
 40
0
 40
0
 40
0
 40
0
 40
1
 40
1
 40
1
 40
1
 10
526.319075
 20
534.397457
 30
0.0
 10
523.356273
 20
535.496154
 30
0.0
 10
522.131574
 20
535.529655
 30
0.0
 10
522.131574
 20
536.456055
 30
0.0
  0
SPLINE
  5
20b
100
AcDbEntity
  8
Layer_1
 62
1
100
AcDbSpline
 70
8
 71
3
 72
8
 73
4
 74
0
 40
0
 40
0
 40
0
 40
0
 40
1
 40
1
 40
1
 40
1
 10
522.131574
 20
536.456055
 30
0.0
 10
522.131574
 20
537.111055
 30
0.0
 10
522.740373
 20
538.211956
 30
0.0
 10
523.774073
 20
540.450154
 30
0.0
  0
LWPOLYLINE
  5
20c
100
AcDbEntity
  8
Layer_1
 62
1
100
AcDbPolyline
 90
3
 70
0
 10
679.848356
 20
703.098637
 30
0.0
 10
684.660854
 20
692.846639
 30
0.0
 10
688.729156
 20
694.950139
 30
0.0
  0
SPLINE
  5
20d
100
AcDbEntity
  8
Layer_1
 62
1
100
AcDbSpline
 70
8
 71
3
 72
8
 73
4
 74
0
 40
0
 40
0
 40
0
 40
0
 40
1
 40
1
 40
1
 40
1
 10
513.676473
 20
545.584955
 30
0.0
 10
512.571275
 20
546.146956
 30
0.0
 10
511.234876
 20
545.667954
 30
0.0
 10
510.705776
 20
544.520553
 30
0.0
  0
LWPOLYLINE
  5
20e
100
AcDbEntity
  8
Layer_1
 62
1
100
AcDbPolyline
 90
2
 70
0
 10
523.774073
 20
540.450154
 30
0.0
 10
513.676473
 20
545.584955
 30
0.0
  0
SPLINE
  5
20f
100
AcDbEntity
  8
Layer_1
 62
1
100
AcDbSpline
 70
8
 71
3
 72
8
 73
4
 74
0
 40
0
 40
0
 40
0
 40
0
 40
1
 40
1
 40
1
 40
1
 10
501.229175
 20
523.973657
 30
0.0
 10
500.699678
 20
522.826657
 30
0.0
 10
501.170176
 20
521.429056
 30
0.0
 10
502.276077
 20
520.866258
 30
0.0
  0
LWPOLYLINE
  5
210
100
AcDbEntity
  8
Layer_1
 62
1
100
AcDbPolyline
 90
2
 70
0
 10
510.705776
 20
544.520553
 30
0.0
 10
501.229175
 20
523.973657
 30
0.0
  0
SPLINE
  5
211
100
AcDbEntity
  8
Layer_1
 62
1
100
AcDbSpline
 70
8
 71
3
 72
8
 73
4
 74
0
 40
0
 40
0
 40
0
 40
0
 40
1
 40
1
 40
1
 40
1
 10
514.289773
 20
519.889658
 30
0.0
 10
514.991975
 20
521.411258
 30
0.0
 10
517.184974
 20
518.514156
 30
0.0
 10
518.686176
 20
517.668955
 30
0.0
  0
SPLINE
  5
212
100
AcDbEntity
  8
Layer_1
 62
1
100
AcDbSpline
 70
8
 71
3
 72
8
 73
4
 74
0
 40
0
 40
0
 40
0
 40
0
 40
1
 40
1
 40
1
 40
1
 10
518.686176
 20
517.668955
 30
0.0
 10
511.385275
 20
500.556859
 30
0.0
 10
505.418176
 20
483.014962
 30
0.0
 10
500.789775
 20
465.200164
 30
0.0
  0
LWPOLYLINE
  5
213
100
AcDbEntity
  8
Layer_1
 62
1
100
AcDbPolyline
 90
3
 70
0
 10
502.276077
 20
520.866258
 30
0.0
 10
512.371777
 20
515.731456
 30
0.0
 10
514.289773
 20
519.889658
 30
0.0
  0
SPLINE
  5
214
100
AcDbEntity
  8
Layer_1
 62
1
100
AcDbSpline
 70
8
 71
3
 72
8
 73
4
 74
0
 40
0
 40
0
 40
0
 40
0
 40
1
 40
1
 40
1
 40
1
 10
500.789775
 20
465.237204
 30
0.0
 10
497.537076
 20
465.750505
 30
0.0
 10
496.291075
 20
465.512202
 30
0.0
 10
496.098376
 20
466.436406
 30
0.0
  0
SPLINE
  5
215
100
AcDbEntity
  8
Layer_1
 62
1
100
AcDbSpline
 70
8
 71
3
 72
8
 73
4
 74
0
 40
0
 40
0
 40
0
 40
0
 40
1
 40
1
 40
1
 40
1
 10
496.098376
 20
466.436406
 30
0.0
 10
495.964883
 20
467.077403
 30
0.0
 10
496.340984
 20
468.280105
 30
0.0
 10
496.901076
 20
470.680505
 30
0.0
  0
LWPOLYLINE
  5
216
100
AcDbEntity
  8
Layer_1
 62
1
100
AcDbPolyline
 90
2
 70
0
 10
500.789775
 20
465.200164
 30
0.0
 10
500.789775
 20
465.237204
 30
0.0
  0
SPLINE
  5
217
100
AcDbEntity
  8
Layer_1
 62
1
100
AcDbSpline
 70
8
 71
3
 72
8
 73
4
 74
0
 40
0
 40
0
 40
0
 40
0
 40
1
 40
1
 40
1
 40
1
 10
485.977278
 20
473.670705
 30
0.0
 10
484.780680
 20
473.998692
 30
0.0
 10
483.567180
 20
473.258702
 30
0.0
 10
483.279977
 20
472.028205
 30
0.0
  0
LWPOLYLINE
  5
218
100
AcDbEntity
  8
Layer_1
 62
1
100
AcDbPolyline
 90
2
 70
0
 10
496.901076
 20
470.680505
 30
0.0
 10
485.977278
 20
473.670705
 30
0.0
  0
SPLINE
  5
219
100
AcDbEntity
  8
Layer_1
 62
1
100
AcDbSpline
 70
8
 71
3
 72
8
 73
4
 74
0
 40
0
 40
0
 40
0
 40
0
 40
1
 40
1
 40
1
 40
1
 10
478.145180
 20
449.991105
 30
0.0
 10
477.857973
 20
448.760707
 30
0.0
 10
478.602480
 20
447.486707
 30
0.0
 10
479.799479
 20
447.159007
 30
0.0
  0
LWPOLYLINE
  5
21a
100
AcDbEntity
  8
Layer_1
 62
1
100
AcDbPolyline
 90
2
 70
0
 10
483.279977
 20
472.028205
 30
0.0
 10
478.145180
 20
449.991105
 30
0.0
  0
SPLINE
  5
21b
100
AcDbEntity
  8
Layer_1
 62
1
100
AcDbSpline
 70
8
 71
3
 72
8
 73
4
 74
0
 40
0
 40
0
 40
0
 40
0
 40
1
 40
1
 40
1
 40
1
 10
491.762378
 20
448.627807
 30
0.0
 10
492.147878
 20
450.281207
 30
0.0
 10
494.949577
 20
447.801406
 30
0.0
 10
496.582677
 20
447.321107
 30
0.0
  0
SPLINE
  5
21c
100
AcDbEntity
  8
Layer_1
 62
1
100
AcDbSpline
 70
8
 71
3
 72
8
 73
4
 74
0
 40
0
 40
0
 40
0
 40
0
 40
1
 40
1
 40
1
 40
1
 10
496.582677
 20
447.321107
 30
0.0
 10
491.446878
 20
422.606310
 30
0.0
 10
488.847077
 20
397.478200
 30
0.0
 10
488.793676
 20
372.346498
 30
0.0
  0
LWPOLYLINE
  5
21d
100
AcDbEntity
  8
Layer_1
 62
1
100
AcDbPolyline
 90
3
 70
0
 10
479.799479
 20
447.159007
 30
0.0
 10
490.723378
 20
444.168808
 30
0.0
 10
491.762378
 20
448.627807
 30
0.0
  0
SPLINE
  5
21e
100
AcDbEntity
  8
Layer_1
 62
1
100
AcDbSpline
 70
8
 71
3
 72
8
 73
4
 74
0
 40
0
 40
0
 40
0
 40
0
 40
1
 40
1
 40
1
 40
1
 10
488.793676
 20
372.335160
 30
0.0
 10
488.846665
 20
347.203458
 30
0.0
 10
491.446878
 20
322.073344
 30
0.0
 10
496.582677
 20
297.358676
 30
0.0
  0
SPLINE
  5
21f
100
AcDbEntity
  8
Layer_1
 62
1
100
AcDbSpline
 70
8
 71
3
 72
8
 73
4
 74
0
 40
0
 40
0
 40
0
 40
0
 40
1
 40
1
 40
1
 40
1
 10
496.582677
 20
297.358676
 30
0.0
 10
494.949577
 20
296.878373
 30
0.0
 10
492.147878
 20
294.398474
 30
0.0
 10
491.762378
 20
296.051942
 30
0.0
  0
LWPOLYLINE
  5
220
100
AcDbEntity
  8
Layer_1
 62
1
100
AcDbPolyline
 90
2
 70
0
 10
488.793676
 20
372.346498
 30
0.0
 10
488.793676
 20
372.335160
 30
0.0
  0
SPLINE
  5
221
100
AcDbEntity
  8
Layer_1
 62
1
100
AcDbSpline
 70
8
 71
3
 72
8
 73
4
 74
0
 40
0
 40
0
 40
0
 40
0
 40
1
 40
1
 40
1
 40
1
 10
479.799479
 20
297.520742
 30
0.0
 10
478.602480
 20
297.193057
 30
0.0
 10
477.857977
 20
295.919054
 30
0.0
 10
478.145180
 20
294.688666
 30
0.0
  0
LWPOLYLINE
  5
222
100
AcDbEntity
  8
Layer_1
 62
1
100
AcDbPolyline
 90
3
 70
0
 10
491.762378
 20
296.051942
 30
0.0
 10
490.723378
 20
300.510952
 30
0.0
 10
479.799479
 20
297.520742
 30
0.0
  0
SPLINE
  5
223
100
AcDbEntity
  8
Layer_1
 62
1
100
AcDbSpline
 70
8
 71
3
 72
8
 73
4
 74
0
 40
0
 40
0
 40
0
 40
0
 40
1
 40
1
 40
1
 40
1
 10
483.279977
 20
272.651566
 30
0.0
 10
483.567184
 20
271.420952
 30
0.0
 10
484.780680
 20
270.681072
 30
0.0
 10
485.977278
 20
271.008946
 30
0.0
  0
LWPOLYLINE
  5
224
100
AcDbEntity
  8
Layer_1
 62
1
100
AcDbPolyline
 90
2
 70
0
 10
478.145180
 20
294.688666
 30
0.0
 10
483.279977
 20
272.651566
 30
0.0
  0
SPLINE
  5
225
100
AcDbEntity
  8
Layer_1
 62
1
100
AcDbSpline
 70
8
 71
3
 72
8
 73
4
 74
0
 40
0
 40
0
 40
0
 40
0
 40
1
 40
1
 40
1
 40
1
 10
496.901076
 20
273.999270
 30
0.0
 10
496.340976
 20
276.399648
 30
0.0
 10
495.964876
 20
277.602369
 30
0.0
 10
496.098376
 20
278.243377
 30
0.0
  0
SPLINE
  5
226
100
AcDbEntity
  8
Layer_1
 62
1
100
AcDbSpline
 70
8
 71
3
 72
8
 73
4
 74
0
 40
0
 40
0
 40
0
 40
0
 40
1
 40
1
 40
1
 40
1
 10
496.098376
 20
278.243377
 30
0.0
 10
496.291056
 20
279.167547
 30
0.0
 10
497.537076
 20
278.929248
 30
0.0
 10
500.789775
 20
279.442545
 30
0.0
  0
LWPOLYLINE
  5
227
100
AcDbEntity
  8
Layer_1
 62
1
100
AcDbPolyline
 90
2
 70
0
 10
485.977278
 20
271.008946
 30
0.0
 10
496.901076
 20
273.999270
 30
0.0
  0
SPLINE
  5
228
100
AcDbEntity
  8
Layer_1
 62
1
100
AcDbSpline
 70
8
 71
3
 72
8
 73
4
 74
0
 40
0
 40
0
 40
0
 40
0
 40
1
 40
1
 40
1
 40
1
 10
500.789775
 20
279.481474
 30
0.0
 10
505.418176
 20
261.666673
 30
0.0
 10
511.385275
 20
244.124905
 30
0.0
 10
518.686176
 20
227.012679
 30
0.0
  0
SPLINE
  5
229
100
AcDbEntity
  8
Layer_1
 62
1
100
AcDbSpline
 70
8
 71
3
 72
8
 73
4
 74
0
 40
0
 40
0
 40
0
 40
0
 40
1
 40
1
 40
1
 40
1
 10
518.686176
 20
227.012679
 30
0.0
 10
517.184974
 20
226.167577
 30
0.0
 10
514.991975
 20
223.270381
 30
0.0
 10
514.289773
 20
224.791980
 30
0.0
  0
LWPOLYLINE
  5
22a
100
AcDbEntity
  8
Layer_1
 62
1
100
AcDbPolyline
 90
2
 70
0
 10
500.789775
 20
279.442545
 30
0.0
 10
500.789775
 20
279.481474
 30
0.0
  0
SPLINE
  5
22b
100
AcDbEntity
  8
Layer_1
 62
1
100
AcDbSpline
 70
8
 71
3
 72
8
 73
4
 74
0
 40
0
 40
0
 40
0
 40
0
 40
1
 40
1
 40
1
 40
1
 10
502.276077
 20
223.815502
 30
0.0
 10
501.170176
 20
223.252692
 30
0.0
 10
500.699678
 20
221.855099
 30
0.0
 10
501.229175
 20
220.708088
 30
0.0
  0
LWPOLYLINE
  5
22c
100
AcDbEntity
  8
Layer_1
 62
1
100
AcDbPolyline
 90
3
 70
0
 10
514.289773
 20
224.791980
 30
0.0
 10
512.371777
 20
228.950292
 30
0.0
 10
502.276077
 20
223.815502
 30
0.0
  0
SPLINE
  5
22d
100
AcDbEntity
  8
Layer_1
 62
1
100
AcDbSpline
 70
8
 71
3
 72
8
 73
4
 74
0
 40
0
 40
0
 40
0
 40
0
 40
1
 40
1
 40
1
 40
1
 10
510.705776
 20
200.161180
 30
0.0
 10
511.234876
 20
199.013677
 30
0.0
 10
512.571275
 20
198.534811
 30
0.0
 10
513.676473
 20
199.096676
 30
0.0
  0
LWPOLYLINE
  5
22e
100
AcDbEntity
  8
Layer_1
 62
1
100
AcDbPolyline
 90
2
 70
0
 10
501.229175
 20
220.708088
 30
0.0
 10
510.705776
 20
200.161180
 30
0.0
  0
SPLINE
  5
22f
100
AcDbEntity
  8
Layer_1
 62
1
100
AcDbSpline
 70
8
 71
3
 72
8
 73
4
 74
0
 40
0
 40
0
 40
0
 40
0
 40
1
 40
1
 40
1
 40
1
 10
523.774073
 20
204.233998
 30
0.0
 10
522.740373
 20
206.472196
 30
0.0
 10
522.130376
 20
207.573211
 30
0.0
 10
522.131574
 20
208.228089
 30
0.0
  0
SPLINE
  5
230
100
AcDbEntity
  8
Layer_1
 62
1
100
AcDbSpline
 70
8
 71
3
 72
8
 73
4
 74
0
 40
0
 40
0
 40
0
 40
0
 40
1
 40
1
 40
1
 40
1
 10
522.131574
 20
208.228089
 30
0.0
 10
522.131574
 20
209.154489
 30
0.0
 10
523.356273
 20
209.187976
 30
0.0
 10
526.319075
 20
210.286684
 30
0.0
  0
SPLINE
  5
231
100
AcDbEntity
  8
Layer_1
 62
1
100
AcDbSpline
 70
8
 71
3
 72
8
 73
4
 74
0
 40
0
 40
0
 40
0
 40
0
 40
1
 40
1
 40
1
 40
1
 10
526.319075
 20
210.286684
 30
0.0
 10
559.428270
 20
142.207611
 30
0.0
 10
614.379364
 20
96.035395
 30
0.0
 10
690.885456
 20
54.298492
 30
0.0
  0
SPLINE
  5
232
100
AcDbEntity
  8
Layer_1
 62
1
100
AcDbSpline
 70
8
 71
3
 72
8
 73
4
 74
0
 40
0
 40
0
 40
0
 40
0
 40
1
 40
1
 40
1
 40
1
 10
690.885456
 20
54.298492
 30
0.0
 10
690.166355
 20
52.775720
 30
0.0
 10
690.253455
 20
48.946719
 30
0.0
 10
688.729156
 20
49.733995
 30
0.0
  0
LWPOLYLINE
  5
233
100
AcDbEntity
  8
Layer_1
 62
1
100
AcDbPolyline
 90
2
 70
0
 10
513.676473
 20
199.096676
 30
0.0
 10
523.774073
 20
204.233998
 30
0.0
  0
SPLINE
  5
234
100
AcDbEntity
  8
Layer_1
 62
1
100
AcDbSpline
 70
8
 71
3
 72
8
 73
4
 74
0
 40
0
 40
0
 40
0
 40
0
 40
1
 40
1
 40
1
 40
1
 10
679.848356
 20
41.585599
 30
0.0
 10
679.321055
 20
40.461907
 30
0.0
 10
679.807348
 20
39.070399
 30
0.0
 10
680.930355
 20
38.489901
 30
0.0
  0
LWPOLYLINE
  5
235
100
AcDbEntity
  8
Layer_1
 62
1
100
AcDbPolyline
 90
3
 70
0
 10
688.729156
 20
49.733995
 30
0.0
 10
684.660854
 20
51.837528
 30
0.0
 10
679.848356
 20
41.585599
 30
0.0
  0
SPLINE
  5
236
100
AcDbEntity
  8
Layer_1
 62
1
100
AcDbSpline
 70
8
 71
3
 72
8
 73
4
 74
0
 40
0
 40
0
 40
0
 40
0
 40
1
 40
1
 40
1
 40
1
 10
701.027953
 20
28.095332
 30
0.0
 10
702.149653
 20
27.514797
 30
0.0
 10
703.498853
 20
27.959647
 30
0.0
 10
704.026055
 20
29.079710
 30
0.0
  0
LWPOLYLINE
  5
237
100
AcDbEntity
  8
Layer_1
 62
1
100
AcDbPolyline
 90
2
 70
0
 10
680.930355
 20
38.489901
 30
0.0
 10
701.027953
 20
28.095332
 30
0.0
  0
SPLINE
  5
238
100
AcDbEntity
  8
Layer_1
 62
1
100
AcDbSpline
 70
8
 71
3
 72
8
 73
4
 74
0
 40
0
 40
0
 40
0
 40
0
 40
1
 40
1
 40
1
 40
1
 10
708.840455
 20
39.331715
 30
0.0
 10
706.650155
 20
40.464024
 30
0.0
 10
705.494254
 20
40.959104
 30
0.0
 10
705.092453
 20
41.476219
 30
0.0
  0
SPLINE
  5
239
100
AcDbEntity
  8
Layer_1
 62
1
100
AcDbSpline
 70
8
 71
3
 72
8
 73
4
 74
0
 40
0
 40
0
 40
0
 40
0
 40
1
 40
1
 40
1
 40
1
 10
705.092453
 20
41.476219
 30
0.0
 10
704.515655
 20
42.220824
 30
0.0
 10
705.499553
 20
43.012106
 30
0.0
 10
707.213554
 20
45.806310
 30
0.0
  0
SPLINE
  5
23a
100
AcDbEntity
  8
Layer_1
 62
1
100
AcDbSpline
 70
8
 71
3
 72
8
 73
4
 74
0
 40
0
 40
0
 40
0
 40
0
 40
1
 40
1
 40
1
 40
1
 10
707.213554
 20
45.806310
 30
0.0
 10
717.111451
 20
40.937523
 30
0.0
 10
727.312252
 20
36.341429
 30
0.0
 10
737.875648
 20
32.087496
 30
0.0
  0
SPLINE
  5
23b
100
AcDbEntity
  8
Layer_1
 62
1
100
AcDbSpline
 70
8
 71
3
 72
8
 73
4
 74
0
 40
0
 40
0
 40
0
 40
0
 40
1
 40
1
 40
1
 40
1
 10
737.875648
 20
32.087496
 30
0.0
 10
742.714649
 20
30.139225
 30
0.0
 10
747.351448
 20
27.987805
 30
0.0
 10
751.740848
 20
25.921499
 30
0.0
  0
SPLINE
  5
23c
100
AcDbEntity
  8
Layer_1
 62
1
100
AcDbSpline
 70
8
 71
3
 72
8
 73
4
 74
0
 40
0
 40
0
 40
0
 40
0
 40
1
 40
1
 40
1
 40
1
 10
751.740848
 20
25.921499
 30
0.0
 10
751.127548
 20
24.354129
 30
0.0
 10
751.443739
 20
20.448706
 30
0.0
 10
749.869747
 20
21.130533
 30
0.0
  0
LWPOLYLINE
  5
23d
100
AcDbEntity
  8
Layer_1
 62
1
100
AcDbPolyline
 90
2
 70
0
 10
704.026055
 20
29.079710
 30
0.0
 10
708.840455
 20
39.331715
 30
0.0
  0
SPLINE
  5
23e
100
AcDbEntity
  8
Layer_1
 62
1
100
AcDbSpline
 70
8
 71
3
 72
8
 73
4
 74
0
 40
0
 40
0
 40
0
 40
0
 40
1
 40
1
 40
1
 40
1
 10
741.567048
 20
12.394231
 30
0.0
 10
741.117651
 20
11.237621
 30
0.0
 10
741.699256
 20
9.880808
 30
0.0
 10
742.858048
 20
9.378509
 30
0.0
  0
LWPOLYLINE
  5
23f
100
AcDbEntity
  8
Layer_1
 62
1
100
AcDbPolyline
 90
3
 70
0
 10
749.869747
 20
21.130533
 30
0.0
 10
745.668648
 20
22.950829
 30
0.0
 10
741.567048
 20
12.394231
 30
0.0
  0
SPLINE
  5
240
100
AcDbEntity
  8
Layer_1
 62
1
100
AcDbSpline
 70
8
 71
3
 72
8
 73
4
 74
0
 40
0
 40
0
 40
0
 40
0
 40
1
 40
1
 40
1
 40
1
 10
763.619747
 20
0.382403
 30
0.0
 10
764.779347
 20
-0.119896
 30
0.0
 10
766.095148
 20
0.420576
 30
0.0
 10
766.543646
 20
1.571933
 30
0.0
  0
LWPOLYLINE
  5
241
100
AcDbEntity
  8
Layer_1
 62
1
100
AcDbPolyline
 90
2
 70
0
 10
742.858048
 20
9.378509
 30
0.0
 10
763.619747
 20
0.382403
 30
0.0
  0
SPLINE
  5
242
100
AcDbEntity
  8
Layer_1
 62
1
100
AcDbSpline
 70
8
 71
3
 72
8
 73
4
 74
0
 40
0
 40
0
 40
0
 40
0
 40
1
 40
1
 40
1
 40
1
 10
770.645147
 20
12.128531
 30
0.0
 10
768.382945
 20
13.107806
 30
0.0
 10
767.195648
 20
13.522723
 30
0.0
 10
766.760447
 20
14.011302
 30
0.0
  0
SPLINE
  5
243
100
AcDbEntity
  8
Layer_1
 62
1
100
AcDbSpline
 70
8
 71
3
 72
8
 73
4
 74
0
 40
0
 40
0
 40
0
 40
0
 40
1
 40
1
 40
1
 40
1
 10
766.760447
 20
14.011302
 30
0.0
 10
766.132448
 20
14.715126
 30
0.0
 10
767.077549
 20
15.608417
 30
0.0
 10
768.602248
 20
18.527006
 30
0.0
  0
SPLINE
  5
244
100
AcDbEntity
  8
Layer_1
 62
1
100
AcDbSpline
 70
8
 71
3
 72
8
 73
4
 74
0
 40
0
 40
0
 40
0
 40
0
 40
1
 40
1
 40
1
 40
1
 10
768.602248
 20
18.527006
 30
0.0
 10
779.600245
 20
14.667315
 30
0.0
 10
784.759443
 20
13.897727
 30
0.0
 10
791.750643
 20
28.589505
 30
0.0
  0
SPLINE
  5
245
100
AcDbEntity
  8
Layer_1
 62
1
100
AcDbSpline
 70
8
 71
3
 72
8
 73
4
 74
0
 40
0
 40
0
 40
0
 40
0
 40
1
 40
1
 40
1
 40
1
 10
791.750643
 20
28.589505
 30
0.0
 10
792.895745
 20
30.995930
 30
0.0
 10
793.139842
 20
34.180106
 30
0.0
 10
791.981156
 20
36.579728
 30
0.0
  0
SPLINE
  5
246
100
AcDbEntity
  8
Layer_1
 62
1
100
AcDbSpline
 70
8
 71
3
 72
8
 73
4
 74
0
 40
0
 40
0
 40
0
 40
0
 40
1
 40
1
 40
1
 40
1
 10
791.981156
 20
36.579728
 30
0.0
 10
786.344158
 20
48.255028
 30
0.0
 10
772.384958
 20
53.094297
 30
0.0
 10
760.838559
 20
59.880513
 30
0.0
  0
SPLINE
  5
247
100
AcDbEntity
  8
Layer_1
 62
1
100
AcDbSpline
 70
8
 71
3
 72
8
 73
4
 74
0
 40
0
 40
0
 40
0
 40
0
 40
1
 40
1
 40
1
 40
1
 10
760.838559
 20
59.880513
 30
0.0
 10
760.838559
 20
59.880513
 30
0.0
 10
799.153656
 20
39.278500
 30
0.0
 10
820.102252
 20
34.464516
 30
0.0
  0
SPLINE
  5
248
100
AcDbEntity
  8
Layer_1
 62
1
100
AcDbSpline
 70
8
 71
3
 72
8
 73
4
 74
0
 40
0
 40
0
 40
0
 40
0
 40
1
 40
1
 40
1
 40
1
 10
820.102252
 20
34.464516
 30
0.0
 10
835.544652
 20
30.915502
 30
0.0
 10
854.698849
 20
23.027100
 30
0.0
 10
867.584648
 20
32.247710
 30
0.0
  0
SPLINE
  5
249
100
AcDbEntity
  8
Layer_1
 62
1
100
AcDbSpline
 70
8
 71
3
 72
8
 73
4
 74
0
 40
0
 40
0
 40
0
 40
0
 40
1
 40
1
 40
1
 40
1
 10
867.584648
 20
32.247710
 30
0.0
 10
879.884545
 20
41.049095
 30
0.0
 10
893.403646
 20
75.829702
 30
0.0
 10
880.209645
 20
75.829702
 30
0.0
  0
SPLINE
  5
24a
100
AcDbEntity
  8
Layer_1
 62
1
100
AcDbSpline
 70
8
 71
3
 72
8
 73
4
 74
0
 40
0
 40
0
 40
0
 40
0
 40
1
 40
1
 40
1
 40
1
 10
880.209645
 20
75.829702
 30
0.0
 10
858.746148
 20
75.829702
 30
0.0
 10
831.421150
 20
74.201217
 30
0.0
 10
813.438152
 20
77.743806
 30
0.0
  0
SPLINE
  5
24b
100
AcDbEntity
  8
Layer_1
 62
1
100
AcDbSpline
 70
8
 71
3
 72
8
 73
4
 74
0
 40
0
 40
0
 40
0
 40
0
 40
1
 40
1
 40
1
 40
1
 10
813.438152
 20
77.743806
 30
0.0
 10
783.029357
 20
84.470798
 30
0.0
 10
757.216759
 20
104.412792
 30
0.0
 10
731.334663
 20
121.495688
 30
0.0
  0
SPLINE
  5
24c
100
AcDbEntity
  8
Layer_1
 62
1
100
AcDbSpline
 70
8
 71
3
 72
8
 73
4
 74
0
 40
0
 40
0
 40
0
 40
0
 40
1
 40
1
 40
1
 40
1
 10
731.334663
 20
121.495688
 30
0.0
 10
719.691663
 20
129.180299
 30
0.0
 10
708.609964
 20
137.883983
 30
0.0
 10
698.717464
 20
147.720316
 30
0.0
  0
SPLINE
  5
24d
100
AcDbEntity
  8
Layer_1
 62
1
100
AcDbSpline
 70
8
 71
3
 72
8
 73
4
 74
0
 40
0
 40
0
 40
0
 40
0
 40
1
 40
1
 40
1
 40
1
 10
698.717464
 20
147.720316
 30
0.0
 10
688.211565
 20
158.166702
 30
0.0
 10
678.901667
 20
169.882102
 30
0.0
 10
670.670568
 20
182.200791
 30
0.0
  0
SPLINE
  5
24e
100
AcDbEntity
  8
Layer_1
 62
1
100
AcDbSpline
 70
8
 71
3
 72
8
 73
4
 74
0
 40
0
 40
0
 40
0
 40
0
 40
1
 40
1
 40
1
 40
1
 10
670.670568
 20
182.200791
 30
0.0
 10
661.333170
 20
196.174988
 30
0.0
 10
653.566370
 20
211.218602
 30
0.0
 10
646.707672
 20
226.562084
 30
0.0
  0
SPLINE
  5
24f
100
AcDbEntity
  8
Layer_1
 62
1
100
AcDbSpline
 70
8
 71
3
 72
8
 73
4
 74
0
 40
0
 40
0
 40
0
 40
0
 40
1
 40
1
 40
1
 40
1
 10
646.707672
 20
226.562084
 30
0.0
 10
641.453172
 20
238.317207
 30
0.0
 10
637.339173
 20
250.578183
 30
0.0
 10
633.627673
 20
262.907794
 30
0.0
  0
SPLINE
  5
250
100
AcDbEntity
  8
Layer_1
 62
1
100
AcDbSpline
 70
8
 71
3
 72
8
 73
4
 74
0
 40
0
 40
0
 40
0
 40
0
 40
1
 40
1
 40
1
 40
1
 10
633.627673
 20
262.907794
 30
0.0
 10
629.938973
 20
275.160794
 30
0.0
 10
626.949274
 20
287.637996
 30
0.0
 10
624.526074
 20
300.202770
 30
0.0
  0
SPLINE
  5
251
100
AcDbEntity
  8
Layer_1
 62
1
100
AcDbSpline
 70
8
 71
3
 72
8
 73
4
 74
0
 40
0
 40
0
 40
0
 40
0
 40
1
 40
1
 40
1
 40
1
 10
624.526074
 20
300.202770
 30
0.0
 10
622.496174
 20
310.729471
 30
0.0
 10
621.089974
 20
321.379083
 30
0.0
 10
619.985074
 20
332.042565
 30
0.0
  0
SPLINE
  5
252
100
AcDbEntity
  8
Layer_1
 62
1
100
AcDbSpline
 70
8
 71
3
 72
8
 73
4
 74
0
 40
0
 40
0
 40
0
 40
0
 40
1
 40
1
 40
1
 40
1
 10
619.985074
 20
332.042565
 30
0.0
 10
618.888174
 20
342.627282
 30
0.0
 10
618.152975
 20
353.261284
 30
0.0
 10
617.916675
 20
363.899973
 30
0.0
  0
SPLINE
  5
253
100
AcDbEntity
  8
Layer_1
 62
1
100
AcDbSpline
 70
8
 71
3
 72
8
 73
4
 74
0
 40
0
 40
0
 40
0
 40
0
 40
1
 40
1
 40
1
 40
1
 10
617.916675
 20
363.899973
 30
0.0
 10
617.854675
 20
366.712886
 30
0.0
 10
617.825675
 20
369.526971
 30
0.0
 10
617.830675
 20
372.341358
 30
0.0
  0
SPLINE
  5
254
100
AcDbEntity
  8
Layer_1
 62
1
100
AcDbSpline
 70
8
 71
3
 72
8
 73
4
 74
0
 40
0
 40
0
 40
0
 40
0
 40
1
 40
1
 40
1
 40
1
 10
617.830675
 20
372.341358
 30
0.0
 10
617.820659
 20
375.155858
 30
0.0
 10
617.854675
 20
377.969981
 30
0.0
 10
617.916675
 20
380.782781
 30
0.0
  0
SPLINE
  5
255
100
AcDbEntity
  8
Layer_1
 62
1
100
AcDbSpline
 70
8
 71
3
 72
8
 73
4
 74
0
 40
0
 40
0
 40
0
 40
0
 40
1
 40
1
 40
1
 40
1
 10
617.916675
 20
380.782781
 30
0.0
 10
618.152974
 20
391.421469
 30
0.0
 10
618.888174
 20
402.055472
 30
0.0
 10
619.985074
 20
412.640189
 30
0.0
  0
SPLINE
  5
256
100
AcDbEntity
  8
Layer_1
 62
1
100
AcDbSpline
 70
8
 71
3
 72
8
 73
4
 74
0
 40
0
 40
0
 40
0
 40
0
 40
1
 40
1
 40
1
 40
1
 10
619.985074
 20
412.640189
 30
0.0
 10
621.089974
 20
423.303671
 30
0.0
 10
622.496174
 20
433.953358
 30
0.0
 10
624.526074
 20
444.480071
 30
0.0
  0
SPLINE
  5
257
100
AcDbEntity
  8
Layer_1
 62
1
100
AcDbSpline
 70
8
 71
3
 72
8
 73
4
 74
0
 40
0
 40
0
 40
0
 40
0
 40
1
 40
1
 40
1
 40
1
 10
624.526074
 20
444.480071
 30
0.0
 10
626.949274
 20
457.044871
 30
0.0
 10
629.938973
 20
469.522069
 30
0.0
 10
633.627673
 20
481.774967
 30
0.0
  0
SPLINE
  5
258
100
AcDbEntity
  8
Layer_1
 62
1
100
AcDbSpline
 70
8
 71
3
 72
8
 73
4
 74
0
 40
0
 40
0
 40
0
 40
0
 40
1
 40
1
 40
1
 40
1
 10
633.627673
 20
481.774967
 30
0.0
 10
637.339173
 20
494.104563
 30
0.0
 10
641.453172
 20
506.365663
 30
0.0
 10
646.707672
 20
518.120662
 30
0.0
  0
SPLINE
  5
259
100
AcDbEntity
  8
Layer_1
 62
1
100
AcDbSpline
 70
8
 71
3
 72
8
 73
4
 74
0
 40
0
 40
0
 40
0
 40
0
 40
1
 40
1
 40
1
 40
1
 10
646.707672
 20
518.120662
 30
0.0
 10
653.566370
 20
533.464163
 30
0.0
 10
661.333170
 20
548.507758
 30
0.0
 10
670.670568
 20
562.481959
 30
0.0
  0
SPLINE
  5
25a
100
AcDbEntity
  8
Layer_1
 62
1
100
AcDbSpline
 70
8
 71
3
 72
8
 73
4
 74
0
 40
0
 40
0
 40
0
 40
0
 40
1
 40
1
 40
1
 40
1
 10
670.670568
 20
562.481959
 30
0.0
 10
678.901667
 20
574.800655
 30
0.0
 10
688.211565
 20
586.516154
 30
0.0
 10
698.717464
 20
596.962453
 30
0.0
  0
SPLINE
  5
25b
100
AcDbEntity
  8
Layer_1
 62
1
100
AcDbSpline
 70
8
 71
3
 72
8
 73
4
 74
0
 40
0
 40
0
 40
0
 40
0
 40
1
 40
1
 40
1
 40
1
 10
698.717464
 20
596.962453
 30
0.0
 10
708.609964
 20
606.798854
 30
0.0
 10
719.691663
 20
615.502553
 30
0.0
 10
731.334663
 20
623.187050
 30
0.0
  0
SPLINE
  5
25c
100
AcDbEntity
  8
Layer_1
 62
1
100
AcDbSpline
 70
8
 71
3
 72
8
 73
4
 74
0
 40
0
 40
0
 40
0
 40
0
 40
1
 40
1
 40
1
 40
1
 10
731.334663
 20
623.187050
 30
0.0
 10
757.216759
 20
640.270048
 30
0.0
 10
783.029357
 20
660.211847
 30
0.0
 10
813.438152
 20
666.939046
 30
0.0
  0
SPLINE
  5
25d
100
AcDbEntity
  8
Layer_1
 62
1
100
AcDbSpline
 70
8
 71
3
 72
8
 73
4
 74
0
 40
0
 40
0
 40
0
 40
0
 40
1
 40
1
 40
1
 40
1
 10
813.438152
 20
666.939046
 30
0.0
 10
831.421150
 20
670.481446
 30
0.0
 10
858.746148
 20
668.851146
 30
0.0
 10
880.209645
 20
668.851146
 30
0.0
  0
SPLINE
  5
25e
100
AcDbEntity
  8
Layer_1
 62
1
100
AcDbSpline
 70
8
 71
3
 72
8
 73
4
 74
0
 40
0
 40
0
 40
0
 40
0
 40
1
 40
1
 40
1
 40
1
 10
880.209645
 20
668.851146
 30
0.0
 10
883.920445
 20
668.851146
 30
0.0
 10
885.519544
 20
671.602846
 30
0.0
 10
885.625643
 20
675.753444
 30
0.0
  0
LWPOLYLINE
  5
25f
100
AcDbEntity
  8
Layer_1
 62
1
100
AcDbPolyline
 90
2
 70
0
 10
766.543646
 20
1.571933
 30
0.0
 10
770.645147
 20
12.128531
 30
0.0
  0
SPLINE
  5
260
100
AcDbEntity
  8
Layer_1
 62
1
100
AcDbSpline
 70
8
 71
3
 72
8
 73
4
 74
0
 40
0
 40
0
 40
0
 40
0
 40
1
 40
1
 40
1
 40
1
 10
852.967040
 20
681.950039
 30
0.0
 10
847.717291
 20
681.950039
 30
0.0
 10
843.461529
 20
686.205801
 30
0.0
 10
843.461529
 20
691.455550
 30
0.0
  0
SPLINE
  5
261
100
AcDbEntity
  8
Layer_1
 62
1
100
AcDbSpline
 70
8
 71
3
 72
8
 73
4
 74
0
 40
0
 40
0
 40
0
 40
0
 40
1
 40
1
 40
1
 40
1
 10
843.461529
 20
691.455550
 30
0.0
 10
843.461529
 20
696.705298
 30
0.0
 10
847.717291
 20
700.961061
 30
0.0
 10
852.967040
 20
700.961061
 30
0.0
  0
SPLINE
  5
262
100
AcDbEntity
  8
Layer_1
 62
1
100
AcDbSpline
 70
8
 71
3
 72
8
 73
4
 74
0
 40
0
 40
0
 40
0
 40
0
 40
1
 40
1
 40
1
 40
1
 10
852.967040
 20
700.961061
 30
0.0
 10
858.216788
 20
700.961061
 30
0.0
 10
862.472550
 20
696.705298
 30
0.0
 10
862.472551
 20
691.455550
 30
0.0
  0
SPLINE
  5
263
100
AcDbEntity
  8
Layer_1
 62
1
100
AcDbSpline
 70
8
 71
3
 72
8
 73
4
 74
0
 40
0
 40
0
 40
0
 40
0
 40
1
 40
1
 40
1
 40
1
 10
862.472551
 20
691.455550
 30
0.0
 10
862.472550
 20
686.205801
 30
0.0
 10
858.216788
 20
681.950039
 30
0.0
 10
852.967040
 20
681.950039
 30
0.0
  0
LWPOLYLINE
  5
264
100
AcDbEntity
  8
Layer_1
 62
1
100
AcDbPolyline
 90
2
 70
0
 10
885.625643
 20
675.753444
 30
0.0
 10
885.625632
 20
675.754838
 30
0.0
  0
SPLINE
  5
265
100
AcDbEntity
  8
Layer_1
 62
1
100
AcDbSpline
 70
8
 71
3
 72
8
 73
4
 74
0
 40
0
 40
0
 40
0
 40
0
 40
1
 40
1
 40
1
 40
1
 10
852.967040
 20
62.733943
 30
0.0
 10
847.717291
 20
62.733943
 30
0.0
 10
843.461529
 20
58.478181
 30
0.0
 10
843.461529
 20
53.228432
 30
0.0
  0
SPLINE
  5
266
100
AcDbEntity
  8
Layer_1
 62
1
100
AcDbSpline
 70
8
 71
3
 72
8
 73
4
 74
0
 40
0
 40
0
 40
0
 40
0
 40
1
 40
1
 40
1
 40
1
 10
843.461529
 20
53.228432
 30
0.0
 10
843.461529
 20
47.978684
 30
0.0
 10
847.717291
 20
43.722921
 30
0.0
 10
852.967040
 20
43.722921
 30
0.0
  0
SPLINE
  5
267
100
AcDbEntity
  8
Layer_1
 62
1
100
AcDbSpline
 70
8
 71
3
 72
8
 73
4
 74
0
 40
0
 40
0
 40
0
 40
0
 40
1
 40
1
 40
1
 40
1
 10
852.967040
 20
43.722921
 30
0.0
 10
858.216788
 20
43.722921
 30
0.0
 10
862.472550
 20
47.978684
 30
0.0
 10
862.472551
 20
53.228432
 30
0.0
  0
SPLINE
  5
268
100
AcDbEntity
  8
Layer_1
 62
1
100
AcDbSpline
 70
8
 71
3
 72
8
 73
4
 74
0
 40
0
 40
0
 40
0
 40
0
 40
1
 40
1
 40
1
 40
1
 10
862.472551
 20
53.228432
 30
0.0
 10
862.472550
 20
58.478181
 30
0.0
 10
858.216788
 20
62.733943
 30
0.0
 10
852.967040
 20
62.733943
 30
0.0
  0
LWPOLYLINE
  5
269
100
AcDbEntity
  8
Layer_1
 62
1
100
AcDbPolyline
 90
1
 70
1
 10
852.967040
 20
681.950039
 30
0.0
  0
SPLINE
  5
26a
100
AcDbEntity
  8
Layer_1
 62
1
100
AcDbSpline
 70
8
 71
3
 72
8
 73
4
 74
0
 40
0
 40
0
 40
0
 40
0
 40
1
 40
1
 40
1
 40
1
 10
1118.570308
 20
675.652867
 30
0.0
 10
1118.841678
 20
686.260166
 30
0.0
 10
1109.369880
 20
706.006563
 30
0.0
 10
1100.529302
 20
712.332562
 30
0.0
  0
SPLINE
  5
26b
100
AcDbEntity
  8
Layer_1
 62
1
100
AcDbSpline
 70
8
 71
3
 72
8
 73
4
 74
0
 40
0
 40
0
 40
0
 40
0
 40
1
 40
1
 40
1
 40
1
 10
1100.529302
 20
712.332562
 30
0.0
 10
1087.643495
 20
721.553165
 30
0.0
 10
1068.489305
 20
713.666565
 30
0.0
 10
1053.046913
 20
710.117763
 30
0.0
  0
SPLINE
  5
26c
100
AcDbEntity
  8
Layer_1
 62
1
100
AcDbSpline
 70
8
 71
3
 72
8
 73
4
 74
0
 40
0
 40
0
 40
0
 40
0
 40
1
 40
1
 40
1
 40
1
 10
1053.046913
 20
710.117763
 30
0.0
 10
1032.098316
 20
705.303564
 30
0.0
 10
993.783208
 20
684.701765
 30
0.0
 10
993.783208
 20
684.701765
 30
0.0
  0
SPLINE
  5
26d
100
AcDbEntity
  8
Layer_1
 62
1
100
AcDbSpline
 70
8
 71
3
 72
8
 73
4
 74
0
 40
0
 40
0
 40
0
 40
0
 40
1
 40
1
 40
1
 40
1
 10
993.783208
 20
684.701765
 30
0.0
 10
1005.329588
 20
691.488065
 30
0.0
 10
1019.288819
 20
696.327164
 30
0.0
 10
1024.925794
 20
708.002464
 30
0.0
  0
SPLINE
  5
26e
100
AcDbEntity
  8
Layer_1
 62
1
100
AcDbSpline
 70
8
 71
3
 72
8
 73
4
 74
0
 40
0
 40
0
 40
0
 40
0
 40
1
 40
1
 40
1
 40
1
 10
1024.925794
 20
708.002464
 30
0.0
 10
1026.084484
 20
710.402365
 30
0.0
 10
1025.840402
 20
713.586265
 30
0.0
 10
1024.695243
 20
715.992762
 30
0.0
  0
SPLINE
  5
26f
100
AcDbEntity
  8
Layer_1
 62
1
100
AcDbSpline
 70
8
 71
3
 72
8
 73
4
 74
0
 40
0
 40
0
 40
0
 40
0
 40
1
 40
1
 40
1
 40
1
 10
1024.695243
 20
715.992762
 30
0.0
 10
1017.704025
 20
730.684661
 30
0.0
 10
1012.544819
 20
729.914764
 30
0.0
 10
1001.546811
 20
726.055262
 30
0.0
  0
SPLINE
  5
270
100
AcDbEntity
  8
Layer_1
 62
1
100
AcDbSpline
 70
8
 71
3
 72
8
 73
4
 74
0
 40
0
 40
0
 40
0
 40
0
 40
1
 40
1
 40
1
 40
1
 10
1001.546811
 20
726.055262
 30
0.0
 10
1000.022112
 20
728.973763
 30
0.0
 10
999.077041
 20
729.867161
 30
0.0
 10
999.705009
 20
730.570863
 30
0.0
  0
SPLINE
  5
271
100
AcDbEntity
  8
Layer_1
 62
1
100
AcDbSpline
 70
8
 71
3
 72
8
 73
4
 74
0
 40
0
 40
0
 40
0
 40
0
 40
1
 40
1
 40
1
 40
1
 10
999.705009
 20
730.570863
 30
0.0
 10
1000.140222
 20
731.059662
 30
0.0
 10
1001.327523
 20
731.474461
 30
0.0
 10
1003.589721
 20
732.453661
 30
0.0
  0
LWPOLYLINE
  5
272
100
AcDbEntity
  8
Layer_1
 62
1
100
AcDbPolyline
 90
1
 70
1
 10
852.967040
 20
62.733943
 30
0.0
  0
SPLINE
  5
273
100
AcDbEntity
  8
Layer_1
 62
1
100
AcDbSpline
 70
8
 71
3
 72
8
 73
4
 74
0
 40
0
 40
0
 40
0
 40
0
 40
1
 40
1
 40
1
 40
1
 10
999.488216
 20
743.010361
 30
0.0
 10
999.039737
 20
744.169560
 30
0.0
 10
997.723932
 20
744.702360
 30
0.0
 10
996.564336
 20
744.199759
 30
0.0
  0
LWPOLYLINE
  5
274
100
AcDbEntity
  8
Layer_1
 62
1
100
AcDbPolyline
 90
2
 70
0
 10
1003.589721
 20
732.453661
 30
0.0
 10
999.488216
 20
743.010361
 30
0.0
  0
SPLINE
  5
275
100
AcDbEntity
  8
Layer_1
 62
1
100
AcDbSpline
 70
8
 71
3
 72
8
 73
4
 74
0
 40
0
 40
0
 40
0
 40
0
 40
1
 40
1
 40
1
 40
1
 10
975.802629
 20
735.203660
 30
0.0
 10
974.643830
 20
734.701263
 30
0.0
 10
974.062233
 20
733.344560
 30
0.0
 10
974.511630
 20
732.188062
 30
0.0
  0
LWPOLYLINE
  5
276
100
AcDbEntity
  8
Layer_1
 62
1
100
AcDbPolyline
 90
2
 70
0
 10
996.564336
 20
744.199759
 30
0.0
 10
975.802629
 20
735.203660
 30
0.0
  0
SPLINE
  5
277
100
AcDbEntity
  8
Layer_1
 62
1
100
AcDbSpline
 70
8
 71
3
 72
8
 73
4
 74
0
 40
0
 40
0
 40
0
 40
0
 40
1
 40
1
 40
1
 40
1
 10
982.814329
 20
723.451761
 30
0.0
 10
984.388328
 20
724.133663
 30
0.0
 10
984.072129
 20
720.228463
 30
0.0
 10
984.685429
 20
718.660662
 30
0.0
  0
SPLINE
  5
278
100
AcDbEntity
  8
Layer_1
 62
1
100
AcDbSpline
 70
8
 71
3
 72
8
 73
4
 74
0
 40
0
 40
0
 40
0
 40
0
 40
1
 40
1
 40
1
 40
1
 10
984.685429
 20
718.660662
 30
0.0
 10
980.296030
 20
716.594565
 30
0.0
 10
975.659230
 20
714.442963
 30
0.0
 10
970.820230
 20
712.494662
 30
0.0
  0
SPLINE
  5
279
100
AcDbEntity
  8
Layer_1
 62
1
100
AcDbSpline
 70
8
 71
3
 72
8
 73
4
 74
0
 40
0
 40
0
 40
0
 40
0
 40
1
 40
1
 40
1
 40
1
 10
970.820230
 20
712.494662
 30
0.0
 10
960.256833
 20
708.240865
 30
0.0
 10
950.056033
 20
703.644763
 30
0.0
 10
940.158135
 20
698.775965
 30
0.0
  0
SPLINE
  5
27a
100
AcDbEntity
  8
Layer_1
 62
1
100
AcDbSpline
 70
8
 71
3
 72
8
 73
4
 74
0
 40
0
 40
0
 40
0
 40
0
 40
1
 40
1
 40
1
 40
1
 10
940.158135
 20
698.775965
 30
0.0
 10
938.444135
 20
701.570064
 30
0.0
 10
937.460237
 20
702.361565
 30
0.0
 10
938.037034
 20
703.106063
 30
0.0
  0
SPLINE
  5
27b
100
AcDbEntity
  8
Layer_1
 62
1
100
AcDbSpline
 70
8
 71
3
 72
8
 73
4
 74
0
 40
0
 40
0
 40
0
 40
0
 40
1
 40
1
 40
1
 40
1
 10
938.037034
 20
703.106063
 30
0.0
 10
938.438836
 20
703.623163
 30
0.0
 10
939.594736
 20
704.118565
 30
0.0
 10
941.785037
 20
705.250563
 30
0.0
  0
LWPOLYLINE
  5
27c
100
AcDbEntity
  8
Layer_1
 62
1
100
AcDbPolyline
 90
3
 70
0
 10
974.511630
 20
732.188062
 30
0.0
 10
978.613230
 20
721.631363
 30
0.0
 10
982.814329
 20
723.451761
 30
0.0
  0
SPLINE
  5
27d
100
AcDbEntity
  8
Layer_1
 62
1
100
AcDbSpline
 70
8
 71
3
 72
8
 73
4
 74
0
 40
0
 40
0
 40
0
 40
0
 40
1
 40
1
 40
1
 40
1
 10
936.970637
 20
715.502463
 30
0.0
 10
936.443510
 20
716.624763
 30
0.0
 10
935.094310
 20
717.067365
 30
0.0
 10
933.972610
 20
716.486863
 30
0.0
  0
LWPOLYLINE
  5
27e
100
AcDbEntity
  8
Layer_1
 62
1
100
AcDbPolyline
 90
2
 70
0
 10
941.785037
 20
705.250563
 30
0.0
 10
936.970637
 20
715.502463
 30
0.0
  0
SPLINE
  5
27f
100
AcDbEntity
  8
Layer_1
 62
1
100
AcDbSpline
 70
8
 71
3
 72
8
 73
4
 74
0
 40
0
 40
0
 40
0
 40
0
 40
1
 40
1
 40
1
 40
1
 10
913.875012
 20
706.092366
 30
0.0
 10
912.751812
 20
705.512065
 30
0.0
 10
912.265712
 20
704.120265
 30
0.0
 10
912.793013
 20
702.996665
 30
0.0
  0
LWPOLYLINE
  5
280
100
AcDbEntity
  8
Layer_1
 62
1
100
AcDbPolyline
 90
2
 70
0
 10
933.972610
 20
716.486863
 30
0.0
 10
913.875012
 20
706.092366
 30
0.0
  0
SPLINE
  5
281
100
AcDbEntity
  8
Layer_1
 62
1
100
AcDbSpline
 70
8
 71
3
 72
8
 73
4
 74
0
 40
0
 40
0
 40
0
 40
0
 40
1
 40
1
 40
1
 40
1
 10
921.673813
 20
694.848167
 30
0.0
 10
923.198112
 20
695.635767
 30
0.0
 10
923.111013
 20
691.806566
 30
0.0
 10
923.830113
 20
690.283768
 30
0.0
  0
SPLINE
  5
282
100
AcDbEntity
  8
Layer_1
 62
1
100
AcDbSpline
 70
8
 71
3
 72
8
 73
4
 74
0
 40
0
 40
0
 40
0
 40
0
 40
1
 40
1
 40
1
 40
1
 10
923.830113
 20
690.283768
 30
0.0
 10
847.324020
 20
648.546873
 30
0.0
 10
792.372927
 20
602.374577
 30
0.0
 10
759.263732
 20
534.295485
 30
0.0
  0
SPLINE
  5
283
100
AcDbEntity
  8
Layer_1
 62
1
100
AcDbSpline
 70
8
 71
3
 72
8
 73
4
 74
0
 40
0
 40
0
 40
0
 40
0
 40
1
 40
1
 40
1
 40
1
 10
759.263732
 20
534.295485
 30
0.0
 10
756.300930
 20
535.394182
 30
0.0
 10
755.076231
 20
535.427684
 30
0.0
 10
755.076231
 20
536.354084
 30
0.0
  0
SPLINE
  5
284
100
AcDbEntity
  8
Layer_1
 62
1
100
AcDbSpline
 70
8
 71
3
 72
8
 73
4
 74
0
 40
0
 40
0
 40
0
 40
0
 40
1
 40
1
 40
1
 40
1
 10
755.076231
 20
536.354084
 30
0.0
 10
755.076231
 20
537.009083
 30
0.0
 10
755.685030
 20
538.109984
 30
0.0
 10
756.718731
 20
540.348182
 30
0.0
  0
LWPOLYLINE
  5
285
100
AcDbEntity
  8
Layer_1
 62
1
100
AcDbPolyline
 90
3
 70
0
 10
912.793013
 20
702.996665
 30
0.0
 10
917.605511
 20
692.744667
 30
0.0
 10
921.673813
 20
694.848167
 30
0.0
  0
SPLINE
  5
286
100
AcDbEntity
  8
Layer_1
 62
1
100
AcDbSpline
 70
8
 71
3
 72
8
 73
4
 74
0
 40
0
 40
0
 40
0
 40
0
 40
1
 40
1
 40
1
 40
1
 10
746.621130
 20
545.482984
 30
0.0
 10
745.515932
 20
546.044984
 30
0.0
 10
744.179533
 20
545.565982
 30
0.0
 10
743.650433
 20
544.418582
 30
0.0
  0
LWPOLYLINE
  5
287
100
AcDbEntity
  8
Layer_1
 62
1
100
AcDbPolyline
 90
2
 70
0
 10
756.718731
 20
540.348182
 30
0.0
 10
746.621130
 20
545.482984
 30
0.0
  0
SPLINE
  5
288
100
AcDbEntity
  8
Layer_1
 62
1
100
AcDbSpline
 70
8
 71
3
 72
8
 73
4
 74
0
 40
0
 40
0
 40
0
 40
0
 40
1
 40
1
 40
1
 40
1
 10
734.173832
 20
523.871685
 30
0.0
 10
733.644335
 20
522.724685
 30
0.0
 10
734.114834
 20
521.327084
 30
0.0
 10
735.220735
 20
520.764286
 30
0.0
  0
LWPOLYLINE
  5
289
100
AcDbEntity
  8
Layer_1
 62
1
100
AcDbPolyline
 90
2
 70
0
 10
743.650433
 20
544.418582
 30
0.0
 10
734.173832
 20
523.871685
 30
0.0
  0
SPLINE
  5
28a
100
AcDbEntity
  8
Layer_1
 62
1
100
AcDbSpline
 70
8
 71
3
 72
8
 73
4
 74
0
 40
0
 40
0
 40
0
 40
0
 40
1
 40
1
 40
1
 40
1
 10
747.234430
 20
519.787687
 30
0.0
 10
747.936633
 20
521.309286
 30
0.0
 10
750.129631
 20
518.412184
 30
0.0
 10
751.630833
 20
517.566984
 30
0.0
  0
SPLINE
  5
28b
100
AcDbEntity
  8
Layer_1
 62
1
100
AcDbSpline
 70
8
 71
3
 72
8
 73
4
 74
0
 40
0
 40
0
 40
0
 40
0
 40
1
 40
1
 40
1
 40
1
 10
751.630833
 20
517.566984
 30
0.0
 10
744.329932
 20
500.454887
 30
0.0
 10
738.362833
 20
482.912990
 30
0.0
 10
733.734432
 20
465.098193
 30
0.0
  0
LWPOLYLINE
  5
28c
100
AcDbEntity
  8
Layer_1
 62
1
100
AcDbPolyline
 90
3
 70
0
 10
735.220735
 20
520.764286
 30
0.0
 10
745.316434
 20
515.629485
 30
0.0
 10
747.234430
 20
519.787687
 30
0.0
  0
SPLINE
  5
28d
100
AcDbEntity
  8
Layer_1
 62
1
100
AcDbSpline
 70
8
 71
3
 72
8
 73
4
 74
0
 40
0
 40
0
 40
0
 40
0
 40
1
 40
1
 40
1
 40
1
 10
733.734432
 20
465.135232
 30
0.0
 10
730.481733
 20
465.648534
 30
0.0
 10
729.235732
 20
465.410231
 30
0.0
 10
729.043033
 20
466.334435
 30
0.0
  0
SPLINE
  5
28e
100
AcDbEntity
  8
Layer_1
 62
1
100
AcDbSpline
 70
8
 71
3
 72
8
 73
4
 74
0
 40
0
 40
0
 40
0
 40
0
 40
1
 40
1
 40
1
 40
1
 10
729.043033
 20
466.334435
 30
0.0
 10
728.909540
 20
466.975431
 30
0.0
 10
729.285641
 20
468.178133
 30
0.0
 10
729.845733
 20
470.578534
 30
0.0
  0
LWPOLYLINE
  5
28f
100
AcDbEntity
  8
Layer_1
 62
1
100
AcDbPolyline
 90
2
 70
0
 10
733.734432
 20
465.098193
 30
0.0
 10
733.734432
 20
465.135232
 30
0.0
  0
SPLINE
  5
290
100
AcDbEntity
  8
Layer_1
 62
1
100
AcDbSpline
 70
8
 71
3
 72
8
 73
4
 74
0
 40
0
 40
0
 40
0
 40
0
 40
1
 40
1
 40
1
 40
1
 10
718.921936
 20
473.568733
 30
0.0
 10
717.725337
 20
473.896720
 30
0.0
 10
716.511837
 20
473.156731
 30
0.0
 10
716.224634
 20
471.926234
 30
0.0
  0
LWPOLYLINE
  5
291
100
AcDbEntity
  8
Layer_1
 62
1
100
AcDbPolyline
 90
2
 70
0
 10
729.845733
 20
470.578534
 30
0.0
 10
718.921936
 20
473.568733
 30
0.0
  0
SPLINE
  5
292
100
AcDbEntity
  8
Layer_1
 62
1
100
AcDbSpline
 70
8
 71
3
 72
8
 73
4
 74
0
 40
0
 40
0
 40
0
 40
0
 40
1
 40
1
 40
1
 40
1
 10
711.089837
 20
449.889134
 30
0.0
 10
710.802631
 20
448.658735
 30
0.0
 10
711.547137
 20
447.384736
 30
0.0
 10
712.744136
 20
447.057036
 30
0.0
  0
LWPOLYLINE
  5
293
100
AcDbEntity
  8
Layer_1
 62
1
100
AcDbPolyline
 90
2
 70
0
 10
716.224634
 20
471.926234
 30
0.0
 10
711.089837
 20
449.889134
 30
0.0
  0
SPLINE
  5
294
100
AcDbEntity
  8
Layer_1
 62
1
100
AcDbSpline
 70
8
 71
3
 72
8
 73
4
 74
0
 40
0
 40
0
 40
0
 40
0
 40
1
 40
1
 40
1
 40
1
 10
724.707035
 20
448.525835
 30
0.0
 10
725.092535
 20
450.179235
 30
0.0
 10
727.894235
 20
447.699434
 30
0.0
 10
729.527334
 20
447.219136
 30
0.0
  0
SPLINE
  5
295
100
AcDbEntity
  8
Layer_1
 62
1
100
AcDbSpline
 70
8
 71
3
 72
8
 73
4
 74
0
 40
0
 40
0
 40
0
 40
0
 40
1
 40
1
 40
1
 40
1
 10
729.527334
 20
447.219136
 30
0.0
 10
724.391535
 20
422.504339
 30
0.0
 10
721.791734
 20
397.376228
 30
0.0
 10
721.738333
 20
372.244526
 30
0.0
  0
LWPOLYLINE
  5
296
100
AcDbEntity
  8
Layer_1
 62
1
100
AcDbPolyline
 90
3
 70
0
 10
712.744136
 20
447.057036
 30
0.0
 10
723.668035
 20
444.066836
 30
0.0
 10
724.707035
 20
448.525835
 30
0.0
  0
SPLINE
  5
297
100
AcDbEntity
  8
Layer_1
 62
1
100
AcDbSpline
 70
8
 71
3
 72
8
 73
4
 74
0
 40
0
 40
0
 40
0
 40
0
 40
1
 40
1
 40
1
 40
1
 10
721.738333
 20
372.233188
 30
0.0
 10
721.791322
 20
347.101486
 30
0.0
 10
724.391535
 20
321.971372
 30
0.0
 10
729.527334
 20
297.256704
 30
0.0
  0
SPLINE
  5
298
100
AcDbEntity
  8
Layer_1
 62
1
100
AcDbSpline
 70
8
 71
3
 72
8
 73
4
 74
0
 40
0
 40
0
 40
0
 40
0
 40
1
 40
1
 40
1
 40
1
 10
729.527334
 20
297.256704
 30
0.0
 10
727.894235
 20
296.776402
 30
0.0
 10
725.092535
 20
294.296503
 30
0.0
 10
724.707035
 20
295.949970
 30
0.0
  0
LWPOLYLINE
  5
299
100
AcDbEntity
  8
Layer_1
 62
1
100
AcDbPolyline
 90
2
 70
0
 10
721.738333
 20
372.244526
 30
0.0
 10
721.738333
 20
372.233188
 30
0.0
  0
SPLINE
  5
29a
100
AcDbEntity
  8
Layer_1
 62
1
100
AcDbSpline
 70
8
 71
3
 72
8
 73
4
 74
0
 40
0
 40
0
 40
0
 40
0
 40
1
 40
1
 40
1
 40
1
 10
712.744136
 20
297.418770
 30
0.0
 10
711.547137
 20
297.091085
 30
0.0
 10
710.802634
 20
295.817082
 30
0.0
 10
711.089837
 20
294.586695
 30
0.0
  0
LWPOLYLINE
  5
29b
100
AcDbEntity
  8
Layer_1
 62
1
100
AcDbPolyline
 90
3
 70
0
 10
724.707035
 20
295.949970
 30
0.0
 10
723.668035
 20
300.408981
 30
0.0
 10
712.744136
 20
297.418770
 30
0.0
  0
SPLINE
  5
29c
100
AcDbEntity
  8
Layer_1
 62
1
100
AcDbSpline
 70
8
 71
3
 72
8
 73
4
 74
0
 40
0
 40
0
 40
0
 40
0
 40
1
 40
1
 40
1
 40
1
 10
716.224634
 20
272.549595
 30
0.0
 10
716.511841
 20
271.318981
 30
0.0
 10
717.725337
 20
270.579100
 30
0.0
 10
718.921936
 20
270.906974
 30
0.0
  0
LWPOLYLINE
  5
29d
100
AcDbEntity
  8
Layer_1
 62
1
100
AcDbPolyline
 90
2
 70
0
 10
711.089837
 20
294.586695
 30
0.0
 10
716.224634
 20
272.549595
 30
0.0
  0
SPLINE
  5
29e
100
AcDbEntity
  8
Layer_1
 62
1
100
AcDbSpline
 70
8
 71
3
 72
8
 73
4
 74
0
 40
0
 40
0
 40
0
 40
0
 40
1
 40
1
 40
1
 40
1
 10
729.845733
 20
273.897298
 30
0.0
 10
729.285633
 20
276.297676
 30
0.0
 10
728.909533
 20
277.500397
 30
0.0
 10
729.043033
 20
278.141405
 30
0.0
  0
SPLINE
  5
29f
100
AcDbEntity
  8
Layer_1
 62
1
100
AcDbSpline
 70
8
 71
3
 72
8
 73
4
 74
0
 40
0
 40
0
 40
0
 40
0
 40
1
 40
1
 40
1
 40
1
 10
729.043033
 20
278.141405
 30
0.0
 10
729.235751
 20
279.065575
 30
0.0
 10
730.481733
 20
278.827276
 30
0.0
 10
733.734432
 20
279.340573
 30
0.0
  0
LWPOLYLINE
  5
2a0
100
AcDbEntity
  8
Layer_1
 62
1
100
AcDbPolyline
 90
2
 70
0
 10
718.921936
 20
270.906974
 30
0.0
 10
729.845733
 20
273.897298
 30
0.0
  0
SPLINE
  5
2a1
100
AcDbEntity
  8
Layer_1
 62
1
100
AcDbSpline
 70
8
 71
3
 72
8
 73
4
 74
0
 40
0
 40
0
 40
0
 40
0
 40
1
 40
1
 40
1
 40
1
 10
733.734432
 20
279.379503
 30
0.0
 10
738.362833
 20
261.564701
 30
0.0
 10
744.329932
 20
244.022933
 30
0.0
 10
751.630833
 20
226.910708
 30
0.0
  0
SPLINE
  5
2a2
100
AcDbEntity
  8
Layer_1
 62
1
100
AcDbSpline
 70
8
 71
3
 72
8
 73
4
 74
0
 40
0
 40
0
 40
0
 40
0
 40
1
 40
1
 40
1
 40
1
 10
751.630833
 20
226.910708
 30
0.0
 10
750.129631
 20
226.065606
 30
0.0
 10
747.936633
 20
223.168409
 30
0.0
 10
747.234430
 20
224.690009
 30
0.0
  0
LWPOLYLINE
  5
2a3
100
AcDbEntity
  8
Layer_1
 62
1
100
AcDbPolyline
 90
2
 70
0
 10
733.734432
 20
279.340573
 30
0.0
 10
733.734432
 20
279.379503
 30
0.0
  0
SPLINE
  5
2a4
100
AcDbEntity
  8
Layer_1
 62
1
100
AcDbSpline
 70
8
 71
3
 72
8
 73
4
 74
0
 40
0
 40
0
 40
0
 40
0
 40
1
 40
1
 40
1
 40
1
 10
735.220735
 20
223.713530
 30
0.0
 10
734.114834
 20
223.150721
 30
0.0
 10
733.644335
 20
221.753127
 30
0.0
 10
734.173832
 20
220.606116
 30
0.0
  0
LWPOLYLINE
  5
2a5
100
AcDbEntity
  8
Layer_1
 62
1
100
AcDbPolyline
 90
3
 70
0
 10
747.234430
 20
224.690009
 30
0.0
 10
745.316434
 20
228.848320
 30
0.0
 10
735.220735
 20
223.713530
 30
0.0
  0
SPLINE
  5
2a6
100
AcDbEntity
  8
Layer_1
 62
1
100
AcDbSpline
 70
8
 71
3
 72
8
 73
4
 74
0
 40
0
 40
0
 40
0
 40
0
 40
1
 40
1
 40
1
 40
1
 10
743.650433
 20
200.059208
 30
0.0
 10
744.179533
 20
198.911706
 30
0.0
 10
745.515932
 20
198.432840
 30
0.0
 10
746.621130
 20
198.994704
 30
0.0
  0
LWPOLYLINE
  5
2a7
100
AcDbEntity
  8
Layer_1
 62
1
100
AcDbPolyline
 90
2
 70
0
 10
734.173832
 20
220.606116
 30
0.0
 10
743.650433
 20
200.059208
 30
0.0
  0
SPLINE
  5
2a8
100
AcDbEntity
  8
Layer_1
 62
1
100
AcDbSpline
 70
8
 71
3
 72
8
 73
4
 74
0
 40
0
 40
0
 40
0
 40
0
 40
1
 40
1
 40
1
 40
1
 10
756.718731
 20
204.132027
 30
0.0
 10
755.685030
 20
206.370225
 30
0.0
 10
755.075033
 20
207.471239
 30
0.0
 10
755.076231
 20
208.126118
 30
0.0
  0
SPLINE
  5
2a9
100
AcDbEntity
  8
Layer_1
 62
1
100
AcDbSpline
 70
8
 71
3
 72
8
 73
4
 74
0
 40
0
 40
0
 40
0
 40
0
 40
1
 40
1
 40
1
 40
1
 10
755.076231
 20
208.126118
 30
0.0
 10
755.076231
 20
209.052517
 30
0.0
 10
756.300930
 20
209.086004
 30
0.0
 10
759.263732
 20
210.184713
 30
0.0
  0
SPLINE
  5
2aa
100
AcDbEntity
  8
Layer_1
 62
1
100
AcDbSpline
 70
8
 71
3
 72
8
 73
4
 74
0
 40
0
 40
0
 40
0
 40
0
 40
1
 40
1
 40
1
 40
1
 10
759.263732
 20
210.184713
 30
0.0
 10
792.372927
 20
142.105639
 30
0.0
 10
847.324020
 20
95.933423
 30
0.0
 10
923.830113
 20
54.196520
 30
0.0
  0
SPLINE
  5
2ab
100
AcDbEntity
  8
Layer_1
 62
1
100
AcDbSpline
 70
8
 71
3
 72
8
 73
4
 74
0
 40
0
 40
0
 40
0
 40
0
 40
1
 40
1
 40
1
 40
1
 10
923.830113
 20
54.196520
 30
0.0
 10
923.111013
 20
52.673749
 30
0.0
 10
923.198112
 20
48.844748
 30
0.0
 10
921.673813
 20
49.632023
 30
0.0
  0
LWPOLYLINE
  5
2ac
100
AcDbEntity
  8
Layer_1
 62
1
100
AcDbPolyline
 90
2
 70
0
 10
746.621130
 20
198.994704
 30
0.0
 10
756.718731
 20
204.132027
 30
0.0
  0
SPLINE
  5
2ad
100
AcDbEntity
  8
Layer_1
 62
1
100
AcDbSpline
 70
8
 71
3
 72
8
 73
4
 74
0
 40
0
 40
0
 40
0
 40
0
 40
1
 40
1
 40
1
 40
1
 10
912.793013
 20
41.483627
 30
0.0
 10
912.265712
 20
40.359936
 30
0.0
 10
912.752005
 20
38.968427
 30
0.0
 10
913.875012
 20
38.387930
 30
0.0
  0
LWPOLYLINE
  5
2ae
100
AcDbEntity
  8
Layer_1
 62
1
100
AcDbPolyline
 90
3
 70
0
 10
921.673813
 20
49.632023
 30
0.0
 10
917.605511
 20
51.735557
 30
0.0
 10
912.793013
 20
41.483627
 30
0.0
  0
SPLINE
  5
2af
100
AcDbEntity
  8
Layer_1
 62
1
100
AcDbSpline
 70
8
 71
3
 72
8
 73
4
 74
0
 40
0
 40
0
 40
0
 40
0
 40
1
 40
1
 40
1
 40
1
 10
933.972610
 20
27.993361
 30
0.0
 10
935.094310
 20
27.412825
 30
0.0
 10
936.443510
 20
27.857676
 30
0.0
 10
936.970713
 20
28.977738
 30
0.0
  0
LWPOLYLINE
  5
2b0
100
AcDbEntity
  8
Layer_1
 62
1
100
AcDbPolyline
 90
2
 70
0
 10
913.875012
 20
38.387930
 30
0.0
 10
933.972610
 20
27.993361
 30
0.0
  0
SPLINE
  5
2b1
100
AcDbEntity
  8
Layer_1
 62
1
100
AcDbSpline
 70
8
 71
3
 72
8
 73
4
 74
0
 40
0
 40
0
 40
0
 40
0
 40
1
 40
1
 40
1
 40
1
 10
941.785112
 20
39.229744
 30
0.0
 10
939.594812
 20
40.362052
 30
0.0
 10
938.438912
 20
40.857133
 30
0.0
 10
938.037110
 20
41.374247
 30
0.0
  0
SPLINE
  5
2b2
100
AcDbEntity
  8
Layer_1
 62
1
100
AcDbSpline
 70
8
 71
3
 72
8
 73
4
 74
0
 40
0
 40
0
 40
0
 40
0
 40
1
 40
1
 40
1
 40
1
 10
938.037110
 20
41.374247
 30
0.0
 10
937.460313
 20
42.118852
 30
0.0
 10
938.444211
 20
42.910134
 30
0.0
 10
940.158211
 20
45.704338
 30
0.0
  0
SPLINE
  5
2b3
100
AcDbEntity
  8
Layer_1
 62
1
100
AcDbSpline
 70
8
 71
3
 72
8
 73
4
 74
0
 40
0
 40
0
 40
0
 40
0
 40
1
 40
1
 40
1
 40
1
 10
940.158211
 20
45.704338
 30
0.0
 10
950.056109
 20
40.835551
 30
0.0
 10
960.256909
 20
36.239457
 30
0.0
 10
970.820306
 20
31.985524
 30
0.0
  0
SPLINE
  5
2b4
100
AcDbEntity
  8
Layer_1
 62
1
100
AcDbSpline
 70
8
 71
3
 72
8
 73
4
 74
0
 40
0
 40
0
 40
0
 40
0
 40
1
 40
1
 40
1
 40
1
 10
970.820306
 20
31.985524
 30
0.0
 10
975.659306
 20
30.037253
 30
0.0
 10
980.296106
 20
27.885833
 30
0.0
 10
984.685505
 20
25.819528
 30
0.0
  0
SPLINE
  5
2b5
100
AcDbEntity
  8
Layer_1
 62
1
100
AcDbSpline
 70
8
 71
3
 72
8
 73
4
 74
0
 40
0
 40
0
 40
0
 40
0
 40
1
 40
1
 40
1
 40
1
 10
984.685505
 20
25.819528
 30
0.0
 10
984.072205
 20
24.252158
 30
0.0
 10
984.388396
 20
20.346735
 30
0.0
 10
982.814405
 20
21.028561
 30
0.0
  0
LWPOLYLINE
  5
2b6
100
AcDbEntity
  8
Layer_1
 62
1
100
AcDbPolyline
 90
2
 70
0
 10
936.970713
 20
28.977738
 30
0.0
 10
941.785112
 20
39.229744
 30
0.0
  0
SPLINE
  5
2b7
100
AcDbEntity
  8
Layer_1
 62
1
100
AcDbSpline
 70
8
 71
3
 72
8
 73
4
 74
0
 40
0
 40
0
 40
0
 40
0
 40
1
 40
1
 40
1
 40
1
 10
974.511706
 20
12.292260
 30
0.0
 10
974.062308
 20
11.135649
 30
0.0
 10
974.643913
 20
9.778836
 30
0.0
 10
975.802705
 20
9.276537
 30
0.0
  0
LWPOLYLINE
  5
2b8
100
AcDbEntity
  8
Layer_1
 62
1
100
AcDbPolyline
 90
3
 70
0
 10
982.814405
 20
21.028561
 30
0.0
 10
978.613305
 20
22.848857
 30
0.0
 10
974.511706
 20
12.292260
 30
0.0
  0
SPLINE
  5
2b9
100
AcDbEntity
  8
Layer_1
 62
1
100
AcDbSpline
 70
8
 71
3
 72
8
 73
4
 74
0
 40
0
 40
0
 40
0
 40
0
 40
1
 40
1
 40
1
 40
1
 10
996.564411
 20
0.280431
 30
0.0
 10
997.724008
 20
-0.221868
 30
0.0
 10
999.039813
 20
0.318604
 30
0.0
 10
999.488291
 20
1.469962
 30
0.0
  0
LWPOLYLINE
  5
2ba
100
AcDbEntity
  8
Layer_1
 62
1
100
AcDbPolyline
 90
2
 70
0
 10
975.802705
 20
9.276537
 30
0.0
 10
996.564411
 20
0.280431
 30
0.0
  0
SPLINE
  5
2bb
100
AcDbEntity
  8
Layer_1
 62
1
100
AcDbSpline
 70
8
 71
3
 72
8
 73
4
 74
0
 40
0
 40
0
 40
0
 40
0
 40
1
 40
1
 40
1
 40
1
 10
1003.589796
 20
12.026559
 30
0.0
 10
1001.327598
 20
13.005835
 30
0.0
 10
1000.140298
 20
13.420751
 30
0.0
 10
999.705085
 20
13.909331
 30
0.0
  0
SPLINE
  5
2bc
100
AcDbEntity
  8
Layer_1
 62
1
100
AcDbSpline
 70
8
 71
3
 72
8
 73
4
 74
0
 40
0
 40
0
 40
0
 40
0
 40
1
 40
1
 40
1
 40
1
 10
999.705085
 20
13.909331
 30
0.0
 10
999.077117
 20
14.613154
 30
0.0
 10
1000.022187
 20
15.506445
 30
0.0
 10
1001.546886
 20
18.425034
 30
0.0
  0
SPLINE
  5
2bd
100
AcDbEntity
  8
Layer_1
 62
1
100
AcDbSpline
 70
8
 71
3
 72
8
 73
4
 74
0
 40
0
 40
0
 40
0
 40
0
 40
1
 40
1
 40
1
 40
1
 10
1001.546886
 20
18.425034
 30
0.0
 10
1012.544895
 20
14.565343
 30
0.0
 10
1017.704101
 20
13.795756
 30
0.0
 10
1024.695319
 20
28.487534
 30
0.0
  0
SPLINE
  5
2be
100
AcDbEntity
  8
Layer_1
 62
1
100
AcDbSpline
 70
8
 71
3
 72
8
 73
4
 74
0
 40
0
 40
0
 40
0
 40
0
 40
1
 40
1
 40
1
 40
1
 10
1024.695319
 20
28.487534
 30
0.0
 10
1025.840402
 20
30.893959
 30
0.0
 10
1026.084484
 20
34.078135
 30
0.0
 10
1024.925870
 20
36.477757
 30
0.0
  0
SPLINE
  5
2bf
100
AcDbEntity
  8
Layer_1
 62
1
100
AcDbSpline
 70
8
 71
3
 72
8
 73
4
 74
0
 40
0
 40
0
 40
0
 40
0
 40
1
 40
1
 40
1
 40
1
 10
1024.925870
 20
36.477757
 30
0.0
 10
1019.288894
 20
48.153056
 30
0.0
 10
1005.329664
 20
52.992325
 30
0.0
 10
993.783284
 20
59.778542
 30
0.0
  0
SPLINE
  5
2c0
100
AcDbEntity
  8
Layer_1
 62
1
100
AcDbSpline
 70
8
 71
3
 72
8
 73
4
 74
0
 40
0
 40
0
 40
0
 40
0
 40
1
 40
1
 40
1
 40
1
 10
993.783284
 20
59.778542
 30
0.0
 10
993.783284
 20
59.778542
 30
0.0
 10
1032.098392
 20
39.176528
 30
0.0
 10
1053.046988
 20
34.362544
 30
0.0
  0
SPLINE
  5
2c1
100
AcDbEntity
  8
Layer_1
 62
1
100
AcDbSpline
 70
8
 71
3
 72
8
 73
4
 74
0
 40
0
 40
0
 40
0
 40
0
 40
1
 40
1
 40
1
 40
1
 10
1053.046988
 20
34.362544
 30
0.0
 10
1068.489381
 20
30.813530
 30
0.0
 10
1087.643571
 20
22.925128
 30
0.0
 10
1100.529377
 20
32.145738
 30
0.0
  0
SPLINE
  5
2c2
100
AcDbEntity
  8
Layer_1
 62
1
100
AcDbSpline
 70
8
 71
3
 72
8
 73
4
 74
0
 40
0
 40
0
 40
0
 40
0
 40
1
 40
1
 40
1
 40
1
 10
1100.529377
 20
32.145738
 30
0.0
 10
1112.829282
 20
40.947123
 30
0.0
 10
1126.348348
 20
75.727731
 30
0.0
 10
1113.154359
 20
75.727731
 30
0.0
  0
SPLINE
  5
2c3
100
AcDbEntity
  8
Layer_1
 62
1
100
AcDbSpline
 70
8
 71
3
 72
8
 73
4
 74
0
 40
0
 40
0
 40
0
 40
0
 40
1
 40
1
 40
1
 40
1
 10
1113.154359
 20
75.727731
 30
0.0
 10
1091.690878
 20
75.727731
 30
0.0
 10
1064.365879
 20
74.099246
 30
0.0
 10
1046.382888
 20
77.641834
 30
0.0
  0
SPLINE
  5
2c4
100
AcDbEntity
  8
Layer_1
 62
1
100
AcDbSpline
 70
8
 71
3
 72
8
 73
4
 74
0
 40
0
 40
0
 40
0
 40
0
 40
1
 40
1
 40
1
 40
1
 10
1046.382888
 20
77.641834
 30
0.0
 10
1015.974060
 20
84.368826
 30
0.0
 10
990.161477
 20
104.310821
 30
0.0
 10
964.279384
 20
121.393717
 30
0.0
  0
SPLINE
  5
2c5
100
AcDbEntity
  8
Layer_1
 62
1
100
AcDbSpline
 70
8
 71
3
 72
8
 73
4
 74
0
 40
0
 40
0
 40
0
 40
0
 40
1
 40
1
 40
1
 40
1
 10
964.279384
 20
121.393717
 30
0.0
 10
952.636384
 20
129.078327
 30
0.0
 10
941.554686
 20
137.782011
 30
0.0
 10
931.662185
 20
147.618344
 30
0.0
  0
SPLINE
  5
2c6
100
AcDbEntity
  8
Layer_1
 62
1
100
AcDbSpline
 70
8
 71
3
 72
8
 73
4
 74
0
 40
0
 40
0
 40
0
 40
0
 40
1
 40
1
 40
1
 40
1
 10
931.662185
 20
147.618344
 30
0.0
 10
921.156287
 20
158.064730
 30
0.0
 10
911.846389
 20
169.780131
 30
0.0
 10
903.615289
 20
182.098819
 30
0.0
  0
SPLINE
  5
2c7
100
AcDbEntity
  8
Layer_1
 62
1
100
AcDbSpline
 70
8
 71
3
 72
8
 73
4
 74
0
 40
0
 40
0
 40
0
 40
0
 40
1
 40
1
 40
1
 40
1
 10
903.615289
 20
182.098819
 30
0.0
 10
894.277892
 20
196.073016
 30
0.0
 10
886.511092
 20
211.116631
 30
0.0
 10
879.652391
 20
226.460113
 30
0.0
  0
SPLINE
  5
2c8
100
AcDbEntity
  8
Layer_1
 62
1
100
AcDbSpline
 70
8
 71
3
 72
8
 73
4
 74
0
 40
0
 40
0
 40
0
 40
0
 40
1
 40
1
 40
1
 40
1
 10
879.652391
 20
226.460113
 30
0.0
 10
874.397892
 20
238.215236
 30
0.0
 10
870.283892
 20
250.476211
 30
0.0
 10
866.572393
 20
262.805822
 30
0.0
  0
SPLINE
  5
2c9
100
AcDbEntity
  8
Layer_1
 62
1
100
AcDbSpline
 70
8
 71
3
 72
8
 73
4
 74
0
 40
0
 40
0
 40
0
 40
0
 40
1
 40
1
 40
1
 40
1
 10
866.572393
 20
262.805822
 30
0.0
 10
862.883695
 20
275.058823
 30
0.0
 10
859.893995
 20
287.536025
 30
0.0
 10
857.470796
 20
300.100798
 30
0.0
  0
SPLINE
  5
2ca
100
AcDbEntity
  8
Layer_1
 62
1
100
AcDbSpline
 70
8
 71
3
 72
8
 73
4
 74
0
 40
0
 40
0
 40
0
 40
0
 40
1
 40
1
 40
1
 40
1
 10
857.470796
 20
300.100798
 30
0.0
 10
855.440895
 20
310.627499
 30
0.0
 10
854.034696
 20
321.277111
 30
0.0
 10
852.929796
 20
331.940593
 30
0.0
  0
SPLINE
  5
2cb
100
AcDbEntity
  8
Layer_1
 62
1
100
AcDbSpline
 70
8
 71
3
 72
8
 73
4
 74
0
 40
0
 40
0
 40
0
 40
0
 40
1
 40
1
 40
1
 40
1
 10
852.929796
 20
331.940593
 30
0.0
 10
851.832894
 20
342.525311
 30
0.0
 10
851.097697
 20
353.159313
 30
0.0
 10
850.861397
 20
363.798001
 30
0.0
  0
SPLINE
  5
2cc
100
AcDbEntity
  8
Layer_1
 62
1
100
AcDbSpline
 70
8
 71
3
 72
8
 73
4
 74
0
 40
0
 40
0
 40
0
 40
0
 40
1
 40
1
 40
1
 40
1
 10
850.861397
 20
363.798001
 30
0.0
 10
850.799413
 20
366.610914
 30
0.0
 10
850.770386
 20
369.424999
 30
0.0
 10
850.775413
 20
372.239386
 30
0.0
  0
SPLINE
  5
2cd
100
AcDbEntity
  8
Layer_1
 62
1
100
AcDbSpline
 70
8
 71
3
 72
8
 73
4
 74
0
 40
0
 40
0
 40
0
 40
0
 40
1
 40
1
 40
1
 40
1
 10
850.775413
 20
372.239386
 30
0.0
 10
850.765586
 20
375.053887
 30
0.0
 10
850.799224
 20
377.868009
 30
0.0
 10
850.861397
 20
380.680809
 30
0.0
  0
SPLINE
  5
2ce
100
AcDbEntity
  8
Layer_1
 62
1
100
AcDbSpline
 70
8
 71
3
 72
8
 73
4
 74
0
 40
0
 40
0
 40
0
 40
0
 40
1
 40
1
 40
1
 40
1
 10
850.861397
 20
380.680809
 30
0.0
 10
851.097693
 20
391.319498
 30
0.0
 10
851.832894
 20
401.953500
 30
0.0
 10
852.929796
 20
412.538217
 30
0.0
  0
SPLINE
  5
2cf
100
AcDbEntity
  8
Layer_1
 62
1
100
AcDbSpline
 70
8
 71
3
 72
8
 73
4
 74
0
 40
0
 40
0
 40
0
 40
0
 40
1
 40
1
 40
1
 40
1
 10
852.929796
 20
412.538217
 30
0.0
 10
854.034696
 20
423.201699
 30
0.0
 10
855.440895
 20
433.851386
 30
0.0
 10
857.470796
 20
444.378099
 30
0.0
  0
SPLINE
  5
2d0
100
AcDbEntity
  8
Layer_1
 62
1
100
AcDbSpline
 70
8
 71
3
 72
8
 73
4
 74
0
 40
0
 40
0
 40
0
 40
0
 40
1
 40
1
 40
1
 40
1
 10
857.470796
 20
444.378099
 30
0.0
 10
859.893995
 20
456.942899
 30
0.0
 10
862.883695
 20
469.420097
 30
0.0
 10
866.572393
 20
481.672996
 30
0.0
  0
SPLINE
  5
2d1
100
AcDbEntity
  8
Layer_1
 62
1
100
AcDbSpline
 70
8
 71
3
 72
8
 73
4
 74
0
 40
0
 40
0
 40
0
 40
0
 40
1
 40
1
 40
1
 40
1
 10
866.572393
 20
481.672996
 30
0.0
 10
870.283892
 20
494.002592
 30
0.0
 10
874.397892
 20
506.263692
 30
0.0
 10
879.652391
 20
518.018690
 30
0.0
  0
SPLINE
  5
2d2
100
AcDbEntity
  8
Layer_1
 62
1
100
AcDbSpline
 70
8
 71
3
 72
8
 73
4
 74
0
 40
0
 40
0
 40
0
 40
0
 40
1
 40
1
 40
1
 40
1
 10
879.652391
 20
518.018690
 30
0.0
 10
886.511092
 20
533.362191
 30
0.0
 10
894.277892
 20
548.405786
 30
0.0
 10
903.615289
 20
562.379987
 30
0.0
  0
SPLINE
  5
2d3
100
AcDbEntity
  8
Layer_1
 62
1
100
AcDbSpline
 70
8
 71
3
 72
8
 73
4
 74
0
 40
0
 40
0
 40
0
 40
0
 40
1
 40
1
 40
1
 40
1
 10
903.615289
 20
562.379987
 30
0.0
 10
911.846389
 20
574.698683
 30
0.0
 10
921.156287
 20
586.414182
 30
0.0
 10
931.662185
 20
596.860481
 30
0.0
  0
SPLINE
  5
2d4
100
AcDbEntity
  8
Layer_1
 62
1
100
AcDbSpline
 70
8
 71
3
 72
8
 73
4
 74
0
 40
0
 40
0
 40
0
 40
0
 40
1
 40
1
 40
1
 40
1
 10
931.662185
 20
596.860481
 30
0.0
 10
941.554686
 20
606.696882
 30
0.0
 10
952.636384
 20
615.400582
 30
0.0
 10
964.279384
 20
623.085079
 30
0.0
  0
SPLINE
  5
2d5
100
AcDbEntity
  8
Layer_1
 62
1
100
AcDbSpline
 70
8
 71
3
 72
8
 73
4
 74
0
 40
0
 40
0
 40
0
 40
0
 40
1
 40
1
 40
1
 40
1
 10
964.279384
 20
623.085079
 30
0.0
 10
990.161477
 20
640.168077
 30
0.0
 10
1015.974060
 20
660.109875
 30
0.0
 10
1046.382888
 20
666.837074
 30
0.0
  0
SPLINE
  5
2d6
100
AcDbEntity
  8
Layer_1
 62
1
100
AcDbSpline
 70
8
 71
3
 72
8
 73
4
 74
0
 40
0
 40
0
 40
0
 40
0
 40
1
 40
1
 40
1
 40
1
 10
1046.382888
 20
666.837074
 30
0.0
 10
1064.365879
 20
670.379474
 30
0.0
 10
1091.690878
 20
668.749175
 30
0.0
 10
1113.154359
 20
668.749175
 30
0.0
  0
SPLINE
  5
2d7
100
AcDbEntity
  8
Layer_1
 62
1
100
AcDbSpline
 70
8
 71
3
 72
8
 73
4
 74
0
 40
0
 40
0
 40
0
 40
0
 40
1
 40
1
 40
1
 40
1
 10
1113.154359
 20
668.749175
 30
0.0
 10
1116.865174
 20
668.749175
 30
0.0
 10
1118.464254
 20
671.500875
 30
0.0
 10
1118.570383
 20
675.651472
 30
0.0
  0
LWPOLYLINE
  5
2d8
100
AcDbEntity
  8
Layer_1
 62
1
100
AcDbPolyline
 90
2
 70
0
 10
999.488291
 20
1.469962
 30
0.0
 10
1003.589796
 20
12.026559
 30
0.0
  0
SPLINE
  5
2d9
100
AcDbEntity
  8
Layer_1
 62
1
100
AcDbSpline
 70
8
 71
3
 72
8
 73
4
 74
0
 40
0
 40
0
 40
0
 40
0
 40
1
 40
1
 40
1
 40
1
 10
1085.911716
 20
681.848105
 30
0.0
 10
1080.661967
 20
681.848105
 30
0.0
 10
1076.406205
 20
686.103867
 30
0.0
 10
1076.406205
 20
691.353616
 30
0.0
  0
SPLINE
  5
2da
100
AcDbEntity
  8
Layer_1
 62
1
100
AcDbSpline
 70
8
 71
3
 72
8
 73
4
 74
0
 40
0
 40
0
 40
0
 40
0
 40
1
 40
1
 40
1
 40
1
 10
1076.406205
 20
691.353616
 30
0.0
 10
1076.406205
 20
696.603365
 30
0.0
 10
1080.661967
 20
700.859127
 30
0.0
 10
1085.911716
 20
700.859127
 30
0.0
  0
SPLINE
  5
2db
100
AcDbEntity
  8
Layer_1
 62
1
100
AcDbSpline
 70
8
 71
3
 72
8
 73
4
 74
0
 40
0
 40
0
 40
0
 40
0
 40
1
 40
1
 40
1
 40
1
 10
1085.911716
 20
700.859127
 30
0.0
 10
1091.161464
 20
700.859127
 30
0.0
 10
1095.417227
 20
696.603365
 30
0.0
 10
1095.417227
 20
691.353616
 30
0.0
  0
SPLINE
  5
2dc
100
AcDbEntity
  8
Layer_1
 62
1
100
AcDbSpline
 70
8
 71
3
 72
8
 73
4
 74
0
 40
0
 40
0
 40
0
 40
0
 40
1
 40
1
 40
1
 40
1
 10
1095.417227
 20
691.353616
 30
0.0
 10
1095.417227
 20
686.103867
 30
0.0
 10
1091.161464
 20
681.848105
 30
0.0
 10
1085.911716
 20
681.848105
 30
0.0
  0
LWPOLYLINE
  5
2dd
100
AcDbEntity
  8
Layer_1
 62
1
100
AcDbPolyline
 90
2
 70
0
 10
1118.570383
 20
675.651472
 30
0.0
 10
1118.570308
 20
675.652867
 30
0.0
  0
SPLINE
  5
2de
100
AcDbEntity
  8
Layer_1
 62
1
100
AcDbSpline
 70
8
 71
3
 72
8
 73
4
 74
0
 40
0
 40
0
 40
0
 40
0
 40
1
 40
1
 40
1
 40
1
 10
1085.911754
 20
62.631971
 30
0.0
 10
1080.662005
 20
62.631971
 30
0.0
 10
1076.406243
 20
58.376209
 30
0.0
 10
1076.406243
 20
53.126461
 30
0.0
  0
SPLINE
  5
2df
100
AcDbEntity
  8
Layer_1
 62
1
100
AcDbSpline
 70
8
 71
3
 72
8
 73
4
 74
0
 40
0
 40
0
 40
0
 40
0
 40
1
 40
1
 40
1
 40
1
 10
1076.406243
 20
53.126461
 30
0.0
 10
1076.406243
 20
47.876712
 30
0.0
 10
1080.662005
 20
43.620950
 30
0.0
 10
1085.911754
 20
43.620950
 30
0.0
  0
SPLINE
  5
2e0
100
AcDbEntity
  8
Layer_1
 62
1
100
AcDbSpline
 70
8
 71
3
 72
8
 73
4
 74
0
 40
0
 40
0
 40
0
 40
0
 40
1
 40
1
 40
1
 40
1
 10
1085.911754
 20
43.620950
 30
0.0
 10
1091.161502
 20
43.620950
 30
0.0
 10
1095.417264
 20
47.876712
 30
0.0
 10
1095.417265
 20
53.126460
 30
0.0
  0
SPLINE
  5
2e1
100
AcDbEntity
  8
Layer_1
 62
1
100
AcDbSpline
 70
8
 71
3
 72
8
 73
4
 74
0
 40
0
 40
0
 40
0
 40
0
 40
1
 40
1
 40
1
 40
1
 10
1095.417265
 20
53.126460
 30
0.0
 10
1095.417264
 20
58.376209
 30
0.0
 10
1091.161502
 20
62.631971
 30
0.0
 10
1085.911754
 20
62.631971
 30
0.0
  0
LWPOLYLINE
  5
2e2
100
AcDbEntity
  8
Layer_1
 62
1
100
AcDbPolyline
 90
1
 70
1
 10
1085.911716
 20
681.848105
 30
0.0
  0
LWPOLYLINE
  5
2e3
100
AcDbEntity
  8
Layer_1
 62
1
100
AcDbPolyline
 90
1
 70
1
 10
1085.911754
 20
62.631971
 30
0.0
  0
ENDSEC
  0
SECTION
  2
OBJECTS
  0
DICTIONARY
  5
C
330
0
100
AcDbDictionary
  3
ACAD_GROUP
350
D
  3
ACAD_MLINESTYLE
350
17
  0
DICTIONARY
  5
D
330
C
100
AcDbDictionary
  0
DICTIONARY
  5
1A
330
C
100
AcDbDictionary
  0
DICTIONARY
  5
17
330
C
100
AcDbDictionary
  3
STANDARD
350
18
  0
DICTIONARY
  5
19
330
C
100
AcDbDictionary
  0
ENDSEC
  0
EOF
