  0
SECTION
  2
HEADER
  9
$ACADVER
  1
AC1014
  9
$HANDSEED
  5
FFFF
  9
$MEASUREMENT
 70
     1
  0
ENDSEC
  0
SECTION
  2
TABLES
  0
TABLE
  2
VPORT
  5
8
330
0
100
AcDbSymbolTable
 70
     4
  0
VPORT
  5
2E
330
8
100
AcDbSymbolTableRecord
100
AcDbViewportTableRecord
  2
*ACTIVE
 70
     0
 10
0.0
 20
0.0
 11
1.0
 21
1.0
 12
210.0
 22
148.5
 13
0.0
 23
0.0
 14
10.0
 24
10.0
 15
10.0
 25
10.0
 16
0.0
 26
0.0
 36
1.0
 17
0.0
 27
0.0
 37
0.0
 40
341.0
 41
1.24
 42
50.0
 43
0.0
 44
0.0
 50
0.0
 51
0.0
 71
     0
 72
   100
 73
     1
 74
     3
 75
     0
 76
     0
 77
     0
 78
     0
  0
ENDTAB
  0
TABLE
  2
LTYPE
  5
5
330
0
100
AcDbSymbolTable
 70
     1
  0
LTYPE
  5
14
330
5
100
AcDbSymbolTableRecord
100
AcDbLinetypeTableRecord
  2
BYBLOCK
 70
     0
  3

 72
    65
 73
     0
 40
0.0
  0
LTYPE
  5
15
330
5
100
AcDbSymbolTableRecord
100
AcDbLinetypeTableRecord
  2
BYLAYER
 70
     0
  3

 72
    65
 73
     0
 40
0.0
  0
LTYPE
  5
16
330
5
100
AcDbSymbolTableRecord
100
AcDbLinetypeTableRecord
  2
CONTINUOUS
 70
     0
  3
Solid line
 72
    65
 73
     0
 40
0.0
  0
ENDTAB
  0
TABLE
  2
LAYER
  5
2
100
AcDbSymbolTable
 70
2
  0
LAYER
  5
50
100
AcDbSymbolTableRecord
100
AcDbLayerTableRecord
  2
0
 70
0
  6
CONTINUOUS
  0
LAYER
  5
51
100
AcDbSymbolTableRecord
100
AcDbLayerTableRecord
  2
Layer_1
 70
0
  6
CONTINUOUS
  0
ENDTAB
  0
TABLE
  2
STYLE
  5
3
330
0
100
AcDbSymbolTable
 70
     1
  0
STYLE
  5
11
330
3
100
AcDbSymbolTableRecord
100
AcDbTextStyleTableRecord
  2
STANDARD
 70
     0
 40
0.0
 41
1.0
 50
0.0
 71
     0
 42
2.5
  3
txt
  4

  0
ENDTAB
  0
TABLE
  2
VIEW
  5
6
330
0
100
AcDbSymbolTable
 70
     0
  0
ENDTAB
  0
TABLE
  2
UCS
  5
7
330
0
100
AcDbSymbolTable
 70
     0
  0
ENDTAB
  0
TABLE
  2
APPID
  5
9
330
0
100
AcDbSymbolTable
 70
     2
  0
APPID
  5
12
330
9
100
AcDbSymbolTableRecord
100
AcDbRegAppTableRecord
  2
ACAD
 70
     0
  0
ENDTAB
  0
TABLE
  2
DIMSTYLE
  5
A
330
0
100
AcDbSymbolTable
 70
     1
  0
DIMSTYLE
105
27
330
A
100
AcDbSymbolTableRecord
100
AcDbDimStyleTableRecord
  2
ISO-25
 70
     0
  3

  4

  5

  6

  7

 40
1.0
 41
2.5
 42
0.625
 43
3.75
 44
1.25
 45
0.0
 46
0.0
 47
0.0
 48
0.0
140
2.5
141
2.5
142
0.0
143
0.03937007874016
144
1.0
145
0.0
146
1.0
147
0.625
 71
     0
 72
     0
 73
     0
 74
     0
 75
     0
 76
     0
 77
     1
 78
     8
170
     0
171
     3
172
     1
173
     0
174
     0
175
     0
176
     0
177
     0
178
     0
270
     2
271
     2
272
     2
273
     2
274
     3
340
11
275
     0
280
     0
281
     0
282
     0
283
     0
284
     8
285
     0
286
     0
287
     3
288
     0
  0
ENDTAB
  0
TABLE
  2
BLOCK_RECORD
  5
1
330
0
100
AcDbSymbolTable
 70
     1
  0
BLOCK_RECORD
  5
1F
330
1
100
AcDbSymbolTableRecord
100
AcDbBlockTableRecord
  2
*MODEL_SPACE
  0
BLOCK_RECORD
  5
1B
330
1
100
AcDbSymbolTableRecord
100
AcDbBlockTableRecord
  2
*PAPER_SPACE
  0
ENDTAB
  0
ENDSEC
  0
SECTION
  2
BLOCKS
  0
BLOCK
  5
20
330
1F
100
AcDbEntity
  8
0
100
AcDbBlockBegin
  2
*MODEL_SPACE
 70
     0
 10
0.0
 20
0.0
 30
0.0
  3
*MODEL_SPACE
  1

  0
ENDBLK
  5
21
330
1F
100
AcDbEntity
  8
0
100
AcDbBlockEnd
  0
BLOCK
  5
1C
330
1B
100
AcDbEntity
 67
     1
  8
0
100
AcDbBlockBegin
  2
*PAPER_SPACE
  1

  0
ENDBLK
  5
1D
330
1B
100
AcDbEntity
 67
     1
  8
0
100
AcDbBlockEnd
  0
ENDSEC
  0
SECTION
  2
ENTITIES
  0
SPLINE
  5
100
100
AcDbEntity
  8
Layer_1
 62
1
100
AcDbSpline
 70
8
 71
3
 72
8
 73
4
 74
0
 40
0
 40
0
 40
0
 40
0
 40
1
 40
1
 40
1
 40
1
 10
54.520290
 20
623.965910
 30
0.0
 10
24.368805
 20
623.965910
 30
0.0
 10
0.094506
 20
616.210939
 30
0.0
 10
0.094506
 20
606.579190
 30
0.0
  0
SPLINE
  5
101
100
AcDbEntity
  8
Layer_1
 62
1
100
AcDbSpline
 70
8
 71
3
 72
8
 73
4
 74
0
 40
0
 40
0
 40
0
 40
0
 40
1
 40
1
 40
1
 40
1
 10
0.094506
 20
565.760829
 30
0.0
 10
0.094506
 20
556.129081
 30
0.0
 10
24.368805
 20
548.374109
 30
0.0
 10
54.520290
 20
548.374109
 30
0.0
  0
LWPOLYLINE
  5
102
100
AcDbEntity
  8
Layer_1
 62
1
100
AcDbPolyline
 90
2
 70
0
 10
0.094506
 20
606.579190
 30
0.0
 10
0.094506
 20
565.760829
 30
0.0
  0
SPLINE
  5
103
100
AcDbEntity
  8
Layer_1
 62
1
100
AcDbSpline
 70
8
 71
3
 72
8
 73
4
 74
0
 40
0
 40
0
 40
0
 40
0
 40
1
 40
1
 40
1
 40
1
 10
172.442174
 20
548.374109
 30
0.0
 10
202.593656
 20
548.374109
 30
0.0
 10
226.867957
 20
556.129081
 30
0.0
 10
226.867957
 20
565.760829
 30
0.0
  0
LWPOLYLINE
  5
104
100
AcDbEntity
  8
Layer_1
 62
1
100
AcDbPolyline
 90
3
 70
0
 10
54.520290
 20
548.374109
 30
0.0
 10
113.481231
 20
548.374109
 30
0.0
 10
172.442174
 20
548.374109
 30
0.0
  0
SPLINE
  5
105
100
AcDbEntity
  8
Layer_1
 62
1
100
AcDbSpline
 70
8
 71
3
 72
8
 73
4
 74
0
 40
0
 40
0
 40
0
 40
0
 40
1
 40
1
 40
1
 40
1
 10
226.867957
 20
606.579190
 30
0.0
 10
226.867957
 20
616.210939
 30
0.0
 10
202.593656
 20
623.965910
 30
0.0
 10
172.442174
 20
623.965910
 30
0.0
  0
LWPOLYLINE
  5
106
100
AcDbEntity
  8
Layer_1
 62
1
100
AcDbPolyline
 90
2
 70
0
 10
226.867957
 20
565.760829
 30
0.0
 10
226.867957
 20
606.579190
 30
0.0
  0
SPLINE
  5
107
100
AcDbEntity
  8
Layer_1
 62
1
100
AcDbSpline
 70
8
 71
3
 72
8
 73
4
 74
0
 40
0
 40
0
 40
0
 40
0
 40
1
 40
1
 40
1
 40
1
 10
34.365810
 20
584.915854
 30
0.0
 10
34.365810
 20
583.194768
 30
0.0
 10
33.447621
 20
581.604418
 30
0.0
 10
31.957117
 20
580.743875
 30
0.0
  0
SPLINE
  5
108
100
AcDbEntity
  8
Layer_1
 62
1
100
AcDbSpline
 70
8
 71
3
 72
8
 73
4
 74
0
 40
0
 40
0
 40
0
 40
0
 40
1
 40
1
 40
1
 40
1
 10
31.957117
 20
580.743875
 30
0.0
 10
30.466612
 20
579.883332
 30
0.0
 10
28.630235
 20
579.883332
 30
0.0
 10
27.139731
 20
580.743875
 30
0.0
  0
SPLINE
  5
109
100
AcDbEntity
  8
Layer_1
 62
1
100
AcDbSpline
 70
8
 71
3
 72
8
 73
4
 74
0
 40
0
 40
0
 40
0
 40
0
 40
1
 40
1
 40
1
 40
1
 10
27.139731
 20
580.743875
 30
0.0
 10
25.649226
 20
581.604418
 30
0.0
 10
24.731038
 20
583.194768
 30
0.0
 10
24.731038
 20
584.915854
 30
0.0
  0
SPLINE
  5
10a
100
AcDbEntity
  8
Layer_1
 62
1
100
AcDbSpline
 70
8
 71
3
 72
8
 73
4
 74
0
 40
0
 40
0
 40
0
 40
0
 40
1
 40
1
 40
1
 40
1
 10
24.731038
 20
584.915854
 30
0.0
 10
24.731038
 20
587.576422
 30
0.0
 10
26.887855
 20
589.733239
 30
0.0
 10
29.548424
 20
589.733239
 30
0.0
  0
SPLINE
  5
10b
100
AcDbEntity
  8
Layer_1
 62
1
100
AcDbSpline
 70
8
 71
3
 72
8
 73
4
 74
0
 40
0
 40
0
 40
0
 40
0
 40
1
 40
1
 40
1
 40
1
 10
29.548424
 20
589.733239
 30
0.0
 10
32.208992
 20
589.733239
 30
0.0
 10
34.365809
 20
587.576422
 30
0.0
 10
34.365810
 20
584.915854
 30
0.0
  0
LWPOLYLINE
  5
10c
100
AcDbEntity
  8
Layer_1
 62
1
100
AcDbPolyline
 90
3
 70
0
 10
172.442174
 20
623.965910
 30
0.0
 10
113.481231
 20
623.965910
 30
0.0
 10
54.520290
 20
623.965910
 30
0.0
  0
LWPOLYLINE
  5
10d
100
AcDbEntity
  8
Layer_1
 62
1
100
AcDbPolyline
 90
1
 70
1
 10
34.365810
 20
584.915854
 30
0.0
  0
SPLINE
  5
10e
100
AcDbEntity
  8
Layer_1
 62
1
100
AcDbSpline
 70
8
 71
3
 72
8
 73
4
 74
0
 40
0
 40
0
 40
0
 40
0
 40
1
 40
1
 40
1
 40
1
 10
192.596383
 20
584.915854
 30
0.0
 10
192.596383
 20
583.194768
 30
0.0
 10
193.514572
 20
581.604418
 30
0.0
 10
195.005076
 20
580.743875
 30
0.0
  0
SPLINE
  5
10f
100
AcDbEntity
  8
Layer_1
 62
1
100
AcDbSpline
 70
8
 71
3
 72
8
 73
4
 74
0
 40
0
 40
0
 40
0
 40
0
 40
1
 40
1
 40
1
 40
1
 10
195.005076
 20
580.743875
 30
0.0
 10
196.495581
 20
579.883332
 30
0.0
 10
198.331958
 20
579.883332
 30
0.0
 10
199.822462
 20
580.743875
 30
0.0
  0
SPLINE
  5
110
100
AcDbEntity
  8
Layer_1
 62
1
100
AcDbSpline
 70
8
 71
3
 72
8
 73
4
 74
0
 40
0
 40
0
 40
0
 40
0
 40
1
 40
1
 40
1
 40
1
 10
199.822462
 20
580.743875
 30
0.0
 10
201.312967
 20
581.604418
 30
0.0
 10
202.231156
 20
583.194768
 30
0.0
 10
202.231156
 20
584.915854
 30
0.0
  0
SPLINE
  5
111
100
AcDbEntity
  8
Layer_1
 62
1
100
AcDbSpline
 70
8
 71
3
 72
8
 73
4
 74
0
 40
0
 40
0
 40
0
 40
0
 40
1
 40
1
 40
1
 40
1
 10
202.231156
 20
584.915854
 30
0.0
 10
202.231156
 20
586.636940
 30
0.0
 10
201.312967
 20
588.227290
 30
0.0
 10
199.822462
 20
589.087833
 30
0.0
  0
SPLINE
  5
112
100
AcDbEntity
  8
Layer_1
 62
1
100
AcDbSpline
 70
8
 71
3
 72
8
 73
4
 74
0
 40
0
 40
0
 40
0
 40
0
 40
1
 40
1
 40
1
 40
1
 10
199.822462
 20
589.087833
 30
0.0
 10
198.331958
 20
589.948376
 30
0.0
 10
196.495581
 20
589.948376
 30
0.0
 10
195.005076
 20
589.087833
 30
0.0
  0
SPLINE
  5
113
100
AcDbEntity
  8
Layer_1
 62
1
100
AcDbSpline
 70
8
 71
3
 72
8
 73
4
 74
0
 40
0
 40
0
 40
0
 40
0
 40
1
 40
1
 40
1
 40
1
 10
195.005076
 20
589.087833
 30
0.0
 10
193.514572
 20
588.227290
 30
0.0
 10
192.596383
 20
586.636940
 30
0.0
 10
192.596383
 20
584.915854
 30
0.0
  0
LWPOLYLINE
  5
114
100
AcDbEntity
  8
Layer_1
 62
1
100
AcDbPolyline
 90
4
 70
1
 10
67.945440
 20
604.562754
 30
0.0
 10
69.646228
 20
604.562754
 30
0.0
 10
69.646228
 20
566.348463
 30
0.0
 10
67.945440
 20
566.348463
 30
0.0
  0
LWPOLYLINE
  5
115
100
AcDbEntity
  8
Layer_1
 62
1
100
AcDbPolyline
 90
1
 70
1
 10
192.596383
 20
584.915854
 30
0.0
  0
SPLINE
  5
116
100
AcDbEntity
  8
Layer_1
 62
1
100
AcDbSpline
 70
8
 71
3
 72
8
 73
4
 74
0
 40
0
 40
0
 40
0
 40
0
 40
1
 40
1
 40
1
 40
1
 10
54.520291
 20
545.435532
 30
0.0
 10
24.368807
 20
545.435532
 30
0.0
 10
0.094507
 20
537.680560
 30
0.0
 10
0.094507
 20
528.048812
 30
0.0
  0
LWPOLYLINE
  5
117
100
AcDbEntity
  8
Layer_1
 62
1
100
AcDbPolyline
 90
4
 70
1
 10
159.016866
 20
604.562754
 30
0.0
 10
157.316079
 20
604.562754
 30
0.0
 10
157.316079
 20
566.348463
 30
0.0
 10
159.016866
 20
566.348463
 30
0.0
  0
SPLINE
  5
118
100
AcDbEntity
  8
Layer_1
 62
1
100
AcDbSpline
 70
8
 71
3
 72
8
 73
4
 74
0
 40
0
 40
0
 40
0
 40
0
 40
1
 40
1
 40
1
 40
1
 10
0.094507
 20
487.230451
 30
0.0
 10
0.094507
 20
477.598702
 30
0.0
 10
24.368807
 20
469.843731
 30
0.0
 10
54.520291
 20
469.843731
 30
0.0
  0
LWPOLYLINE
  5
119
100
AcDbEntity
  8
Layer_1
 62
1
100
AcDbPolyline
 90
2
 70
0
 10
0.094507
 20
528.048812
 30
0.0
 10
0.094507
 20
487.230451
 30
0.0
  0
SPLINE
  5
11a
100
AcDbEntity
  8
Layer_1
 62
1
100
AcDbSpline
 70
8
 71
3
 72
8
 73
4
 74
0
 40
0
 40
0
 40
0
 40
0
 40
1
 40
1
 40
1
 40
1
 10
172.442176
 20
469.843731
 30
0.0
 10
202.593657
 20
469.843731
 30
0.0
 10
226.867958
 20
477.598702
 30
0.0
 10
226.867958
 20
487.230451
 30
0.0
  0
LWPOLYLINE
  5
11b
100
AcDbEntity
  8
Layer_1
 62
1
100
AcDbPolyline
 90
3
 70
0
 10
54.520291
 20
469.843731
 30
0.0
 10
113.481233
 20
469.843731
 30
0.0
 10
172.442176
 20
469.843731
 30
0.0
  0
SPLINE
  5
11c
100
AcDbEntity
  8
Layer_1
 62
1
100
AcDbSpline
 70
8
 71
3
 72
8
 73
4
 74
0
 40
0
 40
0
 40
0
 40
0
 40
1
 40
1
 40
1
 40
1
 10
226.867958
 20
528.048812
 30
0.0
 10
226.867958
 20
537.680560
 30
0.0
 10
202.593657
 20
545.435532
 30
0.0
 10
172.442176
 20
545.435532
 30
0.0
  0
LWPOLYLINE
  5
11d
100
AcDbEntity
  8
Layer_1
 62
1
100
AcDbPolyline
 90
2
 70
0
 10
226.867958
 20
487.230451
 30
0.0
 10
226.867958
 20
528.048812
 30
0.0
  0
SPLINE
  5
11e
100
AcDbEntity
  8
Layer_1
 62
1
100
AcDbSpline
 70
8
 71
3
 72
8
 73
4
 74
0
 40
0
 40
0
 40
0
 40
0
 40
1
 40
1
 40
1
 40
1
 10
34.365812
 20
506.385476
 30
0.0
 10
34.365812
 20
504.664389
 30
0.0
 10
33.447623
 20
503.074040
 30
0.0
 10
31.957118
 20
502.213497
 30
0.0
  0
SPLINE
  5
11f
100
AcDbEntity
  8
Layer_1
 62
1
100
AcDbSpline
 70
8
 71
3
 72
8
 73
4
 74
0
 40
0
 40
0
 40
0
 40
0
 40
1
 40
1
 40
1
 40
1
 10
31.957118
 20
502.213497
 30
0.0
 10
30.466614
 20
501.352954
 30
0.0
 10
28.630237
 20
501.352954
 30
0.0
 10
27.139732
 20
502.213497
 30
0.0
  0
SPLINE
  5
120
100
AcDbEntity
  8
Layer_1
 62
1
100
AcDbSpline
 70
8
 71
3
 72
8
 73
4
 74
0
 40
0
 40
0
 40
0
 40
0
 40
1
 40
1
 40
1
 40
1
 10
27.139732
 20
502.213497
 30
0.0
 10
25.649228
 20
503.074040
 30
0.0
 10
24.731039
 20
504.664389
 30
0.0
 10
24.731039
 20
506.385476
 30
0.0
  0
SPLINE
  5
121
100
AcDbEntity
  8
Layer_1
 62
1
100
AcDbSpline
 70
8
 71
3
 72
8
 73
4
 74
0
 40
0
 40
0
 40
0
 40
0
 40
1
 40
1
 40
1
 40
1
 10
24.731039
 20
506.385476
 30
0.0
 10
24.731040
 20
509.046044
 30
0.0
 10
26.887857
 20
511.202861
 30
0.0
 10
29.548425
 20
511.202861
 30
0.0
  0
SPLINE
  5
122
100
AcDbEntity
  8
Layer_1
 62
1
100
AcDbSpline
 70
8
 71
3
 72
8
 73
4
 74
0
 40
0
 40
0
 40
0
 40
0
 40
1
 40
1
 40
1
 40
1
 10
29.548425
 20
511.202861
 30
0.0
 10
32.208994
 20
511.202861
 30
0.0
 10
34.365811
 20
509.046044
 30
0.0
 10
34.365812
 20
506.385476
 30
0.0
  0
LWPOLYLINE
  5
123
100
AcDbEntity
  8
Layer_1
 62
1
100
AcDbPolyline
 90
3
 70
0
 10
172.442176
 20
545.435532
 30
0.0
 10
113.481233
 20
545.435532
 30
0.0
 10
54.520291
 20
545.435532
 30
0.0
  0
LWPOLYLINE
  5
124
100
AcDbEntity
  8
Layer_1
 62
1
100
AcDbPolyline
 90
1
 70
1
 10
34.365812
 20
506.385476
 30
0.0
  0
SPLINE
  5
125
100
AcDbEntity
  8
Layer_1
 62
1
100
AcDbSpline
 70
8
 71
3
 72
8
 73
4
 74
0
 40
0
 40
0
 40
0
 40
0
 40
1
 40
1
 40
1
 40
1
 10
192.596385
 20
506.385476
 30
0.0
 10
192.596385
 20
504.664389
 30
0.0
 10
193.514573
 20
503.074040
 30
0.0
 10
195.005078
 20
502.213497
 30
0.0
  0
SPLINE
  5
126
100
AcDbEntity
  8
Layer_1
 62
1
100
AcDbSpline
 70
8
 71
3
 72
8
 73
4
 74
0
 40
0
 40
0
 40
0
 40
0
 40
1
 40
1
 40
1
 40
1
 10
195.005078
 20
502.213497
 30
0.0
 10
196.495582
 20
501.352954
 30
0.0
 10
198.331960
 20
501.352954
 30
0.0
 10
199.822464
 20
502.213497
 30
0.0
  0
SPLINE
  5
127
100
AcDbEntity
  8
Layer_1
 62
1
100
AcDbSpline
 70
8
 71
3
 72
8
 73
4
 74
0
 40
0
 40
0
 40
0
 40
0
 40
1
 40
1
 40
1
 40
1
 10
199.822464
 20
502.213497
 30
0.0
 10
201.312969
 20
503.074040
 30
0.0
 10
202.231157
 20
504.664389
 30
0.0
 10
202.231157
 20
506.385476
 30
0.0
  0
SPLINE
  5
128
100
AcDbEntity
  8
Layer_1
 62
1
100
AcDbSpline
 70
8
 71
3
 72
8
 73
4
 74
0
 40
0
 40
0
 40
0
 40
0
 40
1
 40
1
 40
1
 40
1
 10
202.231157
 20
506.385476
 30
0.0
 10
202.231157
 20
508.106562
 30
0.0
 10
201.312969
 20
509.696911
 30
0.0
 10
199.822464
 20
510.557454
 30
0.0
  0
SPLINE
  5
129
100
AcDbEntity
  8
Layer_1
 62
1
100
AcDbSpline
 70
8
 71
3
 72
8
 73
4
 74
0
 40
0
 40
0
 40
0
 40
0
 40
1
 40
1
 40
1
 40
1
 10
199.822464
 20
510.557454
 30
0.0
 10
198.331960
 20
511.417998
 30
0.0
 10
196.495582
 20
511.417998
 30
0.0
 10
195.005078
 20
510.557454
 30
0.0
  0
SPLINE
  5
12a
100
AcDbEntity
  8
Layer_1
 62
1
100
AcDbSpline
 70
8
 71
3
 72
8
 73
4
 74
0
 40
0
 40
0
 40
0
 40
0
 40
1
 40
1
 40
1
 40
1
 10
195.005078
 20
510.557454
 30
0.0
 10
193.514573
 20
509.696911
 30
0.0
 10
192.596385
 20
508.106562
 30
0.0
 10
192.596385
 20
506.385476
 30
0.0
  0
LWPOLYLINE
  5
12b
100
AcDbEntity
  8
Layer_1
 62
1
100
AcDbPolyline
 90
4
 70
1
 10
67.945442
 20
526.032376
 30
0.0
 10
69.646229
 20
526.032376
 30
0.0
 10
69.646229
 20
487.818084
 30
0.0
 10
67.945442
 20
487.818084
 30
0.0
  0
LWPOLYLINE
  5
12c
100
AcDbEntity
  8
Layer_1
 62
1
100
AcDbPolyline
 90
1
 70
1
 10
192.596385
 20
506.385476
 30
0.0
  0
SPLINE
  5
12d
100
AcDbEntity
  8
Layer_1
 62
1
100
AcDbSpline
 70
8
 71
3
 72
8
 73
4
 74
0
 40
0
 40
0
 40
0
 40
0
 40
1
 40
1
 40
1
 40
1
 10
54.520291
 20
467.716807
 30
0.0
 10
24.368807
 20
467.716807
 30
0.0
 10
0.094507
 20
459.961836
 30
0.0
 10
0.094507
 20
450.330087
 30
0.0
  0
LWPOLYLINE
  5
12e
100
AcDbEntity
  8
Layer_1
 62
1
100
AcDbPolyline
 90
4
 70
1
 10
159.016868
 20
526.032376
 30
0.0
 10
157.316080
 20
526.032376
 30
0.0
 10
157.316080
 20
487.818084
 30
0.0
 10
159.016868
 20
487.818084
 30
0.0
  0
SPLINE
  5
12f
100
AcDbEntity
  8
Layer_1
 62
1
100
AcDbSpline
 70
8
 71
3
 72
8
 73
4
 74
0
 40
0
 40
0
 40
0
 40
0
 40
1
 40
1
 40
1
 40
1
 10
0.094507
 20
409.511726
 30
0.0
 10
0.094507
 20
399.879978
 30
0.0
 10
24.368807
 20
392.125006
 30
0.0
 10
54.520291
 20
392.125006
 30
0.0
  0
LWPOLYLINE
  5
130
100
AcDbEntity
  8
Layer_1
 62
1
100
AcDbPolyline
 90
2
 70
0
 10
0.094507
 20
450.330087
 30
0.0
 10
0.094507
 20
409.511726
 30
0.0
  0
SPLINE
  5
131
100
AcDbEntity
  8
Layer_1
 62
1
100
AcDbSpline
 70
8
 71
3
 72
8
 73
4
 74
0
 40
0
 40
0
 40
0
 40
0
 40
1
 40
1
 40
1
 40
1
 10
172.442176
 20
392.125006
 30
0.0
 10
202.593657
 20
392.125006
 30
0.0
 10
226.867958
 20
399.879978
 30
0.0
 10
226.867958
 20
409.511726
 30
0.0
  0
LWPOLYLINE
  5
132
100
AcDbEntity
  8
Layer_1
 62
1
100
AcDbPolyline
 90
3
 70
0
 10
54.520291
 20
392.125006
 30
0.0
 10
113.481233
 20
392.125006
 30
0.0
 10
172.442176
 20
392.125006
 30
0.0
  0
SPLINE
  5
133
100
AcDbEntity
  8
Layer_1
 62
1
100
AcDbSpline
 70
8
 71
3
 72
8
 73
4
 74
0
 40
0
 40
0
 40
0
 40
0
 40
1
 40
1
 40
1
 40
1
 10
226.867958
 20
450.330087
 30
0.0
 10
226.867958
 20
459.961836
 30
0.0
 10
202.593657
 20
467.716807
 30
0.0
 10
172.442176
 20
467.716807
 30
0.0
  0
LWPOLYLINE
  5
134
100
AcDbEntity
  8
Layer_1
 62
1
100
AcDbPolyline
 90
2
 70
0
 10
226.867958
 20
409.511726
 30
0.0
 10
226.867958
 20
450.330087
 30
0.0
  0
SPLINE
  5
135
100
AcDbEntity
  8
Layer_1
 62
1
100
AcDbSpline
 70
8
 71
3
 72
8
 73
4
 74
0
 40
0
 40
0
 40
0
 40
0
 40
1
 40
1
 40
1
 40
1
 10
34.365812
 20
428.666751
 30
0.0
 10
34.365812
 20
426.945665
 30
0.0
 10
33.447623
 20
425.355315
 30
0.0
 10
31.957118
 20
424.494772
 30
0.0
  0
SPLINE
  5
136
100
AcDbEntity
  8
Layer_1
 62
1
100
AcDbSpline
 70
8
 71
3
 72
8
 73
4
 74
0
 40
0
 40
0
 40
0
 40
0
 40
1
 40
1
 40
1
 40
1
 10
31.957118
 20
424.494772
 30
0.0
 10
30.466614
 20
423.634229
 30
0.0
 10
28.630237
 20
423.634229
 30
0.0
 10
27.139732
 20
424.494772
 30
0.0
  0
SPLINE
  5
137
100
AcDbEntity
  8
Layer_1
 62
1
100
AcDbSpline
 70
8
 71
3
 72
8
 73
4
 74
0
 40
0
 40
0
 40
0
 40
0
 40
1
 40
1
 40
1
 40
1
 10
27.139732
 20
424.494772
 30
0.0
 10
25.649228
 20
425.355315
 30
0.0
 10
24.731039
 20
426.945665
 30
0.0
 10
24.731039
 20
428.666751
 30
0.0
  0
SPLINE
  5
138
100
AcDbEntity
  8
Layer_1
 62
1
100
AcDbSpline
 70
8
 71
3
 72
8
 73
4
 74
0
 40
0
 40
0
 40
0
 40
0
 40
1
 40
1
 40
1
 40
1
 10
24.731039
 20
428.666751
 30
0.0
 10
24.731040
 20
431.327319
 30
0.0
 10
26.887857
 20
433.484136
 30
0.0
 10
29.548425
 20
433.484136
 30
0.0
  0
SPLINE
  5
139
100
AcDbEntity
  8
Layer_1
 62
1
100
AcDbSpline
 70
8
 71
3
 72
8
 73
4
 74
0
 40
0
 40
0
 40
0
 40
0
 40
1
 40
1
 40
1
 40
1
 10
29.548425
 20
433.484136
 30
0.0
 10
32.208994
 20
433.484136
 30
0.0
 10
34.365811
 20
431.327319
 30
0.0
 10
34.365812
 20
428.666751
 30
0.0
  0
LWPOLYLINE
  5
13a
100
AcDbEntity
  8
Layer_1
 62
1
100
AcDbPolyline
 90
3
 70
0
 10
172.442176
 20
467.716807
 30
0.0
 10
113.481233
 20
467.716807
 30
0.0
 10
54.520291
 20
467.716807
 30
0.0
  0
LWPOLYLINE
  5
13b
100
AcDbEntity
  8
Layer_1
 62
1
100
AcDbPolyline
 90
1
 70
1
 10
34.365812
 20
428.666751
 30
0.0
  0
SPLINE
  5
13c
100
AcDbEntity
  8
Layer_1
 62
1
100
AcDbSpline
 70
8
 71
3
 72
8
 73
4
 74
0
 40
0
 40
0
 40
0
 40
0
 40
1
 40
1
 40
1
 40
1
 10
192.596385
 20
428.666751
 30
0.0
 10
192.596385
 20
426.945665
 30
0.0
 10
193.514573
 20
425.355315
 30
0.0
 10
195.005078
 20
424.494772
 30
0.0
  0
SPLINE
  5
13d
100
AcDbEntity
  8
Layer_1
 62
1
100
AcDbSpline
 70
8
 71
3
 72
8
 73
4
 74
0
 40
0
 40
0
 40
0
 40
0
 40
1
 40
1
 40
1
 40
1
 10
195.005078
 20
424.494772
 30
0.0
 10
196.495582
 20
423.634229
 30
0.0
 10
198.331960
 20
423.634229
 30
0.0
 10
199.822464
 20
424.494772
 30
0.0
  0
SPLINE
  5
13e
100
AcDbEntity
  8
Layer_1
 62
1
100
AcDbSpline
 70
8
 71
3
 72
8
 73
4
 74
0
 40
0
 40
0
 40
0
 40
0
 40
1
 40
1
 40
1
 40
1
 10
199.822464
 20
424.494772
 30
0.0
 10
201.312969
 20
425.355315
 30
0.0
 10
202.231157
 20
426.945665
 30
0.0
 10
202.231157
 20
428.666751
 30
0.0
  0
SPLINE
  5
13f
100
AcDbEntity
  8
Layer_1
 62
1
100
AcDbSpline
 70
8
 71
3
 72
8
 73
4
 74
0
 40
0
 40
0
 40
0
 40
0
 40
1
 40
1
 40
1
 40
1
 10
202.231157
 20
428.666751
 30
0.0
 10
202.231157
 20
430.387837
 30
0.0
 10
201.312969
 20
431.978187
 30
0.0
 10
199.822464
 20
432.838730
 30
0.0
  0
SPLINE
  5
140
100
AcDbEntity
  8
Layer_1
 62
1
100
AcDbSpline
 70
8
 71
3
 72
8
 73
4
 74
0
 40
0
 40
0
 40
0
 40
0
 40
1
 40
1
 40
1
 40
1
 10
199.822464
 20
432.838730
 30
0.0
 10
198.331960
 20
433.699273
 30
0.0
 10
196.495582
 20
433.699273
 30
0.0
 10
195.005078
 20
432.838730
 30
0.0
  0
SPLINE
  5
141
100
AcDbEntity
  8
Layer_1
 62
1
100
AcDbSpline
 70
8
 71
3
 72
8
 73
4
 74
0
 40
0
 40
0
 40
0
 40
0
 40
1
 40
1
 40
1
 40
1
 10
195.005078
 20
432.838730
 30
0.0
 10
193.514573
 20
431.978187
 30
0.0
 10
192.596385
 20
430.387837
 30
0.0
 10
192.596385
 20
428.666751
 30
0.0
  0
LWPOLYLINE
  5
142
100
AcDbEntity
  8
Layer_1
 62
1
100
AcDbPolyline
 90
4
 70
1
 10
67.945442
 20
448.313651
 30
0.0
 10
69.646229
 20
448.313651
 30
0.0
 10
69.646229
 20
410.099360
 30
0.0
 10
67.945442
 20
410.099360
 30
0.0
  0
LWPOLYLINE
  5
143
100
AcDbEntity
  8
Layer_1
 62
1
100
AcDbPolyline
 90
1
 70
1
 10
192.596385
 20
428.666751
 30
0.0
  0
SPLINE
  5
144
100
AcDbEntity
  8
Layer_1
 62
1
100
AcDbSpline
 70
8
 71
3
 72
8
 73
4
 74
0
 40
0
 40
0
 40
0
 40
0
 40
1
 40
1
 40
1
 40
1
 10
54.520291
 20
389.186432
 30
0.0
 10
24.368807
 20
389.186432
 30
0.0
 10
0.094507
 20
381.431461
 30
0.0
 10
0.094507
 20
371.799712
 30
0.0
  0
LWPOLYLINE
  5
145
100
AcDbEntity
  8
Layer_1
 62
1
100
AcDbPolyline
 90
4
 70
1
 10
159.016868
 20
448.313651
 30
0.0
 10
157.316080
 20
448.313651
 30
0.0
 10
157.316080
 20
410.099360
 30
0.0
 10
159.016868
 20
410.099360
 30
0.0
  0
SPLINE
  5
146
100
AcDbEntity
  8
Layer_1
 62
1
100
AcDbSpline
 70
8
 71
3
 72
8
 73
4
 74
0
 40
0
 40
0
 40
0
 40
0
 40
1
 40
1
 40
1
 40
1
 10
0.094507
 20
330.981352
 30
0.0
 10
0.094507
 20
321.349603
 30
0.0
 10
24.368807
 20
313.594632
 30
0.0
 10
54.520291
 20
313.594632
 30
0.0
  0
LWPOLYLINE
  5
147
100
AcDbEntity
  8
Layer_1
 62
1
100
AcDbPolyline
 90
2
 70
0
 10
0.094507
 20
371.799712
 30
0.0
 10
0.094507
 20
330.981352
 30
0.0
  0
SPLINE
  5
148
100
AcDbEntity
  8
Layer_1
 62
1
100
AcDbSpline
 70
8
 71
3
 72
8
 73
4
 74
0
 40
0
 40
0
 40
0
 40
0
 40
1
 40
1
 40
1
 40
1
 10
172.442176
 20
313.594632
 30
0.0
 10
202.593657
 20
313.594632
 30
0.0
 10
226.867958
 20
321.349603
 30
0.0
 10
226.867958
 20
330.981352
 30
0.0
  0
LWPOLYLINE
  5
149
100
AcDbEntity
  8
Layer_1
 62
1
100
AcDbPolyline
 90
3
 70
0
 10
54.520291
 20
313.594632
 30
0.0
 10
113.481233
 20
313.594632
 30
0.0
 10
172.442176
 20
313.594632
 30
0.0
  0
SPLINE
  5
14a
100
AcDbEntity
  8
Layer_1
 62
1
100
AcDbSpline
 70
8
 71
3
 72
8
 73
4
 74
0
 40
0
 40
0
 40
0
 40
0
 40
1
 40
1
 40
1
 40
1
 10
226.867958
 20
371.799712
 30
0.0
 10
226.867958
 20
381.431461
 30
0.0
 10
202.593657
 20
389.186432
 30
0.0
 10
172.442176
 20
389.186432
 30
0.0
  0
LWPOLYLINE
  5
14b
100
AcDbEntity
  8
Layer_1
 62
1
100
AcDbPolyline
 90
2
 70
0
 10
226.867958
 20
330.981352
 30
0.0
 10
226.867958
 20
371.799712
 30
0.0
  0
SPLINE
  5
14c
100
AcDbEntity
  8
Layer_1
 62
1
100
AcDbSpline
 70
8
 71
3
 72
8
 73
4
 74
0
 40
0
 40
0
 40
0
 40
0
 40
1
 40
1
 40
1
 40
1
 10
34.365812
 20
350.136376
 30
0.0
 10
34.365812
 20
348.415290
 30
0.0
 10
33.447623
 20
346.824941
 30
0.0
 10
31.957118
 20
345.964398
 30
0.0
  0
SPLINE
  5
14d
100
AcDbEntity
  8
Layer_1
 62
1
100
AcDbSpline
 70
8
 71
3
 72
8
 73
4
 74
0
 40
0
 40
0
 40
0
 40
0
 40
1
 40
1
 40
1
 40
1
 10
31.957118
 20
345.964398
 30
0.0
 10
30.466614
 20
345.103855
 30
0.0
 10
28.630237
 20
345.103855
 30
0.0
 10
27.139732
 20
345.964398
 30
0.0
  0
SPLINE
  5
14e
100
AcDbEntity
  8
Layer_1
 62
1
100
AcDbSpline
 70
8
 71
3
 72
8
 73
4
 74
0
 40
0
 40
0
 40
0
 40
0
 40
1
 40
1
 40
1
 40
1
 10
27.139732
 20
345.964398
 30
0.0
 10
25.649228
 20
346.824941
 30
0.0
 10
24.731039
 20
348.415290
 30
0.0
 10
24.731039
 20
350.136376
 30
0.0
  0
SPLINE
  5
14f
100
AcDbEntity
  8
Layer_1
 62
1
100
AcDbSpline
 70
8
 71
3
 72
8
 73
4
 74
0
 40
0
 40
0
 40
0
 40
0
 40
1
 40
1
 40
1
 40
1
 10
24.731039
 20
350.136376
 30
0.0
 10
24.731040
 20
352.796945
 30
0.0
 10
26.887857
 20
354.953761
 30
0.0
 10
29.548425
 20
354.953761
 30
0.0
  0
SPLINE
  5
150
100
AcDbEntity
  8
Layer_1
 62
1
100
AcDbSpline
 70
8
 71
3
 72
8
 73
4
 74
0
 40
0
 40
0
 40
0
 40
0
 40
1
 40
1
 40
1
 40
1
 10
29.548425
 20
354.953761
 30
0.0
 10
32.208994
 20
354.953761
 30
0.0
 10
34.365811
 20
352.796945
 30
0.0
 10
34.365812
 20
350.136376
 30
0.0
  0
LWPOLYLINE
  5
151
100
AcDbEntity
  8
Layer_1
 62
1
100
AcDbPolyline
 90
3
 70
0
 10
172.442176
 20
389.186432
 30
0.0
 10
113.481233
 20
389.186432
 30
0.0
 10
54.520291
 20
389.186432
 30
0.0
  0
LWPOLYLINE
  5
152
100
AcDbEntity
  8
Layer_1
 62
1
100
AcDbPolyline
 90
1
 70
1
 10
34.365812
 20
350.136376
 30
0.0
  0
SPLINE
  5
153
100
AcDbEntity
  8
Layer_1
 62
1
100
AcDbSpline
 70
8
 71
3
 72
8
 73
4
 74
0
 40
0
 40
0
 40
0
 40
0
 40
1
 40
1
 40
1
 40
1
 10
192.596385
 20
350.136376
 30
0.0
 10
192.596385
 20
348.415290
 30
0.0
 10
193.514573
 20
346.824941
 30
0.0
 10
195.005078
 20
345.964398
 30
0.0
  0
SPLINE
  5
154
100
AcDbEntity
  8
Layer_1
 62
1
100
AcDbSpline
 70
8
 71
3
 72
8
 73
4
 74
0
 40
0
 40
0
 40
0
 40
0
 40
1
 40
1
 40
1
 40
1
 10
195.005078
 20
345.964398
 30
0.0
 10
196.495582
 20
345.103855
 30
0.0
 10
198.331960
 20
345.103855
 30
0.0
 10
199.822464
 20
345.964398
 30
0.0
  0
SPLINE
  5
155
100
AcDbEntity
  8
Layer_1
 62
1
100
AcDbSpline
 70
8
 71
3
 72
8
 73
4
 74
0
 40
0
 40
0
 40
0
 40
0
 40
1
 40
1
 40
1
 40
1
 10
199.822464
 20
345.964398
 30
0.0
 10
201.312969
 20
346.824941
 30
0.0
 10
202.231157
 20
348.415290
 30
0.0
 10
202.231157
 20
350.136376
 30
0.0
  0
SPLINE
  5
156
100
AcDbEntity
  8
Layer_1
 62
1
100
AcDbSpline
 70
8
 71
3
 72
8
 73
4
 74
0
 40
0
 40
0
 40
0
 40
0
 40
1
 40
1
 40
1
 40
1
 10
202.231157
 20
350.136376
 30
0.0
 10
202.231157
 20
351.857463
 30
0.0
 10
201.312969
 20
353.447812
 30
0.0
 10
199.822464
 20
354.308355
 30
0.0
  0
SPLINE
  5
157
100
AcDbEntity
  8
Layer_1
 62
1
100
AcDbSpline
 70
8
 71
3
 72
8
 73
4
 74
0
 40
0
 40
0
 40
0
 40
0
 40
1
 40
1
 40
1
 40
1
 10
199.822464
 20
354.308355
 30
0.0
 10
198.331960
 20
355.168898
 30
0.0
 10
196.495582
 20
355.168898
 30
0.0
 10
195.005078
 20
354.308355
 30
0.0
  0
SPLINE
  5
158
100
AcDbEntity
  8
Layer_1
 62
1
100
AcDbSpline
 70
8
 71
3
 72
8
 73
4
 74
0
 40
0
 40
0
 40
0
 40
0
 40
1
 40
1
 40
1
 40
1
 10
195.005078
 20
354.308355
 30
0.0
 10
193.514573
 20
353.447812
 30
0.0
 10
192.596385
 20
351.857463
 30
0.0
 10
192.596385
 20
350.136376
 30
0.0
  0
LWPOLYLINE
  5
159
100
AcDbEntity
  8
Layer_1
 62
1
100
AcDbPolyline
 90
4
 70
1
 10
67.945442
 20
369.783277
 30
0.0
 10
69.646229
 20
369.783277
 30
0.0
 10
69.646229
 20
331.568985
 30
0.0
 10
67.945442
 20
331.568985
 30
0.0
  0
LWPOLYLINE
  5
15a
100
AcDbEntity
  8
Layer_1
 62
1
100
AcDbPolyline
 90
1
 70
1
 10
192.596385
 20
350.136376
 30
0.0
  0
SPLINE
  5
15b
100
AcDbEntity
  8
Layer_1
 62
1
100
AcDbSpline
 70
8
 71
3
 72
8
 73
4
 74
0
 40
0
 40
0
 40
0
 40
0
 40
1
 40
1
 40
1
 40
1
 10
54.520291
 20
310.465743
 30
0.0
 10
24.368807
 20
310.465743
 30
0.0
 10
0.094507
 20
302.710772
 30
0.0
 10
0.094507
 20
293.079024
 30
0.0
  0
LWPOLYLINE
  5
15c
100
AcDbEntity
  8
Layer_1
 62
1
100
AcDbPolyline
 90
4
 70
1
 10
159.016868
 20
369.783277
 30
0.0
 10
157.316080
 20
369.783277
 30
0.0
 10
157.316080
 20
331.568985
 30
0.0
 10
159.016868
 20
331.568985
 30
0.0
  0
SPLINE
  5
15d
100
AcDbEntity
  8
Layer_1
 62
1
100
AcDbSpline
 70
8
 71
3
 72
8
 73
4
 74
0
 40
0
 40
0
 40
0
 40
0
 40
1
 40
1
 40
1
 40
1
 10
0.094507
 20
252.260663
 30
0.0
 10
0.094507
 20
242.628914
 30
0.0
 10
24.368807
 20
234.873943
 30
0.0
 10
54.520291
 20
234.873943
 30
0.0
  0
LWPOLYLINE
  5
15e
100
AcDbEntity
  8
Layer_1
 62
1
100
AcDbPolyline
 90
2
 70
0
 10
0.094507
 20
293.079024
 30
0.0
 10
0.094507
 20
252.260663
 30
0.0
  0
SPLINE
  5
15f
100
AcDbEntity
  8
Layer_1
 62
1
100
AcDbSpline
 70
8
 71
3
 72
8
 73
4
 74
0
 40
0
 40
0
 40
0
 40
0
 40
1
 40
1
 40
1
 40
1
 10
172.442176
 20
234.873943
 30
0.0
 10
202.593657
 20
234.873943
 30
0.0
 10
226.867958
 20
242.628914
 30
0.0
 10
226.867958
 20
252.260663
 30
0.0
  0
LWPOLYLINE
  5
160
100
AcDbEntity
  8
Layer_1
 62
1
100
AcDbPolyline
 90
3
 70
0
 10
54.520291
 20
234.873943
 30
0.0
 10
113.481233
 20
234.873943
 30
0.0
 10
172.442176
 20
234.873943
 30
0.0
  0
SPLINE
  5
161
100
AcDbEntity
  8
Layer_1
 62
1
100
AcDbSpline
 70
8
 71
3
 72
8
 73
4
 74
0
 40
0
 40
0
 40
0
 40
0
 40
1
 40
1
 40
1
 40
1
 10
226.867958
 20
293.079024
 30
0.0
 10
226.867958
 20
302.710772
 30
0.0
 10
202.593657
 20
310.465743
 30
0.0
 10
172.442176
 20
310.465743
 30
0.0
  0
LWPOLYLINE
  5
162
100
AcDbEntity
  8
Layer_1
 62
1
100
AcDbPolyline
 90
2
 70
0
 10
226.867958
 20
252.260663
 30
0.0
 10
226.867958
 20
293.079024
 30
0.0
  0
SPLINE
  5
163
100
AcDbEntity
  8
Layer_1
 62
1
100
AcDbSpline
 70
8
 71
3
 72
8
 73
4
 74
0
 40
0
 40
0
 40
0
 40
0
 40
1
 40
1
 40
1
 40
1
 10
34.365812
 20
271.415688
 30
0.0
 10
34.365812
 20
269.694601
 30
0.0
 10
33.447623
 20
268.104252
 30
0.0
 10
31.957118
 20
267.243709
 30
0.0
  0
SPLINE
  5
164
100
AcDbEntity
  8
Layer_1
 62
1
100
AcDbSpline
 70
8
 71
3
 72
8
 73
4
 74
0
 40
0
 40
0
 40
0
 40
0
 40
1
 40
1
 40
1
 40
1
 10
31.957118
 20
267.243709
 30
0.0
 10
30.466614
 20
266.383166
 30
0.0
 10
28.630237
 20
266.383166
 30
0.0
 10
27.139732
 20
267.243709
 30
0.0
  0
SPLINE
  5
165
100
AcDbEntity
  8
Layer_1
 62
1
100
AcDbSpline
 70
8
 71
3
 72
8
 73
4
 74
0
 40
0
 40
0
 40
0
 40
0
 40
1
 40
1
 40
1
 40
1
 10
27.139732
 20
267.243709
 30
0.0
 10
25.649228
 20
268.104252
 30
0.0
 10
24.731039
 20
269.694601
 30
0.0
 10
24.731039
 20
271.415688
 30
0.0
  0
SPLINE
  5
166
100
AcDbEntity
  8
Layer_1
 62
1
100
AcDbSpline
 70
8
 71
3
 72
8
 73
4
 74
0
 40
0
 40
0
 40
0
 40
0
 40
1
 40
1
 40
1
 40
1
 10
24.731039
 20
271.415688
 30
0.0
 10
24.731040
 20
274.076256
 30
0.0
 10
26.887857
 20
276.233073
 30
0.0
 10
29.548425
 20
276.233073
 30
0.0
  0
SPLINE
  5
167
100
AcDbEntity
  8
Layer_1
 62
1
100
AcDbSpline
 70
8
 71
3
 72
8
 73
4
 74
0
 40
0
 40
0
 40
0
 40
0
 40
1
 40
1
 40
1
 40
1
 10
29.548425
 20
276.233073
 30
0.0
 10
32.208994
 20
276.233073
 30
0.0
 10
34.365811
 20
274.076256
 30
0.0
 10
34.365812
 20
271.415688
 30
0.0
  0
LWPOLYLINE
  5
168
100
AcDbEntity
  8
Layer_1
 62
1
100
AcDbPolyline
 90
3
 70
0
 10
172.442176
 20
310.465743
 30
0.0
 10
113.481233
 20
310.465743
 30
0.0
 10
54.520291
 20
310.465743
 30
0.0
  0
LWPOLYLINE
  5
169
100
AcDbEntity
  8
Layer_1
 62
1
100
AcDbPolyline
 90
1
 70
1
 10
34.365812
 20
271.415688
 30
0.0
  0
SPLINE
  5
16a
100
AcDbEntity
  8
Layer_1
 62
1
100
AcDbSpline
 70
8
 71
3
 72
8
 73
4
 74
0
 40
0
 40
0
 40
0
 40
0
 40
1
 40
1
 40
1
 40
1
 10
192.596385
 20
271.415688
 30
0.0
 10
192.596385
 20
269.694601
 30
0.0
 10
193.514573
 20
268.104252
 30
0.0
 10
195.005078
 20
267.243709
 30
0.0
  0
SPLINE
  5
16b
100
AcDbEntity
  8
Layer_1
 62
1
100
AcDbSpline
 70
8
 71
3
 72
8
 73
4
 74
0
 40
0
 40
0
 40
0
 40
0
 40
1
 40
1
 40
1
 40
1
 10
195.005078
 20
267.243709
 30
0.0
 10
196.495582
 20
266.383166
 30
0.0
 10
198.331960
 20
266.383166
 30
0.0
 10
199.822464
 20
267.243709
 30
0.0
  0
SPLINE
  5
16c
100
AcDbEntity
  8
Layer_1
 62
1
100
AcDbSpline
 70
8
 71
3
 72
8
 73
4
 74
0
 40
0
 40
0
 40
0
 40
0
 40
1
 40
1
 40
1
 40
1
 10
199.822464
 20
267.243709
 30
0.0
 10
201.312969
 20
268.104252
 30
0.0
 10
202.231157
 20
269.694601
 30
0.0
 10
202.231157
 20
271.415688
 30
0.0
  0
SPLINE
  5
16d
100
AcDbEntity
  8
Layer_1
 62
1
100
AcDbSpline
 70
8
 71
3
 72
8
 73
4
 74
0
 40
0
 40
0
 40
0
 40
0
 40
1
 40
1
 40
1
 40
1
 10
202.231157
 20
271.415688
 30
0.0
 10
202.231157
 20
273.136774
 30
0.0
 10
201.312969
 20
274.727123
 30
0.0
 10
199.822464
 20
275.587666
 30
0.0
  0
SPLINE
  5
16e
100
AcDbEntity
  8
Layer_1
 62
1
100
AcDbSpline
 70
8
 71
3
 72
8
 73
4
 74
0
 40
0
 40
0
 40
0
 40
0
 40
1
 40
1
 40
1
 40
1
 10
199.822464
 20
275.587666
 30
0.0
 10
198.331960
 20
276.448210
 30
0.0
 10
196.495582
 20
276.448210
 30
0.0
 10
195.005078
 20
275.587666
 30
0.0
  0
SPLINE
  5
16f
100
AcDbEntity
  8
Layer_1
 62
1
100
AcDbSpline
 70
8
 71
3
 72
8
 73
4
 74
0
 40
0
 40
0
 40
0
 40
0
 40
1
 40
1
 40
1
 40
1
 10
195.005078
 20
275.587666
 30
0.0
 10
193.514573
 20
274.727123
 30
0.0
 10
192.596385
 20
273.136774
 30
0.0
 10
192.596385
 20
271.415688
 30
0.0
  0
LWPOLYLINE
  5
170
100
AcDbEntity
  8
Layer_1
 62
1
100
AcDbPolyline
 90
4
 70
1
 10
67.945442
 20
291.062588
 30
0.0
 10
69.646229
 20
291.062588
 30
0.0
 10
69.646229
 20
252.848296
 30
0.0
 10
67.945442
 20
252.848296
 30
0.0
  0
LWPOLYLINE
  5
171
100
AcDbEntity
  8
Layer_1
 62
1
100
AcDbPolyline
 90
1
 70
1
 10
192.596385
 20
271.415688
 30
0.0
  0
SPLINE
  5
172
100
AcDbEntity
  8
Layer_1
 62
1
100
AcDbSpline
 70
8
 71
3
 72
8
 73
4
 74
0
 40
0
 40
0
 40
0
 40
0
 40
1
 40
1
 40
1
 40
1
 10
54.520291
 20
231.935411
 30
0.0
 10
24.368807
 20
231.935411
 30
0.0
 10
0.094507
 20
224.180439
 30
0.0
 10
0.094507
 20
214.548691
 30
0.0
  0
LWPOLYLINE
  5
173
100
AcDbEntity
  8
Layer_1
 62
1
100
AcDbPolyline
 90
4
 70
1
 10
159.016868
 20
291.062588
 30
0.0
 10
157.316080
 20
291.062588
 30
0.0
 10
157.316080
 20
252.848296
 30
0.0
 10
159.016868
 20
252.848296
 30
0.0
  0
SPLINE
  5
174
100
AcDbEntity
  8
Layer_1
 62
1
100
AcDbSpline
 70
8
 71
3
 72
8
 73
4
 74
0
 40
0
 40
0
 40
0
 40
0
 40
1
 40
1
 40
1
 40
1
 10
0.094507
 20
173.730330
 30
0.0
 10
0.094507
 20
164.098581
 30
0.0
 10
24.368807
 20
156.343610
 30
0.0
 10
54.520291
 20
156.343610
 30
0.0
  0
LWPOLYLINE
  5
175
100
AcDbEntity
  8
Layer_1
 62
1
100
AcDbPolyline
 90
2
 70
0
 10
0.094507
 20
214.548691
 30
0.0
 10
0.094507
 20
173.730330
 30
0.0
  0
SPLINE
  5
176
100
AcDbEntity
  8
Layer_1
 62
1
100
AcDbSpline
 70
8
 71
3
 72
8
 73
4
 74
0
 40
0
 40
0
 40
0
 40
0
 40
1
 40
1
 40
1
 40
1
 10
172.442176
 20
156.343610
 30
0.0
 10
202.593657
 20
156.343610
 30
0.0
 10
226.867958
 20
164.098581
 30
0.0
 10
226.867958
 20
173.730330
 30
0.0
  0
LWPOLYLINE
  5
177
100
AcDbEntity
  8
Layer_1
 62
1
100
AcDbPolyline
 90
3
 70
0
 10
54.520291
 20
156.343610
 30
0.0
 10
113.481233
 20
156.343610
 30
0.0
 10
172.442176
 20
156.343610
 30
0.0
  0
SPLINE
  5
178
100
AcDbEntity
  8
Layer_1
 62
1
100
AcDbSpline
 70
8
 71
3
 72
8
 73
4
 74
0
 40
0
 40
0
 40
0
 40
0
 40
1
 40
1
 40
1
 40
1
 10
226.867958
 20
214.548691
 30
0.0
 10
226.867958
 20
224.180439
 30
0.0
 10
202.593657
 20
231.935411
 30
0.0
 10
172.442176
 20
231.935411
 30
0.0
  0
LWPOLYLINE
  5
179
100
AcDbEntity
  8
Layer_1
 62
1
100
AcDbPolyline
 90
2
 70
0
 10
226.867958
 20
173.730330
 30
0.0
 10
226.867958
 20
214.548691
 30
0.0
  0
SPLINE
  5
17a
100
AcDbEntity
  8
Layer_1
 62
1
100
AcDbSpline
 70
8
 71
3
 72
8
 73
4
 74
0
 40
0
 40
0
 40
0
 40
0
 40
1
 40
1
 40
1
 40
1
 10
34.365812
 20
192.885355
 30
0.0
 10
34.365812
 20
191.164268
 30
0.0
 10
33.447623
 20
189.573919
 30
0.0
 10
31.957118
 20
188.713376
 30
0.0
  0
SPLINE
  5
17b
100
AcDbEntity
  8
Layer_1
 62
1
100
AcDbSpline
 70
8
 71
3
 72
8
 73
4
 74
0
 40
0
 40
0
 40
0
 40
0
 40
1
 40
1
 40
1
 40
1
 10
31.957118
 20
188.713376
 30
0.0
 10
30.466614
 20
187.852833
 30
0.0
 10
28.630237
 20
187.852833
 30
0.0
 10
27.139732
 20
188.713376
 30
0.0
  0
SPLINE
  5
17c
100
AcDbEntity
  8
Layer_1
 62
1
100
AcDbSpline
 70
8
 71
3
 72
8
 73
4
 74
0
 40
0
 40
0
 40
0
 40
0
 40
1
 40
1
 40
1
 40
1
 10
27.139732
 20
188.713376
 30
0.0
 10
25.649228
 20
189.573919
 30
0.0
 10
24.731039
 20
191.164268
 30
0.0
 10
24.731039
 20
192.885355
 30
0.0
  0
SPLINE
  5
17d
100
AcDbEntity
  8
Layer_1
 62
1
100
AcDbSpline
 70
8
 71
3
 72
8
 73
4
 74
0
 40
0
 40
0
 40
0
 40
0
 40
1
 40
1
 40
1
 40
1
 10
24.731039
 20
192.885355
 30
0.0
 10
24.731040
 20
195.545923
 30
0.0
 10
26.887857
 20
197.702740
 30
0.0
 10
29.548425
 20
197.702740
 30
0.0
  0
SPLINE
  5
17e
100
AcDbEntity
  8
Layer_1
 62
1
100
AcDbSpline
 70
8
 71
3
 72
8
 73
4
 74
0
 40
0
 40
0
 40
0
 40
0
 40
1
 40
1
 40
1
 40
1
 10
29.548425
 20
197.702740
 30
0.0
 10
32.208994
 20
197.702740
 30
0.0
 10
34.365811
 20
195.545923
 30
0.0
 10
34.365812
 20
192.885355
 30
0.0
  0
LWPOLYLINE
  5
17f
100
AcDbEntity
  8
Layer_1
 62
1
100
AcDbPolyline
 90
3
 70
0
 10
172.442176
 20
231.935411
 30
0.0
 10
113.481233
 20
231.935411
 30
0.0
 10
54.520291
 20
231.935411
 30
0.0
  0
LWPOLYLINE
  5
180
100
AcDbEntity
  8
Layer_1
 62
1
100
AcDbPolyline
 90
1
 70
1
 10
34.365812
 20
192.885355
 30
0.0
  0
SPLINE
  5
181
100
AcDbEntity
  8
Layer_1
 62
1
100
AcDbSpline
 70
8
 71
3
 72
8
 73
4
 74
0
 40
0
 40
0
 40
0
 40
0
 40
1
 40
1
 40
1
 40
1
 10
192.596385
 20
192.885355
 30
0.0
 10
192.596385
 20
191.164268
 30
0.0
 10
193.514573
 20
189.573919
 30
0.0
 10
195.005078
 20
188.713376
 30
0.0
  0
SPLINE
  5
182
100
AcDbEntity
  8
Layer_1
 62
1
100
AcDbSpline
 70
8
 71
3
 72
8
 73
4
 74
0
 40
0
 40
0
 40
0
 40
0
 40
1
 40
1
 40
1
 40
1
 10
195.005078
 20
188.713376
 30
0.0
 10
196.495582
 20
187.852833
 30
0.0
 10
198.331960
 20
187.852833
 30
0.0
 10
199.822464
 20
188.713376
 30
0.0
  0
SPLINE
  5
183
100
AcDbEntity
  8
Layer_1
 62
1
100
AcDbSpline
 70
8
 71
3
 72
8
 73
4
 74
0
 40
0
 40
0
 40
0
 40
0
 40
1
 40
1
 40
1
 40
1
 10
199.822464
 20
188.713376
 30
0.0
 10
201.312969
 20
189.573919
 30
0.0
 10
202.231157
 20
191.164268
 30
0.0
 10
202.231157
 20
192.885355
 30
0.0
  0
SPLINE
  5
184
100
AcDbEntity
  8
Layer_1
 62
1
100
AcDbSpline
 70
8
 71
3
 72
8
 73
4
 74
0
 40
0
 40
0
 40
0
 40
0
 40
1
 40
1
 40
1
 40
1
 10
202.231157
 20
192.885355
 30
0.0
 10
202.231157
 20
194.606441
 30
0.0
 10
201.312969
 20
196.196790
 30
0.0
 10
199.822464
 20
197.057333
 30
0.0
  0
SPLINE
  5
185
100
AcDbEntity
  8
Layer_1
 62
1
100
AcDbSpline
 70
8
 71
3
 72
8
 73
4
 74
0
 40
0
 40
0
 40
0
 40
0
 40
1
 40
1
 40
1
 40
1
 10
199.822464
 20
197.057333
 30
0.0
 10
198.331960
 20
197.917877
 30
0.0
 10
196.495582
 20
197.917877
 30
0.0
 10
195.005078
 20
197.057333
 30
0.0
  0
SPLINE
  5
186
100
AcDbEntity
  8
Layer_1
 62
1
100
AcDbSpline
 70
8
 71
3
 72
8
 73
4
 74
0
 40
0
 40
0
 40
0
 40
0
 40
1
 40
1
 40
1
 40
1
 10
195.005078
 20
197.057333
 30
0.0
 10
193.514573
 20
196.196790
 30
0.0
 10
192.596385
 20
194.606441
 30
0.0
 10
192.596385
 20
192.885355
 30
0.0
  0
LWPOLYLINE
  5
187
100
AcDbEntity
  8
Layer_1
 62
1
100
AcDbPolyline
 90
4
 70
1
 10
67.945442
 20
212.532255
 30
0.0
 10
69.646229
 20
212.532255
 30
0.0
 10
69.646229
 20
174.317963
 30
0.0
 10
67.945442
 20
174.317963
 30
0.0
  0
LWPOLYLINE
  5
188
100
AcDbEntity
  8
Layer_1
 62
1
100
AcDbPolyline
 90
1
 70
1
 10
192.596385
 20
192.885355
 30
0.0
  0
SPLINE
  5
189
100
AcDbEntity
  8
Layer_1
 62
1
100
AcDbSpline
 70
8
 71
3
 72
8
 73
4
 74
0
 40
0
 40
0
 40
0
 40
0
 40
1
 40
1
 40
1
 40
1
 10
54.520291
 20
154.216678
 30
0.0
 10
24.368807
 20
154.216678
 30
0.0
 10
0.094507
 20
146.461707
 30
0.0
 10
0.094507
 20
136.829958
 30
0.0
  0
LWPOLYLINE
  5
18a
100
AcDbEntity
  8
Layer_1
 62
1
100
AcDbPolyline
 90
4
 70
1
 10
159.016868
 20
212.532255
 30
0.0
 10
157.316080
 20
212.532255
 30
0.0
 10
157.316080
 20
174.317963
 30
0.0
 10
159.016868
 20
174.317963
 30
0.0
  0
SPLINE
  5
18b
100
AcDbEntity
  8
Layer_1
 62
1
100
AcDbSpline
 70
8
 71
3
 72
8
 73
4
 74
0
 40
0
 40
0
 40
0
 40
0
 40
1
 40
1
 40
1
 40
1
 10
0.094507
 20
96.011597
 30
0.0
 10
0.094507
 20
86.379849
 30
0.0
 10
24.368807
 20
78.624878
 30
0.0
 10
54.520291
 20
78.624878
 30
0.0
  0
LWPOLYLINE
  5
18c
100
AcDbEntity
  8
Layer_1
 62
1
100
AcDbPolyline
 90
2
 70
0
 10
0.094507
 20
136.829958
 30
0.0
 10
0.094507
 20
96.011597
 30
0.0
  0
SPLINE
  5
18d
100
AcDbEntity
  8
Layer_1
 62
1
100
AcDbSpline
 70
8
 71
3
 72
8
 73
4
 74
0
 40
0
 40
0
 40
0
 40
0
 40
1
 40
1
 40
1
 40
1
 10
172.442176
 20
78.624878
 30
0.0
 10
202.593657
 20
78.624878
 30
0.0
 10
226.867958
 20
86.379849
 30
0.0
 10
226.867958
 20
96.011597
 30
0.0
  0
LWPOLYLINE
  5
18e
100
AcDbEntity
  8
Layer_1
 62
1
100
AcDbPolyline
 90
3
 70
0
 10
54.520291
 20
78.624878
 30
0.0
 10
113.481233
 20
78.624878
 30
0.0
 10
172.442176
 20
78.624878
 30
0.0
  0
SPLINE
  5
18f
100
AcDbEntity
  8
Layer_1
 62
1
100
AcDbSpline
 70
8
 71
3
 72
8
 73
4
 74
0
 40
0
 40
0
 40
0
 40
0
 40
1
 40
1
 40
1
 40
1
 10
226.867958
 20
136.829958
 30
0.0
 10
226.867958
 20
146.461707
 30
0.0
 10
202.593657
 20
154.216678
 30
0.0
 10
172.442176
 20
154.216678
 30
0.0
  0
LWPOLYLINE
  5
190
100
AcDbEntity
  8
Layer_1
 62
1
100
AcDbPolyline
 90
2
 70
0
 10
226.867958
 20
96.011597
 30
0.0
 10
226.867958
 20
136.829958
 30
0.0
  0
SPLINE
  5
191
100
AcDbEntity
  8
Layer_1
 62
1
100
AcDbSpline
 70
8
 71
3
 72
8
 73
4
 74
0
 40
0
 40
0
 40
0
 40
0
 40
1
 40
1
 40
1
 40
1
 10
34.365812
 20
115.166622
 30
0.0
 10
34.365812
 20
113.445536
 30
0.0
 10
33.447623
 20
111.855187
 30
0.0
 10
31.957118
 20
110.994644
 30
0.0
  0
SPLINE
  5
192
100
AcDbEntity
  8
Layer_1
 62
1
100
AcDbSpline
 70
8
 71
3
 72
8
 73
4
 74
0
 40
0
 40
0
 40
0
 40
0
 40
1
 40
1
 40
1
 40
1
 10
31.957118
 20
110.994644
 30
0.0
 10
30.466614
 20
110.134101
 30
0.0
 10
28.630237
 20
110.134101
 30
0.0
 10
27.139732
 20
110.994644
 30
0.0
  0
SPLINE
  5
193
100
AcDbEntity
  8
Layer_1
 62
1
100
AcDbSpline
 70
8
 71
3
 72
8
 73
4
 74
0
 40
0
 40
0
 40
0
 40
0
 40
1
 40
1
 40
1
 40
1
 10
27.139732
 20
110.994644
 30
0.0
 10
25.649228
 20
111.855187
 30
0.0
 10
24.731039
 20
113.445536
 30
0.0
 10
24.731039
 20
115.166622
 30
0.0
  0
SPLINE
  5
194
100
AcDbEntity
  8
Layer_1
 62
1
100
AcDbSpline
 70
8
 71
3
 72
8
 73
4
 74
0
 40
0
 40
0
 40
0
 40
0
 40
1
 40
1
 40
1
 40
1
 10
24.731039
 20
115.166622
 30
0.0
 10
24.731040
 20
117.827191
 30
0.0
 10
26.887857
 20
119.984007
 30
0.0
 10
29.548425
 20
119.984007
 30
0.0
  0
SPLINE
  5
195
100
AcDbEntity
  8
Layer_1
 62
1
100
AcDbSpline
 70
8
 71
3
 72
8
 73
4
 74
0
 40
0
 40
0
 40
0
 40
0
 40
1
 40
1
 40
1
 40
1
 10
29.548425
 20
119.984007
 30
0.0
 10
32.208994
 20
119.984007
 30
0.0
 10
34.365811
 20
117.827191
 30
0.0
 10
34.365812
 20
115.166622
 30
0.0
  0
LWPOLYLINE
  5
196
100
AcDbEntity
  8
Layer_1
 62
1
100
AcDbPolyline
 90
3
 70
0
 10
172.442176
 20
154.216678
 30
0.0
 10
113.481233
 20
154.216678
 30
0.0
 10
54.520291
 20
154.216678
 30
0.0
  0
LWPOLYLINE
  5
197
100
AcDbEntity
  8
Layer_1
 62
1
100
AcDbPolyline
 90
1
 70
1
 10
34.365812
 20
115.166622
 30
0.0
  0
SPLINE
  5
198
100
AcDbEntity
  8
Layer_1
 62
1
100
AcDbSpline
 70
8
 71
3
 72
8
 73
4
 74
0
 40
0
 40
0
 40
0
 40
0
 40
1
 40
1
 40
1
 40
1
 10
192.596385
 20
115.166622
 30
0.0
 10
192.596385
 20
113.445536
 30
0.0
 10
193.514573
 20
111.855187
 30
0.0
 10
195.005078
 20
110.994644
 30
0.0
  0
SPLINE
  5
199
100
AcDbEntity
  8
Layer_1
 62
1
100
AcDbSpline
 70
8
 71
3
 72
8
 73
4
 74
0
 40
0
 40
0
 40
0
 40
0
 40
1
 40
1
 40
1
 40
1
 10
195.005078
 20
110.994644
 30
0.0
 10
196.495582
 20
110.134101
 30
0.0
 10
198.331960
 20
110.134101
 30
0.0
 10
199.822464
 20
110.994644
 30
0.0
  0
SPLINE
  5
19a
100
AcDbEntity
  8
Layer_1
 62
1
100
AcDbSpline
 70
8
 71
3
 72
8
 73
4
 74
0
 40
0
 40
0
 40
0
 40
0
 40
1
 40
1
 40
1
 40
1
 10
199.822464
 20
110.994644
 30
0.0
 10
201.312969
 20
111.855187
 30
0.0
 10
202.231157
 20
113.445536
 30
0.0
 10
202.231157
 20
115.166622
 30
0.0
  0
SPLINE
  5
19b
100
AcDbEntity
  8
Layer_1
 62
1
100
AcDbSpline
 70
8
 71
3
 72
8
 73
4
 74
0
 40
0
 40
0
 40
0
 40
0
 40
1
 40
1
 40
1
 40
1
 10
202.231157
 20
115.166622
 30
0.0
 10
202.231157
 20
116.887709
 30
0.0
 10
201.312969
 20
118.478058
 30
0.0
 10
199.822464
 20
119.338601
 30
0.0
  0
SPLINE
  5
19c
100
AcDbEntity
  8
Layer_1
 62
1
100
AcDbSpline
 70
8
 71
3
 72
8
 73
4
 74
0
 40
0
 40
0
 40
0
 40
0
 40
1
 40
1
 40
1
 40
1
 10
199.822464
 20
119.338601
 30
0.0
 10
198.331960
 20
120.199144
 30
0.0
 10
196.495582
 20
120.199144
 30
0.0
 10
195.005078
 20
119.338601
 30
0.0
  0
SPLINE
  5
19d
100
AcDbEntity
  8
Layer_1
 62
1
100
AcDbSpline
 70
8
 71
3
 72
8
 73
4
 74
0
 40
0
 40
0
 40
0
 40
0
 40
1
 40
1
 40
1
 40
1
 10
195.005078
 20
119.338601
 30
0.0
 10
193.514573
 20
118.478058
 30
0.0
 10
192.596385
 20
116.887709
 30
0.0
 10
192.596385
 20
115.166622
 30
0.0
  0
LWPOLYLINE
  5
19e
100
AcDbEntity
  8
Layer_1
 62
1
100
AcDbPolyline
 90
4
 70
1
 10
67.945442
 20
134.813522
 30
0.0
 10
69.646229
 20
134.813522
 30
0.0
 10
69.646229
 20
96.599231
 30
0.0
 10
67.945442
 20
96.599231
 30
0.0
  0
LWPOLYLINE
  5
19f
100
AcDbEntity
  8
Layer_1
 62
1
100
AcDbPolyline
 90
1
 70
1
 10
192.596385
 20
115.166622
 30
0.0
  0
SPLINE
  5
1a0
100
AcDbEntity
  8
Layer_1
 62
1
100
AcDbSpline
 70
8
 71
3
 72
8
 73
4
 74
0
 40
0
 40
0
 40
0
 40
0
 40
1
 40
1
 40
1
 40
1
 10
54.520291
 20
75.686292
 30
0.0
 10
24.368807
 20
75.686292
 30
0.0
 10
0.094507
 20
67.931321
 30
0.0
 10
0.094507
 20
58.299573
 30
0.0
  0
LWPOLYLINE
  5
1a1
100
AcDbEntity
  8
Layer_1
 62
1
100
AcDbPolyline
 90
4
 70
1
 10
159.016868
 20
134.813522
 30
0.0
 10
157.316080
 20
134.813522
 30
0.0
 10
157.316080
 20
96.599231
 30
0.0
 10
159.016868
 20
96.599231
 30
0.0
  0
SPLINE
  5
1a2
100
AcDbEntity
  8
Layer_1
 62
1
100
AcDbSpline
 70
8
 71
3
 72
8
 73
4
 74
0
 40
0
 40
0
 40
0
 40
0
 40
1
 40
1
 40
1
 40
1
 10
0.094507
 20
17.481212
 30
0.0
 10
0.094507
 20
7.849463
 30
0.0
 10
24.368807
 20
0.094492
 30
0.0
 10
54.520291
 20
0.094492
 30
0.0
  0
LWPOLYLINE
  5
1a3
100
AcDbEntity
  8
Layer_1
 62
1
100
AcDbPolyline
 90
2
 70
0
 10
0.094507
 20
58.299573
 30
0.0
 10
0.094507
 20
17.481212
 30
0.0
  0
SPLINE
  5
1a4
100
AcDbEntity
  8
Layer_1
 62
1
100
AcDbSpline
 70
8
 71
3
 72
8
 73
4
 74
0
 40
0
 40
0
 40
0
 40
0
 40
1
 40
1
 40
1
 40
1
 10
172.442176
 20
0.094492
 30
0.0
 10
202.593657
 20
0.094492
 30
0.0
 10
226.867958
 20
7.849463
 30
0.0
 10
226.867958
 20
17.481212
 30
0.0
  0
LWPOLYLINE
  5
1a5
100
AcDbEntity
  8
Layer_1
 62
1
100
AcDbPolyline
 90
3
 70
0
 10
54.520291
 20
0.094492
 30
0.0
 10
113.481233
 20
0.094492
 30
0.0
 10
172.442176
 20
0.094492
 30
0.0
  0
SPLINE
  5
1a6
100
AcDbEntity
  8
Layer_1
 62
1
100
AcDbSpline
 70
8
 71
3
 72
8
 73
4
 74
0
 40
0
 40
0
 40
0
 40
0
 40
1
 40
1
 40
1
 40
1
 10
226.867958
 20
58.299573
 30
0.0
 10
226.867958
 20
67.931321
 30
0.0
 10
202.593657
 20
75.686292
 30
0.0
 10
172.442176
 20
75.686292
 30
0.0
  0
LWPOLYLINE
  5
1a7
100
AcDbEntity
  8
Layer_1
 62
1
100
AcDbPolyline
 90
2
 70
0
 10
226.867958
 20
17.481212
 30
0.0
 10
226.867958
 20
58.299573
 30
0.0
  0
SPLINE
  5
1a8
100
AcDbEntity
  8
Layer_1
 62
1
100
AcDbSpline
 70
8
 71
3
 72
8
 73
4
 74
0
 40
0
 40
0
 40
0
 40
0
 40
1
 40
1
 40
1
 40
1
 10
34.365812
 20
36.636237
 30
0.0
 10
34.365812
 20
34.915150
 30
0.0
 10
33.447623
 20
33.324801
 30
0.0
 10
31.957118
 20
32.464258
 30
0.0
  0
SPLINE
  5
1a9
100
AcDbEntity
  8
Layer_1
 62
1
100
AcDbSpline
 70
8
 71
3
 72
8
 73
4
 74
0
 40
0
 40
0
 40
0
 40
0
 40
1
 40
1
 40
1
 40
1
 10
31.957118
 20
32.464258
 30
0.0
 10
30.466614
 20
31.603715
 30
0.0
 10
28.630237
 20
31.603715
 30
0.0
 10
27.139732
 20
32.464258
 30
0.0
  0
SPLINE
  5
1aa
100
AcDbEntity
  8
Layer_1
 62
1
100
AcDbSpline
 70
8
 71
3
 72
8
 73
4
 74
0
 40
0
 40
0
 40
0
 40
0
 40
1
 40
1
 40
1
 40
1
 10
27.139732
 20
32.464258
 30
0.0
 10
25.649228
 20
33.324801
 30
0.0
 10
24.731039
 20
34.915150
 30
0.0
 10
24.731039
 20
36.636237
 30
0.0
  0
SPLINE
  5
1ab
100
AcDbEntity
  8
Layer_1
 62
1
100
AcDbSpline
 70
8
 71
3
 72
8
 73
4
 74
0
 40
0
 40
0
 40
0
 40
0
 40
1
 40
1
 40
1
 40
1
 10
24.731039
 20
36.636237
 30
0.0
 10
24.731040
 20
39.296805
 30
0.0
 10
26.887857
 20
41.453622
 30
0.0
 10
29.548425
 20
41.453622
 30
0.0
  0
SPLINE
  5
1ac
100
AcDbEntity
  8
Layer_1
 62
1
100
AcDbSpline
 70
8
 71
3
 72
8
 73
4
 74
0
 40
0
 40
0
 40
0
 40
0
 40
1
 40
1
 40
1
 40
1
 10
29.548425
 20
41.453622
 30
0.0
 10
32.208994
 20
41.453622
 30
0.0
 10
34.365811
 20
39.296805
 30
0.0
 10
34.365812
 20
36.636237
 30
0.0
  0
LWPOLYLINE
  5
1ad
100
AcDbEntity
  8
Layer_1
 62
1
100
AcDbPolyline
 90
3
 70
0
 10
172.442176
 20
75.686292
 30
0.0
 10
113.481233
 20
75.686292
 30
0.0
 10
54.520291
 20
75.686292
 30
0.0
  0
LWPOLYLINE
  5
1ae
100
AcDbEntity
  8
Layer_1
 62
1
100
AcDbPolyline
 90
1
 70
1
 10
34.365812
 20
36.636237
 30
0.0
  0
SPLINE
  5
1af
100
AcDbEntity
  8
Layer_1
 62
1
100
AcDbSpline
 70
8
 71
3
 72
8
 73
4
 74
0
 40
0
 40
0
 40
0
 40
0
 40
1
 40
1
 40
1
 40
1
 10
192.596385
 20
36.636237
 30
0.0
 10
192.596385
 20
34.915150
 30
0.0
 10
193.514573
 20
33.324801
 30
0.0
 10
195.005078
 20
32.464258
 30
0.0
  0
SPLINE
  5
1b0
100
AcDbEntity
  8
Layer_1
 62
1
100
AcDbSpline
 70
8
 71
3
 72
8
 73
4
 74
0
 40
0
 40
0
 40
0
 40
0
 40
1
 40
1
 40
1
 40
1
 10
195.005078
 20
32.464258
 30
0.0
 10
196.495582
 20
31.603715
 30
0.0
 10
198.331960
 20
31.603715
 30
0.0
 10
199.822464
 20
32.464258
 30
0.0
  0
SPLINE
  5
1b1
100
AcDbEntity
  8
Layer_1
 62
1
100
AcDbSpline
 70
8
 71
3
 72
8
 73
4
 74
0
 40
0
 40
0
 40
0
 40
0
 40
1
 40
1
 40
1
 40
1
 10
199.822464
 20
32.464258
 30
0.0
 10
201.312969
 20
33.324801
 30
0.0
 10
202.231157
 20
34.915150
 30
0.0
 10
202.231157
 20
36.636237
 30
0.0
  0
SPLINE
  5
1b2
100
AcDbEntity
  8
Layer_1
 62
1
100
AcDbSpline
 70
8
 71
3
 72
8
 73
4
 74
0
 40
0
 40
0
 40
0
 40
0
 40
1
 40
1
 40
1
 40
1
 10
202.231157
 20
36.636237
 30
0.0
 10
202.231157
 20
38.357323
 30
0.0
 10
201.312969
 20
39.947672
 30
0.0
 10
199.822464
 20
40.808215
 30
0.0
  0
SPLINE
  5
1b3
100
AcDbEntity
  8
Layer_1
 62
1
100
AcDbSpline
 70
8
 71
3
 72
8
 73
4
 74
0
 40
0
 40
0
 40
0
 40
0
 40
1
 40
1
 40
1
 40
1
 10
199.822464
 20
40.808215
 30
0.0
 10
198.331960
 20
41.668758
 30
0.0
 10
196.495582
 20
41.668758
 30
0.0
 10
195.005078
 20
40.808215
 30
0.0
  0
SPLINE
  5
1b4
100
AcDbEntity
  8
Layer_1
 62
1
100
AcDbSpline
 70
8
 71
3
 72
8
 73
4
 74
0
 40
0
 40
0
 40
0
 40
0
 40
1
 40
1
 40
1
 40
1
 10
195.005078
 20
40.808215
 30
0.0
 10
193.514573
 20
39.947672
 30
0.0
 10
192.596385
 20
38.357323
 30
0.0
 10
192.596385
 20
36.636237
 30
0.0
  0
LWPOLYLINE
  5
1b5
100
AcDbEntity
  8
Layer_1
 62
1
100
AcDbPolyline
 90
4
 70
1
 10
67.945442
 20
56.283137
 30
0.0
 10
69.646229
 20
56.283137
 30
0.0
 10
69.646229
 20
18.068845
 30
0.0
 10
67.945442
 20
18.068845
 30
0.0
  0
LWPOLYLINE
  5
1b6
100
AcDbEntity
  8
Layer_1
 62
1
100
AcDbPolyline
 90
1
 70
1
 10
192.596385
 20
36.636237
 30
0.0
  0
SPLINE
  5
1b7
100
AcDbEntity
  8
Layer_1
 62
1
100
AcDbSpline
 70
8
 71
3
 72
8
 73
4
 74
0
 40
0
 40
0
 40
0
 40
0
 40
1
 40
1
 40
1
 40
1
 10
283.039822
 20
623.965910
 30
0.0
 10
252.888338
 20
623.965910
 30
0.0
 10
228.614038
 20
616.210939
 30
0.0
 10
228.614038
 20
606.579190
 30
0.0
  0
LWPOLYLINE
  5
1b8
100
AcDbEntity
  8
Layer_1
 62
1
100
AcDbPolyline
 90
4
 70
1
 10
159.016868
 20
56.283137
 30
0.0
 10
157.316080
 20
56.283137
 30
0.0
 10
157.316080
 20
18.068845
 30
0.0
 10
159.016868
 20
18.068845
 30
0.0
  0
SPLINE
  5
1b9
100
AcDbEntity
  8
Layer_1
 62
1
100
AcDbSpline
 70
8
 71
3
 72
8
 73
4
 74
0
 40
0
 40
0
 40
0
 40
0
 40
1
 40
1
 40
1
 40
1
 10
228.614038
 20
565.760829
 30
0.0
 10
228.614038
 20
556.129081
 30
0.0
 10
252.888338
 20
548.374109
 30
0.0
 10
283.039822
 20
548.374109
 30
0.0
  0
LWPOLYLINE
  5
1ba
100
AcDbEntity
  8
Layer_1
 62
1
100
AcDbPolyline
 90
2
 70
0
 10
228.614038
 20
606.579190
 30
0.0
 10
228.614038
 20
565.760829
 30
0.0
  0
SPLINE
  5
1bb
100
AcDbEntity
  8
Layer_1
 62
1
100
AcDbSpline
 70
8
 71
3
 72
8
 73
4
 74
0
 40
0
 40
0
 40
0
 40
0
 40
1
 40
1
 40
1
 40
1
 10
400.961707
 20
548.374109
 30
0.0
 10
431.113188
 20
548.374109
 30
0.0
 10
455.387489
 20
556.129081
 30
0.0
 10
455.387489
 20
565.760829
 30
0.0
  0
LWPOLYLINE
  5
1bc
100
AcDbEntity
  8
Layer_1
 62
1
100
AcDbPolyline
 90
3
 70
0
 10
283.039822
 20
548.374109
 30
0.0
 10
342.000764
 20
548.374109
 30
0.0
 10
400.961707
 20
548.374109
 30
0.0
  0
SPLINE
  5
1bd
100
AcDbEntity
  8
Layer_1
 62
1
100
AcDbSpline
 70
8
 71
3
 72
8
 73
4
 74
0
 40
0
 40
0
 40
0
 40
0
 40
1
 40
1
 40
1
 40
1
 10
455.387489
 20
606.579190
 30
0.0
 10
455.387489
 20
616.210939
 30
0.0
 10
431.113188
 20
623.965910
 30
0.0
 10
400.961707
 20
623.965910
 30
0.0
  0
LWPOLYLINE
  5
1be
100
AcDbEntity
  8
Layer_1
 62
1
100
AcDbPolyline
 90
2
 70
0
 10
455.387489
 20
565.760829
 30
0.0
 10
455.387489
 20
606.579190
 30
0.0
  0
SPLINE
  5
1bf
100
AcDbEntity
  8
Layer_1
 62
1
100
AcDbSpline
 70
8
 71
3
 72
8
 73
4
 74
0
 40
0
 40
0
 40
0
 40
0
 40
1
 40
1
 40
1
 40
1
 10
262.885343
 20
584.915854
 30
0.0
 10
262.885343
 20
583.194768
 30
0.0
 10
261.967154
 20
581.604418
 30
0.0
 10
260.476649
 20
580.743875
 30
0.0
  0
SPLINE
  5
1c0
100
AcDbEntity
  8
Layer_1
 62
1
100
AcDbSpline
 70
8
 71
3
 72
8
 73
4
 74
0
 40
0
 40
0
 40
0
 40
0
 40
1
 40
1
 40
1
 40
1
 10
260.476649
 20
580.743875
 30
0.0
 10
258.986145
 20
579.883332
 30
0.0
 10
257.149768
 20
579.883332
 30
0.0
 10
255.659263
 20
580.743875
 30
0.0
  0
SPLINE
  5
1c1
100
AcDbEntity
  8
Layer_1
 62
1
100
AcDbSpline
 70
8
 71
3
 72
8
 73
4
 74
0
 40
0
 40
0
 40
0
 40
0
 40
1
 40
1
 40
1
 40
1
 10
255.659263
 20
580.743875
 30
0.0
 10
254.168759
 20
581.604418
 30
0.0
 10
253.250570
 20
583.194768
 30
0.0
 10
253.250570
 20
584.915854
 30
0.0
  0
SPLINE
  5
1c2
100
AcDbEntity
  8
Layer_1
 62
1
100
AcDbSpline
 70
8
 71
3
 72
8
 73
4
 74
0
 40
0
 40
0
 40
0
 40
0
 40
1
 40
1
 40
1
 40
1
 10
253.250570
 20
584.915854
 30
0.0
 10
253.250571
 20
587.576422
 30
0.0
 10
255.407388
 20
589.733239
 30
0.0
 10
258.067956
 20
589.733239
 30
0.0
  0
SPLINE
  5
1c3
100
AcDbEntity
  8
Layer_1
 62
1
100
AcDbSpline
 70
8
 71
3
 72
8
 73
4
 74
0
 40
0
 40
0
 40
0
 40
0
 40
1
 40
1
 40
1
 40
1
 10
258.067956
 20
589.733239
 30
0.0
 10
260.728525
 20
589.733239
 30
0.0
 10
262.885342
 20
587.576422
 30
0.0
 10
262.885343
 20
584.915854
 30
0.0
  0
LWPOLYLINE
  5
1c4
100
AcDbEntity
  8
Layer_1
 62
1
100
AcDbPolyline
 90
3
 70
0
 10
400.961707
 20
623.965910
 30
0.0
 10
342.000764
 20
623.965910
 30
0.0
 10
283.039822
 20
623.965910
 30
0.0
  0
LWPOLYLINE
  5
1c5
100
AcDbEntity
  8
Layer_1
 62
1
100
AcDbPolyline
 90
1
 70
1
 10
262.885343
 20
584.915854
 30
0.0
  0
SPLINE
  5
1c6
100
AcDbEntity
  8
Layer_1
 62
1
100
AcDbSpline
 70
8
 71
3
 72
8
 73
4
 74
0
 40
0
 40
0
 40
0
 40
0
 40
1
 40
1
 40
1
 40
1
 10
421.115916
 20
584.915854
 30
0.0
 10
421.115916
 20
583.194768
 30
0.0
 10
422.034105
 20
581.604418
 30
0.0
 10
423.524609
 20
580.743875
 30
0.0
  0
SPLINE
  5
1c7
100
AcDbEntity
  8
Layer_1
 62
1
100
AcDbSpline
 70
8
 71
3
 72
8
 73
4
 74
0
 40
0
 40
0
 40
0
 40
0
 40
1
 40
1
 40
1
 40
1
 10
423.524609
 20
580.743875
 30
0.0
 10
425.015113
 20
579.883332
 30
0.0
 10
426.851491
 20
579.883332
 30
0.0
 10
428.341995
 20
580.743875
 30
0.0
  0
SPLINE
  5
1c8
100
AcDbEntity
  8
Layer_1
 62
1
100
AcDbSpline
 70
8
 71
3
 72
8
 73
4
 74
0
 40
0
 40
0
 40
0
 40
0
 40
1
 40
1
 40
1
 40
1
 10
428.341995
 20
580.743875
 30
0.0
 10
429.832500
 20
581.604418
 30
0.0
 10
430.750688
 20
583.194768
 30
0.0
 10
430.750688
 20
584.915854
 30
0.0
  0
SPLINE
  5
1c9
100
AcDbEntity
  8
Layer_1
 62
1
100
AcDbSpline
 70
8
 71
3
 72
8
 73
4
 74
0
 40
0
 40
0
 40
0
 40
0
 40
1
 40
1
 40
1
 40
1
 10
430.750688
 20
584.915854
 30
0.0
 10
430.750688
 20
586.636940
 30
0.0
 10
429.832500
 20
588.227290
 30
0.0
 10
428.341995
 20
589.087833
 30
0.0
  0
SPLINE
  5
1ca
100
AcDbEntity
  8
Layer_1
 62
1
100
AcDbSpline
 70
8
 71
3
 72
8
 73
4
 74
0
 40
0
 40
0
 40
0
 40
0
 40
1
 40
1
 40
1
 40
1
 10
428.341995
 20
589.087833
 30
0.0
 10
426.851491
 20
589.948376
 30
0.0
 10
425.015113
 20
589.948376
 30
0.0
 10
423.524609
 20
589.087833
 30
0.0
  0
SPLINE
  5
1cb
100
AcDbEntity
  8
Layer_1
 62
1
100
AcDbSpline
 70
8
 71
3
 72
8
 73
4
 74
0
 40
0
 40
0
 40
0
 40
0
 40
1
 40
1
 40
1
 40
1
 10
423.524609
 20
589.087833
 30
0.0
 10
422.034105
 20
588.227290
 30
0.0
 10
421.115916
 20
586.636940
 30
0.0
 10
421.115916
 20
584.915854
 30
0.0
  0
LWPOLYLINE
  5
1cc
100
AcDbEntity
  8
Layer_1
 62
1
100
AcDbPolyline
 90
4
 70
1
 10
296.464973
 20
604.562754
 30
0.0
 10
298.165760
 20
604.562754
 30
0.0
 10
298.165760
 20
566.348463
 30
0.0
 10
296.464973
 20
566.348463
 30
0.0
  0
LWPOLYLINE
  5
1cd
100
AcDbEntity
  8
Layer_1
 62
1
100
AcDbPolyline
 90
1
 70
1
 10
421.115916
 20
584.915854
 30
0.0
  0
SPLINE
  5
1ce
100
AcDbEntity
  8
Layer_1
 62
1
100
AcDbSpline
 70
8
 71
3
 72
8
 73
4
 74
0
 40
0
 40
0
 40
0
 40
0
 40
1
 40
1
 40
1
 40
1
 10
283.039822
 20
545.435532
 30
0.0
 10
252.888338
 20
545.435532
 30
0.0
 10
228.614038
 20
537.680560
 30
0.0
 10
228.614038
 20
528.048812
 30
0.0
  0
LWPOLYLINE
  5
1cf
100
AcDbEntity
  8
Layer_1
 62
1
100
AcDbPolyline
 90
4
 70
1
 10
387.536399
 20
604.562754
 30
0.0
 10
385.835611
 20
604.562754
 30
0.0
 10
385.835611
 20
566.348463
 30
0.0
 10
387.536399
 20
566.348463
 30
0.0
  0
SPLINE
  5
1d0
100
AcDbEntity
  8
Layer_1
 62
1
100
AcDbSpline
 70
8
 71
3
 72
8
 73
4
 74
0
 40
0
 40
0
 40
0
 40
0
 40
1
 40
1
 40
1
 40
1
 10
228.614038
 20
487.230451
 30
0.0
 10
228.614038
 20
477.598702
 30
0.0
 10
252.888338
 20
469.843731
 30
0.0
 10
283.039822
 20
469.843731
 30
0.0
  0
LWPOLYLINE
  5
1d1
100
AcDbEntity
  8
Layer_1
 62
1
100
AcDbPolyline
 90
2
 70
0
 10
228.614038
 20
528.048812
 30
0.0
 10
228.614038
 20
487.230451
 30
0.0
  0
SPLINE
  5
1d2
100
AcDbEntity
  8
Layer_1
 62
1
100
AcDbSpline
 70
8
 71
3
 72
8
 73
4
 74
0
 40
0
 40
0
 40
0
 40
0
 40
1
 40
1
 40
1
 40
1
 10
400.961707
 20
469.843731
 30
0.0
 10
431.113188
 20
469.843731
 30
0.0
 10
455.387489
 20
477.598702
 30
0.0
 10
455.387489
 20
487.230451
 30
0.0
  0
LWPOLYLINE
  5
1d3
100
AcDbEntity
  8
Layer_1
 62
1
100
AcDbPolyline
 90
3
 70
0
 10
283.039822
 20
469.843731
 30
0.0
 10
342.000764
 20
469.843731
 30
0.0
 10
400.961707
 20
469.843731
 30
0.0
  0
SPLINE
  5
1d4
100
AcDbEntity
  8
Layer_1
 62
1
100
AcDbSpline
 70
8
 71
3
 72
8
 73
4
 74
0
 40
0
 40
0
 40
0
 40
0
 40
1
 40
1
 40
1
 40
1
 10
455.387489
 20
528.048812
 30
0.0
 10
455.387489
 20
537.680560
 30
0.0
 10
431.113188
 20
545.435532
 30
0.0
 10
400.961707
 20
545.435532
 30
0.0
  0
LWPOLYLINE
  5
1d5
100
AcDbEntity
  8
Layer_1
 62
1
100
AcDbPolyline
 90
2
 70
0
 10
455.387489
 20
487.230451
 30
0.0
 10
455.387489
 20
528.048812
 30
0.0
  0
SPLINE
  5
1d6
100
AcDbEntity
  8
Layer_1
 62
1
100
AcDbSpline
 70
8
 71
3
 72
8
 73
4
 74
0
 40
0
 40
0
 40
0
 40
0
 40
1
 40
1
 40
1
 40
1
 10
262.885343
 20
506.385476
 30
0.0
 10
262.885343
 20
504.664389
 30
0.0
 10
261.967154
 20
503.074040
 30
0.0
 10
260.476649
 20
502.213497
 30
0.0
  0
SPLINE
  5
1d7
100
AcDbEntity
  8
Layer_1
 62
1
100
AcDbSpline
 70
8
 71
3
 72
8
 73
4
 74
0
 40
0
 40
0
 40
0
 40
0
 40
1
 40
1
 40
1
 40
1
 10
260.476649
 20
502.213497
 30
0.0
 10
258.986145
 20
501.352954
 30
0.0
 10
257.149768
 20
501.352954
 30
0.0
 10
255.659263
 20
502.213497
 30
0.0
  0
SPLINE
  5
1d8
100
AcDbEntity
  8
Layer_1
 62
1
100
AcDbSpline
 70
8
 71
3
 72
8
 73
4
 74
0
 40
0
 40
0
 40
0
 40
0
 40
1
 40
1
 40
1
 40
1
 10
255.659263
 20
502.213497
 30
0.0
 10
254.168759
 20
503.074040
 30
0.0
 10
253.250570
 20
504.664389
 30
0.0
 10
253.250570
 20
506.385476
 30
0.0
  0
SPLINE
  5
1d9
100
AcDbEntity
  8
Layer_1
 62
1
100
AcDbSpline
 70
8
 71
3
 72
8
 73
4
 74
0
 40
0
 40
0
 40
0
 40
0
 40
1
 40
1
 40
1
 40
1
 10
253.250570
 20
506.385476
 30
0.0
 10
253.250571
 20
509.046044
 30
0.0
 10
255.407388
 20
511.202861
 30
0.0
 10
258.067956
 20
511.202861
 30
0.0
  0
SPLINE
  5
1da
100
AcDbEntity
  8
Layer_1
 62
1
100
AcDbSpline
 70
8
 71
3
 72
8
 73
4
 74
0
 40
0
 40
0
 40
0
 40
0
 40
1
 40
1
 40
1
 40
1
 10
258.067956
 20
511.202861
 30
0.0
 10
260.728525
 20
511.202861
 30
0.0
 10
262.885342
 20
509.046044
 30
0.0
 10
262.885343
 20
506.385476
 30
0.0
  0
LWPOLYLINE
  5
1db
100
AcDbEntity
  8
Layer_1
 62
1
100
AcDbPolyline
 90
3
 70
0
 10
400.961707
 20
545.435532
 30
0.0
 10
342.000764
 20
545.435532
 30
0.0
 10
283.039822
 20
545.435532
 30
0.0
  0
LWPOLYLINE
  5
1dc
100
AcDbEntity
  8
Layer_1
 62
1
100
AcDbPolyline
 90
1
 70
1
 10
262.885343
 20
506.385476
 30
0.0
  0
SPLINE
  5
1dd
100
AcDbEntity
  8
Layer_1
 62
1
100
AcDbSpline
 70
8
 71
3
 72
8
 73
4
 74
0
 40
0
 40
0
 40
0
 40
0
 40
1
 40
1
 40
1
 40
1
 10
421.115916
 20
506.385476
 30
0.0
 10
421.115916
 20
504.664389
 30
0.0
 10
422.034105
 20
503.074040
 30
0.0
 10
423.524609
 20
502.213497
 30
0.0
  0
SPLINE
  5
1de
100
AcDbEntity
  8
Layer_1
 62
1
100
AcDbSpline
 70
8
 71
3
 72
8
 73
4
 74
0
 40
0
 40
0
 40
0
 40
0
 40
1
 40
1
 40
1
 40
1
 10
423.524609
 20
502.213497
 30
0.0
 10
425.015113
 20
501.352954
 30
0.0
 10
426.851491
 20
501.352954
 30
0.0
 10
428.341995
 20
502.213497
 30
0.0
  0
SPLINE
  5
1df
100
AcDbEntity
  8
Layer_1
 62
1
100
AcDbSpline
 70
8
 71
3
 72
8
 73
4
 74
0
 40
0
 40
0
 40
0
 40
0
 40
1
 40
1
 40
1
 40
1
 10
428.341995
 20
502.213497
 30
0.0
 10
429.832500
 20
503.074040
 30
0.0
 10
430.750688
 20
504.664389
 30
0.0
 10
430.750688
 20
506.385476
 30
0.0
  0
SPLINE
  5
1e0
100
AcDbEntity
  8
Layer_1
 62
1
100
AcDbSpline
 70
8
 71
3
 72
8
 73
4
 74
0
 40
0
 40
0
 40
0
 40
0
 40
1
 40
1
 40
1
 40
1
 10
430.750688
 20
506.385476
 30
0.0
 10
430.750688
 20
508.106562
 30
0.0
 10
429.832500
 20
509.696911
 30
0.0
 10
428.341995
 20
510.557454
 30
0.0
  0
SPLINE
  5
1e1
100
AcDbEntity
  8
Layer_1
 62
1
100
AcDbSpline
 70
8
 71
3
 72
8
 73
4
 74
0
 40
0
 40
0
 40
0
 40
0
 40
1
 40
1
 40
1
 40
1
 10
428.341995
 20
510.557454
 30
0.0
 10
426.851491
 20
511.417998
 30
0.0
 10
425.015113
 20
511.417998
 30
0.0
 10
423.524609
 20
510.557454
 30
0.0
  0
SPLINE
  5
1e2
100
AcDbEntity
  8
Layer_1
 62
1
100
AcDbSpline
 70
8
 71
3
 72
8
 73
4
 74
0
 40
0
 40
0
 40
0
 40
0
 40
1
 40
1
 40
1
 40
1
 10
423.524609
 20
510.557454
 30
0.0
 10
422.034105
 20
509.696911
 30
0.0
 10
421.115916
 20
508.106562
 30
0.0
 10
421.115916
 20
506.385476
 30
0.0
  0
LWPOLYLINE
  5
1e3
100
AcDbEntity
  8
Layer_1
 62
1
100
AcDbPolyline
 90
4
 70
1
 10
296.464973
 20
526.032376
 30
0.0
 10
298.165760
 20
526.032376
 30
0.0
 10
298.165760
 20
487.818084
 30
0.0
 10
296.464973
 20
487.818084
 30
0.0
  0
LWPOLYLINE
  5
1e4
100
AcDbEntity
  8
Layer_1
 62
1
100
AcDbPolyline
 90
1
 70
1
 10
421.115916
 20
506.385476
 30
0.0
  0
SPLINE
  5
1e5
100
AcDbEntity
  8
Layer_1
 62
1
100
AcDbSpline
 70
8
 71
3
 72
8
 73
4
 74
0
 40
0
 40
0
 40
0
 40
0
 40
1
 40
1
 40
1
 40
1
 10
283.039822
 20
467.716807
 30
0.0
 10
252.888338
 20
467.716807
 30
0.0
 10
228.614038
 20
459.961836
 30
0.0
 10
228.614038
 20
450.330087
 30
0.0
  0
LWPOLYLINE
  5
1e6
100
AcDbEntity
  8
Layer_1
 62
1
100
AcDbPolyline
 90
4
 70
1
 10
387.536399
 20
526.032376
 30
0.0
 10
385.835611
 20
526.032376
 30
0.0
 10
385.835611
 20
487.818084
 30
0.0
 10
387.536399
 20
487.818084
 30
0.0
  0
SPLINE
  5
1e7
100
AcDbEntity
  8
Layer_1
 62
1
100
AcDbSpline
 70
8
 71
3
 72
8
 73
4
 74
0
 40
0
 40
0
 40
0
 40
0
 40
1
 40
1
 40
1
 40
1
 10
228.614038
 20
409.511726
 30
0.0
 10
228.614038
 20
399.879978
 30
0.0
 10
252.888338
 20
392.125006
 30
0.0
 10
283.039822
 20
392.125006
 30
0.0
  0
LWPOLYLINE
  5
1e8
100
AcDbEntity
  8
Layer_1
 62
1
100
AcDbPolyline
 90
2
 70
0
 10
228.614038
 20
450.330087
 30
0.0
 10
228.614038
 20
409.511726
 30
0.0
  0
SPLINE
  5
1e9
100
AcDbEntity
  8
Layer_1
 62
1
100
AcDbSpline
 70
8
 71
3
 72
8
 73
4
 74
0
 40
0
 40
0
 40
0
 40
0
 40
1
 40
1
 40
1
 40
1
 10
400.961707
 20
392.125006
 30
0.0
 10
431.113188
 20
392.125006
 30
0.0
 10
455.387489
 20
399.879978
 30
0.0
 10
455.387489
 20
409.511726
 30
0.0
  0
LWPOLYLINE
  5
1ea
100
AcDbEntity
  8
Layer_1
 62
1
100
AcDbPolyline
 90
3
 70
0
 10
283.039822
 20
392.125006
 30
0.0
 10
342.000764
 20
392.125006
 30
0.0
 10
400.961707
 20
392.125006
 30
0.0
  0
SPLINE
  5
1eb
100
AcDbEntity
  8
Layer_1
 62
1
100
AcDbSpline
 70
8
 71
3
 72
8
 73
4
 74
0
 40
0
 40
0
 40
0
 40
0
 40
1
 40
1
 40
1
 40
1
 10
455.387489
 20
450.330087
 30
0.0
 10
455.387489
 20
459.961836
 30
0.0
 10
431.113188
 20
467.716807
 30
0.0
 10
400.961707
 20
467.716807
 30
0.0
  0
LWPOLYLINE
  5
1ec
100
AcDbEntity
  8
Layer_1
 62
1
100
AcDbPolyline
 90
2
 70
0
 10
455.387489
 20
409.511726
 30
0.0
 10
455.387489
 20
450.330087
 30
0.0
  0
SPLINE
  5
1ed
100
AcDbEntity
  8
Layer_1
 62
1
100
AcDbSpline
 70
8
 71
3
 72
8
 73
4
 74
0
 40
0
 40
0
 40
0
 40
0
 40
1
 40
1
 40
1
 40
1
 10
262.885343
 20
428.666751
 30
0.0
 10
262.885343
 20
426.945665
 30
0.0
 10
261.967154
 20
425.355315
 30
0.0
 10
260.476649
 20
424.494772
 30
0.0
  0
SPLINE
  5
1ee
100
AcDbEntity
  8
Layer_1
 62
1
100
AcDbSpline
 70
8
 71
3
 72
8
 73
4
 74
0
 40
0
 40
0
 40
0
 40
0
 40
1
 40
1
 40
1
 40
1
 10
260.476649
 20
424.494772
 30
0.0
 10
258.986145
 20
423.634229
 30
0.0
 10
257.149768
 20
423.634229
 30
0.0
 10
255.659263
 20
424.494772
 30
0.0
  0
SPLINE
  5
1ef
100
AcDbEntity
  8
Layer_1
 62
1
100
AcDbSpline
 70
8
 71
3
 72
8
 73
4
 74
0
 40
0
 40
0
 40
0
 40
0
 40
1
 40
1
 40
1
 40
1
 10
255.659263
 20
424.494772
 30
0.0
 10
254.168759
 20
425.355315
 30
0.0
 10
253.250570
 20
426.945665
 30
0.0
 10
253.250570
 20
428.666751
 30
0.0
  0
SPLINE
  5
1f0
100
AcDbEntity
  8
Layer_1
 62
1
100
AcDbSpline
 70
8
 71
3
 72
8
 73
4
 74
0
 40
0
 40
0
 40
0
 40
0
 40
1
 40
1
 40
1
 40
1
 10
253.250570
 20
428.666751
 30
0.0
 10
253.250571
 20
431.327319
 30
0.0
 10
255.407388
 20
433.484136
 30
0.0
 10
258.067956
 20
433.484136
 30
0.0
  0
SPLINE
  5
1f1
100
AcDbEntity
  8
Layer_1
 62
1
100
AcDbSpline
 70
8
 71
3
 72
8
 73
4
 74
0
 40
0
 40
0
 40
0
 40
0
 40
1
 40
1
 40
1
 40
1
 10
258.067956
 20
433.484136
 30
0.0
 10
260.728525
 20
433.484136
 30
0.0
 10
262.885342
 20
431.327319
 30
0.0
 10
262.885343
 20
428.666751
 30
0.0
  0
LWPOLYLINE
  5
1f2
100
AcDbEntity
  8
Layer_1
 62
1
100
AcDbPolyline
 90
3
 70
0
 10
400.961707
 20
467.716807
 30
0.0
 10
342.000764
 20
467.716807
 30
0.0
 10
283.039822
 20
467.716807
 30
0.0
  0
LWPOLYLINE
  5
1f3
100
AcDbEntity
  8
Layer_1
 62
1
100
AcDbPolyline
 90
1
 70
1
 10
262.885343
 20
428.666751
 30
0.0
  0
SPLINE
  5
1f4
100
AcDbEntity
  8
Layer_1
 62
1
100
AcDbSpline
 70
8
 71
3
 72
8
 73
4
 74
0
 40
0
 40
0
 40
0
 40
0
 40
1
 40
1
 40
1
 40
1
 10
421.115916
 20
428.666751
 30
0.0
 10
421.115916
 20
426.945665
 30
0.0
 10
422.034105
 20
425.355315
 30
0.0
 10
423.524609
 20
424.494772
 30
0.0
  0
SPLINE
  5
1f5
100
AcDbEntity
  8
Layer_1
 62
1
100
AcDbSpline
 70
8
 71
3
 72
8
 73
4
 74
0
 40
0
 40
0
 40
0
 40
0
 40
1
 40
1
 40
1
 40
1
 10
423.524609
 20
424.494772
 30
0.0
 10
425.015113
 20
423.634229
 30
0.0
 10
426.851491
 20
423.634229
 30
0.0
 10
428.341995
 20
424.494772
 30
0.0
  0
SPLINE
  5
1f6
100
AcDbEntity
  8
Layer_1
 62
1
100
AcDbSpline
 70
8
 71
3
 72
8
 73
4
 74
0
 40
0
 40
0
 40
0
 40
0
 40
1
 40
1
 40
1
 40
1
 10
428.341995
 20
424.494772
 30
0.0
 10
429.832500
 20
425.355315
 30
0.0
 10
430.750688
 20
426.945665
 30
0.0
 10
430.750688
 20
428.666751
 30
0.0
  0
SPLINE
  5
1f7
100
AcDbEntity
  8
Layer_1
 62
1
100
AcDbSpline
 70
8
 71
3
 72
8
 73
4
 74
0
 40
0
 40
0
 40
0
 40
0
 40
1
 40
1
 40
1
 40
1
 10
430.750688
 20
428.666751
 30
0.0
 10
430.750688
 20
430.387837
 30
0.0
 10
429.832500
 20
431.978187
 30
0.0
 10
428.341995
 20
432.838730
 30
0.0
  0
SPLINE
  5
1f8
100
AcDbEntity
  8
Layer_1
 62
1
100
AcDbSpline
 70
8
 71
3
 72
8
 73
4
 74
0
 40
0
 40
0
 40
0
 40
0
 40
1
 40
1
 40
1
 40
1
 10
428.341995
 20
432.838730
 30
0.0
 10
426.851491
 20
433.699273
 30
0.0
 10
425.015113
 20
433.699273
 30
0.0
 10
423.524609
 20
432.838730
 30
0.0
  0
SPLINE
  5
1f9
100
AcDbEntity
  8
Layer_1
 62
1
100
AcDbSpline
 70
8
 71
3
 72
8
 73
4
 74
0
 40
0
 40
0
 40
0
 40
0
 40
1
 40
1
 40
1
 40
1
 10
423.524609
 20
432.838730
 30
0.0
 10
422.034105
 20
431.978187
 30
0.0
 10
421.115916
 20
430.387837
 30
0.0
 10
421.115916
 20
428.666751
 30
0.0
  0
LWPOLYLINE
  5
1fa
100
AcDbEntity
  8
Layer_1
 62
1
100
AcDbPolyline
 90
4
 70
1
 10
296.464973
 20
448.313651
 30
0.0
 10
298.165760
 20
448.313651
 30
0.0
 10
298.165760
 20
410.099360
 30
0.0
 10
296.464973
 20
410.099360
 30
0.0
  0
LWPOLYLINE
  5
1fb
100
AcDbEntity
  8
Layer_1
 62
1
100
AcDbPolyline
 90
1
 70
1
 10
421.115916
 20
428.666751
 30
0.0
  0
SPLINE
  5
1fc
100
AcDbEntity
  8
Layer_1
 62
1
100
AcDbSpline
 70
8
 71
3
 72
8
 73
4
 74
0
 40
0
 40
0
 40
0
 40
0
 40
1
 40
1
 40
1
 40
1
 10
283.039822
 20
389.186432
 30
0.0
 10
252.888338
 20
389.186432
 30
0.0
 10
228.614038
 20
381.431461
 30
0.0
 10
228.614038
 20
371.799712
 30
0.0
  0
LWPOLYLINE
  5
1fd
100
AcDbEntity
  8
Layer_1
 62
1
100
AcDbPolyline
 90
4
 70
1
 10
387.536399
 20
448.313651
 30
0.0
 10
385.835611
 20
448.313651
 30
0.0
 10
385.835611
 20
410.099360
 30
0.0
 10
387.536399
 20
410.099360
 30
0.0
  0
SPLINE
  5
1fe
100
AcDbEntity
  8
Layer_1
 62
1
100
AcDbSpline
 70
8
 71
3
 72
8
 73
4
 74
0
 40
0
 40
0
 40
0
 40
0
 40
1
 40
1
 40
1
 40
1
 10
228.614038
 20
330.981352
 30
0.0
 10
228.614038
 20
321.349603
 30
0.0
 10
252.888338
 20
313.594632
 30
0.0
 10
283.039822
 20
313.594632
 30
0.0
  0
LWPOLYLINE
  5
1ff
100
AcDbEntity
  8
Layer_1
 62
1
100
AcDbPolyline
 90
2
 70
0
 10
228.614038
 20
371.799712
 30
0.0
 10
228.614038
 20
330.981352
 30
0.0
  0
SPLINE
  5
200
100
AcDbEntity
  8
Layer_1
 62
1
100
AcDbSpline
 70
8
 71
3
 72
8
 73
4
 74
0
 40
0
 40
0
 40
0
 40
0
 40
1
 40
1
 40
1
 40
1
 10
400.961707
 20
313.594632
 30
0.0
 10
431.113188
 20
313.594632
 30
0.0
 10
455.387489
 20
321.349603
 30
0.0
 10
455.387489
 20
330.981352
 30
0.0
  0
LWPOLYLINE
  5
201
100
AcDbEntity
  8
Layer_1
 62
1
100
AcDbPolyline
 90
3
 70
0
 10
283.039822
 20
313.594632
 30
0.0
 10
342.000764
 20
313.594632
 30
0.0
 10
400.961707
 20
313.594632
 30
0.0
  0
SPLINE
  5
202
100
AcDbEntity
  8
Layer_1
 62
1
100
AcDbSpline
 70
8
 71
3
 72
8
 73
4
 74
0
 40
0
 40
0
 40
0
 40
0
 40
1
 40
1
 40
1
 40
1
 10
455.387489
 20
371.799712
 30
0.0
 10
455.387489
 20
381.431461
 30
0.0
 10
431.113188
 20
389.186432
 30
0.0
 10
400.961707
 20
389.186432
 30
0.0
  0
LWPOLYLINE
  5
203
100
AcDbEntity
  8
Layer_1
 62
1
100
AcDbPolyline
 90
2
 70
0
 10
455.387489
 20
330.981352
 30
0.0
 10
455.387489
 20
371.799712
 30
0.0
  0
SPLINE
  5
204
100
AcDbEntity
  8
Layer_1
 62
1
100
AcDbSpline
 70
8
 71
3
 72
8
 73
4
 74
0
 40
0
 40
0
 40
0
 40
0
 40
1
 40
1
 40
1
 40
1
 10
262.885343
 20
350.136376
 30
0.0
 10
262.885343
 20
348.415290
 30
0.0
 10
261.967154
 20
346.824941
 30
0.0
 10
260.476649
 20
345.964398
 30
0.0
  0
SPLINE
  5
205
100
AcDbEntity
  8
Layer_1
 62
1
100
AcDbSpline
 70
8
 71
3
 72
8
 73
4
 74
0
 40
0
 40
0
 40
0
 40
0
 40
1
 40
1
 40
1
 40
1
 10
260.476649
 20
345.964398
 30
0.0
 10
258.986145
 20
345.103855
 30
0.0
 10
257.149768
 20
345.103855
 30
0.0
 10
255.659263
 20
345.964398
 30
0.0
  0
SPLINE
  5
206
100
AcDbEntity
  8
Layer_1
 62
1
100
AcDbSpline
 70
8
 71
3
 72
8
 73
4
 74
0
 40
0
 40
0
 40
0
 40
0
 40
1
 40
1
 40
1
 40
1
 10
255.659263
 20
345.964398
 30
0.0
 10
254.168759
 20
346.824941
 30
0.0
 10
253.250570
 20
348.415290
 30
0.0
 10
253.250570
 20
350.136376
 30
0.0
  0
SPLINE
  5
207
100
AcDbEntity
  8
Layer_1
 62
1
100
AcDbSpline
 70
8
 71
3
 72
8
 73
4
 74
0
 40
0
 40
0
 40
0
 40
0
 40
1
 40
1
 40
1
 40
1
 10
253.250570
 20
350.136376
 30
0.0
 10
253.250571
 20
352.796945
 30
0.0
 10
255.407388
 20
354.953761
 30
0.0
 10
258.067956
 20
354.953761
 30
0.0
  0
SPLINE
  5
208
100
AcDbEntity
  8
Layer_1
 62
1
100
AcDbSpline
 70
8
 71
3
 72
8
 73
4
 74
0
 40
0
 40
0
 40
0
 40
0
 40
1
 40
1
 40
1
 40
1
 10
258.067956
 20
354.953761
 30
0.0
 10
260.728525
 20
354.953761
 30
0.0
 10
262.885342
 20
352.796945
 30
0.0
 10
262.885343
 20
350.136376
 30
0.0
  0
LWPOLYLINE
  5
209
100
AcDbEntity
  8
Layer_1
 62
1
100
AcDbPolyline
 90
3
 70
0
 10
400.961707
 20
389.186432
 30
0.0
 10
342.000764
 20
389.186432
 30
0.0
 10
283.039822
 20
389.186432
 30
0.0
  0
LWPOLYLINE
  5
20a
100
AcDbEntity
  8
Layer_1
 62
1
100
AcDbPolyline
 90
1
 70
1
 10
262.885343
 20
350.136376
 30
0.0
  0
SPLINE
  5
20b
100
AcDbEntity
  8
Layer_1
 62
1
100
AcDbSpline
 70
8
 71
3
 72
8
 73
4
 74
0
 40
0
 40
0
 40
0
 40
0
 40
1
 40
1
 40
1
 40
1
 10
421.115916
 20
350.136376
 30
0.0
 10
421.115916
 20
348.415290
 30
0.0
 10
422.034105
 20
346.824941
 30
0.0
 10
423.524609
 20
345.964398
 30
0.0
  0
SPLINE
  5
20c
100
AcDbEntity
  8
Layer_1
 62
1
100
AcDbSpline
 70
8
 71
3
 72
8
 73
4
 74
0
 40
0
 40
0
 40
0
 40
0
 40
1
 40
1
 40
1
 40
1
 10
423.524609
 20
345.964398
 30
0.0
 10
425.015113
 20
345.103855
 30
0.0
 10
426.851491
 20
345.103855
 30
0.0
 10
428.341995
 20
345.964398
 30
0.0
  0
SPLINE
  5
20d
100
AcDbEntity
  8
Layer_1
 62
1
100
AcDbSpline
 70
8
 71
3
 72
8
 73
4
 74
0
 40
0
 40
0
 40
0
 40
0
 40
1
 40
1
 40
1
 40
1
 10
428.341995
 20
345.964398
 30
0.0
 10
429.832500
 20
346.824941
 30
0.0
 10
430.750688
 20
348.415290
 30
0.0
 10
430.750688
 20
350.136376
 30
0.0
  0
SPLINE
  5
20e
100
AcDbEntity
  8
Layer_1
 62
1
100
AcDbSpline
 70
8
 71
3
 72
8
 73
4
 74
0
 40
0
 40
0
 40
0
 40
0
 40
1
 40
1
 40
1
 40
1
 10
430.750688
 20
350.136376
 30
0.0
 10
430.750688
 20
351.857463
 30
0.0
 10
429.832500
 20
353.447812
 30
0.0
 10
428.341995
 20
354.308355
 30
0.0
  0
SPLINE
  5
20f
100
AcDbEntity
  8
Layer_1
 62
1
100
AcDbSpline
 70
8
 71
3
 72
8
 73
4
 74
0
 40
0
 40
0
 40
0
 40
0
 40
1
 40
1
 40
1
 40
1
 10
428.341995
 20
354.308355
 30
0.0
 10
426.851491
 20
355.168898
 30
0.0
 10
425.015113
 20
355.168898
 30
0.0
 10
423.524609
 20
354.308355
 30
0.0
  0
SPLINE
  5
210
100
AcDbEntity
  8
Layer_1
 62
1
100
AcDbSpline
 70
8
 71
3
 72
8
 73
4
 74
0
 40
0
 40
0
 40
0
 40
0
 40
1
 40
1
 40
1
 40
1
 10
423.524609
 20
354.308355
 30
0.0
 10
422.034105
 20
353.447812
 30
0.0
 10
421.115916
 20
351.857463
 30
0.0
 10
421.115916
 20
350.136376
 30
0.0
  0
LWPOLYLINE
  5
211
100
AcDbEntity
  8
Layer_1
 62
1
100
AcDbPolyline
 90
4
 70
1
 10
296.464973
 20
369.783277
 30
0.0
 10
298.165760
 20
369.783277
 30
0.0
 10
298.165760
 20
331.568985
 30
0.0
 10
296.464973
 20
331.568985
 30
0.0
  0
LWPOLYLINE
  5
212
100
AcDbEntity
  8
Layer_1
 62
1
100
AcDbPolyline
 90
1
 70
1
 10
421.115916
 20
350.136376
 30
0.0
  0
SPLINE
  5
213
100
AcDbEntity
  8
Layer_1
 62
1
100
AcDbSpline
 70
8
 71
3
 72
8
 73
4
 74
0
 40
0
 40
0
 40
0
 40
0
 40
1
 40
1
 40
1
 40
1
 10
283.039822
 20
310.465728
 30
0.0
 10
252.888338
 20
310.465728
 30
0.0
 10
228.614038
 20
302.710757
 30
0.0
 10
228.614038
 20
293.079009
 30
0.0
  0
LWPOLYLINE
  5
214
100
AcDbEntity
  8
Layer_1
 62
1
100
AcDbPolyline
 90
4
 70
1
 10
387.536399
 20
369.783277
 30
0.0
 10
385.835611
 20
369.783277
 30
0.0
 10
385.835611
 20
331.568985
 30
0.0
 10
387.536399
 20
331.568985
 30
0.0
  0
SPLINE
  5
215
100
AcDbEntity
  8
Layer_1
 62
1
100
AcDbSpline
 70
8
 71
3
 72
8
 73
4
 74
0
 40
0
 40
0
 40
0
 40
0
 40
1
 40
1
 40
1
 40
1
 10
228.614038
 20
252.260648
 30
0.0
 10
228.614038
 20
242.628899
 30
0.0
 10
252.888338
 20
234.873928
 30
0.0
 10
283.039822
 20
234.873928
 30
0.0
  0
LWPOLYLINE
  5
216
100
AcDbEntity
  8
Layer_1
 62
1
100
AcDbPolyline
 90
2
 70
0
 10
228.614038
 20
293.079009
 30
0.0
 10
228.614038
 20
252.260648
 30
0.0
  0
SPLINE
  5
217
100
AcDbEntity
  8
Layer_1
 62
1
100
AcDbSpline
 70
8
 71
3
 72
8
 73
4
 74
0
 40
0
 40
0
 40
0
 40
0
 40
1
 40
1
 40
1
 40
1
 10
400.961707
 20
234.873928
 30
0.0
 10
431.113188
 20
234.873928
 30
0.0
 10
455.387489
 20
242.628899
 30
0.0
 10
455.387489
 20
252.260648
 30
0.0
  0
LWPOLYLINE
  5
218
100
AcDbEntity
  8
Layer_1
 62
1
100
AcDbPolyline
 90
3
 70
0
 10
283.039822
 20
234.873928
 30
0.0
 10
342.000764
 20
234.873928
 30
0.0
 10
400.961707
 20
234.873928
 30
0.0
  0
SPLINE
  5
219
100
AcDbEntity
  8
Layer_1
 62
1
100
AcDbSpline
 70
8
 71
3
 72
8
 73
4
 74
0
 40
0
 40
0
 40
0
 40
0
 40
1
 40
1
 40
1
 40
1
 10
455.387489
 20
293.079009
 30
0.0
 10
455.387489
 20
302.710757
 30
0.0
 10
431.113188
 20
310.465728
 30
0.0
 10
400.961707
 20
310.465728
 30
0.0
  0
LWPOLYLINE
  5
21a
100
AcDbEntity
  8
Layer_1
 62
1
100
AcDbPolyline
 90
2
 70
0
 10
455.387489
 20
252.260648
 30
0.0
 10
455.387489
 20
293.079009
 30
0.0
  0
SPLINE
  5
21b
100
AcDbEntity
  8
Layer_1
 62
1
100
AcDbSpline
 70
8
 71
3
 72
8
 73
4
 74
0
 40
0
 40
0
 40
0
 40
0
 40
1
 40
1
 40
1
 40
1
 10
262.885343
 20
271.415673
 30
0.0
 10
262.885343
 20
269.694586
 30
0.0
 10
261.967154
 20
268.104237
 30
0.0
 10
260.476649
 20
267.243694
 30
0.0
  0
SPLINE
  5
21c
100
AcDbEntity
  8
Layer_1
 62
1
100
AcDbSpline
 70
8
 71
3
 72
8
 73
4
 74
0
 40
0
 40
0
 40
0
 40
0
 40
1
 40
1
 40
1
 40
1
 10
260.476649
 20
267.243694
 30
0.0
 10
258.986145
 20
266.383151
 30
0.0
 10
257.149768
 20
266.383151
 30
0.0
 10
255.659263
 20
267.243694
 30
0.0
  0
SPLINE
  5
21d
100
AcDbEntity
  8
Layer_1
 62
1
100
AcDbSpline
 70
8
 71
3
 72
8
 73
4
 74
0
 40
0
 40
0
 40
0
 40
0
 40
1
 40
1
 40
1
 40
1
 10
255.659263
 20
267.243694
 30
0.0
 10
254.168759
 20
268.104237
 30
0.0
 10
253.250570
 20
269.694586
 30
0.0
 10
253.250570
 20
271.415673
 30
0.0
  0
SPLINE
  5
21e
100
AcDbEntity
  8
Layer_1
 62
1
100
AcDbSpline
 70
8
 71
3
 72
8
 73
4
 74
0
 40
0
 40
0
 40
0
 40
0
 40
1
 40
1
 40
1
 40
1
 10
253.250570
 20
271.415673
 30
0.0
 10
253.250571
 20
274.076241
 30
0.0
 10
255.407388
 20
276.233057
 30
0.0
 10
258.067956
 20
276.233057
 30
0.0
  0
SPLINE
  5
21f
100
AcDbEntity
  8
Layer_1
 62
1
100
AcDbSpline
 70
8
 71
3
 72
8
 73
4
 74
0
 40
0
 40
0
 40
0
 40
0
 40
1
 40
1
 40
1
 40
1
 10
258.067956
 20
276.233057
 30
0.0
 10
260.728525
 20
276.233057
 30
0.0
 10
262.885342
 20
274.076241
 30
0.0
 10
262.885343
 20
271.415673
 30
0.0
  0
LWPOLYLINE
  5
220
100
AcDbEntity
  8
Layer_1
 62
1
100
AcDbPolyline
 90
3
 70
0
 10
400.961707
 20
310.465728
 30
0.0
 10
342.000764
 20
310.465728
 30
0.0
 10
283.039822
 20
310.465728
 30
0.0
  0
LWPOLYLINE
  5
221
100
AcDbEntity
  8
Layer_1
 62
1
100
AcDbPolyline
 90
1
 70
1
 10
262.885343
 20
271.415673
 30
0.0
  0
SPLINE
  5
222
100
AcDbEntity
  8
Layer_1
 62
1
100
AcDbSpline
 70
8
 71
3
 72
8
 73
4
 74
0
 40
0
 40
0
 40
0
 40
0
 40
1
 40
1
 40
1
 40
1
 10
421.115916
 20
271.415673
 30
0.0
 10
421.115916
 20
269.694586
 30
0.0
 10
422.034105
 20
268.104237
 30
0.0
 10
423.524609
 20
267.243694
 30
0.0
  0
SPLINE
  5
223
100
AcDbEntity
  8
Layer_1
 62
1
100
AcDbSpline
 70
8
 71
3
 72
8
 73
4
 74
0
 40
0
 40
0
 40
0
 40
0
 40
1
 40
1
 40
1
 40
1
 10
423.524609
 20
267.243694
 30
0.0
 10
425.015113
 20
266.383151
 30
0.0
 10
426.851491
 20
266.383151
 30
0.0
 10
428.341995
 20
267.243694
 30
0.0
  0
SPLINE
  5
224
100
AcDbEntity
  8
Layer_1
 62
1
100
AcDbSpline
 70
8
 71
3
 72
8
 73
4
 74
0
 40
0
 40
0
 40
0
 40
0
 40
1
 40
1
 40
1
 40
1
 10
428.341995
 20
267.243694
 30
0.0
 10
429.832500
 20
268.104237
 30
0.0
 10
430.750688
 20
269.694586
 30
0.0
 10
430.750688
 20
271.415673
 30
0.0
  0
SPLINE
  5
225
100
AcDbEntity
  8
Layer_1
 62
1
100
AcDbSpline
 70
8
 71
3
 72
8
 73
4
 74
0
 40
0
 40
0
 40
0
 40
0
 40
1
 40
1
 40
1
 40
1
 10
430.750688
 20
271.415673
 30
0.0
 10
430.750688
 20
273.136759
 30
0.0
 10
429.832500
 20
274.727108
 30
0.0
 10
428.341995
 20
275.587651
 30
0.0
  0
SPLINE
  5
226
100
AcDbEntity
  8
Layer_1
 62
1
100
AcDbSpline
 70
8
 71
3
 72
8
 73
4
 74
0
 40
0
 40
0
 40
0
 40
0
 40
1
 40
1
 40
1
 40
1
 10
428.341995
 20
275.587651
 30
0.0
 10
426.851491
 20
276.448194
 30
0.0
 10
425.015113
 20
276.448194
 30
0.0
 10
423.524609
 20
275.587651
 30
0.0
  0
SPLINE
  5
227
100
AcDbEntity
  8
Layer_1
 62
1
100
AcDbSpline
 70
8
 71
3
 72
8
 73
4
 74
0
 40
0
 40
0
 40
0
 40
0
 40
1
 40
1
 40
1
 40
1
 10
423.524609
 20
275.587651
 30
0.0
 10
422.034105
 20
274.727108
 30
0.0
 10
421.115916
 20
273.136759
 30
0.0
 10
421.115916
 20
271.415673
 30
0.0
  0
LWPOLYLINE
  5
228
100
AcDbEntity
  8
Layer_1
 62
1
100
AcDbPolyline
 90
4
 70
1
 10
296.464973
 20
291.062573
 30
0.0
 10
298.165760
 20
291.062573
 30
0.0
 10
298.165760
 20
252.848281
 30
0.0
 10
296.464973
 20
252.848281
 30
0.0
  0
LWPOLYLINE
  5
229
100
AcDbEntity
  8
Layer_1
 62
1
100
AcDbPolyline
 90
1
 70
1
 10
421.115916
 20
271.415673
 30
0.0
  0
SPLINE
  5
22a
100
AcDbEntity
  8
Layer_1
 62
1
100
AcDbSpline
 70
8
 71
3
 72
8
 73
4
 74
0
 40
0
 40
0
 40
0
 40
0
 40
1
 40
1
 40
1
 40
1
 10
283.039822
 20
231.935373
 30
0.0
 10
252.888338
 20
231.935373
 30
0.0
 10
228.614038
 20
224.180402
 30
0.0
 10
228.614038
 20
214.548653
 30
0.0
  0
LWPOLYLINE
  5
22b
100
AcDbEntity
  8
Layer_1
 62
1
100
AcDbPolyline
 90
4
 70
1
 10
387.536399
 20
291.062573
 30
0.0
 10
385.835611
 20
291.062573
 30
0.0
 10
385.835611
 20
252.848281
 30
0.0
 10
387.536399
 20
252.848281
 30
0.0
  0
SPLINE
  5
22c
100
AcDbEntity
  8
Layer_1
 62
1
100
AcDbSpline
 70
8
 71
3
 72
8
 73
4
 74
0
 40
0
 40
0
 40
0
 40
0
 40
1
 40
1
 40
1
 40
1
 10
228.614038
 20
173.730292
 30
0.0
 10
228.614038
 20
164.098543
 30
0.0
 10
252.888338
 20
156.343572
 30
0.0
 10
283.039822
 20
156.343572
 30
0.0
  0
LWPOLYLINE
  5
22d
100
AcDbEntity
  8
Layer_1
 62
1
100
AcDbPolyline
 90
2
 70
0
 10
228.614038
 20
214.548653
 30
0.0
 10
228.614038
 20
173.730292
 30
0.0
  0
SPLINE
  5
22e
100
AcDbEntity
  8
Layer_1
 62
1
100
AcDbSpline
 70
8
 71
3
 72
8
 73
4
 74
0
 40
0
 40
0
 40
0
 40
0
 40
1
 40
1
 40
1
 40
1
 10
400.961707
 20
156.343572
 30
0.0
 10
431.113188
 20
156.343572
 30
0.0
 10
455.387489
 20
164.098543
 30
0.0
 10
455.387489
 20
173.730292
 30
0.0
  0
LWPOLYLINE
  5
22f
100
AcDbEntity
  8
Layer_1
 62
1
100
AcDbPolyline
 90
3
 70
0
 10
283.039822
 20
156.343572
 30
0.0
 10
342.000764
 20
156.343572
 30
0.0
 10
400.961707
 20
156.343572
 30
0.0
  0
SPLINE
  5
230
100
AcDbEntity
  8
Layer_1
 62
1
100
AcDbSpline
 70
8
 71
3
 72
8
 73
4
 74
0
 40
0
 40
0
 40
0
 40
0
 40
1
 40
1
 40
1
 40
1
 10
455.387489
 20
214.548653
 30
0.0
 10
455.387489
 20
224.180402
 30
0.0
 10
431.113188
 20
231.935373
 30
0.0
 10
400.961707
 20
231.935373
 30
0.0
  0
LWPOLYLINE
  5
231
100
AcDbEntity
  8
Layer_1
 62
1
100
AcDbPolyline
 90
2
 70
0
 10
455.387489
 20
173.730292
 30
0.0
 10
455.387489
 20
214.548653
 30
0.0
  0
SPLINE
  5
232
100
AcDbEntity
  8
Layer_1
 62
1
100
AcDbSpline
 70
8
 71
3
 72
8
 73
4
 74
0
 40
0
 40
0
 40
0
 40
0
 40
1
 40
1
 40
1
 40
1
 10
262.885343
 20
192.885317
 30
0.0
 10
262.885343
 20
191.164231
 30
0.0
 10
261.967154
 20
189.573881
 30
0.0
 10
260.476649
 20
188.713338
 30
0.0
  0
SPLINE
  5
233
100
AcDbEntity
  8
Layer_1
 62
1
100
AcDbSpline
 70
8
 71
3
 72
8
 73
4
 74
0
 40
0
 40
0
 40
0
 40
0
 40
1
 40
1
 40
1
 40
1
 10
260.476649
 20
188.713338
 30
0.0
 10
258.986145
 20
187.852795
 30
0.0
 10
257.149768
 20
187.852795
 30
0.0
 10
255.659263
 20
188.713338
 30
0.0
  0
SPLINE
  5
234
100
AcDbEntity
  8
Layer_1
 62
1
100
AcDbSpline
 70
8
 71
3
 72
8
 73
4
 74
0
 40
0
 40
0
 40
0
 40
0
 40
1
 40
1
 40
1
 40
1
 10
255.659263
 20
188.713338
 30
0.0
 10
254.168759
 20
189.573881
 30
0.0
 10
253.250570
 20
191.164231
 30
0.0
 10
253.250570
 20
192.885317
 30
0.0
  0
SPLINE
  5
235
100
AcDbEntity
  8
Layer_1
 62
1
100
AcDbSpline
 70
8
 71
3
 72
8
 73
4
 74
0
 40
0
 40
0
 40
0
 40
0
 40
1
 40
1
 40
1
 40
1
 10
253.250570
 20
192.885317
 30
0.0
 10
253.250571
 20
195.545885
 30
0.0
 10
255.407388
 20
197.702702
 30
0.0
 10
258.067956
 20
197.702702
 30
0.0
  0
SPLINE
  5
236
100
AcDbEntity
  8
Layer_1
 62
1
100
AcDbSpline
 70
8
 71
3
 72
8
 73
4
 74
0
 40
0
 40
0
 40
0
 40
0
 40
1
 40
1
 40
1
 40
1
 10
258.067956
 20
197.702702
 30
0.0
 10
260.728525
 20
197.702702
 30
0.0
 10
262.885342
 20
195.545885
 30
0.0
 10
262.885343
 20
192.885317
 30
0.0
  0
LWPOLYLINE
  5
237
100
AcDbEntity
  8
Layer_1
 62
1
100
AcDbPolyline
 90
3
 70
0
 10
400.961707
 20
231.935373
 30
0.0
 10
342.000764
 20
231.935373
 30
0.0
 10
283.039822
 20
231.935373
 30
0.0
  0
LWPOLYLINE
  5
238
100
AcDbEntity
  8
Layer_1
 62
1
100
AcDbPolyline
 90
1
 70
1
 10
262.885343
 20
192.885317
 30
0.0
  0
SPLINE
  5
239
100
AcDbEntity
  8
Layer_1
 62
1
100
AcDbSpline
 70
8
 71
3
 72
8
 73
4
 74
0
 40
0
 40
0
 40
0
 40
0
 40
1
 40
1
 40
1
 40
1
 10
421.115916
 20
192.885317
 30
0.0
 10
421.115916
 20
191.164231
 30
0.0
 10
422.034105
 20
189.573881
 30
0.0
 10
423.524609
 20
188.713338
 30
0.0
  0
SPLINE
  5
23a
100
AcDbEntity
  8
Layer_1
 62
1
100
AcDbSpline
 70
8
 71
3
 72
8
 73
4
 74
0
 40
0
 40
0
 40
0
 40
0
 40
1
 40
1
 40
1
 40
1
 10
423.524609
 20
188.713338
 30
0.0
 10
425.015113
 20
187.852795
 30
0.0
 10
426.851491
 20
187.852795
 30
0.0
 10
428.341995
 20
188.713338
 30
0.0
  0
SPLINE
  5
23b
100
AcDbEntity
  8
Layer_1
 62
1
100
AcDbSpline
 70
8
 71
3
 72
8
 73
4
 74
0
 40
0
 40
0
 40
0
 40
0
 40
1
 40
1
 40
1
 40
1
 10
428.341995
 20
188.713338
 30
0.0
 10
429.832500
 20
189.573881
 30
0.0
 10
430.750688
 20
191.164231
 30
0.0
 10
430.750688
 20
192.885317
 30
0.0
  0
SPLINE
  5
23c
100
AcDbEntity
  8
Layer_1
 62
1
100
AcDbSpline
 70
8
 71
3
 72
8
 73
4
 74
0
 40
0
 40
0
 40
0
 40
0
 40
1
 40
1
 40
1
 40
1
 10
430.750688
 20
192.885317
 30
0.0
 10
430.750688
 20
194.606403
 30
0.0
 10
429.832500
 20
196.196752
 30
0.0
 10
428.341995
 20
197.057296
 30
0.0
  0
SPLINE
  5
23d
100
AcDbEntity
  8
Layer_1
 62
1
100
AcDbSpline
 70
8
 71
3
 72
8
 73
4
 74
0
 40
0
 40
0
 40
0
 40
0
 40
1
 40
1
 40
1
 40
1
 10
428.341995
 20
197.057296
 30
0.0
 10
426.851491
 20
197.917839
 30
0.0
 10
425.015113
 20
197.917839
 30
0.0
 10
423.524609
 20
197.057296
 30
0.0
  0
SPLINE
  5
23e
100
AcDbEntity
  8
Layer_1
 62
1
100
AcDbSpline
 70
8
 71
3
 72
8
 73
4
 74
0
 40
0
 40
0
 40
0
 40
0
 40
1
 40
1
 40
1
 40
1
 10
423.524609
 20
197.057296
 30
0.0
 10
422.034105
 20
196.196752
 30
0.0
 10
421.115916
 20
194.606403
 30
0.0
 10
421.115916
 20
192.885317
 30
0.0
  0
LWPOLYLINE
  5
23f
100
AcDbEntity
  8
Layer_1
 62
1
100
AcDbPolyline
 90
4
 70
1
 10
296.464973
 20
212.532217
 30
0.0
 10
298.165760
 20
212.532217
 30
0.0
 10
298.165760
 20
174.317926
 30
0.0
 10
296.464973
 20
174.317926
 30
0.0
  0
LWPOLYLINE
  5
240
100
AcDbEntity
  8
Layer_1
 62
1
100
AcDbPolyline
 90
1
 70
1
 10
421.115916
 20
192.885317
 30
0.0
  0
SPLINE
  5
241
100
AcDbEntity
  8
Layer_1
 62
1
100
AcDbSpline
 70
8
 71
3
 72
8
 73
4
 74
0
 40
0
 40
0
 40
0
 40
0
 40
1
 40
1
 40
1
 40
1
 10
283.039822
 20
154.216678
 30
0.0
 10
252.888338
 20
154.216678
 30
0.0
 10
228.614038
 20
146.461707
 30
0.0
 10
228.614038
 20
136.829958
 30
0.0
  0
LWPOLYLINE
  5
242
100
AcDbEntity
  8
Layer_1
 62
1
100
AcDbPolyline
 90
4
 70
1
 10
387.536399
 20
212.532217
 30
0.0
 10
385.835611
 20
212.532217
 30
0.0
 10
385.835611
 20
174.317926
 30
0.0
 10
387.536399
 20
174.317926
 30
0.0
  0
SPLINE
  5
243
100
AcDbEntity
  8
Layer_1
 62
1
100
AcDbSpline
 70
8
 71
3
 72
8
 73
4
 74
0
 40
0
 40
0
 40
0
 40
0
 40
1
 40
1
 40
1
 40
1
 10
228.614038
 20
96.011597
 30
0.0
 10
228.614038
 20
86.379849
 30
0.0
 10
252.888338
 20
78.624878
 30
0.0
 10
283.039822
 20
78.624878
 30
0.0
  0
LWPOLYLINE
  5
244
100
AcDbEntity
  8
Layer_1
 62
1
100
AcDbPolyline
 90
2
 70
0
 10
228.614038
 20
136.829958
 30
0.0
 10
228.614038
 20
96.011597
 30
0.0
  0
SPLINE
  5
245
100
AcDbEntity
  8
Layer_1
 62
1
100
AcDbSpline
 70
8
 71
3
 72
8
 73
4
 74
0
 40
0
 40
0
 40
0
 40
0
 40
1
 40
1
 40
1
 40
1
 10
400.961707
 20
78.624878
 30
0.0
 10
431.113188
 20
78.624878
 30
0.0
 10
455.387489
 20
86.379849
 30
0.0
 10
455.387489
 20
96.011597
 30
0.0
  0
LWPOLYLINE
  5
246
100
AcDbEntity
  8
Layer_1
 62
1
100
AcDbPolyline
 90
3
 70
0
 10
283.039822
 20
78.624878
 30
0.0
 10
342.000764
 20
78.624878
 30
0.0
 10
400.961707
 20
78.624878
 30
0.0
  0
SPLINE
  5
247
100
AcDbEntity
  8
Layer_1
 62
1
100
AcDbSpline
 70
8
 71
3
 72
8
 73
4
 74
0
 40
0
 40
0
 40
0
 40
0
 40
1
 40
1
 40
1
 40
1
 10
455.387489
 20
136.829958
 30
0.0
 10
455.387489
 20
146.461707
 30
0.0
 10
431.113188
 20
154.216678
 30
0.0
 10
400.961707
 20
154.216678
 30
0.0
  0
LWPOLYLINE
  5
248
100
AcDbEntity
  8
Layer_1
 62
1
100
AcDbPolyline
 90
2
 70
0
 10
455.387489
 20
96.011597
 30
0.0
 10
455.387489
 20
136.829958
 30
0.0
  0
SPLINE
  5
249
100
AcDbEntity
  8
Layer_1
 62
1
100
AcDbSpline
 70
8
 71
3
 72
8
 73
4
 74
0
 40
0
 40
0
 40
0
 40
0
 40
1
 40
1
 40
1
 40
1
 10
262.885343
 20
115.166622
 30
0.0
 10
262.885343
 20
113.445536
 30
0.0
 10
261.967154
 20
111.855187
 30
0.0
 10
260.476649
 20
110.994644
 30
0.0
  0
SPLINE
  5
24a
100
AcDbEntity
  8
Layer_1
 62
1
100
AcDbSpline
 70
8
 71
3
 72
8
 73
4
 74
0
 40
0
 40
0
 40
0
 40
0
 40
1
 40
1
 40
1
 40
1
 10
260.476649
 20
110.994644
 30
0.0
 10
258.986145
 20
110.134101
 30
0.0
 10
257.149768
 20
110.134101
 30
0.0
 10
255.659263
 20
110.994644
 30
0.0
  0
SPLINE
  5
24b
100
AcDbEntity
  8
Layer_1
 62
1
100
AcDbSpline
 70
8
 71
3
 72
8
 73
4
 74
0
 40
0
 40
0
 40
0
 40
0
 40
1
 40
1
 40
1
 40
1
 10
255.659263
 20
110.994644
 30
0.0
 10
254.168759
 20
111.855187
 30
0.0
 10
253.250570
 20
113.445536
 30
0.0
 10
253.250570
 20
115.166622
 30
0.0
  0
SPLINE
  5
24c
100
AcDbEntity
  8
Layer_1
 62
1
100
AcDbSpline
 70
8
 71
3
 72
8
 73
4
 74
0
 40
0
 40
0
 40
0
 40
0
 40
1
 40
1
 40
1
 40
1
 10
253.250570
 20
115.166622
 30
0.0
 10
253.250571
 20
117.827191
 30
0.0
 10
255.407388
 20
119.984007
 30
0.0
 10
258.067956
 20
119.984007
 30
0.0
  0
SPLINE
  5
24d
100
AcDbEntity
  8
Layer_1
 62
1
100
AcDbSpline
 70
8
 71
3
 72
8
 73
4
 74
0
 40
0
 40
0
 40
0
 40
0
 40
1
 40
1
 40
1
 40
1
 10
258.067956
 20
119.984007
 30
0.0
 10
260.728525
 20
119.984007
 30
0.0
 10
262.885342
 20
117.827191
 30
0.0
 10
262.885343
 20
115.166622
 30
0.0
  0
LWPOLYLINE
  5
24e
100
AcDbEntity
  8
Layer_1
 62
1
100
AcDbPolyline
 90
3
 70
0
 10
400.961707
 20
154.216678
 30
0.0
 10
342.000764
 20
154.216678
 30
0.0
 10
283.039822
 20
154.216678
 30
0.0
  0
LWPOLYLINE
  5
24f
100
AcDbEntity
  8
Layer_1
 62
1
100
AcDbPolyline
 90
1
 70
1
 10
262.885343
 20
115.166622
 30
0.0
  0
SPLINE
  5
250
100
AcDbEntity
  8
Layer_1
 62
1
100
AcDbSpline
 70
8
 71
3
 72
8
 73
4
 74
0
 40
0
 40
0
 40
0
 40
0
 40
1
 40
1
 40
1
 40
1
 10
421.115916
 20
115.166622
 30
0.0
 10
421.115916
 20
113.445536
 30
0.0
 10
422.034105
 20
111.855187
 30
0.0
 10
423.524609
 20
110.994644
 30
0.0
  0
SPLINE
  5
251
100
AcDbEntity
  8
Layer_1
 62
1
100
AcDbSpline
 70
8
 71
3
 72
8
 73
4
 74
0
 40
0
 40
0
 40
0
 40
0
 40
1
 40
1
 40
1
 40
1
 10
423.524609
 20
110.994644
 30
0.0
 10
425.015113
 20
110.134101
 30
0.0
 10
426.851491
 20
110.134101
 30
0.0
 10
428.341995
 20
110.994644
 30
0.0
  0
SPLINE
  5
252
100
AcDbEntity
  8
Layer_1
 62
1
100
AcDbSpline
 70
8
 71
3
 72
8
 73
4
 74
0
 40
0
 40
0
 40
0
 40
0
 40
1
 40
1
 40
1
 40
1
 10
428.341995
 20
110.994644
 30
0.0
 10
429.832500
 20
111.855187
 30
0.0
 10
430.750688
 20
113.445536
 30
0.0
 10
430.750688
 20
115.166622
 30
0.0
  0
SPLINE
  5
253
100
AcDbEntity
  8
Layer_1
 62
1
100
AcDbSpline
 70
8
 71
3
 72
8
 73
4
 74
0
 40
0
 40
0
 40
0
 40
0
 40
1
 40
1
 40
1
 40
1
 10
430.750688
 20
115.166622
 30
0.0
 10
430.750688
 20
116.887709
 30
0.0
 10
429.832500
 20
118.478058
 30
0.0
 10
428.341995
 20
119.338601
 30
0.0
  0
SPLINE
  5
254
100
AcDbEntity
  8
Layer_1
 62
1
100
AcDbSpline
 70
8
 71
3
 72
8
 73
4
 74
0
 40
0
 40
0
 40
0
 40
0
 40
1
 40
1
 40
1
 40
1
 10
428.341995
 20
119.338601
 30
0.0
 10
426.851491
 20
120.199144
 30
0.0
 10
425.015113
 20
120.199144
 30
0.0
 10
423.524609
 20
119.338601
 30
0.0
  0
SPLINE
  5
255
100
AcDbEntity
  8
Layer_1
 62
1
100
AcDbSpline
 70
8
 71
3
 72
8
 73
4
 74
0
 40
0
 40
0
 40
0
 40
0
 40
1
 40
1
 40
1
 40
1
 10
423.524609
 20
119.338601
 30
0.0
 10
422.034105
 20
118.478058
 30
0.0
 10
421.115916
 20
116.887709
 30
0.0
 10
421.115916
 20
115.166622
 30
0.0
  0
LWPOLYLINE
  5
256
100
AcDbEntity
  8
Layer_1
 62
1
100
AcDbPolyline
 90
4
 70
1
 10
296.464973
 20
134.813522
 30
0.0
 10
298.165760
 20
134.813522
 30
0.0
 10
298.165760
 20
96.599231
 30
0.0
 10
296.464973
 20
96.599231
 30
0.0
  0
LWPOLYLINE
  5
257
100
AcDbEntity
  8
Layer_1
 62
1
100
AcDbPolyline
 90
1
 70
1
 10
421.115916
 20
115.166622
 30
0.0
  0
SPLINE
  5
258
100
AcDbEntity
  8
Layer_1
 62
1
100
AcDbSpline
 70
8
 71
3
 72
8
 73
4
 74
0
 40
0
 40
0
 40
0
 40
0
 40
1
 40
1
 40
1
 40
1
 10
283.039822
 20
75.686292
 30
0.0
 10
252.888338
 20
75.686292
 30
0.0
 10
228.614038
 20
67.931321
 30
0.0
 10
228.614038
 20
58.299573
 30
0.0
  0
LWPOLYLINE
  5
259
100
AcDbEntity
  8
Layer_1
 62
1
100
AcDbPolyline
 90
4
 70
1
 10
387.536399
 20
134.813522
 30
0.0
 10
385.835611
 20
134.813522
 30
0.0
 10
385.835611
 20
96.599231
 30
0.0
 10
387.536399
 20
96.599231
 30
0.0
  0
SPLINE
  5
25a
100
AcDbEntity
  8
Layer_1
 62
1
100
AcDbSpline
 70
8
 71
3
 72
8
 73
4
 74
0
 40
0
 40
0
 40
0
 40
0
 40
1
 40
1
 40
1
 40
1
 10
228.614038
 20
17.481212
 30
0.0
 10
228.614038
 20
7.849463
 30
0.0
 10
252.888338
 20
0.094492
 30
0.0
 10
283.039822
 20
0.094492
 30
0.0
  0
LWPOLYLINE
  5
25b
100
AcDbEntity
  8
Layer_1
 62
1
100
AcDbPolyline
 90
2
 70
0
 10
228.614038
 20
58.299573
 30
0.0
 10
228.614038
 20
17.481212
 30
0.0
  0
SPLINE
  5
25c
100
AcDbEntity
  8
Layer_1
 62
1
100
AcDbSpline
 70
8
 71
3
 72
8
 73
4
 74
0
 40
0
 40
0
 40
0
 40
0
 40
1
 40
1
 40
1
 40
1
 10
400.961707
 20
0.094492
 30
0.0
 10
431.113188
 20
0.094492
 30
0.0
 10
455.387489
 20
7.849463
 30
0.0
 10
455.387489
 20
17.481212
 30
0.0
  0
LWPOLYLINE
  5
25d
100
AcDbEntity
  8
Layer_1
 62
1
100
AcDbPolyline
 90
3
 70
0
 10
283.039822
 20
0.094492
 30
0.0
 10
342.000764
 20
0.094492
 30
0.0
 10
400.961707
 20
0.094492
 30
0.0
  0
SPLINE
  5
25e
100
AcDbEntity
  8
Layer_1
 62
1
100
AcDbSpline
 70
8
 71
3
 72
8
 73
4
 74
0
 40
0
 40
0
 40
0
 40
0
 40
1
 40
1
 40
1
 40
1
 10
455.387489
 20
58.299573
 30
0.0
 10
455.387489
 20
67.931321
 30
0.0
 10
431.113188
 20
75.686292
 30
0.0
 10
400.961707
 20
75.686292
 30
0.0
  0
LWPOLYLINE
  5
25f
100
AcDbEntity
  8
Layer_1
 62
1
100
AcDbPolyline
 90
2
 70
0
 10
455.387489
 20
17.481212
 30
0.0
 10
455.387489
 20
58.299573
 30
0.0
  0
SPLINE
  5
260
100
AcDbEntity
  8
Layer_1
 62
1
100
AcDbSpline
 70
8
 71
3
 72
8
 73
4
 74
0
 40
0
 40
0
 40
0
 40
0
 40
1
 40
1
 40
1
 40
1
 10
262.885343
 20
36.636237
 30
0.0
 10
262.885343
 20
34.915150
 30
0.0
 10
261.967154
 20
33.324801
 30
0.0
 10
260.476649
 20
32.464258
 30
0.0
  0
SPLINE
  5
261
100
AcDbEntity
  8
Layer_1
 62
1
100
AcDbSpline
 70
8
 71
3
 72
8
 73
4
 74
0
 40
0
 40
0
 40
0
 40
0
 40
1
 40
1
 40
1
 40
1
 10
260.476649
 20
32.464258
 30
0.0
 10
258.986145
 20
31.603715
 30
0.0
 10
257.149768
 20
31.603715
 30
0.0
 10
255.659263
 20
32.464258
 30
0.0
  0
SPLINE
  5
262
100
AcDbEntity
  8
Layer_1
 62
1
100
AcDbSpline
 70
8
 71
3
 72
8
 73
4
 74
0
 40
0
 40
0
 40
0
 40
0
 40
1
 40
1
 40
1
 40
1
 10
255.659263
 20
32.464258
 30
0.0
 10
254.168759
 20
33.324801
 30
0.0
 10
253.250570
 20
34.915150
 30
0.0
 10
253.250570
 20
36.636237
 30
0.0
  0
SPLINE
  5
263
100
AcDbEntity
  8
Layer_1
 62
1
100
AcDbSpline
 70
8
 71
3
 72
8
 73
4
 74
0
 40
0
 40
0
 40
0
 40
0
 40
1
 40
1
 40
1
 40
1
 10
253.250570
 20
36.636237
 30
0.0
 10
253.250571
 20
39.296805
 30
0.0
 10
255.407388
 20
41.453622
 30
0.0
 10
258.067956
 20
41.453622
 30
0.0
  0
SPLINE
  5
264
100
AcDbEntity
  8
Layer_1
 62
1
100
AcDbSpline
 70
8
 71
3
 72
8
 73
4
 74
0
 40
0
 40
0
 40
0
 40
0
 40
1
 40
1
 40
1
 40
1
 10
258.067956
 20
41.453622
 30
0.0
 10
260.728525
 20
41.453622
 30
0.0
 10
262.885342
 20
39.296805
 30
0.0
 10
262.885343
 20
36.636237
 30
0.0
  0
LWPOLYLINE
  5
265
100
AcDbEntity
  8
Layer_1
 62
1
100
AcDbPolyline
 90
3
 70
0
 10
400.961707
 20
75.686292
 30
0.0
 10
342.000764
 20
75.686292
 30
0.0
 10
283.039822
 20
75.686292
 30
0.0
  0
LWPOLYLINE
  5
266
100
AcDbEntity
  8
Layer_1
 62
1
100
AcDbPolyline
 90
1
 70
1
 10
262.885343
 20
36.636237
 30
0.0
  0
SPLINE
  5
267
100
AcDbEntity
  8
Layer_1
 62
1
100
AcDbSpline
 70
8
 71
3
 72
8
 73
4
 74
0
 40
0
 40
0
 40
0
 40
0
 40
1
 40
1
 40
1
 40
1
 10
421.115916
 20
36.636237
 30
0.0
 10
421.115916
 20
34.915150
 30
0.0
 10
422.034105
 20
33.324801
 30
0.0
 10
423.524609
 20
32.464258
 30
0.0
  0
SPLINE
  5
268
100
AcDbEntity
  8
Layer_1
 62
1
100
AcDbSpline
 70
8
 71
3
 72
8
 73
4
 74
0
 40
0
 40
0
 40
0
 40
0
 40
1
 40
1
 40
1
 40
1
 10
423.524609
 20
32.464258
 30
0.0
 10
425.015113
 20
31.603715
 30
0.0
 10
426.851491
 20
31.603715
 30
0.0
 10
428.341995
 20
32.464258
 30
0.0
  0
SPLINE
  5
269
100
AcDbEntity
  8
Layer_1
 62
1
100
AcDbSpline
 70
8
 71
3
 72
8
 73
4
 74
0
 40
0
 40
0
 40
0
 40
0
 40
1
 40
1
 40
1
 40
1
 10
428.341995
 20
32.464258
 30
0.0
 10
429.832500
 20
33.324801
 30
0.0
 10
430.750688
 20
34.915150
 30
0.0
 10
430.750688
 20
36.636237
 30
0.0
  0
SPLINE
  5
26a
100
AcDbEntity
  8
Layer_1
 62
1
100
AcDbSpline
 70
8
 71
3
 72
8
 73
4
 74
0
 40
0
 40
0
 40
0
 40
0
 40
1
 40
1
 40
1
 40
1
 10
430.750688
 20
36.636237
 30
0.0
 10
430.750688
 20
38.357323
 30
0.0
 10
429.832500
 20
39.947672
 30
0.0
 10
428.341995
 20
40.808215
 30
0.0
  0
SPLINE
  5
26b
100
AcDbEntity
  8
Layer_1
 62
1
100
AcDbSpline
 70
8
 71
3
 72
8
 73
4
 74
0
 40
0
 40
0
 40
0
 40
0
 40
1
 40
1
 40
1
 40
1
 10
428.341995
 20
40.808215
 30
0.0
 10
426.851491
 20
41.668758
 30
0.0
 10
425.015113
 20
41.668758
 30
0.0
 10
423.524609
 20
40.808215
 30
0.0
  0
SPLINE
  5
26c
100
AcDbEntity
  8
Layer_1
 62
1
100
AcDbSpline
 70
8
 71
3
 72
8
 73
4
 74
0
 40
0
 40
0
 40
0
 40
0
 40
1
 40
1
 40
1
 40
1
 10
423.524609
 20
40.808215
 30
0.0
 10
422.034105
 20
39.947672
 30
0.0
 10
421.115916
 20
38.357323
 30
0.0
 10
421.115916
 20
36.636237
 30
0.0
  0
LWPOLYLINE
  5
26d
100
AcDbEntity
  8
Layer_1
 62
1
100
AcDbPolyline
 90
4
 70
1
 10
296.464973
 20
56.283137
 30
0.0
 10
298.165760
 20
56.283137
 30
0.0
 10
298.165760
 20
18.068845
 30
0.0
 10
296.464973
 20
18.068845
 30
0.0
  0
LWPOLYLINE
  5
26e
100
AcDbEntity
  8
Layer_1
 62
1
100
AcDbPolyline
 90
1
 70
1
 10
421.115916
 20
36.636237
 30
0.0
  0
SPLINE
  5
26f
100
AcDbEntity
  8
Layer_1
 62
1
100
AcDbSpline
 70
8
 71
3
 72
8
 73
4
 74
0
 40
0
 40
0
 40
0
 40
0
 40
1
 40
1
 40
1
 40
1
 10
511.637243
 20
623.965910
 30
0.0
 10
481.485759
 20
623.965910
 30
0.0
 10
457.211460
 20
616.210939
 30
0.0
 10
457.211460
 20
606.579190
 30
0.0
  0
LWPOLYLINE
  5
270
100
AcDbEntity
  8
Layer_1
 62
1
100
AcDbPolyline
 90
4
 70
1
 10
387.536399
 20
56.283137
 30
0.0
 10
385.835611
 20
56.283137
 30
0.0
 10
385.835611
 20
18.068845
 30
0.0
 10
387.536399
 20
18.068845
 30
0.0
  0
SPLINE
  5
271
100
AcDbEntity
  8
Layer_1
 62
1
100
AcDbSpline
 70
8
 71
3
 72
8
 73
4
 74
0
 40
0
 40
0
 40
0
 40
0
 40
1
 40
1
 40
1
 40
1
 10
457.211460
 20
565.760829
 30
0.0
 10
457.211460
 20
556.129081
 30
0.0
 10
481.485759
 20
548.374109
 30
0.0
 10
511.637243
 20
548.374109
 30
0.0
  0
LWPOLYLINE
  5
272
100
AcDbEntity
  8
Layer_1
 62
1
100
AcDbPolyline
 90
2
 70
0
 10
457.211460
 20
606.579190
 30
0.0
 10
457.211460
 20
565.760829
 30
0.0
  0
SPLINE
  5
273
100
AcDbEntity
  8
Layer_1
 62
1
100
AcDbSpline
 70
8
 71
3
 72
8
 73
4
 74
0
 40
0
 40
0
 40
0
 40
0
 40
1
 40
1
 40
1
 40
1
 10
629.559128
 20
548.374109
 30
0.0
 10
659.710609
 20
548.374109
 30
0.0
 10
683.984910
 20
556.129081
 30
0.0
 10
683.984910
 20
565.760829
 30
0.0
  0
LWPOLYLINE
  5
274
100
AcDbEntity
  8
Layer_1
 62
1
100
AcDbPolyline
 90
3
 70
0
 10
511.637243
 20
548.374109
 30
0.0
 10
570.598185
 20
548.374109
 30
0.0
 10
629.559128
 20
548.374109
 30
0.0
  0
SPLINE
  5
275
100
AcDbEntity
  8
Layer_1
 62
1
100
AcDbSpline
 70
8
 71
3
 72
8
 73
4
 74
0
 40
0
 40
0
 40
0
 40
0
 40
1
 40
1
 40
1
 40
1
 10
683.984910
 20
606.579190
 30
0.0
 10
683.984910
 20
616.210939
 30
0.0
 10
659.710609
 20
623.965910
 30
0.0
 10
629.559128
 20
623.965910
 30
0.0
  0
LWPOLYLINE
  5
276
100
AcDbEntity
  8
Layer_1
 62
1
100
AcDbPolyline
 90
2
 70
0
 10
683.984910
 20
565.760829
 30
0.0
 10
683.984910
 20
606.579190
 30
0.0
  0
SPLINE
  5
277
100
AcDbEntity
  8
Layer_1
 62
1
100
AcDbSpline
 70
8
 71
3
 72
8
 73
4
 74
0
 40
0
 40
0
 40
0
 40
0
 40
1
 40
1
 40
1
 40
1
 10
491.482764
 20
584.915854
 30
0.0
 10
491.482764
 20
583.194768
 30
0.0
 10
490.564575
 20
581.604418
 30
0.0
 10
489.074071
 20
580.743875
 30
0.0
  0
SPLINE
  5
278
100
AcDbEntity
  8
Layer_1
 62
1
100
AcDbSpline
 70
8
 71
3
 72
8
 73
4
 74
0
 40
0
 40
0
 40
0
 40
0
 40
1
 40
1
 40
1
 40
1
 10
489.074071
 20
580.743875
 30
0.0
 10
487.583566
 20
579.883332
 30
0.0
 10
485.747189
 20
579.883332
 30
0.0
 10
484.256684
 20
580.743875
 30
0.0
  0
SPLINE
  5
279
100
AcDbEntity
  8
Layer_1
 62
1
100
AcDbSpline
 70
8
 71
3
 72
8
 73
4
 74
0
 40
0
 40
0
 40
0
 40
0
 40
1
 40
1
 40
1
 40
1
 10
484.256684
 20
580.743875
 30
0.0
 10
482.766180
 20
581.604418
 30
0.0
 10
481.847991
 20
583.194768
 30
0.0
 10
481.847991
 20
584.915854
 30
0.0
  0
SPLINE
  5
27a
100
AcDbEntity
  8
Layer_1
 62
1
100
AcDbSpline
 70
8
 71
3
 72
8
 73
4
 74
0
 40
0
 40
0
 40
0
 40
0
 40
1
 40
1
 40
1
 40
1
 10
481.847991
 20
584.915854
 30
0.0
 10
481.847992
 20
587.576422
 30
0.0
 10
484.004809
 20
589.733239
 30
0.0
 10
486.665378
 20
589.733239
 30
0.0
  0
SPLINE
  5
27b
100
AcDbEntity
  8
Layer_1
 62
1
100
AcDbSpline
 70
8
 71
3
 72
8
 73
4
 74
0
 40
0
 40
0
 40
0
 40
0
 40
1
 40
1
 40
1
 40
1
 10
486.665378
 20
589.733239
 30
0.0
 10
489.325946
 20
589.733239
 30
0.0
 10
491.482763
 20
587.576422
 30
0.0
 10
491.482764
 20
584.915854
 30
0.0
  0
LWPOLYLINE
  5
27c
100
AcDbEntity
  8
Layer_1
 62
1
100
AcDbPolyline
 90
3
 70
0
 10
629.559128
 20
623.965910
 30
0.0
 10
570.598185
 20
623.965910
 30
0.0
 10
511.637243
 20
623.965910
 30
0.0
  0
LWPOLYLINE
  5
27d
100
AcDbEntity
  8
Layer_1
 62
1
100
AcDbPolyline
 90
1
 70
1
 10
491.482764
 20
584.915854
 30
0.0
  0
SPLINE
  5
27e
100
AcDbEntity
  8
Layer_1
 62
1
100
AcDbSpline
 70
8
 71
3
 72
8
 73
4
 74
0
 40
0
 40
0
 40
0
 40
0
 40
1
 40
1
 40
1
 40
1
 10
649.713337
 20
584.915854
 30
0.0
 10
649.713337
 20
583.194768
 30
0.0
 10
650.631526
 20
581.604418
 30
0.0
 10
652.122030
 20
580.743875
 30
0.0
  0
SPLINE
  5
27f
100
AcDbEntity
  8
Layer_1
 62
1
100
AcDbSpline
 70
8
 71
3
 72
8
 73
4
 74
0
 40
0
 40
0
 40
0
 40
0
 40
1
 40
1
 40
1
 40
1
 10
652.122030
 20
580.743875
 30
0.0
 10
653.612535
 20
579.883332
 30
0.0
 10
655.448912
 20
579.883332
 30
0.0
 10
656.939416
 20
580.743875
 30
0.0
  0
SPLINE
  5
280
100
AcDbEntity
  8
Layer_1
 62
1
100
AcDbSpline
 70
8
 71
3
 72
8
 73
4
 74
0
 40
0
 40
0
 40
0
 40
0
 40
1
 40
1
 40
1
 40
1
 10
656.939416
 20
580.743875
 30
0.0
 10
658.429921
 20
581.604418
 30
0.0
 10
659.348109
 20
583.194768
 30
0.0
 10
659.348109
 20
584.915854
 30
0.0
  0
SPLINE
  5
281
100
AcDbEntity
  8
Layer_1
 62
1
100
AcDbSpline
 70
8
 71
3
 72
8
 73
4
 74
0
 40
0
 40
0
 40
0
 40
0
 40
1
 40
1
 40
1
 40
1
 10
659.348109
 20
584.915854
 30
0.0
 10
659.348109
 20
586.636940
 30
0.0
 10
658.429921
 20
588.227290
 30
0.0
 10
656.939416
 20
589.087833
 30
0.0
  0
SPLINE
  5
282
100
AcDbEntity
  8
Layer_1
 62
1
100
AcDbSpline
 70
8
 71
3
 72
8
 73
4
 74
0
 40
0
 40
0
 40
0
 40
0
 40
1
 40
1
 40
1
 40
1
 10
656.939416
 20
589.087833
 30
0.0
 10
655.448912
 20
589.948376
 30
0.0
 10
653.612535
 20
589.948376
 30
0.0
 10
652.122030
 20
589.087833
 30
0.0
  0
SPLINE
  5
283
100
AcDbEntity
  8
Layer_1
 62
1
100
AcDbSpline
 70
8
 71
3
 72
8
 73
4
 74
0
 40
0
 40
0
 40
0
 40
0
 40
1
 40
1
 40
1
 40
1
 10
652.122030
 20
589.087833
 30
0.0
 10
650.631526
 20
588.227290
 30
0.0
 10
649.713337
 20
586.636940
 30
0.0
 10
649.713337
 20
584.915854
 30
0.0
  0
LWPOLYLINE
  5
284
100
AcDbEntity
  8
Layer_1
 62
1
100
AcDbPolyline
 90
4
 70
1
 10
525.062394
 20
604.562754
 30
0.0
 10
526.763181
 20
604.562754
 30
0.0
 10
526.763181
 20
566.348463
 30
0.0
 10
525.062394
 20
566.348463
 30
0.0
  0
LWPOLYLINE
  5
285
100
AcDbEntity
  8
Layer_1
 62
1
100
AcDbPolyline
 90
1
 70
1
 10
649.713337
 20
584.915854
 30
0.0
  0
SPLINE
  5
286
100
AcDbEntity
  8
Layer_1
 62
1
100
AcDbSpline
 70
8
 71
3
 72
8
 73
4
 74
0
 40
0
 40
0
 40
0
 40
0
 40
1
 40
1
 40
1
 40
1
 10
511.637243
 20
545.435532
 30
0.0
 10
481.485759
 20
545.435532
 30
0.0
 10
457.211460
 20
537.680560
 30
0.0
 10
457.211460
 20
528.048812
 30
0.0
  0
LWPOLYLINE
  5
287
100
AcDbEntity
  8
Layer_1
 62
1
100
AcDbPolyline
 90
4
 70
1
 10
616.133820
 20
604.562754
 30
0.0
 10
614.433033
 20
604.562754
 30
0.0
 10
614.433033
 20
566.348463
 30
0.0
 10
616.133820
 20
566.348463
 30
0.0
  0
SPLINE
  5
288
100
AcDbEntity
  8
Layer_1
 62
1
100
AcDbSpline
 70
8
 71
3
 72
8
 73
4
 74
0
 40
0
 40
0
 40
0
 40
0
 40
1
 40
1
 40
1
 40
1
 10
457.211460
 20
487.230451
 30
0.0
 10
457.211460
 20
477.598702
 30
0.0
 10
481.485759
 20
469.843731
 30
0.0
 10
511.637243
 20
469.843731
 30
0.0
  0
LWPOLYLINE
  5
289
100
AcDbEntity
  8
Layer_1
 62
1
100
AcDbPolyline
 90
2
 70
0
 10
457.211460
 20
528.048812
 30
0.0
 10
457.211460
 20
487.230451
 30
0.0
  0
SPLINE
  5
28a
100
AcDbEntity
  8
Layer_1
 62
1
100
AcDbSpline
 70
8
 71
3
 72
8
 73
4
 74
0
 40
0
 40
0
 40
0
 40
0
 40
1
 40
1
 40
1
 40
1
 10
629.559128
 20
469.843731
 30
0.0
 10
659.710609
 20
469.843731
 30
0.0
 10
683.984910
 20
477.598702
 30
0.0
 10
683.984910
 20
487.230451
 30
0.0
  0
LWPOLYLINE
  5
28b
100
AcDbEntity
  8
Layer_1
 62
1
100
AcDbPolyline
 90
3
 70
0
 10
511.637243
 20
469.843731
 30
0.0
 10
570.598185
 20
469.843731
 30
0.0
 10
629.559128
 20
469.843731
 30
0.0
  0
SPLINE
  5
28c
100
AcDbEntity
  8
Layer_1
 62
1
100
AcDbSpline
 70
8
 71
3
 72
8
 73
4
 74
0
 40
0
 40
0
 40
0
 40
0
 40
1
 40
1
 40
1
 40
1
 10
683.984910
 20
528.048812
 30
0.0
 10
683.984910
 20
537.680560
 30
0.0
 10
659.710609
 20
545.435532
 30
0.0
 10
629.559128
 20
545.435532
 30
0.0
  0
LWPOLYLINE
  5
28d
100
AcDbEntity
  8
Layer_1
 62
1
100
AcDbPolyline
 90
2
 70
0
 10
683.984910
 20
487.230451
 30
0.0
 10
683.984910
 20
528.048812
 30
0.0
  0
SPLINE
  5
28e
100
AcDbEntity
  8
Layer_1
 62
1
100
AcDbSpline
 70
8
 71
3
 72
8
 73
4
 74
0
 40
0
 40
0
 40
0
 40
0
 40
1
 40
1
 40
1
 40
1
 10
491.482764
 20
506.385476
 30
0.0
 10
491.482764
 20
504.664389
 30
0.0
 10
490.564575
 20
503.074040
 30
0.0
 10
489.074071
 20
502.213497
 30
0.0
  0
SPLINE
  5
28f
100
AcDbEntity
  8
Layer_1
 62
1
100
AcDbSpline
 70
8
 71
3
 72
8
 73
4
 74
0
 40
0
 40
0
 40
0
 40
0
 40
1
 40
1
 40
1
 40
1
 10
489.074071
 20
502.213497
 30
0.0
 10
487.583566
 20
501.352954
 30
0.0
 10
485.747189
 20
501.352954
 30
0.0
 10
484.256684
 20
502.213497
 30
0.0
  0
SPLINE
  5
290
100
AcDbEntity
  8
Layer_1
 62
1
100
AcDbSpline
 70
8
 71
3
 72
8
 73
4
 74
0
 40
0
 40
0
 40
0
 40
0
 40
1
 40
1
 40
1
 40
1
 10
484.256684
 20
502.213497
 30
0.0
 10
482.766180
 20
503.074040
 30
0.0
 10
481.847991
 20
504.664389
 30
0.0
 10
481.847991
 20
506.385476
 30
0.0
  0
SPLINE
  5
291
100
AcDbEntity
  8
Layer_1
 62
1
100
AcDbSpline
 70
8
 71
3
 72
8
 73
4
 74
0
 40
0
 40
0
 40
0
 40
0
 40
1
 40
1
 40
1
 40
1
 10
481.847991
 20
506.385476
 30
0.0
 10
481.847992
 20
509.046044
 30
0.0
 10
484.004809
 20
511.202861
 30
0.0
 10
486.665378
 20
511.202861
 30
0.0
  0
SPLINE
  5
292
100
AcDbEntity
  8
Layer_1
 62
1
100
AcDbSpline
 70
8
 71
3
 72
8
 73
4
 74
0
 40
0
 40
0
 40
0
 40
0
 40
1
 40
1
 40
1
 40
1
 10
486.665378
 20
511.202861
 30
0.0
 10
489.325946
 20
511.202861
 30
0.0
 10
491.482763
 20
509.046044
 30
0.0
 10
491.482764
 20
506.385476
 30
0.0
  0
LWPOLYLINE
  5
293
100
AcDbEntity
  8
Layer_1
 62
1
100
AcDbPolyline
 90
3
 70
0
 10
629.559128
 20
545.435532
 30
0.0
 10
570.598185
 20
545.435532
 30
0.0
 10
511.637243
 20
545.435532
 30
0.0
  0
LWPOLYLINE
  5
294
100
AcDbEntity
  8
Layer_1
 62
1
100
AcDbPolyline
 90
1
 70
1
 10
491.482764
 20
506.385476
 30
0.0
  0
SPLINE
  5
295
100
AcDbEntity
  8
Layer_1
 62
1
100
AcDbSpline
 70
8
 71
3
 72
8
 73
4
 74
0
 40
0
 40
0
 40
0
 40
0
 40
1
 40
1
 40
1
 40
1
 10
649.713337
 20
506.385476
 30
0.0
 10
649.713337
 20
504.664389
 30
0.0
 10
650.631526
 20
503.074040
 30
0.0
 10
652.122030
 20
502.213497
 30
0.0
  0
SPLINE
  5
296
100
AcDbEntity
  8
Layer_1
 62
1
100
AcDbSpline
 70
8
 71
3
 72
8
 73
4
 74
0
 40
0
 40
0
 40
0
 40
0
 40
1
 40
1
 40
1
 40
1
 10
652.122030
 20
502.213497
 30
0.0
 10
653.612535
 20
501.352954
 30
0.0
 10
655.448912
 20
501.352954
 30
0.0
 10
656.939416
 20
502.213497
 30
0.0
  0
SPLINE
  5
297
100
AcDbEntity
  8
Layer_1
 62
1
100
AcDbSpline
 70
8
 71
3
 72
8
 73
4
 74
0
 40
0
 40
0
 40
0
 40
0
 40
1
 40
1
 40
1
 40
1
 10
656.939416
 20
502.213497
 30
0.0
 10
658.429921
 20
503.074040
 30
0.0
 10
659.348109
 20
504.664389
 30
0.0
 10
659.348109
 20
506.385476
 30
0.0
  0
SPLINE
  5
298
100
AcDbEntity
  8
Layer_1
 62
1
100
AcDbSpline
 70
8
 71
3
 72
8
 73
4
 74
0
 40
0
 40
0
 40
0
 40
0
 40
1
 40
1
 40
1
 40
1
 10
659.348109
 20
506.385476
 30
0.0
 10
659.348109
 20
508.106562
 30
0.0
 10
658.429921
 20
509.696911
 30
0.0
 10
656.939416
 20
510.557454
 30
0.0
  0
SPLINE
  5
299
100
AcDbEntity
  8
Layer_1
 62
1
100
AcDbSpline
 70
8
 71
3
 72
8
 73
4
 74
0
 40
0
 40
0
 40
0
 40
0
 40
1
 40
1
 40
1
 40
1
 10
656.939416
 20
510.557454
 30
0.0
 10
655.448912
 20
511.417998
 30
0.0
 10
653.612535
 20
511.417998
 30
0.0
 10
652.122030
 20
510.557454
 30
0.0
  0
SPLINE
  5
29a
100
AcDbEntity
  8
Layer_1
 62
1
100
AcDbSpline
 70
8
 71
3
 72
8
 73
4
 74
0
 40
0
 40
0
 40
0
 40
0
 40
1
 40
1
 40
1
 40
1
 10
652.122030
 20
510.557454
 30
0.0
 10
650.631526
 20
509.696911
 30
0.0
 10
649.713337
 20
508.106562
 30
0.0
 10
649.713337
 20
506.385476
 30
0.0
  0
LWPOLYLINE
  5
29b
100
AcDbEntity
  8
Layer_1
 62
1
100
AcDbPolyline
 90
4
 70
1
 10
525.062394
 20
526.032376
 30
0.0
 10
526.763181
 20
526.032376
 30
0.0
 10
526.763181
 20
487.818084
 30
0.0
 10
525.062394
 20
487.818084
 30
0.0
  0
LWPOLYLINE
  5
29c
100
AcDbEntity
  8
Layer_1
 62
1
100
AcDbPolyline
 90
1
 70
1
 10
649.713337
 20
506.385476
 30
0.0
  0
SPLINE
  5
29d
100
AcDbEntity
  8
Layer_1
 62
1
100
AcDbSpline
 70
8
 71
3
 72
8
 73
4
 74
0
 40
0
 40
0
 40
0
 40
0
 40
1
 40
1
 40
1
 40
1
 10
511.637243
 20
467.716807
 30
0.0
 10
481.485759
 20
467.716807
 30
0.0
 10
457.211460
 20
459.961836
 30
0.0
 10
457.211460
 20
450.330087
 30
0.0
  0
LWPOLYLINE
  5
29e
100
AcDbEntity
  8
Layer_1
 62
1
100
AcDbPolyline
 90
4
 70
1
 10
616.133820
 20
526.032376
 30
0.0
 10
614.433033
 20
526.032376
 30
0.0
 10
614.433033
 20
487.818084
 30
0.0
 10
616.133820
 20
487.818084
 30
0.0
  0
SPLINE
  5
29f
100
AcDbEntity
  8
Layer_1
 62
1
100
AcDbSpline
 70
8
 71
3
 72
8
 73
4
 74
0
 40
0
 40
0
 40
0
 40
0
 40
1
 40
1
 40
1
 40
1
 10
457.211460
 20
409.511726
 30
0.0
 10
457.211460
 20
399.879978
 30
0.0
 10
481.485759
 20
392.125006
 30
0.0
 10
511.637243
 20
392.125006
 30
0.0
  0
LWPOLYLINE
  5
2a0
100
AcDbEntity
  8
Layer_1
 62
1
100
AcDbPolyline
 90
2
 70
0
 10
457.211460
 20
450.330087
 30
0.0
 10
457.211460
 20
409.511726
 30
0.0
  0
SPLINE
  5
2a1
100
AcDbEntity
  8
Layer_1
 62
1
100
AcDbSpline
 70
8
 71
3
 72
8
 73
4
 74
0
 40
0
 40
0
 40
0
 40
0
 40
1
 40
1
 40
1
 40
1
 10
629.559128
 20
392.125006
 30
0.0
 10
659.710609
 20
392.125006
 30
0.0
 10
683.984910
 20
399.879978
 30
0.0
 10
683.984910
 20
409.511726
 30
0.0
  0
LWPOLYLINE
  5
2a2
100
AcDbEntity
  8
Layer_1
 62
1
100
AcDbPolyline
 90
3
 70
0
 10
511.637243
 20
392.125006
 30
0.0
 10
570.598185
 20
392.125006
 30
0.0
 10
629.559128
 20
392.125006
 30
0.0
  0
SPLINE
  5
2a3
100
AcDbEntity
  8
Layer_1
 62
1
100
AcDbSpline
 70
8
 71
3
 72
8
 73
4
 74
0
 40
0
 40
0
 40
0
 40
0
 40
1
 40
1
 40
1
 40
1
 10
683.984910
 20
450.330087
 30
0.0
 10
683.984910
 20
459.961836
 30
0.0
 10
659.710609
 20
467.716807
 30
0.0
 10
629.559128
 20
467.716807
 30
0.0
  0
LWPOLYLINE
  5
2a4
100
AcDbEntity
  8
Layer_1
 62
1
100
AcDbPolyline
 90
2
 70
0
 10
683.984910
 20
409.511726
 30
0.0
 10
683.984910
 20
450.330087
 30
0.0
  0
SPLINE
  5
2a5
100
AcDbEntity
  8
Layer_1
 62
1
100
AcDbSpline
 70
8
 71
3
 72
8
 73
4
 74
0
 40
0
 40
0
 40
0
 40
0
 40
1
 40
1
 40
1
 40
1
 10
491.482764
 20
428.666751
 30
0.0
 10
491.482764
 20
426.945665
 30
0.0
 10
490.564575
 20
425.355315
 30
0.0
 10
489.074071
 20
424.494772
 30
0.0
  0
SPLINE
  5
2a6
100
AcDbEntity
  8
Layer_1
 62
1
100
AcDbSpline
 70
8
 71
3
 72
8
 73
4
 74
0
 40
0
 40
0
 40
0
 40
0
 40
1
 40
1
 40
1
 40
1
 10
489.074071
 20
424.494772
 30
0.0
 10
487.583566
 20
423.634229
 30
0.0
 10
485.747189
 20
423.634229
 30
0.0
 10
484.256684
 20
424.494772
 30
0.0
  0
SPLINE
  5
2a7
100
AcDbEntity
  8
Layer_1
 62
1
100
AcDbSpline
 70
8
 71
3
 72
8
 73
4
 74
0
 40
0
 40
0
 40
0
 40
0
 40
1
 40
1
 40
1
 40
1
 10
484.256684
 20
424.494772
 30
0.0
 10
482.766180
 20
425.355315
 30
0.0
 10
481.847991
 20
426.945665
 30
0.0
 10
481.847991
 20
428.666751
 30
0.0
  0
SPLINE
  5
2a8
100
AcDbEntity
  8
Layer_1
 62
1
100
AcDbSpline
 70
8
 71
3
 72
8
 73
4
 74
0
 40
0
 40
0
 40
0
 40
0
 40
1
 40
1
 40
1
 40
1
 10
481.847991
 20
428.666751
 30
0.0
 10
481.847992
 20
431.327319
 30
0.0
 10
484.004809
 20
433.484136
 30
0.0
 10
486.665378
 20
433.484136
 30
0.0
  0
SPLINE
  5
2a9
100
AcDbEntity
  8
Layer_1
 62
1
100
AcDbSpline
 70
8
 71
3
 72
8
 73
4
 74
0
 40
0
 40
0
 40
0
 40
0
 40
1
 40
1
 40
1
 40
1
 10
486.665378
 20
433.484136
 30
0.0
 10
489.325946
 20
433.484136
 30
0.0
 10
491.482763
 20
431.327319
 30
0.0
 10
491.482764
 20
428.666751
 30
0.0
  0
LWPOLYLINE
  5
2aa
100
AcDbEntity
  8
Layer_1
 62
1
100
AcDbPolyline
 90
3
 70
0
 10
629.559128
 20
467.716807
 30
0.0
 10
570.598185
 20
467.716807
 30
0.0
 10
511.637243
 20
467.716807
 30
0.0
  0
LWPOLYLINE
  5
2ab
100
AcDbEntity
  8
Layer_1
 62
1
100
AcDbPolyline
 90
1
 70
1
 10
491.482764
 20
428.666751
 30
0.0
  0
SPLINE
  5
2ac
100
AcDbEntity
  8
Layer_1
 62
1
100
AcDbSpline
 70
8
 71
3
 72
8
 73
4
 74
0
 40
0
 40
0
 40
0
 40
0
 40
1
 40
1
 40
1
 40
1
 10
649.713337
 20
428.666751
 30
0.0
 10
649.713337
 20
426.945665
 30
0.0
 10
650.631526
 20
425.355315
 30
0.0
 10
652.122030
 20
424.494772
 30
0.0
  0
SPLINE
  5
2ad
100
AcDbEntity
  8
Layer_1
 62
1
100
AcDbSpline
 70
8
 71
3
 72
8
 73
4
 74
0
 40
0
 40
0
 40
0
 40
0
 40
1
 40
1
 40
1
 40
1
 10
652.122030
 20
424.494772
 30
0.0
 10
653.612535
 20
423.634229
 30
0.0
 10
655.448912
 20
423.634229
 30
0.0
 10
656.939416
 20
424.494772
 30
0.0
  0
SPLINE
  5
2ae
100
AcDbEntity
  8
Layer_1
 62
1
100
AcDbSpline
 70
8
 71
3
 72
8
 73
4
 74
0
 40
0
 40
0
 40
0
 40
0
 40
1
 40
1
 40
1
 40
1
 10
656.939416
 20
424.494772
 30
0.0
 10
658.429921
 20
425.355315
 30
0.0
 10
659.348109
 20
426.945665
 30
0.0
 10
659.348109
 20
428.666751
 30
0.0
  0
SPLINE
  5
2af
100
AcDbEntity
  8
Layer_1
 62
1
100
AcDbSpline
 70
8
 71
3
 72
8
 73
4
 74
0
 40
0
 40
0
 40
0
 40
0
 40
1
 40
1
 40
1
 40
1
 10
659.348109
 20
428.666751
 30
0.0
 10
659.348109
 20
430.387837
 30
0.0
 10
658.429921
 20
431.978187
 30
0.0
 10
656.939416
 20
432.838730
 30
0.0
  0
SPLINE
  5
2b0
100
AcDbEntity
  8
Layer_1
 62
1
100
AcDbSpline
 70
8
 71
3
 72
8
 73
4
 74
0
 40
0
 40
0
 40
0
 40
0
 40
1
 40
1
 40
1
 40
1
 10
656.939416
 20
432.838730
 30
0.0
 10
655.448912
 20
433.699273
 30
0.0
 10
653.612535
 20
433.699273
 30
0.0
 10
652.122030
 20
432.838730
 30
0.0
  0
SPLINE
  5
2b1
100
AcDbEntity
  8
Layer_1
 62
1
100
AcDbSpline
 70
8
 71
3
 72
8
 73
4
 74
0
 40
0
 40
0
 40
0
 40
0
 40
1
 40
1
 40
1
 40
1
 10
652.122030
 20
432.838730
 30
0.0
 10
650.631526
 20
431.978187
 30
0.0
 10
649.713337
 20
430.387837
 30
0.0
 10
649.713337
 20
428.666751
 30
0.0
  0
LWPOLYLINE
  5
2b2
100
AcDbEntity
  8
Layer_1
 62
1
100
AcDbPolyline
 90
4
 70
1
 10
525.062394
 20
448.313651
 30
0.0
 10
526.763181
 20
448.313651
 30
0.0
 10
526.763181
 20
410.099360
 30
0.0
 10
525.062394
 20
410.099360
 30
0.0
  0
LWPOLYLINE
  5
2b3
100
AcDbEntity
  8
Layer_1
 62
1
100
AcDbPolyline
 90
1
 70
1
 10
649.713337
 20
428.666751
 30
0.0
  0
SPLINE
  5
2b4
100
AcDbEntity
  8
Layer_1
 62
1
100
AcDbSpline
 70
8
 71
3
 72
8
 73
4
 74
0
 40
0
 40
0
 40
0
 40
0
 40
1
 40
1
 40
1
 40
1
 10
511.637243
 20
389.186432
 30
0.0
 10
481.485759
 20
389.186432
 30
0.0
 10
457.211460
 20
381.431461
 30
0.0
 10
457.211460
 20
371.799712
 30
0.0
  0
LWPOLYLINE
  5
2b5
100
AcDbEntity
  8
Layer_1
 62
1
100
AcDbPolyline
 90
4
 70
1
 10
616.133820
 20
448.313651
 30
0.0
 10
614.433033
 20
448.313651
 30
0.0
 10
614.433033
 20
410.099360
 30
0.0
 10
616.133820
 20
410.099360
 30
0.0
  0
SPLINE
  5
2b6
100
AcDbEntity
  8
Layer_1
 62
1
100
AcDbSpline
 70
8
 71
3
 72
8
 73
4
 74
0
 40
0
 40
0
 40
0
 40
0
 40
1
 40
1
 40
1
 40
1
 10
457.211460
 20
330.981352
 30
0.0
 10
457.211460
 20
321.349603
 30
0.0
 10
481.485759
 20
313.594632
 30
0.0
 10
511.637243
 20
313.594632
 30
0.0
  0
LWPOLYLINE
  5
2b7
100
AcDbEntity
  8
Layer_1
 62
1
100
AcDbPolyline
 90
2
 70
0
 10
457.211460
 20
371.799712
 30
0.0
 10
457.211460
 20
330.981352
 30
0.0
  0
SPLINE
  5
2b8
100
AcDbEntity
  8
Layer_1
 62
1
100
AcDbSpline
 70
8
 71
3
 72
8
 73
4
 74
0
 40
0
 40
0
 40
0
 40
0
 40
1
 40
1
 40
1
 40
1
 10
629.559128
 20
313.594632
 30
0.0
 10
659.710609
 20
313.594632
 30
0.0
 10
683.984910
 20
321.349603
 30
0.0
 10
683.984910
 20
330.981352
 30
0.0
  0
LWPOLYLINE
  5
2b9
100
AcDbEntity
  8
Layer_1
 62
1
100
AcDbPolyline
 90
3
 70
0
 10
511.637243
 20
313.594632
 30
0.0
 10
570.598185
 20
313.594632
 30
0.0
 10
629.559128
 20
313.594632
 30
0.0
  0
SPLINE
  5
2ba
100
AcDbEntity
  8
Layer_1
 62
1
100
AcDbSpline
 70
8
 71
3
 72
8
 73
4
 74
0
 40
0
 40
0
 40
0
 40
0
 40
1
 40
1
 40
1
 40
1
 10
683.984910
 20
371.799712
 30
0.0
 10
683.984910
 20
381.431461
 30
0.0
 10
659.710609
 20
389.186432
 30
0.0
 10
629.559128
 20
389.186432
 30
0.0
  0
LWPOLYLINE
  5
2bb
100
AcDbEntity
  8
Layer_1
 62
1
100
AcDbPolyline
 90
2
 70
0
 10
683.984910
 20
330.981352
 30
0.0
 10
683.984910
 20
371.799712
 30
0.0
  0
SPLINE
  5
2bc
100
AcDbEntity
  8
Layer_1
 62
1
100
AcDbSpline
 70
8
 71
3
 72
8
 73
4
 74
0
 40
0
 40
0
 40
0
 40
0
 40
1
 40
1
 40
1
 40
1
 10
491.482764
 20
350.136376
 30
0.0
 10
491.482764
 20
348.415290
 30
0.0
 10
490.564575
 20
346.824941
 30
0.0
 10
489.074071
 20
345.964398
 30
0.0
  0
SPLINE
  5
2bd
100
AcDbEntity
  8
Layer_1
 62
1
100
AcDbSpline
 70
8
 71
3
 72
8
 73
4
 74
0
 40
0
 40
0
 40
0
 40
0
 40
1
 40
1
 40
1
 40
1
 10
489.074071
 20
345.964398
 30
0.0
 10
487.583566
 20
345.103855
 30
0.0
 10
485.747189
 20
345.103855
 30
0.0
 10
484.256684
 20
345.964398
 30
0.0
  0
SPLINE
  5
2be
100
AcDbEntity
  8
Layer_1
 62
1
100
AcDbSpline
 70
8
 71
3
 72
8
 73
4
 74
0
 40
0
 40
0
 40
0
 40
0
 40
1
 40
1
 40
1
 40
1
 10
484.256684
 20
345.964398
 30
0.0
 10
482.766180
 20
346.824941
 30
0.0
 10
481.847991
 20
348.415290
 30
0.0
 10
481.847991
 20
350.136376
 30
0.0
  0
SPLINE
  5
2bf
100
AcDbEntity
  8
Layer_1
 62
1
100
AcDbSpline
 70
8
 71
3
 72
8
 73
4
 74
0
 40
0
 40
0
 40
0
 40
0
 40
1
 40
1
 40
1
 40
1
 10
481.847991
 20
350.136376
 30
0.0
 10
481.847992
 20
352.796945
 30
0.0
 10
484.004809
 20
354.953761
 30
0.0
 10
486.665378
 20
354.953761
 30
0.0
  0
SPLINE
  5
2c0
100
AcDbEntity
  8
Layer_1
 62
1
100
AcDbSpline
 70
8
 71
3
 72
8
 73
4
 74
0
 40
0
 40
0
 40
0
 40
0
 40
1
 40
1
 40
1
 40
1
 10
486.665378
 20
354.953761
 30
0.0
 10
489.325946
 20
354.953761
 30
0.0
 10
491.482763
 20
352.796945
 30
0.0
 10
491.482764
 20
350.136376
 30
0.0
  0
LWPOLYLINE
  5
2c1
100
AcDbEntity
  8
Layer_1
 62
1
100
AcDbPolyline
 90
3
 70
0
 10
629.559128
 20
389.186432
 30
0.0
 10
570.598185
 20
389.186432
 30
0.0
 10
511.637243
 20
389.186432
 30
0.0
  0
LWPOLYLINE
  5
2c2
100
AcDbEntity
  8
Layer_1
 62
1
100
AcDbPolyline
 90
1
 70
1
 10
491.482764
 20
350.136376
 30
0.0
  0
SPLINE
  5
2c3
100
AcDbEntity
  8
Layer_1
 62
1
100
AcDbSpline
 70
8
 71
3
 72
8
 73
4
 74
0
 40
0
 40
0
 40
0
 40
0
 40
1
 40
1
 40
1
 40
1
 10
649.713337
 20
350.136376
 30
0.0
 10
649.713337
 20
348.415290
 30
0.0
 10
650.631526
 20
346.824941
 30
0.0
 10
652.122030
 20
345.964398
 30
0.0
  0
SPLINE
  5
2c4
100
AcDbEntity
  8
Layer_1
 62
1
100
AcDbSpline
 70
8
 71
3
 72
8
 73
4
 74
0
 40
0
 40
0
 40
0
 40
0
 40
1
 40
1
 40
1
 40
1
 10
652.122030
 20
345.964398
 30
0.0
 10
653.612535
 20
345.103855
 30
0.0
 10
655.448912
 20
345.103855
 30
0.0
 10
656.939416
 20
345.964398
 30
0.0
  0
SPLINE
  5
2c5
100
AcDbEntity
  8
Layer_1
 62
1
100
AcDbSpline
 70
8
 71
3
 72
8
 73
4
 74
0
 40
0
 40
0
 40
0
 40
0
 40
1
 40
1
 40
1
 40
1
 10
656.939416
 20
345.964398
 30
0.0
 10
658.429921
 20
346.824941
 30
0.0
 10
659.348109
 20
348.415290
 30
0.0
 10
659.348109
 20
350.136376
 30
0.0
  0
SPLINE
  5
2c6
100
AcDbEntity
  8
Layer_1
 62
1
100
AcDbSpline
 70
8
 71
3
 72
8
 73
4
 74
0
 40
0
 40
0
 40
0
 40
0
 40
1
 40
1
 40
1
 40
1
 10
659.348109
 20
350.136376
 30
0.0
 10
659.348109
 20
351.857463
 30
0.0
 10
658.429921
 20
353.447812
 30
0.0
 10
656.939416
 20
354.308355
 30
0.0
  0
SPLINE
  5
2c7
100
AcDbEntity
  8
Layer_1
 62
1
100
AcDbSpline
 70
8
 71
3
 72
8
 73
4
 74
0
 40
0
 40
0
 40
0
 40
0
 40
1
 40
1
 40
1
 40
1
 10
656.939416
 20
354.308355
 30
0.0
 10
655.448912
 20
355.168898
 30
0.0
 10
653.612535
 20
355.168898
 30
0.0
 10
652.122030
 20
354.308355
 30
0.0
  0
SPLINE
  5
2c8
100
AcDbEntity
  8
Layer_1
 62
1
100
AcDbSpline
 70
8
 71
3
 72
8
 73
4
 74
0
 40
0
 40
0
 40
0
 40
0
 40
1
 40
1
 40
1
 40
1
 10
652.122030
 20
354.308355
 30
0.0
 10
650.631526
 20
353.447812
 30
0.0
 10
649.713337
 20
351.857463
 30
0.0
 10
649.713337
 20
350.136376
 30
0.0
  0
LWPOLYLINE
  5
2c9
100
AcDbEntity
  8
Layer_1
 62
1
100
AcDbPolyline
 90
4
 70
1
 10
525.062394
 20
369.783277
 30
0.0
 10
526.763181
 20
369.783277
 30
0.0
 10
526.763181
 20
331.568985
 30
0.0
 10
525.062394
 20
331.568985
 30
0.0
  0
LWPOLYLINE
  5
2ca
100
AcDbEntity
  8
Layer_1
 62
1
100
AcDbPolyline
 90
1
 70
1
 10
649.713337
 20
350.136376
 30
0.0
  0
SPLINE
  5
2cb
100
AcDbEntity
  8
Layer_1
 62
1
100
AcDbSpline
 70
8
 71
3
 72
8
 73
4
 74
0
 40
0
 40
0
 40
0
 40
0
 40
1
 40
1
 40
1
 40
1
 10
511.637243
 20
310.465740
 30
0.0
 10
481.485759
 20
310.465740
 30
0.0
 10
457.211460
 20
302.710769
 30
0.0
 10
457.211460
 20
293.079020
 30
0.0
  0
LWPOLYLINE
  5
2cc
100
AcDbEntity
  8
Layer_1
 62
1
100
AcDbPolyline
 90
4
 70
1
 10
616.133820
 20
369.783277
 30
0.0
 10
614.433033
 20
369.783277
 30
0.0
 10
614.433033
 20
331.568985
 30
0.0
 10
616.133820
 20
331.568985
 30
0.0
  0
SPLINE
  5
2cd
100
AcDbEntity
  8
Layer_1
 62
1
100
AcDbSpline
 70
8
 71
3
 72
8
 73
4
 74
0
 40
0
 40
0
 40
0
 40
0
 40
1
 40
1
 40
1
 40
1
 10
457.211460
 20
252.260659
 30
0.0
 10
457.211460
 20
242.628910
 30
0.0
 10
481.485759
 20
234.873939
 30
0.0
 10
511.637243
 20
234.873939
 30
0.0
  0
LWPOLYLINE
  5
2ce
100
AcDbEntity
  8
Layer_1
 62
1
100
AcDbPolyline
 90
2
 70
0
 10
457.211460
 20
293.079020
 30
0.0
 10
457.211460
 20
252.260659
 30
0.0
  0
SPLINE
  5
2cf
100
AcDbEntity
  8
Layer_1
 62
1
100
AcDbSpline
 70
8
 71
3
 72
8
 73
4
 74
0
 40
0
 40
0
 40
0
 40
0
 40
1
 40
1
 40
1
 40
1
 10
629.559128
 20
234.873939
 30
0.0
 10
659.710609
 20
234.873939
 30
0.0
 10
683.984910
 20
242.628910
 30
0.0
 10
683.984910
 20
252.260659
 30
0.0
  0
LWPOLYLINE
  5
2d0
100
AcDbEntity
  8
Layer_1
 62
1
100
AcDbPolyline
 90
3
 70
0
 10
511.637243
 20
234.873939
 30
0.0
 10
570.598185
 20
234.873939
 30
0.0
 10
629.559128
 20
234.873939
 30
0.0
  0
SPLINE
  5
2d1
100
AcDbEntity
  8
Layer_1
 62
1
100
AcDbSpline
 70
8
 71
3
 72
8
 73
4
 74
0
 40
0
 40
0
 40
0
 40
0
 40
1
 40
1
 40
1
 40
1
 10
683.984910
 20
293.079020
 30
0.0
 10
683.984910
 20
302.710769
 30
0.0
 10
659.710609
 20
310.465740
 30
0.0
 10
629.559128
 20
310.465740
 30
0.0
  0
LWPOLYLINE
  5
2d2
100
AcDbEntity
  8
Layer_1
 62
1
100
AcDbPolyline
 90
2
 70
0
 10
683.984910
 20
252.260659
 30
0.0
 10
683.984910
 20
293.079020
 30
0.0
  0
SPLINE
  5
2d3
100
AcDbEntity
  8
Layer_1
 62
1
100
AcDbSpline
 70
8
 71
3
 72
8
 73
4
 74
0
 40
0
 40
0
 40
0
 40
0
 40
1
 40
1
 40
1
 40
1
 10
491.482764
 20
271.415684
 30
0.0
 10
491.482764
 20
269.694598
 30
0.0
 10
490.564575
 20
268.104248
 30
0.0
 10
489.074071
 20
267.243705
 30
0.0
  0
SPLINE
  5
2d4
100
AcDbEntity
  8
Layer_1
 62
1
100
AcDbSpline
 70
8
 71
3
 72
8
 73
4
 74
0
 40
0
 40
0
 40
0
 40
0
 40
1
 40
1
 40
1
 40
1
 10
489.074071
 20
267.243705
 30
0.0
 10
487.583566
 20
266.383162
 30
0.0
 10
485.747189
 20
266.383162
 30
0.0
 10
484.256684
 20
267.243705
 30
0.0
  0
SPLINE
  5
2d5
100
AcDbEntity
  8
Layer_1
 62
1
100
AcDbSpline
 70
8
 71
3
 72
8
 73
4
 74
0
 40
0
 40
0
 40
0
 40
0
 40
1
 40
1
 40
1
 40
1
 10
484.256684
 20
267.243705
 30
0.0
 10
482.766180
 20
268.104248
 30
0.0
 10
481.847991
 20
269.694598
 30
0.0
 10
481.847991
 20
271.415684
 30
0.0
  0
SPLINE
  5
2d6
100
AcDbEntity
  8
Layer_1
 62
1
100
AcDbSpline
 70
8
 71
3
 72
8
 73
4
 74
0
 40
0
 40
0
 40
0
 40
0
 40
1
 40
1
 40
1
 40
1
 10
481.847991
 20
271.415684
 30
0.0
 10
481.847992
 20
274.076252
 30
0.0
 10
484.004809
 20
276.233069
 30
0.0
 10
486.665378
 20
276.233069
 30
0.0
  0
SPLINE
  5
2d7
100
AcDbEntity
  8
Layer_1
 62
1
100
AcDbSpline
 70
8
 71
3
 72
8
 73
4
 74
0
 40
0
 40
0
 40
0
 40
0
 40
1
 40
1
 40
1
 40
1
 10
486.665378
 20
276.233069
 30
0.0
 10
489.325946
 20
276.233069
 30
0.0
 10
491.482763
 20
274.076252
 30
0.0
 10
491.482764
 20
271.415684
 30
0.0
  0
LWPOLYLINE
  5
2d8
100
AcDbEntity
  8
Layer_1
 62
1
100
AcDbPolyline
 90
3
 70
0
 10
629.559128
 20
310.465740
 30
0.0
 10
570.598185
 20
310.465740
 30
0.0
 10
511.637243
 20
310.465740
 30
0.0
  0
LWPOLYLINE
  5
2d9
100
AcDbEntity
  8
Layer_1
 62
1
100
AcDbPolyline
 90
1
 70
1
 10
491.482764
 20
271.415684
 30
0.0
  0
SPLINE
  5
2da
100
AcDbEntity
  8
Layer_1
 62
1
100
AcDbSpline
 70
8
 71
3
 72
8
 73
4
 74
0
 40
0
 40
0
 40
0
 40
0
 40
1
 40
1
 40
1
 40
1
 10
649.713337
 20
271.415684
 30
0.0
 10
649.713337
 20
269.694598
 30
0.0
 10
650.631526
 20
268.104248
 30
0.0
 10
652.122030
 20
267.243705
 30
0.0
  0
SPLINE
  5
2db
100
AcDbEntity
  8
Layer_1
 62
1
100
AcDbSpline
 70
8
 71
3
 72
8
 73
4
 74
0
 40
0
 40
0
 40
0
 40
0
 40
1
 40
1
 40
1
 40
1
 10
652.122030
 20
267.243705
 30
0.0
 10
653.612535
 20
266.383162
 30
0.0
 10
655.448912
 20
266.383162
 30
0.0
 10
656.939416
 20
267.243705
 30
0.0
  0
SPLINE
  5
2dc
100
AcDbEntity
  8
Layer_1
 62
1
100
AcDbSpline
 70
8
 71
3
 72
8
 73
4
 74
0
 40
0
 40
0
 40
0
 40
0
 40
1
 40
1
 40
1
 40
1
 10
656.939416
 20
267.243705
 30
0.0
 10
658.429921
 20
268.104248
 30
0.0
 10
659.348109
 20
269.694598
 30
0.0
 10
659.348109
 20
271.415684
 30
0.0
  0
SPLINE
  5
2dd
100
AcDbEntity
  8
Layer_1
 62
1
100
AcDbSpline
 70
8
 71
3
 72
8
 73
4
 74
0
 40
0
 40
0
 40
0
 40
0
 40
1
 40
1
 40
1
 40
1
 10
659.348109
 20
271.415684
 30
0.0
 10
659.348109
 20
273.136770
 30
0.0
 10
658.429921
 20
274.727119
 30
0.0
 10
656.939416
 20
275.587663
 30
0.0
  0
SPLINE
  5
2de
100
AcDbEntity
  8
Layer_1
 62
1
100
AcDbSpline
 70
8
 71
3
 72
8
 73
4
 74
0
 40
0
 40
0
 40
0
 40
0
 40
1
 40
1
 40
1
 40
1
 10
656.939416
 20
275.587663
 30
0.0
 10
655.448912
 20
276.448206
 30
0.0
 10
653.612535
 20
276.448206
 30
0.0
 10
652.122030
 20
275.587663
 30
0.0
  0
SPLINE
  5
2df
100
AcDbEntity
  8
Layer_1
 62
1
100
AcDbSpline
 70
8
 71
3
 72
8
 73
4
 74
0
 40
0
 40
0
 40
0
 40
0
 40
1
 40
1
 40
1
 40
1
 10
652.122030
 20
275.587663
 30
0.0
 10
650.631526
 20
274.727119
 30
0.0
 10
649.713337
 20
273.136770
 30
0.0
 10
649.713337
 20
271.415684
 30
0.0
  0
LWPOLYLINE
  5
2e0
100
AcDbEntity
  8
Layer_1
 62
1
100
AcDbPolyline
 90
4
 70
1
 10
525.062394
 20
291.062584
 30
0.0
 10
526.763181
 20
291.062584
 30
0.0
 10
526.763181
 20
252.848292
 30
0.0
 10
525.062394
 20
252.848292
 30
0.0
  0
LWPOLYLINE
  5
2e1
100
AcDbEntity
  8
Layer_1
 62
1
100
AcDbPolyline
 90
1
 70
1
 10
649.713337
 20
271.415684
 30
0.0
  0
SPLINE
  5
2e2
100
AcDbEntity
  8
Layer_1
 62
1
100
AcDbSpline
 70
8
 71
3
 72
8
 73
4
 74
0
 40
0
 40
0
 40
0
 40
0
 40
1
 40
1
 40
1
 40
1
 10
511.637243
 20
231.935373
 30
0.0
 10
481.485759
 20
231.935373
 30
0.0
 10
457.211460
 20
224.180402
 30
0.0
 10
457.211460
 20
214.548653
 30
0.0
  0
LWPOLYLINE
  5
2e3
100
AcDbEntity
  8
Layer_1
 62
1
100
AcDbPolyline
 90
4
 70
1
 10
616.133820
 20
291.062584
 30
0.0
 10
614.433033
 20
291.062584
 30
0.0
 10
614.433033
 20
252.848292
 30
0.0
 10
616.133820
 20
252.848292
 30
0.0
  0
SPLINE
  5
2e4
100
AcDbEntity
  8
Layer_1
 62
1
100
AcDbSpline
 70
8
 71
3
 72
8
 73
4
 74
0
 40
0
 40
0
 40
0
 40
0
 40
1
 40
1
 40
1
 40
1
 10
457.211460
 20
173.730292
 30
0.0
 10
457.211460
 20
164.098543
 30
0.0
 10
481.485759
 20
156.343572
 30
0.0
 10
511.637243
 20
156.343572
 30
0.0
  0
LWPOLYLINE
  5
2e5
100
AcDbEntity
  8
Layer_1
 62
1
100
AcDbPolyline
 90
2
 70
0
 10
457.211460
 20
214.548653
 30
0.0
 10
457.211460
 20
173.730292
 30
0.0
  0
SPLINE
  5
2e6
100
AcDbEntity
  8
Layer_1
 62
1
100
AcDbSpline
 70
8
 71
3
 72
8
 73
4
 74
0
 40
0
 40
0
 40
0
 40
0
 40
1
 40
1
 40
1
 40
1
 10
629.559128
 20
156.343572
 30
0.0
 10
659.710609
 20
156.343572
 30
0.0
 10
683.984910
 20
164.098543
 30
0.0
 10
683.984910
 20
173.730292
 30
0.0
  0
LWPOLYLINE
  5
2e7
100
AcDbEntity
  8
Layer_1
 62
1
100
AcDbPolyline
 90
3
 70
0
 10
511.637243
 20
156.343572
 30
0.0
 10
570.598185
 20
156.343572
 30
0.0
 10
629.559128
 20
156.343572
 30
0.0
  0
SPLINE
  5
2e8
100
AcDbEntity
  8
Layer_1
 62
1
100
AcDbSpline
 70
8
 71
3
 72
8
 73
4
 74
0
 40
0
 40
0
 40
0
 40
0
 40
1
 40
1
 40
1
 40
1
 10
683.984910
 20
214.548653
 30
0.0
 10
683.984910
 20
224.180402
 30
0.0
 10
659.710609
 20
231.935373
 30
0.0
 10
629.559128
 20
231.935373
 30
0.0
  0
LWPOLYLINE
  5
2e9
100
AcDbEntity
  8
Layer_1
 62
1
100
AcDbPolyline
 90
2
 70
0
 10
683.984910
 20
173.730292
 30
0.0
 10
683.984910
 20
214.548653
 30
0.0
  0
SPLINE
  5
2ea
100
AcDbEntity
  8
Layer_1
 62
1
100
AcDbSpline
 70
8
 71
3
 72
8
 73
4
 74
0
 40
0
 40
0
 40
0
 40
0
 40
1
 40
1
 40
1
 40
1
 10
491.482764
 20
192.885317
 30
0.0
 10
491.482764
 20
191.164231
 30
0.0
 10
490.564575
 20
189.573881
 30
0.0
 10
489.074071
 20
188.713338
 30
0.0
  0
SPLINE
  5
2eb
100
AcDbEntity
  8
Layer_1
 62
1
100
AcDbSpline
 70
8
 71
3
 72
8
 73
4
 74
0
 40
0
 40
0
 40
0
 40
0
 40
1
 40
1
 40
1
 40
1
 10
489.074071
 20
188.713338
 30
0.0
 10
487.583566
 20
187.852795
 30
0.0
 10
485.747189
 20
187.852795
 30
0.0
 10
484.256684
 20
188.713338
 30
0.0
  0
SPLINE
  5
2ec
100
AcDbEntity
  8
Layer_1
 62
1
100
AcDbSpline
 70
8
 71
3
 72
8
 73
4
 74
0
 40
0
 40
0
 40
0
 40
0
 40
1
 40
1
 40
1
 40
1
 10
484.256684
 20
188.713338
 30
0.0
 10
482.766180
 20
189.573881
 30
0.0
 10
481.847991
 20
191.164231
 30
0.0
 10
481.847991
 20
192.885317
 30
0.0
  0
SPLINE
  5
2ed
100
AcDbEntity
  8
Layer_1
 62
1
100
AcDbSpline
 70
8
 71
3
 72
8
 73
4
 74
0
 40
0
 40
0
 40
0
 40
0
 40
1
 40
1
 40
1
 40
1
 10
481.847991
 20
192.885317
 30
0.0
 10
481.847992
 20
195.545885
 30
0.0
 10
484.004809
 20
197.702702
 30
0.0
 10
486.665378
 20
197.702702
 30
0.0
  0
SPLINE
  5
2ee
100
AcDbEntity
  8
Layer_1
 62
1
100
AcDbSpline
 70
8
 71
3
 72
8
 73
4
 74
0
 40
0
 40
0
 40
0
 40
0
 40
1
 40
1
 40
1
 40
1
 10
486.665378
 20
197.702702
 30
0.0
 10
489.325946
 20
197.702702
 30
0.0
 10
491.482763
 20
195.545885
 30
0.0
 10
491.482764
 20
192.885317
 30
0.0
  0
LWPOLYLINE
  5
2ef
100
AcDbEntity
  8
Layer_1
 62
1
100
AcDbPolyline
 90
3
 70
0
 10
629.559128
 20
231.935373
 30
0.0
 10
570.598185
 20
231.935373
 30
0.0
 10
511.637243
 20
231.935373
 30
0.0
  0
LWPOLYLINE
  5
2f0
100
AcDbEntity
  8
Layer_1
 62
1
100
AcDbPolyline
 90
1
 70
1
 10
491.482764
 20
192.885317
 30
0.0
  0
SPLINE
  5
2f1
100
AcDbEntity
  8
Layer_1
 62
1
100
AcDbSpline
 70
8
 71
3
 72
8
 73
4
 74
0
 40
0
 40
0
 40
0
 40
0
 40
1
 40
1
 40
1
 40
1
 10
649.713337
 20
192.885317
 30
0.0
 10
649.713337
 20
191.164231
 30
0.0
 10
650.631526
 20
189.573881
 30
0.0
 10
652.122030
 20
188.713338
 30
0.0
  0
SPLINE
  5
2f2
100
AcDbEntity
  8
Layer_1
 62
1
100
AcDbSpline
 70
8
 71
3
 72
8
 73
4
 74
0
 40
0
 40
0
 40
0
 40
0
 40
1
 40
1
 40
1
 40
1
 10
652.122030
 20
188.713338
 30
0.0
 10
653.612535
 20
187.852795
 30
0.0
 10
655.448912
 20
187.852795
 30
0.0
 10
656.939416
 20
188.713338
 30
0.0
  0
SPLINE
  5
2f3
100
AcDbEntity
  8
Layer_1
 62
1
100
AcDbSpline
 70
8
 71
3
 72
8
 73
4
 74
0
 40
0
 40
0
 40
0
 40
0
 40
1
 40
1
 40
1
 40
1
 10
656.939416
 20
188.713338
 30
0.0
 10
658.429921
 20
189.573881
 30
0.0
 10
659.348109
 20
191.164231
 30
0.0
 10
659.348109
 20
192.885317
 30
0.0
  0
SPLINE
  5
2f4
100
AcDbEntity
  8
Layer_1
 62
1
100
AcDbSpline
 70
8
 71
3
 72
8
 73
4
 74
0
 40
0
 40
0
 40
0
 40
0
 40
1
 40
1
 40
1
 40
1
 10
659.348109
 20
192.885317
 30
0.0
 10
659.348109
 20
194.606403
 30
0.0
 10
658.429921
 20
196.196752
 30
0.0
 10
656.939416
 20
197.057296
 30
0.0
  0
SPLINE
  5
2f5
100
AcDbEntity
  8
Layer_1
 62
1
100
AcDbSpline
 70
8
 71
3
 72
8
 73
4
 74
0
 40
0
 40
0
 40
0
 40
0
 40
1
 40
1
 40
1
 40
1
 10
656.939416
 20
197.057296
 30
0.0
 10
655.448912
 20
197.917839
 30
0.0
 10
653.612535
 20
197.917839
 30
0.0
 10
652.122030
 20
197.057296
 30
0.0
  0
SPLINE
  5
2f6
100
AcDbEntity
  8
Layer_1
 62
1
100
AcDbSpline
 70
8
 71
3
 72
8
 73
4
 74
0
 40
0
 40
0
 40
0
 40
0
 40
1
 40
1
 40
1
 40
1
 10
652.122030
 20
197.057296
 30
0.0
 10
650.631526
 20
196.196752
 30
0.0
 10
649.713337
 20
194.606403
 30
0.0
 10
649.713337
 20
192.885317
 30
0.0
  0
LWPOLYLINE
  5
2f7
100
AcDbEntity
  8
Layer_1
 62
1
100
AcDbPolyline
 90
4
 70
1
 10
525.062394
 20
212.532217
 30
0.0
 10
526.763181
 20
212.532217
 30
0.0
 10
526.763181
 20
174.317926
 30
0.0
 10
525.062394
 20
174.317926
 30
0.0
  0
LWPOLYLINE
  5
2f8
100
AcDbEntity
  8
Layer_1
 62
1
100
AcDbPolyline
 90
1
 70
1
 10
649.713337
 20
192.885317
 30
0.0
  0
SPLINE
  5
2f9
100
AcDbEntity
  8
Layer_1
 62
1
100
AcDbSpline
 70
8
 71
3
 72
8
 73
4
 74
0
 40
0
 40
0
 40
0
 40
0
 40
1
 40
1
 40
1
 40
1
 10
511.637243
 20
154.216716
 30
0.0
 10
481.485759
 20
154.216716
 30
0.0
 10
457.211460
 20
146.461745
 30
0.0
 10
457.211460
 20
136.829996
 30
0.0
  0
LWPOLYLINE
  5
2fa
100
AcDbEntity
  8
Layer_1
 62
1
100
AcDbPolyline
 90
4
 70
1
 10
616.133820
 20
212.532217
 30
0.0
 10
614.433033
 20
212.532217
 30
0.0
 10
614.433033
 20
174.317926
 30
0.0
 10
616.133820
 20
174.317926
 30
0.0
  0
SPLINE
  5
2fb
100
AcDbEntity
  8
Layer_1
 62
1
100
AcDbSpline
 70
8
 71
3
 72
8
 73
4
 74
0
 40
0
 40
0
 40
0
 40
0
 40
1
 40
1
 40
1
 40
1
 10
457.211460
 20
96.011635
 30
0.0
 10
457.211460
 20
86.379887
 30
0.0
 10
481.485759
 20
78.624915
 30
0.0
 10
511.637243
 20
78.624915
 30
0.0
  0
LWPOLYLINE
  5
2fc
100
AcDbEntity
  8
Layer_1
 62
1
100
AcDbPolyline
 90
2
 70
0
 10
457.211460
 20
136.829996
 30
0.0
 10
457.211460
 20
96.011635
 30
0.0
  0
SPLINE
  5
2fd
100
AcDbEntity
  8
Layer_1
 62
1
100
AcDbSpline
 70
8
 71
3
 72
8
 73
4
 74
0
 40
0
 40
0
 40
0
 40
0
 40
1
 40
1
 40
1
 40
1
 10
629.559128
 20
78.624915
 30
0.0
 10
659.710609
 20
78.624915
 30
0.0
 10
683.984910
 20
86.379887
 30
0.0
 10
683.984910
 20
96.011635
 30
0.0
  0
LWPOLYLINE
  5
2fe
100
AcDbEntity
  8
Layer_1
 62
1
100
AcDbPolyline
 90
3
 70
0
 10
511.637243
 20
78.624915
 30
0.0
 10
570.598185
 20
78.624915
 30
0.0
 10
629.559128
 20
78.624915
 30
0.0
  0
SPLINE
  5
2ff
100
AcDbEntity
  8
Layer_1
 62
1
100
AcDbSpline
 70
8
 71
3
 72
8
 73
4
 74
0
 40
0
 40
0
 40
0
 40
0
 40
1
 40
1
 40
1
 40
1
 10
683.984910
 20
136.829996
 30
0.0
 10
683.984910
 20
146.461745
 30
0.0
 10
659.710609
 20
154.216716
 30
0.0
 10
629.559128
 20
154.216716
 30
0.0
  0
LWPOLYLINE
  5
300
100
AcDbEntity
  8
Layer_1
 62
1
100
AcDbPolyline
 90
2
 70
0
 10
683.984910
 20
96.011635
 30
0.0
 10
683.984910
 20
136.829996
 30
0.0
  0
SPLINE
  5
301
100
AcDbEntity
  8
Layer_1
 62
1
100
AcDbSpline
 70
8
 71
3
 72
8
 73
4
 74
0
 40
0
 40
0
 40
0
 40
0
 40
1
 40
1
 40
1
 40
1
 10
491.482764
 20
115.166660
 30
0.0
 10
491.482764
 20
113.445574
 30
0.0
 10
490.564575
 20
111.855225
 30
0.0
 10
489.074071
 20
110.994681
 30
0.0
  0
SPLINE
  5
302
100
AcDbEntity
  8
Layer_1
 62
1
100
AcDbSpline
 70
8
 71
3
 72
8
 73
4
 74
0
 40
0
 40
0
 40
0
 40
0
 40
1
 40
1
 40
1
 40
1
 10
489.074071
 20
110.994681
 30
0.0
 10
487.583566
 20
110.134138
 30
0.0
 10
485.747189
 20
110.134138
 30
0.0
 10
484.256684
 20
110.994681
 30
0.0
  0
SPLINE
  5
303
100
AcDbEntity
  8
Layer_1
 62
1
100
AcDbSpline
 70
8
 71
3
 72
8
 73
4
 74
0
 40
0
 40
0
 40
0
 40
0
 40
1
 40
1
 40
1
 40
1
 10
484.256684
 20
110.994681
 30
0.0
 10
482.766180
 20
111.855225
 30
0.0
 10
481.847991
 20
113.445574
 30
0.0
 10
481.847991
 20
115.166660
 30
0.0
  0
SPLINE
  5
304
100
AcDbEntity
  8
Layer_1
 62
1
100
AcDbSpline
 70
8
 71
3
 72
8
 73
4
 74
0
 40
0
 40
0
 40
0
 40
0
 40
1
 40
1
 40
1
 40
1
 10
481.847991
 20
115.166660
 30
0.0
 10
481.847992
 20
117.827229
 30
0.0
 10
484.004809
 20
119.984045
 30
0.0
 10
486.665378
 20
119.984045
 30
0.0
  0
SPLINE
  5
305
100
AcDbEntity
  8
Layer_1
 62
1
100
AcDbSpline
 70
8
 71
3
 72
8
 73
4
 74
0
 40
0
 40
0
 40
0
 40
0
 40
1
 40
1
 40
1
 40
1
 10
486.665378
 20
119.984045
 30
0.0
 10
489.325946
 20
119.984045
 30
0.0
 10
491.482763
 20
117.827229
 30
0.0
 10
491.482764
 20
115.166660
 30
0.0
  0
LWPOLYLINE
  5
306
100
AcDbEntity
  8
Layer_1
 62
1
100
AcDbPolyline
 90
3
 70
0
 10
629.559128
 20
154.216716
 30
0.0
 10
570.598185
 20
154.216716
 30
0.0
 10
511.637243
 20
154.216716
 30
0.0
  0
LWPOLYLINE
  5
307
100
AcDbEntity
  8
Layer_1
 62
1
100
AcDbPolyline
 90
1
 70
1
 10
491.482764
 20
115.166660
 30
0.0
  0
SPLINE
  5
308
100
AcDbEntity
  8
Layer_1
 62
1
100
AcDbSpline
 70
8
 71
3
 72
8
 73
4
 74
0
 40
0
 40
0
 40
0
 40
0
 40
1
 40
1
 40
1
 40
1
 10
649.713337
 20
115.166660
 30
0.0
 10
649.713337
 20
113.445574
 30
0.0
 10
650.631526
 20
111.855225
 30
0.0
 10
652.122030
 20
110.994681
 30
0.0
  0
SPLINE
  5
309
100
AcDbEntity
  8
Layer_1
 62
1
100
AcDbSpline
 70
8
 71
3
 72
8
 73
4
 74
0
 40
0
 40
0
 40
0
 40
0
 40
1
 40
1
 40
1
 40
1
 10
652.122030
 20
110.994681
 30
0.0
 10
653.612535
 20
110.134138
 30
0.0
 10
655.448912
 20
110.134138
 30
0.0
 10
656.939416
 20
110.994681
 30
0.0
  0
SPLINE
  5
30a
100
AcDbEntity
  8
Layer_1
 62
1
100
AcDbSpline
 70
8
 71
3
 72
8
 73
4
 74
0
 40
0
 40
0
 40
0
 40
0
 40
1
 40
1
 40
1
 40
1
 10
656.939416
 20
110.994681
 30
0.0
 10
658.429921
 20
111.855225
 30
0.0
 10
659.348109
 20
113.445574
 30
0.0
 10
659.348109
 20
115.166660
 30
0.0
  0
SPLINE
  5
30b
100
AcDbEntity
  8
Layer_1
 62
1
100
AcDbSpline
 70
8
 71
3
 72
8
 73
4
 74
0
 40
0
 40
0
 40
0
 40
0
 40
1
 40
1
 40
1
 40
1
 10
659.348109
 20
115.166660
 30
0.0
 10
659.348109
 20
116.887746
 30
0.0
 10
658.429921
 20
118.478096
 30
0.0
 10
656.939416
 20
119.338639
 30
0.0
  0
SPLINE
  5
30c
100
AcDbEntity
  8
Layer_1
 62
1
100
AcDbSpline
 70
8
 71
3
 72
8
 73
4
 74
0
 40
0
 40
0
 40
0
 40
0
 40
1
 40
1
 40
1
 40
1
 10
656.939416
 20
119.338639
 30
0.0
 10
655.448912
 20
120.199182
 30
0.0
 10
653.612535
 20
120.199182
 30
0.0
 10
652.122030
 20
119.338639
 30
0.0
  0
SPLINE
  5
30d
100
AcDbEntity
  8
Layer_1
 62
1
100
AcDbSpline
 70
8
 71
3
 72
8
 73
4
 74
0
 40
0
 40
0
 40
0
 40
0
 40
1
 40
1
 40
1
 40
1
 10
652.122030
 20
119.338639
 30
0.0
 10
650.631526
 20
118.478096
 30
0.0
 10
649.713337
 20
116.887746
 30
0.0
 10
649.713337
 20
115.166660
 30
0.0
  0
LWPOLYLINE
  5
30e
100
AcDbEntity
  8
Layer_1
 62
1
100
AcDbPolyline
 90
4
 70
1
 10
525.062394
 20
134.813560
 30
0.0
 10
526.763181
 20
134.813560
 30
0.0
 10
526.763181
 20
96.599269
 30
0.0
 10
525.062394
 20
96.599269
 30
0.0
  0
LWPOLYLINE
  5
30f
100
AcDbEntity
  8
Layer_1
 62
1
100
AcDbPolyline
 90
1
 70
1
 10
649.713337
 20
115.166660
 30
0.0
  0
SPLINE
  5
310
100
AcDbEntity
  8
Layer_1
 62
1
100
AcDbSpline
 70
8
 71
3
 72
8
 73
4
 74
0
 40
0
 40
0
 40
0
 40
0
 40
1
 40
1
 40
1
 40
1
 10
511.637243
 20
75.686330
 30
0.0
 10
481.485759
 20
75.686330
 30
0.0
 10
457.211460
 20
67.931359
 30
0.0
 10
457.211460
 20
58.299610
 30
0.0
  0
LWPOLYLINE
  5
311
100
AcDbEntity
  8
Layer_1
 62
1
100
AcDbPolyline
 90
4
 70
1
 10
616.133820
 20
134.813560
 30
0.0
 10
614.433033
 20
134.813560
 30
0.0
 10
614.433033
 20
96.599269
 30
0.0
 10
616.133820
 20
96.599269
 30
0.0
  0
SPLINE
  5
312
100
AcDbEntity
  8
Layer_1
 62
1
100
AcDbSpline
 70
8
 71
3
 72
8
 73
4
 74
0
 40
0
 40
0
 40
0
 40
0
 40
1
 40
1
 40
1
 40
1
 10
457.211460
 20
17.481249
 30
0.0
 10
457.211460
 20
7.849501
 30
0.0
 10
481.485759
 20
0.094530
 30
0.0
 10
511.637243
 20
0.094530
 30
0.0
  0
LWPOLYLINE
  5
313
100
AcDbEntity
  8
Layer_1
 62
1
100
AcDbPolyline
 90
2
 70
0
 10
457.211460
 20
58.299610
 30
0.0
 10
457.211460
 20
17.481249
 30
0.0
  0
SPLINE
  5
314
100
AcDbEntity
  8
Layer_1
 62
1
100
AcDbSpline
 70
8
 71
3
 72
8
 73
4
 74
0
 40
0
 40
0
 40
0
 40
0
 40
1
 40
1
 40
1
 40
1
 10
629.559128
 20
0.094530
 30
0.0
 10
659.710609
 20
0.094530
 30
0.0
 10
683.984910
 20
7.849501
 30
0.0
 10
683.984910
 20
17.481249
 30
0.0
  0
LWPOLYLINE
  5
315
100
AcDbEntity
  8
Layer_1
 62
1
100
AcDbPolyline
 90
3
 70
0
 10
511.637243
 20
0.094530
 30
0.0
 10
570.598185
 20
0.094530
 30
0.0
 10
629.559128
 20
0.094530
 30
0.0
  0
SPLINE
  5
316
100
AcDbEntity
  8
Layer_1
 62
1
100
AcDbSpline
 70
8
 71
3
 72
8
 73
4
 74
0
 40
0
 40
0
 40
0
 40
0
 40
1
 40
1
 40
1
 40
1
 10
683.984910
 20
58.299610
 30
0.0
 10
683.984910
 20
67.931359
 30
0.0
 10
659.710609
 20
75.686330
 30
0.0
 10
629.559128
 20
75.686330
 30
0.0
  0
LWPOLYLINE
  5
317
100
AcDbEntity
  8
Layer_1
 62
1
100
AcDbPolyline
 90
2
 70
0
 10
683.984910
 20
17.481249
 30
0.0
 10
683.984910
 20
58.299610
 30
0.0
  0
SPLINE
  5
318
100
AcDbEntity
  8
Layer_1
 62
1
100
AcDbSpline
 70
8
 71
3
 72
8
 73
4
 74
0
 40
0
 40
0
 40
0
 40
0
 40
1
 40
1
 40
1
 40
1
 10
491.482764
 20
36.636274
 30
0.0
 10
491.482764
 20
34.915188
 30
0.0
 10
490.564575
 20
33.324839
 30
0.0
 10
489.074071
 20
32.464296
 30
0.0
  0
SPLINE
  5
319
100
AcDbEntity
  8
Layer_1
 62
1
100
AcDbSpline
 70
8
 71
3
 72
8
 73
4
 74
0
 40
0
 40
0
 40
0
 40
0
 40
1
 40
1
 40
1
 40
1
 10
489.074071
 20
32.464296
 30
0.0
 10
487.583566
 20
31.603752
 30
0.0
 10
485.747189
 20
31.603752
 30
0.0
 10
484.256684
 20
32.464296
 30
0.0
  0
SPLINE
  5
31a
100
AcDbEntity
  8
Layer_1
 62
1
100
AcDbSpline
 70
8
 71
3
 72
8
 73
4
 74
0
 40
0
 40
0
 40
0
 40
0
 40
1
 40
1
 40
1
 40
1
 10
484.256684
 20
32.464296
 30
0.0
 10
482.766180
 20
33.324839
 30
0.0
 10
481.847991
 20
34.915188
 30
0.0
 10
481.847991
 20
36.636274
 30
0.0
  0
SPLINE
  5
31b
100
AcDbEntity
  8
Layer_1
 62
1
100
AcDbSpline
 70
8
 71
3
 72
8
 73
4
 74
0
 40
0
 40
0
 40
0
 40
0
 40
1
 40
1
 40
1
 40
1
 10
481.847991
 20
36.636274
 30
0.0
 10
481.847992
 20
39.296843
 30
0.0
 10
484.004809
 20
41.453659
 30
0.0
 10
486.665378
 20
41.453659
 30
0.0
  0
SPLINE
  5
31c
100
AcDbEntity
  8
Layer_1
 62
1
100
AcDbSpline
 70
8
 71
3
 72
8
 73
4
 74
0
 40
0
 40
0
 40
0
 40
0
 40
1
 40
1
 40
1
 40
1
 10
486.665378
 20
41.453659
 30
0.0
 10
489.325946
 20
41.453659
 30
0.0
 10
491.482763
 20
39.296843
 30
0.0
 10
491.482764
 20
36.636274
 30
0.0
  0
LWPOLYLINE
  5
31d
100
AcDbEntity
  8
Layer_1
 62
1
100
AcDbPolyline
 90
3
 70
0
 10
629.559128
 20
75.686330
 30
0.0
 10
570.598185
 20
75.686330
 30
0.0
 10
511.637243
 20
75.686330
 30
0.0
  0
LWPOLYLINE
  5
31e
100
AcDbEntity
  8
Layer_1
 62
1
100
AcDbPolyline
 90
1
 70
1
 10
491.482764
 20
36.636274
 30
0.0
  0
SPLINE
  5
31f
100
AcDbEntity
  8
Layer_1
 62
1
100
AcDbSpline
 70
8
 71
3
 72
8
 73
4
 74
0
 40
0
 40
0
 40
0
 40
0
 40
1
 40
1
 40
1
 40
1
 10
649.713337
 20
36.636274
 30
0.0
 10
649.713337
 20
34.915188
 30
0.0
 10
650.631526
 20
33.324839
 30
0.0
 10
652.122030
 20
32.464296
 30
0.0
  0
SPLINE
  5
320
100
AcDbEntity
  8
Layer_1
 62
1
100
AcDbSpline
 70
8
 71
3
 72
8
 73
4
 74
0
 40
0
 40
0
 40
0
 40
0
 40
1
 40
1
 40
1
 40
1
 10
652.122030
 20
32.464296
 30
0.0
 10
653.612535
 20
31.603752
 30
0.0
 10
655.448912
 20
31.603752
 30
0.0
 10
656.939416
 20
32.464296
 30
0.0
  0
SPLINE
  5
321
100
AcDbEntity
  8
Layer_1
 62
1
100
AcDbSpline
 70
8
 71
3
 72
8
 73
4
 74
0
 40
0
 40
0
 40
0
 40
0
 40
1
 40
1
 40
1
 40
1
 10
656.939416
 20
32.464296
 30
0.0
 10
658.429921
 20
33.324839
 30
0.0
 10
659.348109
 20
34.915188
 30
0.0
 10
659.348109
 20
36.636274
 30
0.0
  0
SPLINE
  5
322
100
AcDbEntity
  8
Layer_1
 62
1
100
AcDbSpline
 70
8
 71
3
 72
8
 73
4
 74
0
 40
0
 40
0
 40
0
 40
0
 40
1
 40
1
 40
1
 40
1
 10
659.348109
 20
36.636274
 30
0.0
 10
659.348109
 20
38.357361
 30
0.0
 10
658.429921
 20
39.947710
 30
0.0
 10
656.939416
 20
40.808253
 30
0.0
  0
SPLINE
  5
323
100
AcDbEntity
  8
Layer_1
 62
1
100
AcDbSpline
 70
8
 71
3
 72
8
 73
4
 74
0
 40
0
 40
0
 40
0
 40
0
 40
1
 40
1
 40
1
 40
1
 10
656.939416
 20
40.808253
 30
0.0
 10
655.448912
 20
41.668796
 30
0.0
 10
653.612535
 20
41.668796
 30
0.0
 10
652.122030
 20
40.808253
 30
0.0
  0
SPLINE
  5
324
100
AcDbEntity
  8
Layer_1
 62
1
100
AcDbSpline
 70
8
 71
3
 72
8
 73
4
 74
0
 40
0
 40
0
 40
0
 40
0
 40
1
 40
1
 40
1
 40
1
 10
652.122030
 20
40.808253
 30
0.0
 10
650.631526
 20
39.947710
 30
0.0
 10
649.713337
 20
38.357361
 30
0.0
 10
649.713337
 20
36.636274
 30
0.0
  0
LWPOLYLINE
  5
325
100
AcDbEntity
  8
Layer_1
 62
1
100
AcDbPolyline
 90
4
 70
1
 10
525.062394
 20
56.283174
 30
0.0
 10
526.763181
 20
56.283174
 30
0.0
 10
526.763181
 20
18.068883
 30
0.0
 10
525.062394
 20
18.068883
 30
0.0
  0
LWPOLYLINE
  5
326
100
AcDbEntity
  8
Layer_1
 62
1
100
AcDbPolyline
 90
1
 70
1
 10
649.713337
 20
36.636274
 30
0.0
  0
SPLINE
  5
327
100
AcDbEntity
  8
Layer_1
 62
1
100
AcDbSpline
 70
8
 71
3
 72
8
 73
4
 74
0
 40
0
 40
0
 40
0
 40
0
 40
1
 40
1
 40
1
 40
1
 10
740.156753
 20
623.965910
 30
0.0
 10
710.005269
 20
623.965910
 30
0.0
 10
685.730969
 20
616.210939
 30
0.0
 10
685.730969
 20
606.579190
 30
0.0
  0
LWPOLYLINE
  5
328
100
AcDbEntity
  8
Layer_1
 62
1
100
AcDbPolyline
 90
4
 70
1
 10
616.133820
 20
56.283174
 30
0.0
 10
614.433033
 20
56.283174
 30
0.0
 10
614.433033
 20
18.068883
 30
0.0
 10
616.133820
 20
18.068883
 30
0.0
  0
SPLINE
  5
329
100
AcDbEntity
  8
Layer_1
 62
1
100
AcDbSpline
 70
8
 71
3
 72
8
 73
4
 74
0
 40
0
 40
0
 40
0
 40
0
 40
1
 40
1
 40
1
 40
1
 10
685.730969
 20
565.760829
 30
0.0
 10
685.730969
 20
556.129081
 30
0.0
 10
710.005269
 20
548.374109
 30
0.0
 10
740.156753
 20
548.374109
 30
0.0
  0
LWPOLYLINE
  5
32a
100
AcDbEntity
  8
Layer_1
 62
1
100
AcDbPolyline
 90
2
 70
0
 10
685.730969
 20
606.579190
 30
0.0
 10
685.730969
 20
565.760829
 30
0.0
  0
SPLINE
  5
32b
100
AcDbEntity
  8
Layer_1
 62
1
100
AcDbSpline
 70
8
 71
3
 72
8
 73
4
 74
0
 40
0
 40
0
 40
0
 40
0
 40
1
 40
1
 40
1
 40
1
 10
858.078638
 20
548.374109
 30
0.0
 10
888.230119
 20
548.374109
 30
0.0
 10
912.504420
 20
556.129081
 30
0.0
 10
912.504420
 20
565.760829
 30
0.0
  0
LWPOLYLINE
  5
32c
100
AcDbEntity
  8
Layer_1
 62
1
100
AcDbPolyline
 90
3
 70
0
 10
740.156753
 20
548.374109
 30
0.0
 10
799.117695
 20
548.374109
 30
0.0
 10
858.078638
 20
548.374109
 30
0.0
  0
SPLINE
  5
32d
100
AcDbEntity
  8
Layer_1
 62
1
100
AcDbSpline
 70
8
 71
3
 72
8
 73
4
 74
0
 40
0
 40
0
 40
0
 40
0
 40
1
 40
1
 40
1
 40
1
 10
912.504420
 20
606.579190
 30
0.0
 10
912.504420
 20
616.210939
 30
0.0
 10
888.230119
 20
623.965910
 30
0.0
 10
858.078638
 20
623.965910
 30
0.0
  0
LWPOLYLINE
  5
32e
100
AcDbEntity
  8
Layer_1
 62
1
100
AcDbPolyline
 90
2
 70
0
 10
912.504420
 20
565.760829
 30
0.0
 10
912.504420
 20
606.579190
 30
0.0
  0
SPLINE
  5
32f
100
AcDbEntity
  8
Layer_1
 62
1
100
AcDbSpline
 70
8
 71
3
 72
8
 73
4
 74
0
 40
0
 40
0
 40
0
 40
0
 40
1
 40
1
 40
1
 40
1
 10
720.002274
 20
584.915854
 30
0.0
 10
720.002274
 20
583.194768
 30
0.0
 10
719.084085
 20
581.604418
 30
0.0
 10
717.593580
 20
580.743875
 30
0.0
  0
SPLINE
  5
330
100
AcDbEntity
  8
Layer_1
 62
1
100
AcDbSpline
 70
8
 71
3
 72
8
 73
4
 74
0
 40
0
 40
0
 40
0
 40
0
 40
1
 40
1
 40
1
 40
1
 10
717.593580
 20
580.743875
 30
0.0
 10
716.103076
 20
579.883332
 30
0.0
 10
714.266699
 20
579.883332
 30
0.0
 10
712.776194
 20
580.743875
 30
0.0
  0
SPLINE
  5
331
100
AcDbEntity
  8
Layer_1
 62
1
100
AcDbSpline
 70
8
 71
3
 72
8
 73
4
 74
0
 40
0
 40
0
 40
0
 40
0
 40
1
 40
1
 40
1
 40
1
 10
712.776194
 20
580.743875
 30
0.0
 10
711.285690
 20
581.604418
 30
0.0
 10
710.367501
 20
583.194768
 30
0.0
 10
710.367501
 20
584.915854
 30
0.0
  0
SPLINE
  5
332
100
AcDbEntity
  8
Layer_1
 62
1
100
AcDbSpline
 70
8
 71
3
 72
8
 73
4
 74
0
 40
0
 40
0
 40
0
 40
0
 40
1
 40
1
 40
1
 40
1
 10
710.367501
 20
584.915854
 30
0.0
 10
710.367502
 20
587.576422
 30
0.0
 10
712.524319
 20
589.733239
 30
0.0
 10
715.184887
 20
589.733239
 30
0.0
  0
SPLINE
  5
333
100
AcDbEntity
  8
Layer_1
 62
1
100
AcDbSpline
 70
8
 71
3
 72
8
 73
4
 74
0
 40
0
 40
0
 40
0
 40
0
 40
1
 40
1
 40
1
 40
1
 10
715.184887
 20
589.733239
 30
0.0
 10
717.845456
 20
589.733239
 30
0.0
 10
720.002273
 20
587.576422
 30
0.0
 10
720.002274
 20
584.915854
 30
0.0
  0
LWPOLYLINE
  5
334
100
AcDbEntity
  8
Layer_1
 62
1
100
AcDbPolyline
 90
3
 70
0
 10
858.078638
 20
623.965910
 30
0.0
 10
799.117695
 20
623.965910
 30
0.0
 10
740.156753
 20
623.965910
 30
0.0
  0
LWPOLYLINE
  5
335
100
AcDbEntity
  8
Layer_1
 62
1
100
AcDbPolyline
 90
1
 70
1
 10
720.002274
 20
584.915854
 30
0.0
  0
SPLINE
  5
336
100
AcDbEntity
  8
Layer_1
 62
1
100
AcDbSpline
 70
8
 71
3
 72
8
 73
4
 74
0
 40
0
 40
0
 40
0
 40
0
 40
1
 40
1
 40
1
 40
1
 10
878.232847
 20
584.915854
 30
0.0
 10
878.232847
 20
583.194768
 30
0.0
 10
879.151036
 20
581.604418
 30
0.0
 10
880.641540
 20
580.743875
 30
0.0
  0
SPLINE
  5
337
100
AcDbEntity
  8
Layer_1
 62
1
100
AcDbSpline
 70
8
 71
3
 72
8
 73
4
 74
0
 40
0
 40
0
 40
0
 40
0
 40
1
 40
1
 40
1
 40
1
 10
880.641540
 20
580.743875
 30
0.0
 10
882.132044
 20
579.883332
 30
0.0
 10
883.968422
 20
579.883332
 30
0.0
 10
885.458926
 20
580.743875
 30
0.0
  0
SPLINE
  5
338
100
AcDbEntity
  8
Layer_1
 62
1
100
AcDbSpline
 70
8
 71
3
 72
8
 73
4
 74
0
 40
0
 40
0
 40
0
 40
0
 40
1
 40
1
 40
1
 40
1
 10
885.458926
 20
580.743875
 30
0.0
 10
886.949431
 20
581.604418
 30
0.0
 10
887.867619
 20
583.194768
 30
0.0
 10
887.867619
 20
584.915854
 30
0.0
  0
SPLINE
  5
339
100
AcDbEntity
  8
Layer_1
 62
1
100
AcDbSpline
 70
8
 71
3
 72
8
 73
4
 74
0
 40
0
 40
0
 40
0
 40
0
 40
1
 40
1
 40
1
 40
1
 10
887.867619
 20
584.915854
 30
0.0
 10
887.867619
 20
586.636940
 30
0.0
 10
886.949431
 20
588.227290
 30
0.0
 10
885.458926
 20
589.087833
 30
0.0
  0
SPLINE
  5
33a
100
AcDbEntity
  8
Layer_1
 62
1
100
AcDbSpline
 70
8
 71
3
 72
8
 73
4
 74
0
 40
0
 40
0
 40
0
 40
0
 40
1
 40
1
 40
1
 40
1
 10
885.458926
 20
589.087833
 30
0.0
 10
883.968422
 20
589.948376
 30
0.0
 10
882.132044
 20
589.948376
 30
0.0
 10
880.641540
 20
589.087833
 30
0.0
  0
SPLINE
  5
33b
100
AcDbEntity
  8
Layer_1
 62
1
100
AcDbSpline
 70
8
 71
3
 72
8
 73
4
 74
0
 40
0
 40
0
 40
0
 40
0
 40
1
 40
1
 40
1
 40
1
 10
880.641540
 20
589.087833
 30
0.0
 10
879.151036
 20
588.227290
 30
0.0
 10
878.232847
 20
586.636940
 30
0.0
 10
878.232847
 20
584.915854
 30
0.0
  0
LWPOLYLINE
  5
33c
100
AcDbEntity
  8
Layer_1
 62
1
100
AcDbPolyline
 90
4
 70
1
 10
753.581904
 20
604.562754
 30
0.0
 10
755.282691
 20
604.562754
 30
0.0
 10
755.282691
 20
566.348463
 30
0.0
 10
753.581904
 20
566.348463
 30
0.0
  0
LWPOLYLINE
  5
33d
100
AcDbEntity
  8
Layer_1
 62
1
100
AcDbPolyline
 90
1
 70
1
 10
878.232847
 20
584.915854
 30
0.0
  0
SPLINE
  5
33e
100
AcDbEntity
  8
Layer_1
 62
1
100
AcDbSpline
 70
8
 71
3
 72
8
 73
4
 74
0
 40
0
 40
0
 40
0
 40
0
 40
1
 40
1
 40
1
 40
1
 10
740.156753
 20
545.435532
 30
0.0
 10
710.005269
 20
545.435532
 30
0.0
 10
685.730969
 20
537.680560
 30
0.0
 10
685.730969
 20
528.048812
 30
0.0
  0
LWPOLYLINE
  5
33f
100
AcDbEntity
  8
Layer_1
 62
1
100
AcDbPolyline
 90
4
 70
1
 10
844.653330
 20
604.562754
 30
0.0
 10
842.952542
 20
604.562754
 30
0.0
 10
842.952542
 20
566.348463
 30
0.0
 10
844.653330
 20
566.348463
 30
0.0
  0
SPLINE
  5
340
100
AcDbEntity
  8
Layer_1
 62
1
100
AcDbSpline
 70
8
 71
3
 72
8
 73
4
 74
0
 40
0
 40
0
 40
0
 40
0
 40
1
 40
1
 40
1
 40
1
 10
685.730969
 20
487.230451
 30
0.0
 10
685.730969
 20
477.598702
 30
0.0
 10
710.005269
 20
469.843731
 30
0.0
 10
740.156753
 20
469.843731
 30
0.0
  0
LWPOLYLINE
  5
341
100
AcDbEntity
  8
Layer_1
 62
1
100
AcDbPolyline
 90
2
 70
0
 10
685.730969
 20
528.048812
 30
0.0
 10
685.730969
 20
487.230451
 30
0.0
  0
SPLINE
  5
342
100
AcDbEntity
  8
Layer_1
 62
1
100
AcDbSpline
 70
8
 71
3
 72
8
 73
4
 74
0
 40
0
 40
0
 40
0
 40
0
 40
1
 40
1
 40
1
 40
1
 10
858.078638
 20
469.843731
 30
0.0
 10
888.230119
 20
469.843731
 30
0.0
 10
912.504420
 20
477.598702
 30
0.0
 10
912.504420
 20
487.230451
 30
0.0
  0
LWPOLYLINE
  5
343
100
AcDbEntity
  8
Layer_1
 62
1
100
AcDbPolyline
 90
3
 70
0
 10
740.156753
 20
469.843731
 30
0.0
 10
799.117695
 20
469.843731
 30
0.0
 10
858.078638
 20
469.843731
 30
0.0
  0
SPLINE
  5
344
100
AcDbEntity
  8
Layer_1
 62
1
100
AcDbSpline
 70
8
 71
3
 72
8
 73
4
 74
0
 40
0
 40
0
 40
0
 40
0
 40
1
 40
1
 40
1
 40
1
 10
912.504420
 20
528.048812
 30
0.0
 10
912.504420
 20
537.680560
 30
0.0
 10
888.230119
 20
545.435532
 30
0.0
 10
858.078638
 20
545.435532
 30
0.0
  0
LWPOLYLINE
  5
345
100
AcDbEntity
  8
Layer_1
 62
1
100
AcDbPolyline
 90
2
 70
0
 10
912.504420
 20
487.230451
 30
0.0
 10
912.504420
 20
528.048812
 30
0.0
  0
SPLINE
  5
346
100
AcDbEntity
  8
Layer_1
 62
1
100
AcDbSpline
 70
8
 71
3
 72
8
 73
4
 74
0
 40
0
 40
0
 40
0
 40
0
 40
1
 40
1
 40
1
 40
1
 10
720.002274
 20
506.385476
 30
0.0
 10
720.002274
 20
504.664389
 30
0.0
 10
719.084085
 20
503.074040
 30
0.0
 10
717.593580
 20
502.213497
 30
0.0
  0
SPLINE
  5
347
100
AcDbEntity
  8
Layer_1
 62
1
100
AcDbSpline
 70
8
 71
3
 72
8
 73
4
 74
0
 40
0
 40
0
 40
0
 40
0
 40
1
 40
1
 40
1
 40
1
 10
717.593580
 20
502.213497
 30
0.0
 10
716.103076
 20
501.352954
 30
0.0
 10
714.266699
 20
501.352954
 30
0.0
 10
712.776194
 20
502.213497
 30
0.0
  0
SPLINE
  5
348
100
AcDbEntity
  8
Layer_1
 62
1
100
AcDbSpline
 70
8
 71
3
 72
8
 73
4
 74
0
 40
0
 40
0
 40
0
 40
0
 40
1
 40
1
 40
1
 40
1
 10
712.776194
 20
502.213497
 30
0.0
 10
711.285690
 20
503.074040
 30
0.0
 10
710.367501
 20
504.664389
 30
0.0
 10
710.367501
 20
506.385476
 30
0.0
  0
SPLINE
  5
349
100
AcDbEntity
  8
Layer_1
 62
1
100
AcDbSpline
 70
8
 71
3
 72
8
 73
4
 74
0
 40
0
 40
0
 40
0
 40
0
 40
1
 40
1
 40
1
 40
1
 10
710.367501
 20
506.385476
 30
0.0
 10
710.367502
 20
509.046044
 30
0.0
 10
712.524319
 20
511.202861
 30
0.0
 10
715.184887
 20
511.202861
 30
0.0
  0
SPLINE
  5
34a
100
AcDbEntity
  8
Layer_1
 62
1
100
AcDbSpline
 70
8
 71
3
 72
8
 73
4
 74
0
 40
0
 40
0
 40
0
 40
0
 40
1
 40
1
 40
1
 40
1
 10
715.184887
 20
511.202861
 30
0.0
 10
717.845456
 20
511.202861
 30
0.0
 10
720.002273
 20
509.046044
 30
0.0
 10
720.002274
 20
506.385476
 30
0.0
  0
LWPOLYLINE
  5
34b
100
AcDbEntity
  8
Layer_1
 62
1
100
AcDbPolyline
 90
3
 70
0
 10
858.078638
 20
545.435532
 30
0.0
 10
799.117695
 20
545.435532
 30
0.0
 10
740.156753
 20
545.435532
 30
0.0
  0
LWPOLYLINE
  5
34c
100
AcDbEntity
  8
Layer_1
 62
1
100
AcDbPolyline
 90
1
 70
1
 10
720.002274
 20
506.385476
 30
0.0
  0
SPLINE
  5
34d
100
AcDbEntity
  8
Layer_1
 62
1
100
AcDbSpline
 70
8
 71
3
 72
8
 73
4
 74
0
 40
0
 40
0
 40
0
 40
0
 40
1
 40
1
 40
1
 40
1
 10
878.232847
 20
506.385476
 30
0.0
 10
878.232847
 20
504.664389
 30
0.0
 10
879.151036
 20
503.074040
 30
0.0
 10
880.641540
 20
502.213497
 30
0.0
  0
SPLINE
  5
34e
100
AcDbEntity
  8
Layer_1
 62
1
100
AcDbSpline
 70
8
 71
3
 72
8
 73
4
 74
0
 40
0
 40
0
 40
0
 40
0
 40
1
 40
1
 40
1
 40
1
 10
880.641540
 20
502.213497
 30
0.0
 10
882.132044
 20
501.352954
 30
0.0
 10
883.968422
 20
501.352954
 30
0.0
 10
885.458926
 20
502.213497
 30
0.0
  0
SPLINE
  5
34f
100
AcDbEntity
  8
Layer_1
 62
1
100
AcDbSpline
 70
8
 71
3
 72
8
 73
4
 74
0
 40
0
 40
0
 40
0
 40
0
 40
1
 40
1
 40
1
 40
1
 10
885.458926
 20
502.213497
 30
0.0
 10
886.949431
 20
503.074040
 30
0.0
 10
887.867619
 20
504.664389
 30
0.0
 10
887.867619
 20
506.385476
 30
0.0
  0
SPLINE
  5
350
100
AcDbEntity
  8
Layer_1
 62
1
100
AcDbSpline
 70
8
 71
3
 72
8
 73
4
 74
0
 40
0
 40
0
 40
0
 40
0
 40
1
 40
1
 40
1
 40
1
 10
887.867619
 20
506.385476
 30
0.0
 10
887.867619
 20
508.106562
 30
0.0
 10
886.949431
 20
509.696911
 30
0.0
 10
885.458926
 20
510.557454
 30
0.0
  0
SPLINE
  5
351
100
AcDbEntity
  8
Layer_1
 62
1
100
AcDbSpline
 70
8
 71
3
 72
8
 73
4
 74
0
 40
0
 40
0
 40
0
 40
0
 40
1
 40
1
 40
1
 40
1
 10
885.458926
 20
510.557454
 30
0.0
 10
883.968422
 20
511.417998
 30
0.0
 10
882.132044
 20
511.417998
 30
0.0
 10
880.641540
 20
510.557454
 30
0.0
  0
SPLINE
  5
352
100
AcDbEntity
  8
Layer_1
 62
1
100
AcDbSpline
 70
8
 71
3
 72
8
 73
4
 74
0
 40
0
 40
0
 40
0
 40
0
 40
1
 40
1
 40
1
 40
1
 10
880.641540
 20
510.557454
 30
0.0
 10
879.151036
 20
509.696911
 30
0.0
 10
878.232847
 20
508.106562
 30
0.0
 10
878.232847
 20
506.385476
 30
0.0
  0
LWPOLYLINE
  5
353
100
AcDbEntity
  8
Layer_1
 62
1
100
AcDbPolyline
 90
4
 70
1
 10
753.581904
 20
526.032376
 30
0.0
 10
755.282691
 20
526.032376
 30
0.0
 10
755.282691
 20
487.818084
 30
0.0
 10
753.581904
 20
487.818084
 30
0.0
  0
LWPOLYLINE
  5
354
100
AcDbEntity
  8
Layer_1
 62
1
100
AcDbPolyline
 90
1
 70
1
 10
878.232847
 20
506.385476
 30
0.0
  0
SPLINE
  5
355
100
AcDbEntity
  8
Layer_1
 62
1
100
AcDbSpline
 70
8
 71
3
 72
8
 73
4
 74
0
 40
0
 40
0
 40
0
 40
0
 40
1
 40
1
 40
1
 40
1
 10
740.156753
 20
467.716807
 30
0.0
 10
710.005269
 20
467.716807
 30
0.0
 10
685.730969
 20
459.961836
 30
0.0
 10
685.730969
 20
450.330087
 30
0.0
  0
LWPOLYLINE
  5
356
100
AcDbEntity
  8
Layer_1
 62
1
100
AcDbPolyline
 90
4
 70
1
 10
844.653330
 20
526.032376
 30
0.0
 10
842.952542
 20
526.032376
 30
0.0
 10
842.952542
 20
487.818084
 30
0.0
 10
844.653330
 20
487.818084
 30
0.0
  0
SPLINE
  5
357
100
AcDbEntity
  8
Layer_1
 62
1
100
AcDbSpline
 70
8
 71
3
 72
8
 73
4
 74
0
 40
0
 40
0
 40
0
 40
0
 40
1
 40
1
 40
1
 40
1
 10
685.730969
 20
409.511726
 30
0.0
 10
685.730969
 20
399.879978
 30
0.0
 10
710.005269
 20
392.125006
 30
0.0
 10
740.156753
 20
392.125006
 30
0.0
  0
LWPOLYLINE
  5
358
100
AcDbEntity
  8
Layer_1
 62
1
100
AcDbPolyline
 90
2
 70
0
 10
685.730969
 20
450.330087
 30
0.0
 10
685.730969
 20
409.511726
 30
0.0
  0
SPLINE
  5
359
100
AcDbEntity
  8
Layer_1
 62
1
100
AcDbSpline
 70
8
 71
3
 72
8
 73
4
 74
0
 40
0
 40
0
 40
0
 40
0
 40
1
 40
1
 40
1
 40
1
 10
858.078638
 20
392.125006
 30
0.0
 10
888.230119
 20
392.125006
 30
0.0
 10
912.504420
 20
399.879978
 30
0.0
 10
912.504420
 20
409.511726
 30
0.0
  0
LWPOLYLINE
  5
35a
100
AcDbEntity
  8
Layer_1
 62
1
100
AcDbPolyline
 90
3
 70
0
 10
740.156753
 20
392.125006
 30
0.0
 10
799.117695
 20
392.125006
 30
0.0
 10
858.078638
 20
392.125006
 30
0.0
  0
SPLINE
  5
35b
100
AcDbEntity
  8
Layer_1
 62
1
100
AcDbSpline
 70
8
 71
3
 72
8
 73
4
 74
0
 40
0
 40
0
 40
0
 40
0
 40
1
 40
1
 40
1
 40
1
 10
912.504420
 20
450.330087
 30
0.0
 10
912.504420
 20
459.961836
 30
0.0
 10
888.230119
 20
467.716807
 30
0.0
 10
858.078638
 20
467.716807
 30
0.0
  0
LWPOLYLINE
  5
35c
100
AcDbEntity
  8
Layer_1
 62
1
100
AcDbPolyline
 90
2
 70
0
 10
912.504420
 20
409.511726
 30
0.0
 10
912.504420
 20
450.330087
 30
0.0
  0
SPLINE
  5
35d
100
AcDbEntity
  8
Layer_1
 62
1
100
AcDbSpline
 70
8
 71
3
 72
8
 73
4
 74
0
 40
0
 40
0
 40
0
 40
0
 40
1
 40
1
 40
1
 40
1
 10
720.002274
 20
428.666751
 30
0.0
 10
720.002274
 20
426.945665
 30
0.0
 10
719.084085
 20
425.355315
 30
0.0
 10
717.593580
 20
424.494772
 30
0.0
  0
SPLINE
  5
35e
100
AcDbEntity
  8
Layer_1
 62
1
100
AcDbSpline
 70
8
 71
3
 72
8
 73
4
 74
0
 40
0
 40
0
 40
0
 40
0
 40
1
 40
1
 40
1
 40
1
 10
717.593580
 20
424.494772
 30
0.0
 10
716.103076
 20
423.634229
 30
0.0
 10
714.266699
 20
423.634229
 30
0.0
 10
712.776194
 20
424.494772
 30
0.0
  0
SPLINE
  5
35f
100
AcDbEntity
  8
Layer_1
 62
1
100
AcDbSpline
 70
8
 71
3
 72
8
 73
4
 74
0
 40
0
 40
0
 40
0
 40
0
 40
1
 40
1
 40
1
 40
1
 10
712.776194
 20
424.494772
 30
0.0
 10
711.285690
 20
425.355315
 30
0.0
 10
710.367501
 20
426.945665
 30
0.0
 10
710.367501
 20
428.666751
 30
0.0
  0
SPLINE
  5
360
100
AcDbEntity
  8
Layer_1
 62
1
100
AcDbSpline
 70
8
 71
3
 72
8
 73
4
 74
0
 40
0
 40
0
 40
0
 40
0
 40
1
 40
1
 40
1
 40
1
 10
710.367501
 20
428.666751
 30
0.0
 10
710.367502
 20
431.327319
 30
0.0
 10
712.524319
 20
433.484136
 30
0.0
 10
715.184887
 20
433.484136
 30
0.0
  0
SPLINE
  5
361
100
AcDbEntity
  8
Layer_1
 62
1
100
AcDbSpline
 70
8
 71
3
 72
8
 73
4
 74
0
 40
0
 40
0
 40
0
 40
0
 40
1
 40
1
 40
1
 40
1
 10
715.184887
 20
433.484136
 30
0.0
 10
717.845456
 20
433.484136
 30
0.0
 10
720.002273
 20
431.327319
 30
0.0
 10
720.002274
 20
428.666751
 30
0.0
  0
LWPOLYLINE
  5
362
100
AcDbEntity
  8
Layer_1
 62
1
100
AcDbPolyline
 90
3
 70
0
 10
858.078638
 20
467.716807
 30
0.0
 10
799.117695
 20
467.716807
 30
0.0
 10
740.156753
 20
467.716807
 30
0.0
  0
LWPOLYLINE
  5
363
100
AcDbEntity
  8
Layer_1
 62
1
100
AcDbPolyline
 90
1
 70
1
 10
720.002274
 20
428.666751
 30
0.0
  0
SPLINE
  5
364
100
AcDbEntity
  8
Layer_1
 62
1
100
AcDbSpline
 70
8
 71
3
 72
8
 73
4
 74
0
 40
0
 40
0
 40
0
 40
0
 40
1
 40
1
 40
1
 40
1
 10
878.232847
 20
428.666751
 30
0.0
 10
878.232847
 20
426.945665
 30
0.0
 10
879.151036
 20
425.355315
 30
0.0
 10
880.641540
 20
424.494772
 30
0.0
  0
SPLINE
  5
365
100
AcDbEntity
  8
Layer_1
 62
1
100
AcDbSpline
 70
8
 71
3
 72
8
 73
4
 74
0
 40
0
 40
0
 40
0
 40
0
 40
1
 40
1
 40
1
 40
1
 10
880.641540
 20
424.494772
 30
0.0
 10
882.132044
 20
423.634229
 30
0.0
 10
883.968422
 20
423.634229
 30
0.0
 10
885.458926
 20
424.494772
 30
0.0
  0
SPLINE
  5
366
100
AcDbEntity
  8
Layer_1
 62
1
100
AcDbSpline
 70
8
 71
3
 72
8
 73
4
 74
0
 40
0
 40
0
 40
0
 40
0
 40
1
 40
1
 40
1
 40
1
 10
885.458926
 20
424.494772
 30
0.0
 10
886.949431
 20
425.355315
 30
0.0
 10
887.867619
 20
426.945665
 30
0.0
 10
887.867619
 20
428.666751
 30
0.0
  0
SPLINE
  5
367
100
AcDbEntity
  8
Layer_1
 62
1
100
AcDbSpline
 70
8
 71
3
 72
8
 73
4
 74
0
 40
0
 40
0
 40
0
 40
0
 40
1
 40
1
 40
1
 40
1
 10
887.867619
 20
428.666751
 30
0.0
 10
887.867619
 20
430.387837
 30
0.0
 10
886.949431
 20
431.978187
 30
0.0
 10
885.458926
 20
432.838730
 30
0.0
  0
SPLINE
  5
368
100
AcDbEntity
  8
Layer_1
 62
1
100
AcDbSpline
 70
8
 71
3
 72
8
 73
4
 74
0
 40
0
 40
0
 40
0
 40
0
 40
1
 40
1
 40
1
 40
1
 10
885.458926
 20
432.838730
 30
0.0
 10
883.968422
 20
433.699273
 30
0.0
 10
882.132044
 20
433.699273
 30
0.0
 10
880.641540
 20
432.838730
 30
0.0
  0
SPLINE
  5
369
100
AcDbEntity
  8
Layer_1
 62
1
100
AcDbSpline
 70
8
 71
3
 72
8
 73
4
 74
0
 40
0
 40
0
 40
0
 40
0
 40
1
 40
1
 40
1
 40
1
 10
880.641540
 20
432.838730
 30
0.0
 10
879.151036
 20
431.978187
 30
0.0
 10
878.232847
 20
430.387837
 30
0.0
 10
878.232847
 20
428.666751
 30
0.0
  0
LWPOLYLINE
  5
36a
100
AcDbEntity
  8
Layer_1
 62
1
100
AcDbPolyline
 90
4
 70
1
 10
753.581904
 20
448.313651
 30
0.0
 10
755.282691
 20
448.313651
 30
0.0
 10
755.282691
 20
410.099360
 30
0.0
 10
753.581904
 20
410.099360
 30
0.0
  0
LWPOLYLINE
  5
36b
100
AcDbEntity
  8
Layer_1
 62
1
100
AcDbPolyline
 90
1
 70
1
 10
878.232847
 20
428.666751
 30
0.0
  0
SPLINE
  5
36c
100
AcDbEntity
  8
Layer_1
 62
1
100
AcDbSpline
 70
8
 71
3
 72
8
 73
4
 74
0
 40
0
 40
0
 40
0
 40
0
 40
1
 40
1
 40
1
 40
1
 10
740.156753
 20
389.186432
 30
0.0
 10
710.005269
 20
389.186432
 30
0.0
 10
685.730969
 20
381.431461
 30
0.0
 10
685.730969
 20
371.799712
 30
0.0
  0
LWPOLYLINE
  5
36d
100
AcDbEntity
  8
Layer_1
 62
1
100
AcDbPolyline
 90
4
 70
1
 10
844.653330
 20
448.313651
 30
0.0
 10
842.952542
 20
448.313651
 30
0.0
 10
842.952542
 20
410.099360
 30
0.0
 10
844.653330
 20
410.099360
 30
0.0
  0
SPLINE
  5
36e
100
AcDbEntity
  8
Layer_1
 62
1
100
AcDbSpline
 70
8
 71
3
 72
8
 73
4
 74
0
 40
0
 40
0
 40
0
 40
0
 40
1
 40
1
 40
1
 40
1
 10
685.730969
 20
330.981352
 30
0.0
 10
685.730969
 20
321.349603
 30
0.0
 10
710.005269
 20
313.594632
 30
0.0
 10
740.156753
 20
313.594632
 30
0.0
  0
LWPOLYLINE
  5
36f
100
AcDbEntity
  8
Layer_1
 62
1
100
AcDbPolyline
 90
2
 70
0
 10
685.730969
 20
371.799712
 30
0.0
 10
685.730969
 20
330.981352
 30
0.0
  0
SPLINE
  5
370
100
AcDbEntity
  8
Layer_1
 62
1
100
AcDbSpline
 70
8
 71
3
 72
8
 73
4
 74
0
 40
0
 40
0
 40
0
 40
0
 40
1
 40
1
 40
1
 40
1
 10
858.078638
 20
313.594632
 30
0.0
 10
888.230119
 20
313.594632
 30
0.0
 10
912.504420
 20
321.349603
 30
0.0
 10
912.504420
 20
330.981352
 30
0.0
  0
LWPOLYLINE
  5
371
100
AcDbEntity
  8
Layer_1
 62
1
100
AcDbPolyline
 90
3
 70
0
 10
740.156753
 20
313.594632
 30
0.0
 10
799.117695
 20
313.594632
 30
0.0
 10
858.078638
 20
313.594632
 30
0.0
  0
SPLINE
  5
372
100
AcDbEntity
  8
Layer_1
 62
1
100
AcDbSpline
 70
8
 71
3
 72
8
 73
4
 74
0
 40
0
 40
0
 40
0
 40
0
 40
1
 40
1
 40
1
 40
1
 10
912.504420
 20
371.799712
 30
0.0
 10
912.504420
 20
381.431461
 30
0.0
 10
888.230119
 20
389.186432
 30
0.0
 10
858.078638
 20
389.186432
 30
0.0
  0
LWPOLYLINE
  5
373
100
AcDbEntity
  8
Layer_1
 62
1
100
AcDbPolyline
 90
2
 70
0
 10
912.504420
 20
330.981352
 30
0.0
 10
912.504420
 20
371.799712
 30
0.0
  0
SPLINE
  5
374
100
AcDbEntity
  8
Layer_1
 62
1
100
AcDbSpline
 70
8
 71
3
 72
8
 73
4
 74
0
 40
0
 40
0
 40
0
 40
0
 40
1
 40
1
 40
1
 40
1
 10
720.002274
 20
350.136376
 30
0.0
 10
720.002274
 20
348.415290
 30
0.0
 10
719.084085
 20
346.824941
 30
0.0
 10
717.593580
 20
345.964398
 30
0.0
  0
SPLINE
  5
375
100
AcDbEntity
  8
Layer_1
 62
1
100
AcDbSpline
 70
8
 71
3
 72
8
 73
4
 74
0
 40
0
 40
0
 40
0
 40
0
 40
1
 40
1
 40
1
 40
1
 10
717.593580
 20
345.964398
 30
0.0
 10
716.103076
 20
345.103855
 30
0.0
 10
714.266699
 20
345.103855
 30
0.0
 10
712.776194
 20
345.964398
 30
0.0
  0
SPLINE
  5
376
100
AcDbEntity
  8
Layer_1
 62
1
100
AcDbSpline
 70
8
 71
3
 72
8
 73
4
 74
0
 40
0
 40
0
 40
0
 40
0
 40
1
 40
1
 40
1
 40
1
 10
712.776194
 20
345.964398
 30
0.0
 10
711.285690
 20
346.824941
 30
0.0
 10
710.367501
 20
348.415290
 30
0.0
 10
710.367501
 20
350.136376
 30
0.0
  0
SPLINE
  5
377
100
AcDbEntity
  8
Layer_1
 62
1
100
AcDbSpline
 70
8
 71
3
 72
8
 73
4
 74
0
 40
0
 40
0
 40
0
 40
0
 40
1
 40
1
 40
1
 40
1
 10
710.367501
 20
350.136376
 30
0.0
 10
710.367502
 20
352.796945
 30
0.0
 10
712.524319
 20
354.953761
 30
0.0
 10
715.184887
 20
354.953761
 30
0.0
  0
SPLINE
  5
378
100
AcDbEntity
  8
Layer_1
 62
1
100
AcDbSpline
 70
8
 71
3
 72
8
 73
4
 74
0
 40
0
 40
0
 40
0
 40
0
 40
1
 40
1
 40
1
 40
1
 10
715.184887
 20
354.953761
 30
0.0
 10
717.845456
 20
354.953761
 30
0.0
 10
720.002273
 20
352.796945
 30
0.0
 10
720.002274
 20
350.136376
 30
0.0
  0
LWPOLYLINE
  5
379
100
AcDbEntity
  8
Layer_1
 62
1
100
AcDbPolyline
 90
3
 70
0
 10
858.078638
 20
389.186432
 30
0.0
 10
799.117695
 20
389.186432
 30
0.0
 10
740.156753
 20
389.186432
 30
0.0
  0
LWPOLYLINE
  5
37a
100
AcDbEntity
  8
Layer_1
 62
1
100
AcDbPolyline
 90
1
 70
1
 10
720.002274
 20
350.136376
 30
0.0
  0
SPLINE
  5
37b
100
AcDbEntity
  8
Layer_1
 62
1
100
AcDbSpline
 70
8
 71
3
 72
8
 73
4
 74
0
 40
0
 40
0
 40
0
 40
0
 40
1
 40
1
 40
1
 40
1
 10
878.232847
 20
350.136376
 30
0.0
 10
878.232847
 20
348.415290
 30
0.0
 10
879.151036
 20
346.824941
 30
0.0
 10
880.641540
 20
345.964398
 30
0.0
  0
SPLINE
  5
37c
100
AcDbEntity
  8
Layer_1
 62
1
100
AcDbSpline
 70
8
 71
3
 72
8
 73
4
 74
0
 40
0
 40
0
 40
0
 40
0
 40
1
 40
1
 40
1
 40
1
 10
880.641540
 20
345.964398
 30
0.0
 10
882.132044
 20
345.103855
 30
0.0
 10
883.968422
 20
345.103855
 30
0.0
 10
885.458926
 20
345.964398
 30
0.0
  0
SPLINE
  5
37d
100
AcDbEntity
  8
Layer_1
 62
1
100
AcDbSpline
 70
8
 71
3
 72
8
 73
4
 74
0
 40
0
 40
0
 40
0
 40
0
 40
1
 40
1
 40
1
 40
1
 10
885.458926
 20
345.964398
 30
0.0
 10
886.949431
 20
346.824941
 30
0.0
 10
887.867619
 20
348.415290
 30
0.0
 10
887.867619
 20
350.136376
 30
0.0
  0
SPLINE
  5
37e
100
AcDbEntity
  8
Layer_1
 62
1
100
AcDbSpline
 70
8
 71
3
 72
8
 73
4
 74
0
 40
0
 40
0
 40
0
 40
0
 40
1
 40
1
 40
1
 40
1
 10
887.867619
 20
350.136376
 30
0.0
 10
887.867619
 20
351.857463
 30
0.0
 10
886.949431
 20
353.447812
 30
0.0
 10
885.458926
 20
354.308355
 30
0.0
  0
SPLINE
  5
37f
100
AcDbEntity
  8
Layer_1
 62
1
100
AcDbSpline
 70
8
 71
3
 72
8
 73
4
 74
0
 40
0
 40
0
 40
0
 40
0
 40
1
 40
1
 40
1
 40
1
 10
885.458926
 20
354.308355
 30
0.0
 10
883.968422
 20
355.168898
 30
0.0
 10
882.132044
 20
355.168898
 30
0.0
 10
880.641540
 20
354.308355
 30
0.0
  0
SPLINE
  5
380
100
AcDbEntity
  8
Layer_1
 62
1
100
AcDbSpline
 70
8
 71
3
 72
8
 73
4
 74
0
 40
0
 40
0
 40
0
 40
0
 40
1
 40
1
 40
1
 40
1
 10
880.641540
 20
354.308355
 30
0.0
 10
879.151036
 20
353.447812
 30
0.0
 10
878.232847
 20
351.857463
 30
0.0
 10
878.232847
 20
350.136376
 30
0.0
  0
LWPOLYLINE
  5
381
100
AcDbEntity
  8
Layer_1
 62
1
100
AcDbPolyline
 90
4
 70
1
 10
753.581904
 20
369.783277
 30
0.0
 10
755.282691
 20
369.783277
 30
0.0
 10
755.282691
 20
331.568985
 30
0.0
 10
753.581904
 20
331.568985
 30
0.0
  0
LWPOLYLINE
  5
382
100
AcDbEntity
  8
Layer_1
 62
1
100
AcDbPolyline
 90
1
 70
1
 10
878.232847
 20
350.136376
 30
0.0
  0
SPLINE
  5
383
100
AcDbEntity
  8
Layer_1
 62
1
100
AcDbSpline
 70
8
 71
3
 72
8
 73
4
 74
0
 40
0
 40
0
 40
0
 40
0
 40
1
 40
1
 40
1
 40
1
 10
740.156753
 20
310.465728
 30
0.0
 10
710.005269
 20
310.465728
 30
0.0
 10
685.730969
 20
302.710757
 30
0.0
 10
685.730969
 20
293.079009
 30
0.0
  0
LWPOLYLINE
  5
384
100
AcDbEntity
  8
Layer_1
 62
1
100
AcDbPolyline
 90
4
 70
1
 10
844.653330
 20
369.783277
 30
0.0
 10
842.952542
 20
369.783277
 30
0.0
 10
842.952542
 20
331.568985
 30
0.0
 10
844.653330
 20
331.568985
 30
0.0
  0
SPLINE
  5
385
100
AcDbEntity
  8
Layer_1
 62
1
100
AcDbSpline
 70
8
 71
3
 72
8
 73
4
 74
0
 40
0
 40
0
 40
0
 40
0
 40
1
 40
1
 40
1
 40
1
 10
685.730969
 20
252.260648
 30
0.0
 10
685.730969
 20
242.628899
 30
0.0
 10
710.005269
 20
234.873928
 30
0.0
 10
740.156753
 20
234.873928
 30
0.0
  0
LWPOLYLINE
  5
386
100
AcDbEntity
  8
Layer_1
 62
1
100
AcDbPolyline
 90
2
 70
0
 10
685.730969
 20
293.079009
 30
0.0
 10
685.730969
 20
252.260648
 30
0.0
  0
SPLINE
  5
387
100
AcDbEntity
  8
Layer_1
 62
1
100
AcDbSpline
 70
8
 71
3
 72
8
 73
4
 74
0
 40
0
 40
0
 40
0
 40
0
 40
1
 40
1
 40
1
 40
1
 10
858.078638
 20
234.873928
 30
0.0
 10
888.230119
 20
234.873928
 30
0.0
 10
912.504420
 20
242.628899
 30
0.0
 10
912.504420
 20
252.260648
 30
0.0
  0
LWPOLYLINE
  5
388
100
AcDbEntity
  8
Layer_1
 62
1
100
AcDbPolyline
 90
3
 70
0
 10
740.156753
 20
234.873928
 30
0.0
 10
799.117695
 20
234.873928
 30
0.0
 10
858.078638
 20
234.873928
 30
0.0
  0
SPLINE
  5
389
100
AcDbEntity
  8
Layer_1
 62
1
100
AcDbSpline
 70
8
 71
3
 72
8
 73
4
 74
0
 40
0
 40
0
 40
0
 40
0
 40
1
 40
1
 40
1
 40
1
 10
912.504420
 20
293.079009
 30
0.0
 10
912.504420
 20
302.710757
 30
0.0
 10
888.230119
 20
310.465728
 30
0.0
 10
858.078638
 20
310.465728
 30
0.0
  0
LWPOLYLINE
  5
38a
100
AcDbEntity
  8
Layer_1
 62
1
100
AcDbPolyline
 90
2
 70
0
 10
912.504420
 20
252.260648
 30
0.0
 10
912.504420
 20
293.079009
 30
0.0
  0
SPLINE
  5
38b
100
AcDbEntity
  8
Layer_1
 62
1
100
AcDbSpline
 70
8
 71
3
 72
8
 73
4
 74
0
 40
0
 40
0
 40
0
 40
0
 40
1
 40
1
 40
1
 40
1
 10
720.002274
 20
271.415673
 30
0.0
 10
720.002274
 20
269.694586
 30
0.0
 10
719.084085
 20
268.104237
 30
0.0
 10
717.593580
 20
267.243694
 30
0.0
  0
SPLINE
  5
38c
100
AcDbEntity
  8
Layer_1
 62
1
100
AcDbSpline
 70
8
 71
3
 72
8
 73
4
 74
0
 40
0
 40
0
 40
0
 40
0
 40
1
 40
1
 40
1
 40
1
 10
717.593580
 20
267.243694
 30
0.0
 10
716.103076
 20
266.383151
 30
0.0
 10
714.266699
 20
266.383151
 30
0.0
 10
712.776194
 20
267.243694
 30
0.0
  0
SPLINE
  5
38d
100
AcDbEntity
  8
Layer_1
 62
1
100
AcDbSpline
 70
8
 71
3
 72
8
 73
4
 74
0
 40
0
 40
0
 40
0
 40
0
 40
1
 40
1
 40
1
 40
1
 10
712.776194
 20
267.243694
 30
0.0
 10
711.285690
 20
268.104237
 30
0.0
 10
710.367501
 20
269.694586
 30
0.0
 10
710.367501
 20
271.415673
 30
0.0
  0
SPLINE
  5
38e
100
AcDbEntity
  8
Layer_1
 62
1
100
AcDbSpline
 70
8
 71
3
 72
8
 73
4
 74
0
 40
0
 40
0
 40
0
 40
0
 40
1
 40
1
 40
1
 40
1
 10
710.367501
 20
271.415673
 30
0.0
 10
710.367502
 20
274.076241
 30
0.0
 10
712.524319
 20
276.233057
 30
0.0
 10
715.184887
 20
276.233057
 30
0.0
  0
SPLINE
  5
38f
100
AcDbEntity
  8
Layer_1
 62
1
100
AcDbSpline
 70
8
 71
3
 72
8
 73
4
 74
0
 40
0
 40
0
 40
0
 40
0
 40
1
 40
1
 40
1
 40
1
 10
715.184887
 20
276.233057
 30
0.0
 10
717.845456
 20
276.233057
 30
0.0
 10
720.002273
 20
274.076241
 30
0.0
 10
720.002274
 20
271.415673
 30
0.0
  0
LWPOLYLINE
  5
390
100
AcDbEntity
  8
Layer_1
 62
1
100
AcDbPolyline
 90
3
 70
0
 10
858.078638
 20
310.465728
 30
0.0
 10
799.117695
 20
310.465728
 30
0.0
 10
740.156753
 20
310.465728
 30
0.0
  0
LWPOLYLINE
  5
391
100
AcDbEntity
  8
Layer_1
 62
1
100
AcDbPolyline
 90
1
 70
1
 10
720.002274
 20
271.415673
 30
0.0
  0
SPLINE
  5
392
100
AcDbEntity
  8
Layer_1
 62
1
100
AcDbSpline
 70
8
 71
3
 72
8
 73
4
 74
0
 40
0
 40
0
 40
0
 40
0
 40
1
 40
1
 40
1
 40
1
 10
878.232847
 20
271.415673
 30
0.0
 10
878.232847
 20
269.694586
 30
0.0
 10
879.151036
 20
268.104237
 30
0.0
 10
880.641540
 20
267.243694
 30
0.0
  0
SPLINE
  5
393
100
AcDbEntity
  8
Layer_1
 62
1
100
AcDbSpline
 70
8
 71
3
 72
8
 73
4
 74
0
 40
0
 40
0
 40
0
 40
0
 40
1
 40
1
 40
1
 40
1
 10
880.641540
 20
267.243694
 30
0.0
 10
882.132044
 20
266.383151
 30
0.0
 10
883.968422
 20
266.383151
 30
0.0
 10
885.458926
 20
267.243694
 30
0.0
  0
SPLINE
  5
394
100
AcDbEntity
  8
Layer_1
 62
1
100
AcDbSpline
 70
8
 71
3
 72
8
 73
4
 74
0
 40
0
 40
0
 40
0
 40
0
 40
1
 40
1
 40
1
 40
1
 10
885.458926
 20
267.243694
 30
0.0
 10
886.949431
 20
268.104237
 30
0.0
 10
887.867619
 20
269.694586
 30
0.0
 10
887.867619
 20
271.415673
 30
0.0
  0
SPLINE
  5
395
100
AcDbEntity
  8
Layer_1
 62
1
100
AcDbSpline
 70
8
 71
3
 72
8
 73
4
 74
0
 40
0
 40
0
 40
0
 40
0
 40
1
 40
1
 40
1
 40
1
 10
887.867619
 20
271.415673
 30
0.0
 10
887.867619
 20
273.136759
 30
0.0
 10
886.949431
 20
274.727108
 30
0.0
 10
885.458926
 20
275.587651
 30
0.0
  0
SPLINE
  5
396
100
AcDbEntity
  8
Layer_1
 62
1
100
AcDbSpline
 70
8
 71
3
 72
8
 73
4
 74
0
 40
0
 40
0
 40
0
 40
0
 40
1
 40
1
 40
1
 40
1
 10
885.458926
 20
275.587651
 30
0.0
 10
883.968422
 20
276.448194
 30
0.0
 10
882.132044
 20
276.448194
 30
0.0
 10
880.641540
 20
275.587651
 30
0.0
  0
SPLINE
  5
397
100
AcDbEntity
  8
Layer_1
 62
1
100
AcDbSpline
 70
8
 71
3
 72
8
 73
4
 74
0
 40
0
 40
0
 40
0
 40
0
 40
1
 40
1
 40
1
 40
1
 10
880.641540
 20
275.587651
 30
0.0
 10
879.151036
 20
274.727108
 30
0.0
 10
878.232847
 20
273.136759
 30
0.0
 10
878.232847
 20
271.415673
 30
0.0
  0
LWPOLYLINE
  5
398
100
AcDbEntity
  8
Layer_1
 62
1
100
AcDbPolyline
 90
4
 70
1
 10
753.581904
 20
291.062573
 30
0.0
 10
755.282691
 20
291.062573
 30
0.0
 10
755.282691
 20
252.848281
 30
0.0
 10
753.581904
 20
252.848281
 30
0.0
  0
LWPOLYLINE
  5
399
100
AcDbEntity
  8
Layer_1
 62
1
100
AcDbPolyline
 90
1
 70
1
 10
878.232847
 20
271.415673
 30
0.0
  0
SPLINE
  5
39a
100
AcDbEntity
  8
Layer_1
 62
1
100
AcDbSpline
 70
8
 71
3
 72
8
 73
4
 74
0
 40
0
 40
0
 40
0
 40
0
 40
1
 40
1
 40
1
 40
1
 10
740.156753
 20
231.935373
 30
0.0
 10
710.005269
 20
231.935373
 30
0.0
 10
685.730969
 20
224.180402
 30
0.0
 10
685.730969
 20
214.548653
 30
0.0
  0
LWPOLYLINE
  5
39b
100
AcDbEntity
  8
Layer_1
 62
1
100
AcDbPolyline
 90
4
 70
1
 10
844.653330
 20
291.062573
 30
0.0
 10
842.952542
 20
291.062573
 30
0.0
 10
842.952542
 20
252.848281
 30
0.0
 10
844.653330
 20
252.848281
 30
0.0
  0
SPLINE
  5
39c
100
AcDbEntity
  8
Layer_1
 62
1
100
AcDbSpline
 70
8
 71
3
 72
8
 73
4
 74
0
 40
0
 40
0
 40
0
 40
0
 40
1
 40
1
 40
1
 40
1
 10
685.730969
 20
173.730292
 30
0.0
 10
685.730969
 20
164.098543
 30
0.0
 10
710.005269
 20
156.343572
 30
0.0
 10
740.156753
 20
156.343572
 30
0.0
  0
LWPOLYLINE
  5
39d
100
AcDbEntity
  8
Layer_1
 62
1
100
AcDbPolyline
 90
2
 70
0
 10
685.730969
 20
214.548653
 30
0.0
 10
685.730969
 20
173.730292
 30
0.0
  0
SPLINE
  5
39e
100
AcDbEntity
  8
Layer_1
 62
1
100
AcDbSpline
 70
8
 71
3
 72
8
 73
4
 74
0
 40
0
 40
0
 40
0
 40
0
 40
1
 40
1
 40
1
 40
1
 10
858.078638
 20
156.343572
 30
0.0
 10
888.230119
 20
156.343572
 30
0.0
 10
912.504420
 20
164.098543
 30
0.0
 10
912.504420
 20
173.730292
 30
0.0
  0
LWPOLYLINE
  5
39f
100
AcDbEntity
  8
Layer_1
 62
1
100
AcDbPolyline
 90
3
 70
0
 10
740.156753
 20
156.343572
 30
0.0
 10
799.117695
 20
156.343572
 30
0.0
 10
858.078638
 20
156.343572
 30
0.0
  0
SPLINE
  5
3a0
100
AcDbEntity
  8
Layer_1
 62
1
100
AcDbSpline
 70
8
 71
3
 72
8
 73
4
 74
0
 40
0
 40
0
 40
0
 40
0
 40
1
 40
1
 40
1
 40
1
 10
912.504420
 20
214.548653
 30
0.0
 10
912.504420
 20
224.180402
 30
0.0
 10
888.230119
 20
231.935373
 30
0.0
 10
858.078638
 20
231.935373
 30
0.0
  0
LWPOLYLINE
  5
3a1
100
AcDbEntity
  8
Layer_1
 62
1
100
AcDbPolyline
 90
2
 70
0
 10
912.504420
 20
173.730292
 30
0.0
 10
912.504420
 20
214.548653
 30
0.0
  0
SPLINE
  5
3a2
100
AcDbEntity
  8
Layer_1
 62
1
100
AcDbSpline
 70
8
 71
3
 72
8
 73
4
 74
0
 40
0
 40
0
 40
0
 40
0
 40
1
 40
1
 40
1
 40
1
 10
720.002274
 20
192.885317
 30
0.0
 10
720.002274
 20
191.164231
 30
0.0
 10
719.084085
 20
189.573881
 30
0.0
 10
717.593580
 20
188.713338
 30
0.0
  0
SPLINE
  5
3a3
100
AcDbEntity
  8
Layer_1
 62
1
100
AcDbSpline
 70
8
 71
3
 72
8
 73
4
 74
0
 40
0
 40
0
 40
0
 40
0
 40
1
 40
1
 40
1
 40
1
 10
717.593580
 20
188.713338
 30
0.0
 10
716.103076
 20
187.852795
 30
0.0
 10
714.266699
 20
187.852795
 30
0.0
 10
712.776194
 20
188.713338
 30
0.0
  0
SPLINE
  5
3a4
100
AcDbEntity
  8
Layer_1
 62
1
100
AcDbSpline
 70
8
 71
3
 72
8
 73
4
 74
0
 40
0
 40
0
 40
0
 40
0
 40
1
 40
1
 40
1
 40
1
 10
712.776194
 20
188.713338
 30
0.0
 10
711.285690
 20
189.573881
 30
0.0
 10
710.367501
 20
191.164231
 30
0.0
 10
710.367501
 20
192.885317
 30
0.0
  0
SPLINE
  5
3a5
100
AcDbEntity
  8
Layer_1
 62
1
100
AcDbSpline
 70
8
 71
3
 72
8
 73
4
 74
0
 40
0
 40
0
 40
0
 40
0
 40
1
 40
1
 40
1
 40
1
 10
710.367501
 20
192.885317
 30
0.0
 10
710.367502
 20
195.545885
 30
0.0
 10
712.524319
 20
197.702702
 30
0.0
 10
715.184887
 20
197.702702
 30
0.0
  0
SPLINE
  5
3a6
100
AcDbEntity
  8
Layer_1
 62
1
100
AcDbSpline
 70
8
 71
3
 72
8
 73
4
 74
0
 40
0
 40
0
 40
0
 40
0
 40
1
 40
1
 40
1
 40
1
 10
715.184887
 20
197.702702
 30
0.0
 10
717.845456
 20
197.702702
 30
0.0
 10
720.002273
 20
195.545885
 30
0.0
 10
720.002274
 20
192.885317
 30
0.0
  0
LWPOLYLINE
  5
3a7
100
AcDbEntity
  8
Layer_1
 62
1
100
AcDbPolyline
 90
3
 70
0
 10
858.078638
 20
231.935373
 30
0.0
 10
799.117695
 20
231.935373
 30
0.0
 10
740.156753
 20
231.935373
 30
0.0
  0
LWPOLYLINE
  5
3a8
100
AcDbEntity
  8
Layer_1
 62
1
100
AcDbPolyline
 90
1
 70
1
 10
720.002274
 20
192.885317
 30
0.0
  0
SPLINE
  5
3a9
100
AcDbEntity
  8
Layer_1
 62
1
100
AcDbSpline
 70
8
 71
3
 72
8
 73
4
 74
0
 40
0
 40
0
 40
0
 40
0
 40
1
 40
1
 40
1
 40
1
 10
878.232847
 20
192.885317
 30
0.0
 10
878.232847
 20
191.164231
 30
0.0
 10
879.151036
 20
189.573881
 30
0.0
 10
880.641540
 20
188.713338
 30
0.0
  0
SPLINE
  5
3aa
100
AcDbEntity
  8
Layer_1
 62
1
100
AcDbSpline
 70
8
 71
3
 72
8
 73
4
 74
0
 40
0
 40
0
 40
0
 40
0
 40
1
 40
1
 40
1
 40
1
 10
880.641540
 20
188.713338
 30
0.0
 10
882.132044
 20
187.852795
 30
0.0
 10
883.968422
 20
187.852795
 30
0.0
 10
885.458926
 20
188.713338
 30
0.0
  0
SPLINE
  5
3ab
100
AcDbEntity
  8
Layer_1
 62
1
100
AcDbSpline
 70
8
 71
3
 72
8
 73
4
 74
0
 40
0
 40
0
 40
0
 40
0
 40
1
 40
1
 40
1
 40
1
 10
885.458926
 20
188.713338
 30
0.0
 10
886.949431
 20
189.573881
 30
0.0
 10
887.867619
 20
191.164231
 30
0.0
 10
887.867619
 20
192.885317
 30
0.0
  0
SPLINE
  5
3ac
100
AcDbEntity
  8
Layer_1
 62
1
100
AcDbSpline
 70
8
 71
3
 72
8
 73
4
 74
0
 40
0
 40
0
 40
0
 40
0
 40
1
 40
1
 40
1
 40
1
 10
887.867619
 20
192.885317
 30
0.0
 10
887.867619
 20
194.606403
 30
0.0
 10
886.949431
 20
196.196752
 30
0.0
 10
885.458926
 20
197.057296
 30
0.0
  0
SPLINE
  5
3ad
100
AcDbEntity
  8
Layer_1
 62
1
100
AcDbSpline
 70
8
 71
3
 72
8
 73
4
 74
0
 40
0
 40
0
 40
0
 40
0
 40
1
 40
1
 40
1
 40
1
 10
885.458926
 20
197.057296
 30
0.0
 10
883.968422
 20
197.917839
 30
0.0
 10
882.132044
 20
197.917839
 30
0.0
 10
880.641540
 20
197.057296
 30
0.0
  0
SPLINE
  5
3ae
100
AcDbEntity
  8
Layer_1
 62
1
100
AcDbSpline
 70
8
 71
3
 72
8
 73
4
 74
0
 40
0
 40
0
 40
0
 40
0
 40
1
 40
1
 40
1
 40
1
 10
880.641540
 20
197.057296
 30
0.0
 10
879.151036
 20
196.196752
 30
0.0
 10
878.232847
 20
194.606403
 30
0.0
 10
878.232847
 20
192.885317
 30
0.0
  0
LWPOLYLINE
  5
3af
100
AcDbEntity
  8
Layer_1
 62
1
100
AcDbPolyline
 90
4
 70
1
 10
753.581904
 20
212.532217
 30
0.0
 10
755.282691
 20
212.532217
 30
0.0
 10
755.282691
 20
174.317926
 30
0.0
 10
753.581904
 20
174.317926
 30
0.0
  0
LWPOLYLINE
  5
3b0
100
AcDbEntity
  8
Layer_1
 62
1
100
AcDbPolyline
 90
1
 70
1
 10
878.232847
 20
192.885317
 30
0.0
  0
SPLINE
  5
3b1
100
AcDbEntity
  8
Layer_1
 62
1
100
AcDbSpline
 70
8
 71
3
 72
8
 73
4
 74
0
 40
0
 40
0
 40
0
 40
0
 40
1
 40
1
 40
1
 40
1
 10
740.156753
 20
154.216716
 30
0.0
 10
710.005269
 20
154.216716
 30
0.0
 10
685.730969
 20
146.461745
 30
0.0
 10
685.730969
 20
136.829996
 30
0.0
  0
LWPOLYLINE
  5
3b2
100
AcDbEntity
  8
Layer_1
 62
1
100
AcDbPolyline
 90
4
 70
1
 10
844.653330
 20
212.532217
 30
0.0
 10
842.952542
 20
212.532217
 30
0.0
 10
842.952542
 20
174.317926
 30
0.0
 10
844.653330
 20
174.317926
 30
0.0
  0
SPLINE
  5
3b3
100
AcDbEntity
  8
Layer_1
 62
1
100
AcDbSpline
 70
8
 71
3
 72
8
 73
4
 74
0
 40
0
 40
0
 40
0
 40
0
 40
1
 40
1
 40
1
 40
1
 10
685.730969
 20
96.011635
 30
0.0
 10
685.730969
 20
86.379887
 30
0.0
 10
710.005269
 20
78.624915
 30
0.0
 10
740.156753
 20
78.624915
 30
0.0
  0
LWPOLYLINE
  5
3b4
100
AcDbEntity
  8
Layer_1
 62
1
100
AcDbPolyline
 90
2
 70
0
 10
685.730969
 20
136.829996
 30
0.0
 10
685.730969
 20
96.011635
 30
0.0
  0
SPLINE
  5
3b5
100
AcDbEntity
  8
Layer_1
 62
1
100
AcDbSpline
 70
8
 71
3
 72
8
 73
4
 74
0
 40
0
 40
0
 40
0
 40
0
 40
1
 40
1
 40
1
 40
1
 10
858.078638
 20
78.624915
 30
0.0
 10
888.230119
 20
78.624915
 30
0.0
 10
912.504420
 20
86.379887
 30
0.0
 10
912.504420
 20
96.011635
 30
0.0
  0
LWPOLYLINE
  5
3b6
100
AcDbEntity
  8
Layer_1
 62
1
100
AcDbPolyline
 90
3
 70
0
 10
740.156753
 20
78.624915
 30
0.0
 10
799.117695
 20
78.624915
 30
0.0
 10
858.078638
 20
78.624915
 30
0.0
  0
SPLINE
  5
3b7
100
AcDbEntity
  8
Layer_1
 62
1
100
AcDbSpline
 70
8
 71
3
 72
8
 73
4
 74
0
 40
0
 40
0
 40
0
 40
0
 40
1
 40
1
 40
1
 40
1
 10
912.504420
 20
136.829996
 30
0.0
 10
912.504420
 20
146.461745
 30
0.0
 10
888.230119
 20
154.216716
 30
0.0
 10
858.078638
 20
154.216716
 30
0.0
  0
LWPOLYLINE
  5
3b8
100
AcDbEntity
  8
Layer_1
 62
1
100
AcDbPolyline
 90
2
 70
0
 10
912.504420
 20
96.011635
 30
0.0
 10
912.504420
 20
136.829996
 30
0.0
  0
SPLINE
  5
3b9
100
AcDbEntity
  8
Layer_1
 62
1
100
AcDbSpline
 70
8
 71
3
 72
8
 73
4
 74
0
 40
0
 40
0
 40
0
 40
0
 40
1
 40
1
 40
1
 40
1
 10
720.002274
 20
115.166660
 30
0.0
 10
720.002274
 20
113.445574
 30
0.0
 10
719.084085
 20
111.855225
 30
0.0
 10
717.593580
 20
110.994681
 30
0.0
  0
SPLINE
  5
3ba
100
AcDbEntity
  8
Layer_1
 62
1
100
AcDbSpline
 70
8
 71
3
 72
8
 73
4
 74
0
 40
0
 40
0
 40
0
 40
0
 40
1
 40
1
 40
1
 40
1
 10
717.593580
 20
110.994681
 30
0.0
 10
716.103076
 20
110.134138
 30
0.0
 10
714.266699
 20
110.134138
 30
0.0
 10
712.776194
 20
110.994681
 30
0.0
  0
SPLINE
  5
3bb
100
AcDbEntity
  8
Layer_1
 62
1
100
AcDbSpline
 70
8
 71
3
 72
8
 73
4
 74
0
 40
0
 40
0
 40
0
 40
0
 40
1
 40
1
 40
1
 40
1
 10
712.776194
 20
110.994681
 30
0.0
 10
711.285690
 20
111.855225
 30
0.0
 10
710.367501
 20
113.445574
 30
0.0
 10
710.367501
 20
115.166660
 30
0.0
  0
SPLINE
  5
3bc
100
AcDbEntity
  8
Layer_1
 62
1
100
AcDbSpline
 70
8
 71
3
 72
8
 73
4
 74
0
 40
0
 40
0
 40
0
 40
0
 40
1
 40
1
 40
1
 40
1
 10
710.367501
 20
115.166660
 30
0.0
 10
710.367502
 20
117.827229
 30
0.0
 10
712.524319
 20
119.984045
 30
0.0
 10
715.184887
 20
119.984045
 30
0.0
  0
SPLINE
  5
3bd
100
AcDbEntity
  8
Layer_1
 62
1
100
AcDbSpline
 70
8
 71
3
 72
8
 73
4
 74
0
 40
0
 40
0
 40
0
 40
0
 40
1
 40
1
 40
1
 40
1
 10
715.184887
 20
119.984045
 30
0.0
 10
717.845456
 20
119.984045
 30
0.0
 10
720.002273
 20
117.827229
 30
0.0
 10
720.002274
 20
115.166660
 30
0.0
  0
LWPOLYLINE
  5
3be
100
AcDbEntity
  8
Layer_1
 62
1
100
AcDbPolyline
 90
3
 70
0
 10
858.078638
 20
154.216716
 30
0.0
 10
799.117695
 20
154.216716
 30
0.0
 10
740.156753
 20
154.216716
 30
0.0
  0
LWPOLYLINE
  5
3bf
100
AcDbEntity
  8
Layer_1
 62
1
100
AcDbPolyline
 90
1
 70
1
 10
720.002274
 20
115.166660
 30
0.0
  0
SPLINE
  5
3c0
100
AcDbEntity
  8
Layer_1
 62
1
100
AcDbSpline
 70
8
 71
3
 72
8
 73
4
 74
0
 40
0
 40
0
 40
0
 40
0
 40
1
 40
1
 40
1
 40
1
 10
878.232847
 20
115.166660
 30
0.0
 10
878.232847
 20
113.445574
 30
0.0
 10
879.151036
 20
111.855225
 30
0.0
 10
880.641540
 20
110.994681
 30
0.0
  0
SPLINE
  5
3c1
100
AcDbEntity
  8
Layer_1
 62
1
100
AcDbSpline
 70
8
 71
3
 72
8
 73
4
 74
0
 40
0
 40
0
 40
0
 40
0
 40
1
 40
1
 40
1
 40
1
 10
880.641540
 20
110.994681
 30
0.0
 10
882.132044
 20
110.134138
 30
0.0
 10
883.968422
 20
110.134138
 30
0.0
 10
885.458926
 20
110.994681
 30
0.0
  0
SPLINE
  5
3c2
100
AcDbEntity
  8
Layer_1
 62
1
100
AcDbSpline
 70
8
 71
3
 72
8
 73
4
 74
0
 40
0
 40
0
 40
0
 40
0
 40
1
 40
1
 40
1
 40
1
 10
885.458926
 20
110.994681
 30
0.0
 10
886.949431
 20
111.855225
 30
0.0
 10
887.867619
 20
113.445574
 30
0.0
 10
887.867619
 20
115.166660
 30
0.0
  0
SPLINE
  5
3c3
100
AcDbEntity
  8
Layer_1
 62
1
100
AcDbSpline
 70
8
 71
3
 72
8
 73
4
 74
0
 40
0
 40
0
 40
0
 40
0
 40
1
 40
1
 40
1
 40
1
 10
887.867619
 20
115.166660
 30
0.0
 10
887.867619
 20
116.887746
 30
0.0
 10
886.949431
 20
118.478096
 30
0.0
 10
885.458926
 20
119.338639
 30
0.0
  0
SPLINE
  5
3c4
100
AcDbEntity
  8
Layer_1
 62
1
100
AcDbSpline
 70
8
 71
3
 72
8
 73
4
 74
0
 40
0
 40
0
 40
0
 40
0
 40
1
 40
1
 40
1
 40
1
 10
885.458926
 20
119.338639
 30
0.0
 10
883.968422
 20
120.199182
 30
0.0
 10
882.132044
 20
120.199182
 30
0.0
 10
880.641540
 20
119.338639
 30
0.0
  0
SPLINE
  5
3c5
100
AcDbEntity
  8
Layer_1
 62
1
100
AcDbSpline
 70
8
 71
3
 72
8
 73
4
 74
0
 40
0
 40
0
 40
0
 40
0
 40
1
 40
1
 40
1
 40
1
 10
880.641540
 20
119.338639
 30
0.0
 10
879.151036
 20
118.478096
 30
0.0
 10
878.232847
 20
116.887746
 30
0.0
 10
878.232847
 20
115.166660
 30
0.0
  0
LWPOLYLINE
  5
3c6
100
AcDbEntity
  8
Layer_1
 62
1
100
AcDbPolyline
 90
4
 70
1
 10
753.581904
 20
134.813560
 30
0.0
 10
755.282691
 20
134.813560
 30
0.0
 10
755.282691
 20
96.599269
 30
0.0
 10
753.581904
 20
96.599269
 30
0.0
  0
LWPOLYLINE
  5
3c7
100
AcDbEntity
  8
Layer_1
 62
1
100
AcDbPolyline
 90
1
 70
1
 10
878.232847
 20
115.166660
 30
0.0
  0
SPLINE
  5
3c8
100
AcDbEntity
  8
Layer_1
 62
1
100
AcDbSpline
 70
8
 71
3
 72
8
 73
4
 74
0
 40
0
 40
0
 40
0
 40
0
 40
1
 40
1
 40
1
 40
1
 10
740.156753
 20
75.686330
 30
0.0
 10
710.005269
 20
75.686330
 30
0.0
 10
685.730969
 20
67.931359
 30
0.0
 10
685.730969
 20
58.299610
 30
0.0
  0
LWPOLYLINE
  5
3c9
100
AcDbEntity
  8
Layer_1
 62
1
100
AcDbPolyline
 90
4
 70
1
 10
844.653330
 20
134.813560
 30
0.0
 10
842.952542
 20
134.813560
 30
0.0
 10
842.952542
 20
96.599269
 30
0.0
 10
844.653330
 20
96.599269
 30
0.0
  0
SPLINE
  5
3ca
100
AcDbEntity
  8
Layer_1
 62
1
100
AcDbSpline
 70
8
 71
3
 72
8
 73
4
 74
0
 40
0
 40
0
 40
0
 40
0
 40
1
 40
1
 40
1
 40
1
 10
685.730969
 20
17.481249
 30
0.0
 10
685.730969
 20
7.849501
 30
0.0
 10
710.005269
 20
0.094530
 30
0.0
 10
740.156753
 20
0.094530
 30
0.0
  0
LWPOLYLINE
  5
3cb
100
AcDbEntity
  8
Layer_1
 62
1
100
AcDbPolyline
 90
2
 70
0
 10
685.730969
 20
58.299610
 30
0.0
 10
685.730969
 20
17.481249
 30
0.0
  0
SPLINE
  5
3cc
100
AcDbEntity
  8
Layer_1
 62
1
100
AcDbSpline
 70
8
 71
3
 72
8
 73
4
 74
0
 40
0
 40
0
 40
0
 40
0
 40
1
 40
1
 40
1
 40
1
 10
858.078638
 20
0.094530
 30
0.0
 10
888.230119
 20
0.094530
 30
0.0
 10
912.504420
 20
7.849501
 30
0.0
 10
912.504420
 20
17.481249
 30
0.0
  0
LWPOLYLINE
  5
3cd
100
AcDbEntity
  8
Layer_1
 62
1
100
AcDbPolyline
 90
3
 70
0
 10
740.156753
 20
0.094530
 30
0.0
 10
799.117695
 20
0.094530
 30
0.0
 10
858.078638
 20
0.094530
 30
0.0
  0
SPLINE
  5
3ce
100
AcDbEntity
  8
Layer_1
 62
1
100
AcDbSpline
 70
8
 71
3
 72
8
 73
4
 74
0
 40
0
 40
0
 40
0
 40
0
 40
1
 40
1
 40
1
 40
1
 10
912.504420
 20
58.299610
 30
0.0
 10
912.504420
 20
67.931359
 30
0.0
 10
888.230119
 20
75.686330
 30
0.0
 10
858.078638
 20
75.686330
 30
0.0
  0
LWPOLYLINE
  5
3cf
100
AcDbEntity
  8
Layer_1
 62
1
100
AcDbPolyline
 90
2
 70
0
 10
912.504420
 20
17.481249
 30
0.0
 10
912.504420
 20
58.299610
 30
0.0
  0
SPLINE
  5
3d0
100
AcDbEntity
  8
Layer_1
 62
1
100
AcDbSpline
 70
8
 71
3
 72
8
 73
4
 74
0
 40
0
 40
0
 40
0
 40
0
 40
1
 40
1
 40
1
 40
1
 10
720.002274
 20
36.636274
 30
0.0
 10
720.002274
 20
34.915188
 30
0.0
 10
719.084085
 20
33.324839
 30
0.0
 10
717.593580
 20
32.464296
 30
0.0
  0
SPLINE
  5
3d1
100
AcDbEntity
  8
Layer_1
 62
1
100
AcDbSpline
 70
8
 71
3
 72
8
 73
4
 74
0
 40
0
 40
0
 40
0
 40
0
 40
1
 40
1
 40
1
 40
1
 10
717.593580
 20
32.464296
 30
0.0
 10
716.103076
 20
31.603752
 30
0.0
 10
714.266699
 20
31.603752
 30
0.0
 10
712.776194
 20
32.464296
 30
0.0
  0
SPLINE
  5
3d2
100
AcDbEntity
  8
Layer_1
 62
1
100
AcDbSpline
 70
8
 71
3
 72
8
 73
4
 74
0
 40
0
 40
0
 40
0
 40
0
 40
1
 40
1
 40
1
 40
1
 10
712.776194
 20
32.464296
 30
0.0
 10
711.285690
 20
33.324839
 30
0.0
 10
710.367501
 20
34.915188
 30
0.0
 10
710.367501
 20
36.636274
 30
0.0
  0
SPLINE
  5
3d3
100
AcDbEntity
  8
Layer_1
 62
1
100
AcDbSpline
 70
8
 71
3
 72
8
 73
4
 74
0
 40
0
 40
0
 40
0
 40
0
 40
1
 40
1
 40
1
 40
1
 10
710.367501
 20
36.636274
 30
0.0
 10
710.367502
 20
39.296843
 30
0.0
 10
712.524319
 20
41.453659
 30
0.0
 10
715.184887
 20
41.453659
 30
0.0
  0
SPLINE
  5
3d4
100
AcDbEntity
  8
Layer_1
 62
1
100
AcDbSpline
 70
8
 71
3
 72
8
 73
4
 74
0
 40
0
 40
0
 40
0
 40
0
 40
1
 40
1
 40
1
 40
1
 10
715.184887
 20
41.453659
 30
0.0
 10
717.845456
 20
41.453659
 30
0.0
 10
720.002273
 20
39.296843
 30
0.0
 10
720.002274
 20
36.636274
 30
0.0
  0
LWPOLYLINE
  5
3d5
100
AcDbEntity
  8
Layer_1
 62
1
100
AcDbPolyline
 90
3
 70
0
 10
858.078638
 20
75.686330
 30
0.0
 10
799.117695
 20
75.686330
 30
0.0
 10
740.156753
 20
75.686330
 30
0.0
  0
LWPOLYLINE
  5
3d6
100
AcDbEntity
  8
Layer_1
 62
1
100
AcDbPolyline
 90
1
 70
1
 10
720.002274
 20
36.636274
 30
0.0
  0
SPLINE
  5
3d7
100
AcDbEntity
  8
Layer_1
 62
1
100
AcDbSpline
 70
8
 71
3
 72
8
 73
4
 74
0
 40
0
 40
0
 40
0
 40
0
 40
1
 40
1
 40
1
 40
1
 10
878.232847
 20
36.636274
 30
0.0
 10
878.232847
 20
34.915188
 30
0.0
 10
879.151036
 20
33.324839
 30
0.0
 10
880.641540
 20
32.464296
 30
0.0
  0
SPLINE
  5
3d8
100
AcDbEntity
  8
Layer_1
 62
1
100
AcDbSpline
 70
8
 71
3
 72
8
 73
4
 74
0
 40
0
 40
0
 40
0
 40
0
 40
1
 40
1
 40
1
 40
1
 10
880.641540
 20
32.464296
 30
0.0
 10
882.132044
 20
31.603752
 30
0.0
 10
883.968422
 20
31.603752
 30
0.0
 10
885.458926
 20
32.464296
 30
0.0
  0
SPLINE
  5
3d9
100
AcDbEntity
  8
Layer_1
 62
1
100
AcDbSpline
 70
8
 71
3
 72
8
 73
4
 74
0
 40
0
 40
0
 40
0
 40
0
 40
1
 40
1
 40
1
 40
1
 10
885.458926
 20
32.464296
 30
0.0
 10
886.949431
 20
33.324839
 30
0.0
 10
887.867619
 20
34.915188
 30
0.0
 10
887.867619
 20
36.636274
 30
0.0
  0
SPLINE
  5
3da
100
AcDbEntity
  8
Layer_1
 62
1
100
AcDbSpline
 70
8
 71
3
 72
8
 73
4
 74
0
 40
0
 40
0
 40
0
 40
0
 40
1
 40
1
 40
1
 40
1
 10
887.867619
 20
36.636274
 30
0.0
 10
887.867619
 20
38.357361
 30
0.0
 10
886.949431
 20
39.947710
 30
0.0
 10
885.458926
 20
40.808253
 30
0.0
  0
SPLINE
  5
3db
100
AcDbEntity
  8
Layer_1
 62
1
100
AcDbSpline
 70
8
 71
3
 72
8
 73
4
 74
0
 40
0
 40
0
 40
0
 40
0
 40
1
 40
1
 40
1
 40
1
 10
885.458926
 20
40.808253
 30
0.0
 10
883.968422
 20
41.668796
 30
0.0
 10
882.132044
 20
41.668796
 30
0.0
 10
880.641540
 20
40.808253
 30
0.0
  0
SPLINE
  5
3dc
100
AcDbEntity
  8
Layer_1
 62
1
100
AcDbSpline
 70
8
 71
3
 72
8
 73
4
 74
0
 40
0
 40
0
 40
0
 40
0
 40
1
 40
1
 40
1
 40
1
 10
880.641540
 20
40.808253
 30
0.0
 10
879.151036
 20
39.947710
 30
0.0
 10
878.232847
 20
38.357361
 30
0.0
 10
878.232847
 20
36.636274
 30
0.0
  0
LWPOLYLINE
  5
3dd
100
AcDbEntity
  8
Layer_1
 62
1
100
AcDbPolyline
 90
4
 70
1
 10
753.581904
 20
56.283174
 30
0.0
 10
755.282691
 20
56.283174
 30
0.0
 10
755.282691
 20
18.068883
 30
0.0
 10
753.581904
 20
18.068883
 30
0.0
  0
LWPOLYLINE
  5
3de
100
AcDbEntity
  8
Layer_1
 62
1
100
AcDbPolyline
 90
1
 70
1
 10
878.232847
 20
36.636274
 30
0.0
  0
LWPOLYLINE
  5
3df
100
AcDbEntity
  8
Layer_1
 62
1
100
AcDbPolyline
 90
4
 70
1
 10
844.653330
 20
56.283174
 30
0.0
 10
842.952542
 20
56.283174
 30
0.0
 10
842.952542
 20
18.068883
 30
0.0
 10
844.653330
 20
18.068883
 30
0.0
  0
ENDSEC
  0
SECTION
  2
OBJECTS
  0
DICTIONARY
  5
C
330
0
100
AcDbDictionary
  3
ACAD_GROUP
350
D
  3
ACAD_MLINESTYLE
350
17
  0
DICTIONARY
  5
D
330
C
100
AcDbDictionary
  0
DICTIONARY
  5
1A
330
C
100
AcDbDictionary
  0
DICTIONARY
  5
17
330
C
100
AcDbDictionary
  3
STANDARD
350
18
  0
DICTIONARY
  5
19
330
C
100
AcDbDictionary
  0
ENDSEC
  0
EOF
