  0
SECTION
  2
HEADER
  9
$ACADVER
  1
AC1014
  9
$HANDSEED
  5
FFFF
  9
$MEASUREMENT
 70
     1
  0
ENDSEC
  0
SECTION
  2
TABLES
  0
TABLE
  2
VPORT
  5
8
330
0
100
AcDbSymbolTable
 70
     4
  0
VPORT
  5
2E
330
8
100
AcDbSymbolTableRecord
100
AcDbViewportTableRecord
  2
*ACTIVE
 70
     0
 10
0.0
 20
0.0
 11
1.0
 21
1.0
 12
210.0
 22
148.5
 13
0.0
 23
0.0
 14
10.0
 24
10.0
 15
10.0
 25
10.0
 16
0.0
 26
0.0
 36
1.0
 17
0.0
 27
0.0
 37
0.0
 40
341.0
 41
1.24
 42
50.0
 43
0.0
 44
0.0
 50
0.0
 51
0.0
 71
     0
 72
   100
 73
     1
 74
     3
 75
     0
 76
     0
 77
     0
 78
     0
  0
ENDTAB
  0
TABLE
  2
LTYPE
  5
5
330
0
100
AcDbSymbolTable
 70
     1
  0
LTYPE
  5
14
330
5
100
AcDbSymbolTableRecord
100
AcDbLinetypeTableRecord
  2
BYBLOCK
 70
     0
  3

 72
    65
 73
     0
 40
0.0
  0
LTYPE
  5
15
330
5
100
AcDbSymbolTableRecord
100
AcDbLinetypeTableRecord
  2
BYLAYER
 70
     0
  3

 72
    65
 73
     0
 40
0.0
  0
LTYPE
  5
16
330
5
100
AcDbSymbolTableRecord
100
AcDbLinetypeTableRecord
  2
CONTINUOUS
 70
     0
  3
Solid line
 72
    65
 73
     0
 40
0.0
  0
ENDTAB
  0
TABLE
  2
LAYER
  5
2
100
AcDbSymbolTable
 70
2
  0
LAYER
  5
50
100
AcDbSymbolTableRecord
100
AcDbLayerTableRecord
  2
0
 70
0
  6
CONTINUOUS
  0
LAYER
  5
51
100
AcDbSymbolTableRecord
100
AcDbLayerTableRecord
  2
Copy_of_COVID19-Face-Shields
 70
0
  6
CONTINUOUS
  0
ENDTAB
  0
TABLE
  2
STYLE
  5
3
330
0
100
AcDbSymbolTable
 70
     1
  0
STYLE
  5
11
330
3
100
AcDbSymbolTableRecord
100
AcDbTextStyleTableRecord
  2
STANDARD
 70
     0
 40
0.0
 41
1.0
 50
0.0
 71
     0
 42
2.5
  3
txt
  4

  0
ENDTAB
  0
TABLE
  2
VIEW
  5
6
330
0
100
AcDbSymbolTable
 70
     0
  0
ENDTAB
  0
TABLE
  2
UCS
  5
7
330
0
100
AcDbSymbolTable
 70
     0
  0
ENDTAB
  0
TABLE
  2
APPID
  5
9
330
0
100
AcDbSymbolTable
 70
     2
  0
APPID
  5
12
330
9
100
AcDbSymbolTableRecord
100
AcDbRegAppTableRecord
  2
ACAD
 70
     0
  0
ENDTAB
  0
TABLE
  2
DIMSTYLE
  5
A
330
0
100
AcDbSymbolTable
 70
     1
  0
DIMSTYLE
105
27
330
A
100
AcDbSymbolTableRecord
100
AcDbDimStyleTableRecord
  2
ISO-25
 70
     0
  3

  4

  5

  6

  7

 40
1.0
 41
2.5
 42
0.625
 43
3.75
 44
1.25
 45
0.0
 46
0.0
 47
0.0
 48
0.0
140
2.5
141
2.5
142
0.0
143
0.03937007874016
144
1.0
145
0.0
146
1.0
147
0.625
 71
     0
 72
     0
 73
     0
 74
     0
 75
     0
 76
     0
 77
     1
 78
     8
170
     0
171
     3
172
     1
173
     0
174
     0
175
     0
176
     0
177
     0
178
     0
270
     2
271
     2
272
     2
273
     2
274
     3
340
11
275
     0
280
     0
281
     0
282
     0
283
     0
284
     8
285
     0
286
     0
287
     3
288
     0
  0
ENDTAB
  0
TABLE
  2
BLOCK_RECORD
  5
1
330
0
100
AcDbSymbolTable
 70
     1
  0
BLOCK_RECORD
  5
1F
330
1
100
AcDbSymbolTableRecord
100
AcDbBlockTableRecord
  2
*MODEL_SPACE
  0
BLOCK_RECORD
  5
1B
330
1
100
AcDbSymbolTableRecord
100
AcDbBlockTableRecord
  2
*PAPER_SPACE
  0
ENDTAB
  0
ENDSEC
  0
SECTION
  2
BLOCKS
  0
BLOCK
  5
20
330
1F
100
AcDbEntity
  8
0
100
AcDbBlockBegin
  2
*MODEL_SPACE
 70
     0
 10
0.0
 20
0.0
 30
0.0
  3
*MODEL_SPACE
  1

  0
ENDBLK
  5
21
330
1F
100
AcDbEntity
  8
0
100
AcDbBlockEnd
  0
BLOCK
  5
1C
330
1B
100
AcDbEntity
 67
     1
  8
0
100
AcDbBlockBegin
  2
*PAPER_SPACE
  1

  0
ENDBLK
  5
1D
330
1B
100
AcDbEntity
 67
     1
  8
0
100
AcDbBlockEnd
  0
ENDSEC
  0
SECTION
  2
ENTITIES
  0
SPLINE
  5
100
100
AcDbEntity
  8
Copy_of_COVID19-Face-Shields
 62
1
100
AcDbSpline
 70
8
 71
3
 72
8
 73
4
 74
0
 40
0
 40
0
 40
0
 40
0
 40
1
 40
1
 40
1
 40
1
 10
992.099763
 20
776.143971
 30
0.0
 10
1019.622561
 20
776.143971
 30
0.0
 10
1043.744293
 20
754.498639
 30
0.0
 10
1042.141760
 20
728.144374
 30
0.0
  0
LWPOLYLINE
  5
101
100
AcDbEntity
  8
Copy_of_COVID19-Face-Shields
 62
1
100
AcDbPolyline
 90
2
 70
0
 10
50.261681
 20
776.143971
 30
0.0
 10
992.099763
 20
776.143971
 30
0.0
  0
SPLINE
  5
102
100
AcDbEntity
  8
Copy_of_COVID19-Face-Shields
 62
1
100
AcDbSpline
 70
8
 71
3
 72
8
 73
4
 74
0
 40
0
 40
0
 40
0
 40
0
 40
1
 40
1
 40
1
 40
1
 10
1030.600027
 20
192.144404
 30
0.0
 10
1024.189228
 20
86.723876
 30
0.0
 10
940.523766
 20
0.144014
 30
0.0
 10
830.432172
 20
0.144014
 30
0.0
  0
LWPOLYLINE
  5
103
100
AcDbEntity
  8
Copy_of_COVID19-Face-Shields
 62
1
100
AcDbPolyline
 90
2
 70
0
 10
1042.141760
 20
728.144374
 30
0.0
 10
1030.600027
 20
192.144404
 30
0.0
  0
SPLINE
  5
104
100
AcDbEntity
  8
Copy_of_COVID19-Face-Shields
 62
1
100
AcDbSpline
 70
8
 71
3
 72
8
 73
4
 74
0
 40
0
 40
0
 40
0
 40
0
 40
1
 40
1
 40
1
 40
1
 10
212.419672
 20
0.144014
 30
0.0
 10
102.328078
 20
0.144014
 30
0.0
 10
18.662616
 20
86.723209
 30
0.0
 10
12.251817
 20
192.144404
 30
0.0
  0
LWPOLYLINE
  5
105
100
AcDbEntity
  8
Copy_of_COVID19-Face-Shields
 62
1
100
AcDbPolyline
 90
2
 70
0
 10
830.432172
 20
0.144014
 30
0.0
 10
212.419672
 20
0.144014
 30
0.0
  0
SPLINE
  5
106
100
AcDbEntity
  8
Copy_of_COVID19-Face-Shields
 62
1
100
AcDbSpline
 70
8
 71
3
 72
8
 73
4
 74
0
 40
0
 40
0
 40
0
 40
0
 40
1
 40
1
 40
1
 40
1
 10
0.219551
 20
728.144374
 30
0.0
 10
-1.382983
 20
754.499039
 30
0.0
 10
22.737949
 20
776.143971
 30
0.0
 10
50.261681
 20
776.143971
 30
0.0
  0
LWPOLYLINE
  5
107
100
AcDbEntity
  8
Copy_of_COVID19-Face-Shields
 62
1
100
AcDbPolyline
 90
2
 70
0
 10
12.251817
 20
192.144404
 30
0.0
 10
0.219551
 20
728.144374
 30
0.0
  0
LWPOLYLINE
  5
108
100
AcDbEntity
  8
Copy_of_COVID19-Face-Shields
 62
1
100
AcDbPolyline
 90
1
 70
1
 10
50.261681
 20
776.143971
 30
0.0
  0
LWPOLYLINE
  5
109
100
AcDbEntity
  8
Copy_of_COVID19-Face-Shields
 62
1
100
AcDbPolyline
 90
4
 70
1
 10
21.909816
 20
709.143842
 30
0.0
 10
45.909815
 20
709.143842
 30
0.0
 10
45.909815
 20
685.332910
 30
0.0
 10
21.909816
 20
685.332910
 30
0.0
  0
LWPOLYLINE
  5
10a
100
AcDbEntity
  8
Copy_of_COVID19-Face-Shields
 62
1
100
AcDbPolyline
 90
4
 70
1
 10
83.721279
 20
709.143842
 30
0.0
 10
112.521278
 20
709.143842
 30
0.0
 10
112.521278
 20
685.332910
 30
0.0
 10
83.721279
 20
685.332910
 30
0.0
  0
LWPOLYLINE
  5
10b
100
AcDbEntity
  8
Copy_of_COVID19-Face-Shields
 62
1
100
AcDbPolyline
 90
4
 70
1
 10
331.058066
 20
709.143842
 30
0.0
 10
359.858064
 20
709.143842
 30
0.0
 10
359.858064
 20
685.332910
 30
0.0
 10
331.058066
 20
685.332910
 30
0.0
  0
LWPOLYLINE
  5
10c
100
AcDbEntity
  8
Copy_of_COVID19-Face-Shields
 62
1
100
AcDbPolyline
 90
4
 70
1
 10
401.307395
 20
709.143842
 30
0.0
 10
430.107394
 20
709.143842
 30
0.0
 10
430.107394
 20
685.332910
 30
0.0
 10
401.307395
 20
685.332910
 30
0.0
  0
LWPOLYLINE
  5
10d
100
AcDbEntity
  8
Copy_of_COVID19-Face-Shields
 62
1
100
AcDbPolyline
 90
4
 70
1
 10
587.386185
 20
709.143842
 30
0.0
 10
616.186184
 20
709.143842
 30
0.0
 10
616.186184
 20
685.332910
 30
0.0
 10
587.386185
 20
685.332910
 30
0.0
  0
LWPOLYLINE
  5
10e
100
AcDbEntity
  8
Copy_of_COVID19-Face-Shields
 62
1
100
AcDbPolyline
 90
4
 70
1
 10
661.314848
 20
709.143842
 30
0.0
 10
690.114846
 20
709.143842
 30
0.0
 10
690.114846
 20
685.332910
 30
0.0
 10
661.314848
 20
685.332910
 30
0.0
  0
LWPOLYLINE
  5
10f
100
AcDbEntity
  8
Copy_of_COVID19-Face-Shields
 62
1
100
AcDbPolyline
 90
4
 70
1
 10
912.545767
 20
709.143842
 30
0.0
 10
941.345766
 20
709.143842
 30
0.0
 10
941.345766
 20
685.332910
 30
0.0
 10
912.545767
 20
685.332910
 30
0.0
  0
LWPOLYLINE
  5
110
100
AcDbEntity
  8
Copy_of_COVID19-Face-Shields
 62
1
100
AcDbPolyline
 90
4
 70
1
 10
980.483897
 20
709.143842
 30
0.0
 10
1005.443896
 20
709.143842
 30
0.0
 10
1005.443896
 20
685.332910
 30
0.0
 10
980.483897
 20
685.332910
 30
0.0
  0
ENDSEC
  0
SECTION
  2
OBJECTS
  0
DICTIONARY
  5
C
330
0
100
AcDbDictionary
  3
ACAD_GROUP
350
D
  3
ACAD_MLINESTYLE
350
17
  0
DICTIONARY
  5
D
330
C
100
AcDbDictionary
  0
DICTIONARY
  5
1A
330
C
100
AcDbDictionary
  0
DICTIONARY
  5
17
330
C
100
AcDbDictionary
  3
STANDARD
350
18
  0
DICTIONARY
  5
19
330
C
100
AcDbDictionary
  0
ENDSEC
  0
EOF
